/* XPM */
static char *c2e558a282d042fbbfca0d02d0072175FA2xiUumjHXhNJY6[] = {
/* columns rows colors chars-per-pixel */
"32 32 122 2 ",
"   c gray1",
".  c gray2",
"X  c #0A0702",
"o  c gray4",
"O  c gray5",
"+  c #110B01",
"@  c #1A1205",
"#  c #1A160F",
"$  c #1C160D",
"%  c #101010",
"&  c #151411",
"*  c #151515",
"=  c #181510",
"-  c #191817",
";  c #1D1B17",
":  c #181818",
">  c #1D1D1D",
",  c #352304",
"<  c #33240B",
"1  c #3A280C",
"2  c gray13",
"3  c #282828",
"4  c #2F2F2F",
"5  c gray19",
"6  c gray21",
"7  c #3E3E3E",
"8  c #4D3306",
"9  c #4F3711",
"0  c #5F4314",
"q  c #684508",
"w  c #7D520A",
"e  c #44433F",
"r  c #524838",
"t  c #5D513D",
"y  c #6C5B3E",
"u  c #424241",
"i  c #444342",
"p  c #464541",
"a  c #444444",
"s  c #494846",
"d  c #4C4B47",
"f  c #4B4A48",
"g  c #4C4B49",
"h  c #4E4D4B",
"j  c #4F4E4C",
"k  c #504F4B",
"l  c #504F4D",
"z  c #565149",
"x  c #51504C",
"c  c #51504E",
"v  c #54534F",
"b  c #535250",
"n  c #545351",
"m  c #555452",
"M  c #575654",
"N  c #585753",
"B  c #585755",
"V  c #595854",
"C  c #595856",
"Z  c #5C5B57",
"A  c #5B5A58",
"S  c #5C5B5A",
"D  c #5D5C58",
"F  c #5E5D5B",
"G  c #5F5E5C",
"H  c #605F5D",
"J  c #61605E",
"K  c #626161",
"L  c #646361",
"P  c #666562",
"I  c #666564",
"U  c #686765",
"Y  c #696867",
"T  c #6B6B6A",
"R  c #6C6B69",
"E  c #6D6C6B",
"W  c #6D6D6D",
"Q  c #706F6D",
"!  c gray45",
"~  c #757473",
"^  c gray46",
"/  c #787775",
"(  c #7B7A77",
")  c #7A7978",
"_  c #7D7C7B",
"`  c #7D7D7C",
"'  c #94681F",
"]  c #A06A0D",
"[  c #F9A414",
"{  c #83817C",
"}  c gray51",
"|  c #868583",
" . c #858584",
".. c #898886",
"X. c gray54",
"o. c #8E8E8E",
"O. c #908F8E",
"+. c #91908F",
"@. c #939391",
"#. c #959493",
"$. c gray59",
"%. c #9C9994",
"&. c gray60",
"*. c #9E9E9D",
"=. c #A1A09F",
"-. c #A4A4A2",
";. c gray65",
":. c #ABA9A6",
">. c #AAA9A9",
",. c #ADACAC",
"<. c #B9B8B7",
"1. c gray72",
"2. c #BEBEBD",
"3. c #C0C0C0",
"4. c #CBCBCB",
"5. c #CECECE",
"6. c #DADADA",
"7. c #E3E3E2",
"8. c #ECEBEB",
"9. c #ECECEC",
"0. c #F2F2F1",
"q. c white",
/* pixels */
"s j m m n c g j j b B M m h c f k h c m v m N m c s s h v c e p ",
"c m B C A C b c C C C B B b C h h c C F C C Z F m c h h N C m h ",
"n M B C A C m m C M m m S <.5 4.F C F F C N m C m m c C C m C N ",
"c M M m m b m m b c c c ,.G : . 6.E m m C C m m F v c Z F N m h ",
"j B M m m c n n c b n l c 4.6 *   0.v c N C v c m v C N m C c p ",
"l B n m M n n h n m m j h 4.6 j f >.| m m m c k h c Z m c c h c ",
"c C b n m c n h b b c h c 4.6 3.6.* 7.m m N N m c h h c N v k c ",
"m G M n c j M m c c l R =.X.! 5.6.! | ;.( C C c k m c c N m m c ",
"n C m m h b m c c m Y T A 3 ,.6.6.4.> G I ^ m B A C n n b b b g ",
"m S B C n n n m j I Y 2 % * a j j f * % > G Q C G A m M B M b a ",
"c C m M m b n C U T : * : : : : : : : : * : A Y n n b B A A M g ",
"b S B m B m B L T % * : : : : : : : : : : * % l m b m B m n n h ",
"c F C m M m M A . : : : : : : : : : : : : : : o i M B B c l n c ",
"g M B b M n C >.. : : : : : 3 4 : : : : : 2 2 o  .P m m c c m l ",
"h c m n B m )   : : : : : 6 6.q.f : : : 3 *.$.3 . P m n l j j a ",
"j h l l n l 1.  : : : : : 1.q.q.q.: : : W q.q.I . *.M b l j l s ",
"h d c Z v c 8.  : : : : : ) 9.q.;.: : : j 5.5.f . 5.F B n l h s ",
"h k c C m C 7.  : : : : : : ^ o.: : : : : j j : . 4.F C C B m l ",
"h C C C m N -.  : : : : : : : : : : : : : : : : . @.C m C S C c ",
"s m C m v m P &.o : : : : : : : : : : : : : : O } Q c c m C B l ",
"d m m N m m v @.. : : : : : : : : : : : : : : o ` J b b b m m l ",
"m N m N m m k P &.o : : : : : : : : : : : : O } / M m m n n m b ",
"m m m C m N m m _ ,.o : : : : : : : : : : O X.+.B n m M n c c c ",
"C Z F F v m m N _ :.+ $ ; : : : : : : - = X ..O.B c n B b h h j ",
"b C G n A B c Y %.q [ [ w # * * * * & 1 ' ' 9 { / b b C C g c m ",
"b M m l n n n _ , [ [ [ [ 8 6 u u 7 @ ' ' ' ' < T A c n n h m C ",
"h m c b m n m ~ t ] ] ] ] y >.2.3.1.z 0 0 0 0 r E C n c n c N m ",
"b S m A C C B F  .s K G u  .Y c c F #.7 A K h ) K b c j b b m h ",
"m F m C m C M l m ~ O.X.Q A n j v C F R | O.) A m m n l m C F h ",
"h m m C B C M l b n m M C B c s v C H S m B A M b b c j m m m p ",
"h l A F F A B m B B C F G A n j c m F F B C S C m m B M A B m s ",
"c g B M m h h n c b m C M b c c d k B C n n m c c l c c n c m h "
};
