/* XPM */
static char *_cb38b9ab0274fa493cbcd318d1dd0f4ZxGV2Ybp0vBYOMFL[] = {
/* columns rows colors chars-per-pixel */
"32 32 144 2 ",
"   c #010101",
".  c gray1",
"X  c #070502",
"o  c #060606",
"O  c gray3",
"+  c #0C0C0C",
"@  c #0E0E0E",
"#  c gray6",
"$  c gray7",
"%  c gray8",
"&  c #151515",
"*  c #181818",
"=  c gray10",
"-  c #1B1B1B",
";  c gray11",
":  c #1E1E1E",
">  c gray12",
",  c #38270E",
"<  c #2F281D",
"1  c #232323",
"2  c #272727",
"3  c #2A2A2A",
"4  c #2F2F2F",
"5  c #353535",
"6  c #393939",
"7  c #3A3A3A",
"8  c #3C3C3C",
"9  c #3F3F3F",
"0  c #5C3C0A",
"q  c #583F16",
"w  c #44433F",
"e  c #584D3B",
"r  c #5D523F",
"t  c #414141",
"y  c #474642",
"u  c #474644",
"i  c gray28",
"p  c #4A4945",
"a  c #494846",
"s  c #4C4B47",
"d  c #4B4B4B",
"f  c #4C4B49",
"g  c #4D4C48",
"h  c #4E4D4B",
"j  c #4F4E4C",
"k  c #504F4B",
"l  c #504F4D",
"z  c #51504C",
"x  c #51504E",
"c  c #54534F",
"v  c #515151",
"b  c #535250",
"n  c #535353",
"m  c #545351",
"M  c #565551",
"N  c #555452",
"B  c #575652",
"V  c #575654",
"C  c #585753",
"Z  c #585755",
"A  c #595854",
"S  c #5A5955",
"D  c #5A5957",
"F  c #5B5A56",
"G  c #5B5A58",
"H  c #5C5B5A",
"J  c #5D5C58",
"K  c #5D5C5A",
"L  c #5F5E5A",
"P  c #5F5E5C",
"I  c #605F5D",
"U  c #61605E",
"Y  c #63625E",
"T  c #606060",
"R  c gray39",
"E  c #646462",
"W  c #646464",
"Q  c #676664",
"!  c gray40",
"~  c #696965",
"^  c #6C6C6C",
"/  c #71706F",
"(  c gray44",
")  c #747371",
"_  c #7A7978",
"`  c #7C7C7C",
"'  c #7E7E7E",
"]  c #A76D12",
"[  c #B67714",
"{  c #B87814",
"}  c #825C20",
"|  c #855E21",
" . c #8A6122",
".. c #936824",
"X. c #F9A31B",
"o. c #8A847B",
"O. c #8C867C",
"+. c #838381",
"@. c #858482",
"#. c #878785",
"$. c #8A8A88",
"%. c #8C8C8A",
"&. c #8D8D8D",
"*. c #90908E",
"=. c #919190",
"-. c #939290",
";. c #939393",
":. c #989796",
">. c #9A9997",
",. c gray60",
"<. c #9B9A9A",
"1. c #9F9F9E",
"2. c #A1A09F",
"3. c #A0A0A0",
"4. c #A4A3A3",
"5. c #A4A4A2",
"6. c #A4A4A4",
"7. c gray65",
"8. c #A9A9A7",
"9. c #AAAAAA",
"0. c gray67",
"q. c #B1B1B0",
"w. c #B2B2B0",
"e. c #B2B2B1",
"r. c #B4B4B3",
"t. c #B6B6B4",
"y. c #B7B7B7",
"u. c #BBBBBA",
"i. c #BEBEBD",
"p. c #C3C2C1",
"a. c #C4C4C2",
"s. c #C7C6C6",
"d. c #C8C7C7",
"f. c #D6D6D5",
"g. c gray85",
"h. c #DADADA",
"j. c #DFDFDF",
"k. c #E0E0DF",
"l. c #E2E2E2",
"z. c gray89",
"x. c #EAEAEA",
"c. c #ECECEB",
"v. c gray97",
"b. c white",
/* pixels */
"a j N N m l f j h b Z V N h U v.;.d l N c C C c c a s g c z w y ",
"x N V D G D m x D D D Z Z / y.o ' o.D K F A F J c c s z C F c z ",
"m V Z D D D N N D V N N #.&.# & # g.I F F C C A c A c F A c F C ",
"x V V N N b N V b x x _ ' : O 6 1.c p.N A C C c J c z F I C C g ",
"j Z V V N x N m x b N x r.3 l.d g.> c.x C A c c A c A C C A z w ",
"l Z m N V m m h N N N H 4.s.* g.g.g.- a.:.D x z z z S c k z g z ",
"x G b m N x m h b b D ,.9 # 2 ' ' ' - # Z 5.C c c g z c A c z z ",
"N P V m b j V N x x s.5 * : : : > > > : * 8 a.c z C z z A c A c ",
"m D N N h b m x x j.. : : : : : : - : : : : 1 i.D C m m m x m f ",
"N K Z G m m m N e.4 : : : : W b.,.2 : : t c.d W :.F N Z Z Z m y ",
"x D N V N m m ) ;.1 : : : : b.b.b.t : : 9.b.j.6 <.K c Z G G N f ",
"b G D N Z m Z *.( * : : : : W b.,.1 : - t x.f $ 5.E N Z m m m j ",
"x P D N V N Z %.( * : : : : : : : : : : : : : $ 6.Q Z Z m x m x ",
"f V Z b V m N #.( * : : : : : : : : : : : : : $ 6.Q N m x x m x ",
"h x N m Z N D $.( * : : : : : : : : : : : : : $ 6.Q m m l l x u ",
"h h x l m l N K 4.3 : : : : : : : : : : : > * b ;.m x x l j x a ",
"s g c D c z z z q.5 * < : : : : : : : : : : * W %.j N N N j j d ",
"s z c A A A c z b e.d * : : : : : : : : : & K 2.b b V V G V N j ",
"z C A A c A z z b x 2.T * : : : : : : : % ` >.N b b b V D G D x ",
"p c C C c C c c C n U 9.. o : : : : : o +.+.m C V b x b N V D j ",
"g c A A c C c C Z K k.0 X.X.. # o X ...., j.N D D b b b b V N j ",
"c A c C C c z z / 8.0 X.X.{ P z.C | ..} e u.D N V V N V b N N b ",
"A A c A c C c c y.4 X.X.] o.9.7.q .. .r >.K D D V b N V b x x b ",
"A F J U c C C A r.4 X.[ O.@.~ 6.q ..< e.U c D N N b b D b h h j ",
"c A K N F V x N Z f.& K >.N N %.^ & l.N D Z m Z D x b D D d l N ",
"c C n x N N N D N Z d.2.N N l h >.d.x x N N x N G b b b b h c D ",
"h N x c N N N D N N N x m N x a c N x l x N N C V N N x m x A c ",
"x D D D D D V N m D D N N Z N m c A N x x Z Z N x b b j c c C g ",
"N I N D N D V x x N N N N N m l c A D c x m N x C N N x N H J h ",
"h N N D D D N x x m N Z D Z x a c D I H N Z H Z x m x h N N c y ",
"h x D K K D D m D Z D K K H c h z c K K Z D H D N Z D N F D N a ",
"l h V D N h h b x c N D Z x x x g k D D m m m x x x x x c c c g "
};
