/* XPM */
static char *result[] = {
/* columns rows colors chars-per-pixel */
"32 28 163 2 ",
"   c black",
".  c #000C0D",
"X  c #001415",
"o  c #001D1E",
"O  c #091B1D",
"+  c #1F191B",
"@  c #380000",
"#  c #220E11",
"$  c #291517",
"%  c #351A1C",
"&  c #1E2D2D",
"*  c #202B2B",
"=  c #2B292A",
"-  c #322728",
";  c #372526",
":  c #213132",
">  c #2D3132",
",  c #420000",
"<  c #4A0000",
"1  c #530000",
"2  c #5C0002",
"3  c #421C1F",
"4  c #581015",
"5  c #581519",
"6  c #59181C",
"7  c #610000",
"8  c #6A0000",
"9  c #740000",
"0  c #7A0000",
"q  c #77000F",
"w  c #740310",
"e  c #6D1B1F",
"r  c #721017",
"t  c #571D20",
"y  c #591F22",
"u  c #452C2D",
"i  c #5F2D2F",
"p  c #48393A",
"a  c #5A3234",
"s  c #672428",
"d  c #662B2D",
"f  c #6D3638",
"g  c #693234",
"h  c #723335",
"j  c #7A373A",
"k  c #504F50",
"l  c #535253",
"z  c #7E4043",
"x  c #7F484A",
"c  c #775E5E",
"v  c #705455",
"b  c #776162",
"n  c #6B7474",
"m  c #747071",
"M  c #820000",
"N  c #8C0000",
"B  c #84000C",
"V  c #940000",
"C  c #9C0000",
"Z  c #9E000C",
"A  c #900B16",
"S  c #871119",
"D  c #A40000",
"F  c #AC0003",
"G  c #B40001",
"H  c #BE0000",
"J  c #A70013",
"K  c #AD0215",
"L  c #B1151F",
"P  c #911920",
"I  c #B91E27",
"U  c #B41C24",
"Y  c #872126",
"T  c #84272B",
"R  c #922025",
"E  c #9C2D32",
"W  c #8F3639",
"Q  c #843C3E",
"!  c #893D3F",
"~  c #B6292F",
"^  c #B82D33",
"/  c #B03B3F",
"(  c #C01822",
")  c #C02930",
"_  c #CB353B",
"`  c #D7363C",
"'  c #D83038",
"]  c #9A3D40",
"[  c #A33D41",
"{  c #B43E42",
"}  c #804648",
"|  c #8F4C4E",
" . c #914043",
".. c #9D4346",
"X. c #934B4E",
"o. c #815758",
"O. c #955759",
"+. c #995C5E",
"@. c #A64548",
"#. c #A04E50",
"$. c #876265",
"%. c #916768",
"&. c #9A6466",
"*. c #8E7374",
"=. c #957475",
"-. c #9E7475",
";. c #A76769",
":. c #B26264",
">. c #BE6467",
",. c #A57779",
"<. c #A47C7D",
"1. c #B57274",
"2. c #C44549",
"3. c #C95155",
"4. c #C55D60",
"5. c #C36365",
"6. c #CE7275",
"7. c #8A7F80",
"8. c #B07E80",
"9. c #84898A",
"0. c #948687",
"q. c #908688",
"w. c #918889",
"e. c #8B9192",
"r. c #949393",
"t. c #989192",
"y. c #9A9798",
"u. c #9D9B9B",
"i. c #979B9B",
"p. c #BC898A",
"a. c #A69999",
"s. c #B39C9D",
"d. c #A3A3A3",
"f. c #A9A8A8",
"g. c #A8A8A8",
"h. c #BDA0A1",
"j. c #B0ADAD",
"k. c #ADB4B4",
"l. c #B5B2B3",
"z. c #B6B8B8",
"x. c #BBBBBC",
"c. c #C48B8C",
"v. c #D88082",
"b. c #D38385",
"n. c #C09293",
"m. c #C4BCBC",
"M. c #CCB4B4",
"N. c #D4B4B5",
"B. c #E3BABB",
"V. c #C2C3C3",
"C. c #C8C7C7",
"Z. c gray79",
"A. c #D6C1C1",
"S. c #CFD3D3",
"D. c #D4D4D4",
"F. c #DCDEDE",
"G. c #D8D2D2",
"H. c #E3E3E3",
"J. c #E6E8E8",
"K. c #EDECEC",
"L. c #F3F3F3",
"P. c #FBFBFB",
"I. c None",
/* pixels */
"I.I.I.I.I.I.I.I.I.I.I.I.I.I.I.I.I.I.I.I.I.I.I.I.I.I.I.I.I.I.I.I.",
"I.I.I.I.I.I.I.I.I.I.I.I.I.I.I.I.I.I.I.I.I.I.I.I.I.I.I.I.I.I.I.I.",
"I.I.I.I.I.I.I.I.I.I.I.I.I.I.N.K.F.k.x.d.I.I.I.I.I.I.I.I.I.I.I.I.",
"I.I.I.I.I.I.I.I.I.I.I.I.I.5.H  .s.6.p.I.I.I.I.I.I.I.I.I.I.I.I.I.",
"I.I.I.I.I.I.I.I.I.I.I.I.l.3.J 1 E H V o.x.M.I.I.I.I.I.I.I.I.I.I.",
"I.I.I.I.I.I.I.I.I.I.I.I.h.` C d 2.I 9 d.w.0 I.I.I.I.I.I.I.I.I.I.",
"I.I.I.I.I.I.I.I.I.I.I.x.*.P w h _ F } z.j V I.I.I.I.I.I.I.I.I.I.",
"I.I.I.I.I.I.I.I.I.I.V &.l . O % s 1 a.y.8 ^ I.I.I.I.I.I.I.I.I.I.",
"I.I.I.I.I.I.I.I.I.V 9 < 1 3 6 r 7 p z.l @ +.I.I.I.I.I.I.I.I.I.I.",
"I.I.I.I.I.I.I.I.I.2 v *.| 8 A L M -.u.  X n I.I.I.I.I.I.I.I.I.I.",
"I.I.I.I.I.I.I.I.s.q.x.x.f.=.9 S 9 | c 1 0 I.I.I.I.I.I.I.I.I.I.I.",
"I.I.I.I.I.I.I.I.c D.D.Z.x.z.%.< e #.f N 2.I.I.I.I.I.I.I.I.I.I.I.",
"I.I.I.I.I.I.I.I.g.J.H.H.G.V.s.w ] | u D b.I.I.I.I.I.I.I.I.I.I.I.",
"I.I.I.I.I.I.I.I.Z.K.C.x.x.l.f.] Y + = 1 s.I.I.I.I.I.I.I.I.I.I.I.",
"I.I.I.I.I.I.I.I.x.P.P.H.H.F.m.W Y - * . I.I.I.I.I.I.I.I.I.I.I.I.",
"I.I.I.I.I.I.I.I.y.P.P.P.L.J.m.N [ i 0 :.I.I.I.I.I.I.I.I.I.I.I.I.",
"I.I.I.I.I.I.I.I.o.S.P.L.L.J.;.M g ; M c.I.I.I.I.I.I.I.I.I.I.I.I.",
"I.I.I.I.I.I.I.I.N.=.V.H.G.,.1 O o : X i.I.I.I.I.I.I.I.I.I.I.I.I.",
"I.I.I.I.I.I.I.I.I.B.K O.j N S T a 5 } m.I.I.I.I.I.I.I.I.I.I.I.I.",
"I.I.I.I.I.I.I.I.I.s.V ,  .^ D { h C 6.V.V.I.I.I.I.I.I.I.I.I.I.I.",
"I.I.I.I.I.I.I.I.I.n X : j L K ..4 F p.k.l.I.I.I.I.I.I.I.I.I.I.I.",
"I.I.I.I.I.I.I.I.I.5.6 * o $ 6 u - i w.g.g.I.I.I.I.I.I.I.I.I.I.I.",
"I.I.I.I.I.I.I.I.I.` V } Q # & > > k r.r.I.I.I.I.I.I.I.I.I.I.I.I.",
"I.I.I.I.I.I.I.I.I.H 0 :.' F @.d Z 1.9.a.I.I.I.I.I.I.I.I.I.I.I.I.",
"I.I.I.I.I.I.I.I.I.I.j 5.( U ..B ) <.e.I.I.I.I.I.I.I.I.I.I.I.I.I.",
"I.I.I.I.I.I.I.I.I.I.I.5.G ^ O.V / q.I.I.I.I.I.I.I.I.I.I.I.I.I.I.",
"I.I.I.I.I.I.I.I.I.I.I.I.I.$.m t.I.I.I.I.I.I.I.I.I.I.I.I.I.I.I.I.",
"I.I.I.I.I.I.I.I.I.I.I.I.I.I.I.I.I.I.I.I.I.I.I.I.I.I.I.I.I.I.I.I."
};
