/* XPM */
static char *_c52f21de02b4b218b4170b9eea7d4f9gWYzPppYepdBMtv8[] = {
/* columns rows colors chars-per-pixel */
"32 32 101 2 ",
"   c #020202",
".  c gray2",
"X  c #080602",
"o  c #0C0A07",
"O  c gray4",
"+  c gray6",
"@  c #111111",
"#  c gray9",
"$  c #1E1E1E",
"%  c #332207",
"&  c #222222",
"*  c gray14",
"=  c #353535",
"-  c gray22",
";  c #453111",
":  c #4E3713",
">  c #4E3816",
",  c #47371D",
"<  c #5A3F16",
"1  c #57401D",
"2  c #44433F",
"3  c #464541",
"4  c #464646",
"5  c #494846",
"6  c #4C4B47",
"7  c #4B4A48",
"8  c #4C4B49",
"9  c #4E4D4B",
"0  c #4F4E4C",
"q  c #504F4B",
"w  c #504F4D",
"e  c #51504C",
"r  c #51504E",
"t  c #54534F",
"y  c #535250",
"u  c #545351",
"i  c #555452",
"p  c #575654",
"a  c #585753",
"s  c #585755",
"d  c #595856",
"f  c #5C5B57",
"g  c #5B5A58",
"h  c #5C5B59",
"j  c #5D5C58",
"k  c #5D5C5A",
"l  c #5F5E5C",
"z  c #605F5D",
"x  c #61605E",
"c  c #626262",
"v  c #666563",
"b  c #6D6D6D",
"n  c #72716F",
"m  c gray45",
"M  c #747372",
"N  c #767573",
"B  c #777674",
"V  c #787776",
"C  c #797977",
"Z  c #7B7B78",
"A  c #7C7B7A",
"S  c #7D7C7A",
"D  c #7E7D7D",
"F  c #85570E",
"G  c #895B12",
"H  c #8A5F1D",
"J  c #936824",
"K  c #DD921B",
"L  c #E0941B",
"P  c #F5A11B",
"I  c #F9A31B",
"U  c #81807E",
"Y  c #828180",
"T  c #858483",
"R  c gray53",
"E  c #888785",
"W  c gray54",
"Q  c #8D8D8D",
"!  c #979694",
"~  c #9D9D9D",
"^  c #A0A0A0",
"/  c #A7A7A6",
"(  c #A8A7A7",
")  c #A9A9A9",
"_  c #AFAFAF",
"`  c #B1B1B0",
"'  c gray71",
"]  c gray73",
"[  c #C3C3C3",
"{  c #CACACA",
"}  c gray82",
"|  c #D7D7D6",
" . c gray85",
".. c #E1E1E1",
"X. c #E4E4E4",
"o. c gray92",
"O. c gray93",
"+. c #F1F1F1",
"@. c gray97",
"#. c #F8F8F8",
"$. c white",
/* pixels */
"5 0 i i u r 8 0 0 y s p i 9 r 7 q 9 r i i i a i r 5 5 9 t r 2 3 ",
"r i s d g d y r d d d s s y B g 9 r d k d d f k i r 9 9 a d i 9 ",
"u p s d g d i i d p i i d N Q ( t d k k d a i d i i r d d i d a ",
"r p p i i y i i y r r r k _ $ & X.d i i d d i i k t r f k a i 9 ",
"0 s p i i r u u r y u w r Y B # . } t r a d t r i t d a i d r 3 ",
"w s u i p u u 9 u i i 0 9 Y B # . } i i i i r q 9 r k i r r 9 r ",
"r d y u i r u 9 y y r 9 r T B b Y D E i i a a i r 9 9 r i t q r ",
"i l p u r 0 p i r r w 0 i E B ) | 4 ) d i d d r q i r r a i i r ",
"u d i i 9 y i r r i y x o.) B  . .^ Z O.x s i s g d u u y y y 8 ",
"i h s d u u u i 0 i M / O + c ~ ~ Z # O _ U p d l g i p s p y 4 ",
"r d i p i y u d k n Q * $ $ $ $ $ $ $ $ @ Y R s u u y s g g p 8 ",
"y h s i s i s z v / & $ $ $ $ $ $ $ $ $ $ $ R V 9 y i s i u u 9 ",
"r k d i p i p d O.O $ $ $ $ $ $ $ $ $ $ $ $ + ] i i s s r w u r ",
"8 p s y p u i S ) + $ $ $ $ $ $ $ $ $ $ $ $ # R E i i i r r i w ",
"9 r i u s i d ..  $ $ $ $ $ $ $ $ $ $ $ $ $ $ O @.i u u w 0 0 4 ",
"0 9 w w u w i ..  $ $ $ $ $ $ / { $ $ $ $ 7 Z O @.0 r y w 0 w 5 ",
"9 6 r f t r q ..  $ $ $ $ $ ! $.$.[ $ $ $ $.$.4 @.0 i s u w 9 5 ",
"9 q r d i d t ..  $ $ $ $ $ B +.$.! $ $ $ } ..= @.r i d d s i w ",
"9 d d d i a r ! Z # $ $ $ $ $ m W $ $ $ $ - 0 c / y u i d h d r ",
"5 i d i t i t i O.O $ $ $ $ $ $ $ $ $ $ $ $ + ] | y r r i d s w ",
"6 i i a i i r a v _ @ $ $ $ $ $ $ $ $ $ $ #        .y y y i i w ",
"i a i a i i q r i Z Y $ $ $ $ , I I H $ # X < J J = ` i u u i y ",
"i i i d i a i i a i R R + # 1 L I K > +   < J J : R T p u r r r ",
"d f k k t i i i i d d S ] R G I P % c ]   J J ; ' B u s y 9 9 0 ",
"y d l u g s r i p d d d c ' F I o #./ |   J : ' x r y d d 8 r i ",
"y p i w u u y d p p i u i A Y - | i y r  .- R C d y r u u 9 i d ",
"9 i r y i u i d i i u r y i Y ) i i y 0 y ` T i p i u r u r a i ",
"y h i g d d s i i d d i i s p r r i i w r i p i r y r 0 y y i 9 ",
"i k i d i d p w r i i u u i u 0 t d d u r u i y i i u w i d k 9 ",
"9 i i d s d p w y u i p d s r 5 t d z h i s g p y y r 0 i i i 3 ",
"9 w g k k g s i s s d k l g u 0 r i k k s d h d i i s p g s i 5 ",
"r 8 s p i 9 9 u r y i d p y r r 6 q s d u u i r r w r r u r i 9 "
};
