/* XPM */
static char *_5cc1f75aa624891818e4efbef03a3ac0x4wEb3i7EyMwdw1[] = {
/* columns rows colors chars-per-pixel */
"32 32 101 2 ",
"   c #030000",
".  c #0D0301",
"X  c #1E0303",
"o  c #161616",
"O  c #1B1B1B",
"+  c #250404",
"@  c #2A0404",
"#  c #2C0C0C",
"$  c #340505",
"%  c #380705",
"&  c #380E0E",
"*  c #3C1E1E",
"=  c #232323",
"-  c #2A2929",
";  c #343434",
":  c #3D3C3B",
">  c #460F05",
",  c #530707",
"<  c #550808",
"1  c #5C0808",
"2  c #441C02",
"3  c #4D1906",
"4  c #5C1E07",
"5  c #441616",
"6  c #650909",
"7  c #7F1F0A",
"8  c #5B2F1E",
"9  c #682008",
"0  c #742608",
"q  c #7B2909",
"w  c #7F3404",
"e  c #482929",
"r  c #433C3A",
"t  c #6D3636",
"y  c #713A3A",
"u  c #5E402D",
"i  c #43423F",
"p  c #61463B",
"a  c #454542",
"s  c #4C4442",
"d  c #4A4946",
"f  c #4E4D4B",
"g  c #504847",
"h  c #504F4C",
"j  c #52514E",
"k  c #555452",
"l  c #585754",
"z  c #5A5956",
"x  c #5D5C5A",
"c  c #684D42",
"v  c #615E5C",
"b  c #62615E",
"n  c #736155",
"m  c #72635A",
"M  c #656463",
"N  c #696665",
"B  c #696866",
"V  c #6D6C6A",
"C  c #706F6D",
"Z  c #72716F",
"A  c #747472",
"S  c #797474",
"D  c #7C7C7A",
"F  c #813404",
"G  c #9C330B",
"H  c #A7370C",
"J  c #8D3333",
"K  c #903636",
"L  c #943A3A",
"P  c #A54305",
"I  c #E05B07",
"U  c #9C4343",
"Y  c #8F5959",
"T  c #AE5656",
"R  c #B05858",
"E  c #807F7D",
"W  c #C06A6A",
"Q  c #C77070",
"!  c #CB7575",
"~  c #D07A7A",
"^  c #83827F",
"/  c #868584",
"(  c #8E8D8B",
")  c #949493",
"_  c #999897",
"`  c #9B9B9A",
"'  c #A19F9E",
"]  c #A4A4A2",
"[  c #ACACAB",
"{  c #B0B0AF",
"}  c #B4B4B3",
"|  c #BCBBBA",
" . c #E38E8E",
".. c #C4C4C3",
"X. c #CDCCCC",
"o. c #D0D0CF",
"O. c #D3D3D2",
"+. c #DADADA",
"@. c #E5E4E4",
"#. c #EAEAE9",
"$. c #F3F3F2",
/* pixels */
"d f k k k j f f f k k k k h h d h h j l k k l k h d d f k j i i ",
"j k l z z l k j l x x k x Z [ +.$.@.| E z z x x j j g f l z l h ",
"k l l l x l k k x k k M ' x a x M x h a { C z l k l j z z k z l ",
"h l l k k k k k j k V : V e # $ $ $ $ & S i M v v j j z x l k p ",
"h l l k k j k k x V k # + , 6 6 1 6 6 1 # + s N n k z l k z j i ",
"h l k k k k k j B B X 1 6 6 6 6 6 6 6 6 6 6 @ h B z z l j j i j ",
"j z j k k j k M M X 6 6 6 6 6 6 6 6 6 6 6 6 6 $ i V j j l j k k ",
"k x l k j h M k X 6 6 6 6 6 6 6 6 6 6 6 6 6 6 6 # i B j l l l j ",
"k z k l h l : X 1 6 6 6 6 6 6 6 6 6 6 6 6 6 6 6 4 % = x k k j d ",
"k x l x j ( D X 6 6 6 6 6 6 6 6 6 6 6 6 6 6 6 6 6 % d [ l l k d ",
"j l k k b f * < 6 6 6 6 6 6 6 6 6 6 6 6 6 6 6 6 6 1 5 r V z k d ",
"k x l k E f # 6 6 6 6 6 6 6 6 6 6 6 6 6 6 6 6 6 6 6 % - _ k k f ",
"j x x k ` B + 6 6 6 6 6 U R R R K 6 6 6 6 6 6 6 K R t ; o.f k h ",
"f l l j } D + 6 6 6 6 6 U ~  . .! K 6 6 6 6 6 J Q  .Y i $.j k h ",
"f j k k { A # 6 6 6 6 6 6 U ~  . .! J 6 6 6 J !  .! y i #.f h a ",
"f f h h ) x X 6 6 6 6 6 6 6 U W W W R 6 6 6 T W W L % ; | f h f ",
"j i j z V l * 1 6 6 6 6 6 6 6 6 6 6 6 6 6 6 6 6 6 1 5 i E h f d ",
"p j j z k ] ) X 6 6 6 6 6 6 6 6 6 6 6 6 6 6 6 6 6 $ x X.l l k h ",
"j z l l k A l X 6 6 6 6 6 6 6 6 6 6 6 6 6 6 6 6 6 $ ; E k x x h ",
"i k l k k z ^ ( X 6 6 6 6 6 6 6 6 6 6 6 6 6 6 6 $ v ` l k x l h ",
"f k l l l l v ( ' X 6 6 6 6 6 6 6 6 6 6 6 6 6 $ S ` B j k k k f ",
"z l k l j l g ^ o.  + 1 6 6 6 6 6 6 6 6 6 6 $ . ) { k l k k k k ",
"l l k l k l A ) m w w H > , 6 6 6 6 6 6 @ F 6 9 c / / l j h h k ",
"z z x x j b Z n w I I I w > $ $ $ $ $ % 3 G H H 7 g A B j f f f ",
"j z x k x C j 2 I I I I I 2 : x x x f . H H H H H 4 ; D l f h k ",
"j l k j k M x u P G P P P u ) o.O.O.} i q q 0 0 7 8 h Z k f k l ",
"i k j j k k E ( O = = O o _ / a k l B ..o O = = O M ) j k h l k ",
"z b k x z z l M ) O.@.| / M l k k k k k A } +.+.] V j h k j k f ",
"k x k z k z k j j k k k k l k h k z z k j k k j k l k h k l x h ",
"f k k z z z l h k k k k l l j a j z v x k l x k j j h h k k k a ",
"f f z x x z l k k l x x v x k f j k x x l l x l l k l l z l l d ",
"k f l l l f h k j k k l k j j j d h l l k k k j j h j h k j l d "
};
