/* XPM */
static char *result[] = {
/* columns rows colors chars-per-pixel */
"32 32 233 2 ",
"   c black",
".  c #080000",
"X  c #0A0000",
"o  c #0E0000",
"O  c #0F0000",
"+  c #100000",
"@  c #110000",
"#  c #130000",
"$  c #170000",
"%  c #1E0000",
"&  c #1F0000",
"*  c #131300",
"=  c #141400",
"-  c #1D1D00",
";  c #1E1E00",
":  c #1F1F00",
">  c #200000",
",  c #220000",
"<  c #270000",
"1  c #260300",
"2  c #280000",
"3  c #2F0000",
"4  c #290400",
"5  c #2A0600",
"6  c #300000",
"7  c #340000",
"8  c #350000",
"9  c #3A0000",
"0  c #2F1A00",
"q  c #2F1B00",
"w  c #2F1C00",
"e  c #3A1300",
"r  c #3A1400",
"t  c #391212",
"y  c #112A00",
"u  c #1D3000",
"i  c #292900",
"p  c #2F2F00",
"a  c #352400",
"s  c #352500",
"d  c #3E2200",
"f  c #3E2300",
"g  c #392E00",
"h  c #3A2E00",
"j  c #2F3D00",
"k  c #303000",
"l  c #353500",
"z  c #3E3400",
"x  c #3F3400",
"c  c #303B00",
"v  c #3A3A00",
"b  c #3F3F00",
"n  c #3A3A16",
"m  c #002A2A",
"M  c #510000",
"N  c #461C1C",
"B  c #640000",
"V  c #700000",
"C  c #740000",
"Z  c #432A00",
"A  c #432A0C",
"S  c #473000",
"D  c #4C3604",
"F  c #433906",
"G  c #473E18",
"H  c #4B3628",
"J  c #354000",
"K  c #3B4500",
"L  c #3F4900",
"P  c #444400",
"I  c #404900",
"U  c #424C04",
"Y  c #4F4617",
"T  c #4E462F",
"R  c #524022",
"E  c #4A4136",
"W  c #584832",
"Q  c #54453A",
"!  c #676C67",
"~  c gray45",
"^  c #810000",
"/  c #820000",
"(  c #830000",
")  c #890000",
"_  c #8F0000",
"`  c #900000",
"'  c #980000",
"]  c #990000",
"[  c #A30000",
"{  c #A70000",
"}  c #A80000",
"|  c #AA0000",
" . c #B30000",
".. c #B80000",
"X. c #BA0000",
"o. c #BC0000",
"O. c #BF0000",
"+. c #A93000",
"@. c #C40000",
"#. c #C80000",
"$. c #CD0000",
"%. c #D10000",
"&. c #D40000",
"*. c #D50000",
"=. c #D60000",
"-. c #D90000",
";. c #DA0000",
":. c #DD0000",
">. c #DF0000",
",. c #E20000",
"<. c #E30000",
"1. c #E50000",
"2. c #E70000",
"3. c #EA0000",
"4. c #EB0000",
"5. c #EC0000",
"6. c #EE0000",
"7. c #EF0000",
"8. c #F20000",
"9. c #F30000",
"0. c #F70000",
"q. c #FC0000",
"w. c red",
"e. c #FF0600",
"r. c #B74300",
"t. c #B74900",
"y. c #B54F00",
"u. c #BE4E00",
"i. c #BF6900",
"p. c #BF7100",
"a. c #C75200",
"s. c #CE5700",
"d. c #CC5800",
"f. c #CF5D00",
"g. c #FF4700",
"h. c #FF4D00",
"j. c #FF4F00",
"k. c #FF5A00",
"l. c #CA6600",
"z. c #CF6500",
"x. c #D66500",
"c. c #DB6900",
"v. c #DB6F00",
"b. c #DF7400",
"n. c #E06E00",
"m. c #E26F00",
"M. c #E77900",
"N. c #E97B00",
"B. c #FF5628",
"V. c #FF5E39",
"C. c #857878",
"Z. c #857D7D",
"A. c #FF5E4A",
"S. c #B38400",
"D. c #FE8200",
"F. c #F68D00",
"G. c DarkOrange",
"H. c #FC9700",
"J. c #FF9F00",
"K. c #D0A100",
"L. c #D0A300",
"P. c #D2A300",
"I. c #D6A300",
"U. c #D1A500",
"Y. c #D3A400",
"T. c #D3A600",
"R. c #D5A600",
"E. c #D3A800",
"W. c #D6A800",
"Q. c #FFA200",
"!. c orange",
"~. c #FFA700",
"^. c #FFA900",
"/. c #FFAB00",
"(. c #FFAC00",
"). c #FFAD00",
"_. c #EABA00",
"`. c #FFB100",
"'. c #FFB200",
"]. c #FFB500",
"[. c #FFB600",
"{. c #FFBC00",
"}. c #FFBF00",
"|. c #FFD000",
" X c #FFD300",
".X c #FFEA00",
"XX c #FFEF00",
"oX c #FFF400",
"OX c #FFF900",
"+X c #FFFB00",
"@X c #FFFC00",
"#X c #FFFE00",
"$X c yellow",
"%X c #FF8064",
"&X c #FF957D",
"*X c #FF947E",
"=X c #878287",
"-X c #898489",
";X c #A6ABAB",
":X c #B8BCBC",
">X c #FF9A85",
",X c #FF9D88",
"<X c #FFA49B",
"1X c #FFA7A1",
"2X c #FFB4AC",
"3X c #FFB5AD",
"4X c #EDBFB7",
"5X c #FFBBB3",
"6X c #FFC0AF",
"7X c #FFC7BF",
"8X c #FFC6C3",
"9X c #F5CFCC",
"0X c #FFD0C5",
"qX c #FFD6CB",
"wX c #FFD3CC",
"eX c #FFD7D1",
"rX c #FFE1DE",
"tX c #E6E6E6",
"yX c #EFE8E8",
"uX c #EAEDED",
"iX c #EBEEEE",
"pX c #FFEBE3",
"aX c #FFF3ED",
"sX c seashell",
"dX c #F0F3F3",
"fX c #F3F6F6",
"gX c #FFF3F0",
"hX c #FFF3F3",
"jX c #FFF6F3",
"kX c #FFF9F6",
"lX c #F5F8F8",
"zX c #FFFCFC",
"xX c white",
/* pixels */
"7   .   >   ; > L h q   e > 8     k   t e z A l i v 5 e         ",
"D         +     I f W Q d             R T Y 3 h P y > 3         ",
"E         p i > l q                         f : k i             ",
"Z 7 X > 7 f 7       ~ -XC.B         V Z.=X!   n u   y h 8     b ",
"2 N   Z # 9         xXxXxXrX} ;.&...kXxXxXxX        R x r 0   x ",
"  X d 7     :XlXiXuXxXxX8Xg.w.w.w.w.A.eXxXxXtXdXfX;X  - &     + ",
"z   o 3     zXxXxXxXxXxXw.w.w.w.w.w.w.w.xXxXxXxXxXyX    3   + : ",
">         @.<.5.w.w.w.w.w.w.w.w.w.w.w.w.w.w.w.w.3.<.o.      J v ",
"X 8       1.5.5.w.w.w.w.w.w.w.w.w.w.w.w.w.w.w.w.3.7.:.          ",
"  < %     =.w.w.w.w.w.w.w.w.w.w.w.w.w.w.w.w.w.w.w.w.#.          ",
"      m _ 3.w.w.w.w.w.w.aXhXgXgXsXgXjXpXw.w.w.w.w.w.,.(         ",
"      xXxXw.w.w.w.w.w.w.xXxXxXxXxXxXxXxXw.w.w.w.w.w.w.xXxX      ",
">     xXxX6Xw.w.w.%XxXxXxXxXxXxXxXxXxXxXxXxXe.w.w.w.0XxXxX    8 ",
">     xXxXxX2Xw.w.>XxXxXxXxXxXxXxXxXxXxXxXxXk.w.w.wXxXxXxX    > ",
"      xXxXxX1Xw.w.&XxXxXxXxXxXxXxXxXxXxXxXxXj.w.w.7XxXxXxX    q ",
"<     xXxXxX3Xw.w.*XxXxXxXxXxXxXxXxXxXxXxXxXh.w.w.qXxXxXxX    G ",
"g     xXxX<Xw.w.w.,XxXxXxXxXxXxXxXxXxXxXxXxXV.w.w.w.5XxXxX    a ",
"1     xXxXw.w.w.w.*XxXxXxXxXxXxXxXxXxXxXxXxXB.w.w.w.w.xXxX    S ",
"      *.w.w.w.w.0.8.4.xXxXxXxXxXxXxXxXxXxX<.9.q.w.w.w.w.@.    D ",
"      X.6.w.w.w. .[ ) 9XxXxXxXxXxXxXxXxX4XC { O.w.w.w.3.|     r ",
":     $.1.;.>.%.                                -.:.;.2.O.    8 ",
"        @ &     z.v.n.M   ' N.v.b.M.^   / M.m.s.    & $       O ",
"                ~.`.'.`   l.{.(.'.{.t.  y.}.[.Q.                ",
"q H d       f.^.#X$X$XS.  _.$X$X$X$XI.  E.$X$X+XJ.u.        K P ",
"            x.).$X$X$X@XoX$X$X$X$X$X$XOX$X$X$X$X!.a.        ; l ",
"j j         c.].$X$X$X$X$X$X$X$X$X$X$X$X$X$X$X$X/.d.  , 3   5   ",
"o     7     r.H.XX+X$X$X$X$X$X$X$X$X$X$X$X$X$X.XF.+.            ",
"  < < 3         G. X$X$X$X$X$X$X$X$X$X$X$X$X|.D.    f q Z   w   ",
"> 3 3 8         [ p.T.K.L.P.U.Y.Y.R.R.R.R.W.i.]     q o         ",
"  8                                             8 a     *       ",
"# <     > A                 6                   # s c : 3     3 ",
"&   # 8 > e F   > i U +   a 4         f < ;     > y = *   + #   "
};
