/* XPM */
static char *result[] = {
/* columns rows colors chars-per-pixel */
"32 32 165 2 ",
"   c #000000",
".  c #000C00",
"X  c #001700",
"o  c #001216",
"O  c #001A16",
"+  c #001D1B",
"@  c #181C13",
"#  c #2C0000",
"$  c #1F2503",
"%  c #2A271D",
"&  c #312515",
"*  c #242626",
"=  c #2E2924",
"-  c #2F2C29",
";  c #392E24",
":  c #342E29",
">  c #35332D",
",  c #39392D",
"<  c #3C3A34",
"1  c #480000",
"2  c #520000",
"3  c #5A0000",
"4  c #640000",
"5  c #690000",
"6  c #4A3B04",
"7  c #423833",
"8  c #6C4610",
"9  c #4E463E",
"0  c #48483D",
"q  c #55493E",
"w  c #474541",
"e  c #494442",
"r  c #474944",
"t  c #4C4A44",
"y  c #534E45",
"u  c #534E4A",
"i  c #594B48",
"p  c #525045",
"a  c #595347",
"s  c #55534C",
"d  c #59544C",
"f  c #5C5A4D",
"g  c #575751",
"h  c #5A5651",
"j  c #5D5A54",
"k  c #505D5D",
"l  c #5D5B59",
"z  c #60534B",
"x  c #615D56",
"c  c #635E5A",
"v  c #745454",
"b  c #5F6257",
"n  c #606056",
"m  c #64625B",
"M  c #69645F",
"N  c #66695D",
"B  c #546161",
"V  c #666360",
"C  c #6A6662",
"Z  c #6B6963",
"A  c #797A79",
"S  c #850000",
"D  c #9B0000",
"F  c #A50000",
"G  c #AD0000",
"H  c #B50000",
"J  c #BC0000",
"K  c #B91B08",
"L  c #A72B1B",
"P  c #B1281D",
"I  c #C20000",
"U  c #CB0000",
"Y  c #D50000",
"T  c #DB0000",
"R  c #E30000",
"E  c #EC0000",
"W  c #F40000",
"Q  c #FF0000",
"!  c #FF0B00",
"~  c #FB1600",
"^  c #D42512",
"/  c #F92404",
"(  c #D02C22",
")  c #875A00",
"_  c #8C581A",
"`  c #925C1A",
"'  c #9E6A03",
"]  c #9B6518",
"[  c #A86A04",
"{  c #AB6A08",
"}  c #B26F00",
"|  c #A87208",
" . c #B57200",
".. c #BB7302",
"X. c #BB730A",
"o. c #AE6D13",
"O. c #A97414",
"+. c #B67213",
"@. c #B97318",
"#. c #8C5A24",
"$. c #C87A00",
"%. c #DB7D00",
"&. c #E47C00",
"*. c #EA473A",
"=. c #86514E",
"-. c #BD4A44",
";. c #857E7E",
":. c #EB4A44",
">. c #FF4F41",
",. c #EF6357",
"<. c #F76964",
"1. c #F7746D",
"2. c #F77A71",
"3. c #B39512",
"4. c #B2921E",
"5. c #9E8324",
"6. c #B29323",
"7. c #D38400",
"8. c #DC8400",
"9. c #C09D17",
"0. c #E38400",
"q. c #E78800",
"w. c #ED9400",
"e. c #F0AC00",
"r. c #EEB800",
"t. c #FCB500",
"y. c #F2BA00",
"u. c #FDBD00",
"i. c #FFC300",
"p. c #FFC900",
"a. c #F9827E",
"s. c #868384",
"d. c #9A9C9C",
"f. c #A5A7A7",
"g. c #FB8D85",
"h. c #FA908A",
"j. c #FF9A95",
"k. c #FF9C9A",
"l. c #C2A19C",
"z. c #C8AAA8",
"x. c #DBB0AE",
"c. c #FFBDB9",
"v. c #E5C0BD",
"b. c #C4C4C4",
"n. c #C7C9C9",
"m. c #CACCCC",
"M. c #D3CECE",
"N. c #D5D2D3",
"B. c #D6DADA",
"V. c #F8CAC5",
"C. c #FED1CB",
"Z. c #E0DDDD",
"A. c #FFDBD9",
"S. c #DEE7E7",
"D. c #E2E4E3",
"F. c #E4EAEB",
"G. c #EEEEEE",
"H. c #FFE6E3",
"J. c #FFEEEE",
"K. c #EBF4F5",
"L. c #EEF8F8",
"P. c #F1F4F4",
"I. c #FFF4F2",
"U. c #F9FBFA",
"Y. c #FFFFFF",
/* pixels */
"c j l d l h n x C m b l V l x u f b j V M M M m n m x M g t h h ",
"V d h d j j d b N M Z Z V i i d i q j V V Z l m N m j c s y d t ",
"C l h d l n n j N l                         m b m b j j g p s t ",
"M c l x c m c g l l A s.;.v 2 3 3 2 v s.s.A j V b j b m n f h N ",
"x V d M l x         Z.Y.Y.x.D H H F v.Y.Y.N.        Z m m c h m ",
"h l c c 9   f.m.n.b.U.I.a.*.Y T Y Y :.h.Y.K.b.n.m.d.  c c j j j ",
"c z l c t   M.Y.Y.Y.Y.C.R W W W W W W E A.Y.Y.Y.Y.b.  h x j j n ",
"x h a + 3 G K -.^ W E W Q Q Q Q Q Q Q Q W E W ( -.J F 1 O f N m ",
"l c i o 4 J I I Y W W Q Q Q Q Q Q Q Q Q Q W W Y I I J 2 + i j j ",
"u x j   1 H T W E E Q Q Q Q Q Q Q Q Q Q Q Q R E W Y H #   h s s ",
"g s u B =.I T W Q Q Q Q j.j.j.j.k.j.k.g.Q Q Q Q W Y J v k 9 h h ",
"g >   K.c.Y W W Q Q Q Q Y.Y.Y.Y.Y.Y.Y.Y.Q Q Q Q W E R A.S.  r j ",
"l :   P.H.a.~ E Q Q U.J.Y.Y.Y.Y.Y.Y.Y.Y.J.J.Q Q E / g.J.F.  w n ",
"l -   G.Y.Y.1.E Q / Y.Y.Y.Y.Y.Y.Y.Y.Y.Y.Y.Y.Q Q R g.Y.Y.D.  w x ",
"d %   P.Y.Y.<.E Q ~ Y.Y.Y.Y.Y.Y.Y.Y.Y.Y.Y.Y.Q Q E a.Y.Y.F.  r m ",
"x =   G.Y.Y.1.E Q ! Y.Y.Y.Y.Y.Y.Y.Y.Y.Y.Y.Y.Q Q E g.Y.Y.D.  e V ",
"M =   L.H.<.W E Q >.Y.Y.Y.Y.Y.Y.Y.Y.Y.Y.Y.Y.~ Q W W 2.I.F.  r M ",
"c =   G.c.T W W R ,.Y.Y.Y.Y.Y.Y.Y.Y.Y.Y.Y.Y.*.R E E R C.D.  0 M ",
"h -   P U W W W I I I C.Y.Y.Y.Y.Y.Y.Y.Y.V.H I U W W W U L   < M ",
"h :   F I R T Y F D S z.B.M.N.B.N.N.N.B.l.S D F T T T I D   7 c ",
"n >   G J H J H                                 H J J J F   7 x ",
"j e > 4 5 5 4 5 o. ...8   #.X.@.+.@._   _ ..X.{ 3 5 5 5 3 0 y j ",
"g l s       . 6 7.8.8.)   | q.8.0.q.'   ' 0.8.7.$ X     O a u s ",
"c V M h ;   o.8.t.u.i.5.  9.i.u.i.i.4.  3.i.i.t.%.[   q d j m M ",
"s g y y :   } 0.u.i.u.y.r.y.i.i.i.i.i.y.u.i.i.t.%.{   q f y c m ",
"m n s g :   +.0.i.i.u.i.i.u.u.i.i.i.i.i.i.i.p.t.&.[   d c s n s ",
"j f h c :   ] $.e.t.i.i.u.u.i.i.i.u.i.i.i.u.t.e.$.]   h j s d g ",
"l x c c t ,     $.w.p.i.i.i.i.p.i.p.i.i.p.p.w.$.  * m c m h n j ",
"x c c c f 0 = & ` O.6.6.6.6.6.4.4.6.6.6.6.4.| _ < t n l j g j h ",
"j x d h l s , @                                 c N j j b j s l ",
"z c s h x V t < 9 p f f a a x a a d a a p a q y l m m n n d d x ",
"c l h c x V c j x n N l h m c h d j h M j b j h x n b n j j j l "
};
