/* XPM */
static char *result[] = {
/* columns rows colors chars-per-pixel */
"32 32 121 2 ",
"   c #020202",
".  c #090604",
"X  c #090804",
"o  c #080608",
"O  c #0C0C0C",
"+  c #110000",
"@  c #120A0B",
"#  c #0B0B13",
"$  c #131313",
"%  c #191918",
"&  c #2E0106",
"*  c #250609",
"=  c #2A0809",
"-  c #310004",
";  c #390109",
":  c #3D0F0C",
">  c #1A1827",
",  c #111429",
"<  c #242221",
"1  c #292927",
"2  c #22202E",
"3  c #2C2B2A",
"4  c #302F2D",
"5  c #31302E",
"6  c #2A2B31",
"7  c #353433",
"8  c #383736",
"9  c #393937",
"0  c #3E373E",
"q  c #3C3A3A",
"w  c #480001",
"e  c #4B080C",
"r  c #5C0105",
"t  c #44160E",
"y  c #660003",
"u  c #7D0006",
"i  c #7D000D",
"p  c #682511",
"a  c #663818",
"s  c #403F3E",
"d  c #68323D",
"f  c #42413E",
"g  c #272740",
"h  c #443D44",
"j  c #464542",
"k  c #4A4946",
"l  c #4E4D4A",
"z  c #504F4D",
"x  c #52514E",
"c  c #555452",
"v  c #585754",
"b  c #5A5956",
"n  c #5D5C59",
"m  c #605F5D",
"M  c #484370",
"N  c #4F4877",
"B  c #84020B",
"V  c #88010A",
"C  c #9A000F",
"Z  c #870812",
"A  c #9F0116",
"S  c #A1000F",
"D  c #A40017",
"F  c #B40014",
"G  c #BE0016",
"H  c #B5041B",
"J  c #B4111C",
"K  c #B92923",
"L  c #C20017",
"P  c #CB021B",
"I  c #D3031C",
"U  c #DA001D",
"Y  c #E60122",
"T  c #EA0022",
"R  c #ED0629",
"E  c #FD0027",
"W  c #FF0028",
"Q  c #D6392C",
"!  c #F63D2F",
"~  c #ED3B33",
"^  c #C04A2B",
"/  c #C67C38",
"(  c #982944",
")  c #943842",
"_  c #C3374D",
"`  c #FF365B",
"'  c #FF385D",
"]  c #FF3E62",
"[  c #FC7C43",
"{  c #CEAC4B",
"}  c #F8A94D",
"|  c #F4AD53",
" . c #FBB457",
".. c #FCC95F",
"X. c #FDD661",
"o. c #FEE564",
"O. c #FFEC66",
"+. c #FCE76A",
"@. c #FCEA6C",
"#. c #FCEA72",
"$. c #BE74BA",
"%. c #E766A6",
"&. c #BB9BBA",
"*. c #B7A4B8",
"=. c #BAA6BA",
"-. c #BEA9BE",
";. c #E593BE",
":. c #C9A5B9",
">. c #DD81C1",
",. c #C2ADC2",
"<. c #DEABC1",
"1. c #EAA6C1",
"2. c #EBAAC4",
"3. c #FFA5C4",
"4. c #FFACCA",
"5. c #F9B8F7",
"6. c #FDCAF3",
"7. c #F5DAF6",
"8. c #FFDBF7",
"9. c #FDDBFA",
"0. c #FFE3FF",
/* pixels */
"k l c c c x l l z c c v c l z l l l x c c v v c f f f c b f f f ",
"x c v b b v c x b b b b c c c l l z b n b b b n b n c f b b b b ",
"c v v v n b c c b c c c b v b z c b m n b v c v b b f n b b n b ",
"z v v c c x c c c x z z c v b c v v c c b v c c n c b n n b n f ",
"z v c c c x c c z c c z l c v x c c x x b b c x v x b b b m x f ",
"z v c c v x c l c c c z l l v c l c c x v x x l l x b b x f x x ",
"c v z c c x c l c z c k q 5 7 7 3 4 7 j c v v c x l x x v x x x ",
"c m c c c z c c z k 7 3 2 M       > N % 9 f v x l v b a v v v x ",
"c v c v l x c x k 6 , g 0.1.V   & _ 7.=.# 6 8 v b b x c x x x l ",
"c n v b x c c k < 0 7.8.4.R G U I P ] 0.7.*.O 7 n b x v b b c f ",
"x b c v c c z 7     @ e H W E W W W Y Z = o   $ f x x b n n b l ",
"c n v c b c z 7   & S L E W W W W W W Y F i   O f x v b v x x l ",
"x n b c v c 5 h :.r L E ` 8.8.8.9.9.3.E T C d &.$ f v b x x x x ",
"l M v c c c 4 s 9.;.L ` 8.0.0.0.0.0.0.3.T _ 5.-.O 9 c c x x c z ",
"l c c c v c 3 h 0.2.L ' 0.0.0.0.0.0.0.4.T _ 0.-.O 9 x c z z l f ",
"l l l z c l 3 g 6.%.F ` 0.0.0.0.0.0.0.4.R K ;.-.O 7 x x z z x l ",
"x f x b x x < s >.B V ) 0.0.0.0.0.0.0.<.u V ( $.O 7 c v c l l k ",
"l l x b v v 1   * y &   j 0.0.0.0.0.,.o + w r o O 7 v v v v c z ",
"x b b b c v 4 X           o o o o o o           $ q c v b n b z ",
"f c b c c c l 7 o   ; Y D   : ! K   - I J     $ j c x x c b v z ",
"f b b v x v x x 5 - Q o.{ p } +.X./ a o.| A $ j c c c c c c c z ",
"m b x v v c l l 5 ; ~ O.O.+.O.O.O.O.+.O. .H O j c c c c c c c c ",
"c b c b c b c x k < t [ @.@.#.#.#.#.@...^ O 7 c v c c c c x z x ",
"b n n n x c c v v z < . o o o o X X X o @ 7 b c c c c c c l l l ",
"x b m b b b f b c b c 8 8 7 8 8 7 7 7 7 g v c v v c c v v l z c ",
"x b n f b c c m b c c c c c z l c c c z n c x c v x x c c l c v ",
"f b f c c x c b c c c c c c z j c c c z c b c c v c c z c z v c ",
"b n n m b b b b c b c c c v v c z v c z c c v c x c z z c c c l ",
"c m c b c b v x z c c c c v x z c v b c x c c c c c c z c v n z ",
"l c c b b b v l z c c b v v z k c v m n v v v v c c c z c c c h ",
"l x b m m b v v b v b n m b c z z c n m v v n v c c c c b c c k ",
"x k v v v l l x z c v v c c z z l z v v c c c z z z z c c c c l "
};
