/* XPM */
static char *result[] = {
/* columns rows colors chars-per-pixel */
"32 32 142 2 ",
"   c #010101",
".  c #0D0C0C",
"X  c #190500",
"o  c #131212",
"O  c #191919",
"+  c #230600",
"@  c #260800",
"#  c #2A0900",
"$  c #370700",
"%  c #371904",
"&  c #21201F",
"*  c #3A2413",
"=  c #232322",
"-  c #242824",
";  c #292827",
":  c #2C2C2A",
">  c #312E24",
",  c #293B25",
"<  c #25332C",
"1  c #263D31",
"2  c #2D3B33",
"3  c #353533",
"4  c #383736",
"5  c #393836",
"6  c #3B3B39",
"7  c #430E00",
"8  c #480D01",
"9  c #491201",
"0  c #431509",
"q  c #501101",
"w  c #5C1000",
"e  c #620E00",
"r  c #671704",
"t  c #691000",
"y  c #781701",
"u  c #6C2A06",
"i  c #7A3000",
"p  c #643F20",
"a  c #294535",
"s  c #344539",
"d  c #44433F",
"f  c #485737",
"g  c #7C4521",
"h  c #47613C",
"j  c #3D4841",
"k  c #2C6545",
"l  c #346745",
"z  c #3D6446",
"x  c #3D754B",
"c  c #377A53",
"v  c #464542",
"b  c #484745",
"n  c #4A4946",
"m  c #4E4D4A",
"M  c #504F4D",
"N  c #52514E",
"B  c #555452",
"V  c #585754",
"C  c #5A5956",
"Z  c #5D5C59",
"A  c #605F5D",
"S  c #4A6F4F",
"D  c #871900",
"F  c #901800",
"G  c #A41C00",
"H  c #A02101",
"J  c #B52100",
"K  c #B5320C",
"L  c #A23612",
"P  c #C52600",
"I  c #CD2900",
"U  c #D22B00",
"Y  c #DC2E00",
"T  c #C83804",
"R  c #E12F00",
"E  c #E53000",
"W  c #ED3300",
"Q  c #8F4100",
"!  c #934C00",
"~  c #A24900",
"^  c #AF5F01",
"/  c #A0431B",
"(  c #956801",
")  c #A57B00",
"_  c #856335",
"`  c #E9470F",
"'  c #E54A15",
"]  c #E85217",
"[  c #D76900",
"{  c #D87A01",
"}  c #E05A24",
"|  c #CA612B",
" . c #D6652E",
".. c #C96432",
"X. c #DE6D31",
"o. c #CA763E",
"O. c #D87139",
"+. c #AF7842",
"@. c #D47E45",
"#. c #7EAF01",
"$. c #368F62",
"%. c #758B5F",
"&. c #5F9467",
"*. c #5DB173",
"=. c #66A86D",
"-. c #6AA075",
";. c #8E8401",
":. c #A18E00",
">. c #BC8801",
",. c #80AF01",
"<. c #B1B400",
"1. c #CAAC01",
"2. c #BCFC00",
"3. c #CFD100",
"4. c #C5DF00",
"5. c #C9D900",
"6. c #C7E301",
"7. c #C3F400",
"8. c #C0FA00",
"9. c #BD9457",
"0. c #87B17E",
"q. c #98BD7A",
"w. c #A3B77C",
"e. c #A7B87E",
"r. c #CC8344",
"t. c #C68952",
"y. c #CAA15D",
"u. c #C1A86A",
"i. c #CCB86D",
"p. c #C2B476",
"a. c #7EBF8A",
"s. c #9FD08C",
"d. c #B5D695",
"f. c #9EFFB4",
"g. c #AFEBA5",
"h. c #B1E7A5",
"j. c #B6F5A7",
"k. c #A2FBB2",
"l. c #AEFAB4",
"z. c #A9FFBB",
"x. c #B0F9B0",
"c. c #C0D98D",
/* pixels */
"n m B B B M m m m N C V B m M n M M N B B B C h B f M M B N d d ",
"N B V C C C B N C C C V V N B m m N C Z C C C Z B B d m V C C f ",
"B V V V C C B B Z V B B C V C M B C A Z C V V V B V N C C B Z C ",
"M V V B B B B B N N M M V V C N B C B B C C N V A N N C Z V B m ",
"M V V V B N B B M B B M M N C B B B N N C C N N B N V V V C M p ",
"M V N V V N B m B B B m m M V N m B V B B N N M m m A V M M m N ",
"N C N N B N B m B N B m N B C N n M B B B C B B N m m N V N M N ",
"B A V B N M B B N n b 3 a < ; & = 1 2 v m N C N m V M M V V V N ",
"B V B V m N B M b 6 < s $.d X   # x c s 1 j B V Z C N V N N N m ",
"B Z V C N B B m : k l a.d...y 9 H t.h.&.c a 4 B A Z V V V V V d ",
"M C B V B B M 3 . S 0.e. .R R W E E t.w.-.s o 6 m N N V A A V n ",
"B Z C B V B b O   + y J R W W W W W U J w X   - d N V C N N B m ",
"M A V V V m 4 3 % D U R ] X.O.O.O.X.` E I r * : 6 V V C M M N N ",
"m B V B V 4 . A +.K R } i.j.z.z.z.j.y.' Y K 9.f ; B B B N N B M ",
"m M B B V 4 o a.c.| R p.z.z.z.z.z.z.z.@.U r.d.z ; B N B M m M b ",
"m m M M B 3 o a.h...Y p.z.z.z.z.z.z.z.@.U t.g.z & M N N M M M n ",
"m n N Z B 3 o %.r.T P u.l.z.z.z.z.z.x.o.P T y.f - M B V B M m n ",
"m M N C B 5 o g L G D _ s.k.f.k.f.k.q.g F G / * = N B C C V B M ",
"m V V V B 6 o   8 e +   S =.*.*.*.=.,   $ t #   - N B B V Z C N ",
"f B V V N b : .     # 7 X   $ 0 @   @ 7 X     o 3 N N N B C V M ",
"n B B C B B m > . @ ~ [ u * ~ { ! % Q [ i X . 5 B B B B B B B M ",
"V V B B B N M d O D 1.7.:.) 4.8.3.) <.7.{ q ; N B B B B B B B N ",
"B B B C V V V n - r >.6.2.2.2.2.7.2.8.5.^ 0 3 m B B B B N N N N ",
"C A Z Z N N V B v & u ;.#.#.#.#.,.,.,.( 0 ; n B B B B V B m m M ",
"N C A B C C N B B b & o o o o . o o o . ; m B V V M M V Z m m B ",
"N C B M B N N C V V j 4 4 4 3 3 3 4 4 3 m B B B V B M B B m V V ",
"m N M B V N B Z V B B M N B M b B B B m B B V B V B B B B M V B ",
"B A B C C C C B B V V B B V V N B B B M M B V B B M M M B N B m ",
"B Z V C V C V M M B B B B B B M B V C B M B B M B B B M B C Z m ",
"m B V C V C V M B B B V C V M b B V A Z B V Z V B B M M B B B j ",
"m N C Z Z C V B V V C A A C B M M B A Z V V Z Z B B V V C V V b ",
"N n V V V m m B B M B C B B M M m m V V B B B M M M M N B N B M "
};
