/* XPM */
static char *result[] = {
/* columns rows colors chars-per-pixel */
"32 32 184 2 ",
"   c #000000",
".  c #000708",
"X  c #000F0F",
"o  c #0B0C0D",
"O  c #000412",
"+  c #001314",
"@  c #021919",
"#  c #0A1E1F",
"$  c #151B18",
"%  c #220000",
"&  c #340000",
"*  c #3B0000",
"=  c #3E0A07",
"-  c #3A1514",
";  c #3D1918",
":  c #1A211A",
">  c #172424",
",  c #192322",
"<  c #242523",
"1  c #2C2B25",
"2  c #2D2C2B",
"3  c #302F2E",
"4  c #34312F",
"5  c #343332",
"6  c #3A3836",
"7  c #3D3E3B",
"8  c #450402",
"9  c #470904",
"0  c #5A0000",
"q  c #48110C",
"w  c #431A18",
"e  c #6A0000",
"r  c #720100",
"t  c #780F03",
"y  c #68180F",
"u  c #7E160B",
"i  c #6F1D15",
"p  c #781A12",
"a  c #403A2E",
"s  c #6B2A26",
"d  c #43413F",
"f  c #554538",
"g  c #444341",
"h  c #494643",
"j  c #4B4946",
"k  c #4E4C4A",
"l  c #504E4C",
"z  c #5B4D4D",
"x  c #52514E",
"c  c #4E5353",
"v  c #555452",
"b  c #595755",
"n  c #575855",
"m  c #5A5956",
"M  c #5D5C59",
"N  c #7B4643",
"B  c #635041",
"V  c #6C5646",
"C  c #745D4B",
"Z  c #635555",
"A  c #7D664F",
"S  c #7D6450",
"D  c #6B6C6B",
"F  c #757374",
"G  c #850000",
"H  c #8A0000",
"J  c #9C0000",
"K  c #930800",
"L  c #821509",
"P  c #84190E",
"I  c #851A12",
"U  c #881B12",
"Y  c #9F1B10",
"T  c #A50000",
"R  c #AD0000",
"E  c #B30000",
"W  c #BE0000",
"Q  c #A21A0D",
"!  c #B11703",
"~  c #B41C0C",
"^  c #A71E12",
"/  c #B41F11",
"(  c #AC2115",
")  c #A2271F",
"_  c #B42114",
"`  c #B5241A",
"'  c #8C322B",
"]  c #853430",
"[  c #8F3430",
"{  c #913E39",
"}  c #B22A21",
"|  c #B3352F",
" . c #C30000",
".. c #D50000",
"X. c #D80000",
"o. c #DB1F09",
"O. c #D5200C",
"+. c #CA2212",
"@. c #CC2618",
"#. c #D72717",
"$. c #CF2D23",
"%. c #D22F24",
"&. c #DB3427",
"*. c #DC3A32",
"=. c #874745",
"-. c #9C4643",
";. c #925F5D",
":. c #A45D5B",
">. c #BC5953",
",. c #BC5F59",
"<. c #856B54",
"1. c #896D56",
"2. c #93605E",
"3. c #84745A",
"4. c #8E7058",
"5. c #93745C",
"6. c #99795F",
"7. c #B7615C",
"8. c #9A7A61",
"9. c #BD6A65",
"0. c #BF726E",
"q. c #BC7C79",
"w. c #DC554D",
"e. c #D8635D",
"r. c #DD7A76",
"t. c #958768",
"y. c #968969",
"u. c #988A6A",
"i. c #A78468",
"p. c #B38F6F",
"a. c #A69773",
"s. c #B39271",
"d. c #BB9573",
"f. c #BD9975",
"g. c #DF827E",
"h. c #C29D79",
"j. c #E1817C",
"k. c #C5A07A",
"l. c #909191",
"z. c #AB9D9B",
"x. c #B3A7A6",
"c. c #B6B5B5",
"v. c #BABBBB",
"b. c #C48F8B",
"n. c #CB9896",
"m. c #CD9F9D",
"M. c #D39591",
"N. c #E08D89",
"B. c #E19591",
"V. c #CBAA81",
"C. c #D1BB8C",
"Z. c #CFA3A0",
"A. c #D2A8A7",
"S. c #D4AEAC",
"D. c #D5B1AE",
"F. c #C5B5B4",
"G. c #D5C292",
"H. c #DBC592",
"J. c #DDC995",
"K. c #E0CC96",
"L. c #E2CE98",
"P. c #E5D19A",
"I. c #EAD59E",
"U. c #C4C3C3",
"Y. c #C8C7C8",
"T. c #CBCACA",
"R. c #D6C8C7",
"E. c #CED0D0",
"W. c #D5D4D4",
"Q. c #DADBDB",
"!. c #E8C3C2",
"~. c #E3CECC",
"^. c #E8D9D8",
"/. c #DDDFE0",
"(. c #E4E4E4",
"). c #EFE4E3",
"_. c #E7E9E9",
"`. c #EAECEC",
"'. c #F0E6E5",
"]. c #F2ECEC",
"[. c #F5F4F4",
"{. c #F9F7F6",
"}. c #F7FBFA",
"|. c #FCFDFD",
/* pixels */
"b l v k x k b v M n v n n v b j x Z x v b M b M b m v v x j k x ",
"M k k k v v j v M b Z M n k d l j d v Z M M b v M v v v j j k g ",
"M v k k v b b v n b         @ + + @         v v n n x x x j j j ",
"m b v v v b b j b v D F F z & - = * b F F D v M n x n n v l x m ",
"x m l m v v         W.|.|.F.e ] u r R.|.}.Y.        M m n b x n ",
"x v v v g   l.U.v.v.`.].A.q.J ) Y J q.D.[._.c.v.v.l.  n v x x x ",
"m x v v h   Y.|.{.{.{.^.T E ` ~ ~ ` R R ).[.{.{.|.v.  l v x x n ",
"x l k > w r =.2.:.,.7.>.O.O.O.O.O.O.O.#.>.,.,.:.;.=.e - , l m m ",
"x b j # w P H H T E W  .*.*.*.*.*.*.*.*. .E R J H H I ; > k v v ",
"j v z   & L Q _ ^ ( %.O.................#.$.( _ _ Q t %   k j h ",
"k k j c Z ' ) ~ @.+.X.w.!.!.!.!.!.!.!.!.*.X.@.+.~ ) ] Z c d c x ",
"l 5   _.~.J E ` o.&.#.r.}.}.{.|.}.{.}.[.e.&.&.O.` R T ^.Q.  g v ",
"v 5   _.'.Z.0.E ..N.[.`.[.[.[.[.[.[.{.[.`.].r...Q r.S.].Q.  g b ",
"v 3 o (.}.|.m.R ..B.}.[.[.[.[.[.[.[.[.[.}.{.j...T S.|.{.Q.  a v ",
"k 2 o (.{.{.n.R ..B.{.[.[.{.[.[.{.[.[.[.[.[.g...R Z.}.{./.  g n ",
"v 2 o (.}.|.m.R X.B.}.[.[.[.[.[.[.[.{.[.[.[.g...R D.|.[.Q.  g M ",
"m 3   _.).n.9.R W M.|.[.[.[.[.[.[.[.[.[.{.{.b.E _ 9.Z.]./.  g n ",
"b 2   (.~.T ! } T b.[.].[.[.[.[.[.[.`.[.[.`.r.J | R R ^.Q.  g M ",
"l 2   =.-._ _ ~ K [ ' ^.|.}.|.}.|.|.|.|.R.G { K / _ ` -.N   6 M ",
"x 5   r H ^ Q Y i y 0 x.E.Y.T.T.T.T.T.E.z.0 s p Q Q Q H e . 6 v ",
"v 5   p P L P u                                 P P L U p   6 v ",
"x d 5 w 9 q 8 q 4.5.5.f   V 8.8.5.8.B   B 6.5.1.* 8 q 8 ; 7 h z ",
"l l k @ X . $ 6 s.f.f.V   1.h.d.f.h.S   A k.f.p.1 : . X > j j j ",
"v M v l 4   1.d.G.J.P.3.  a.I.J.K.P.u.  u.I.K.H.s.A   h l x M M ",
"l l h h 5   4.f.J.K.K.G.C.J.L.L.K.P.J.G.J.P.P.H.d.<.  h l j v m ",
"m m k k 5   4.h.L.L.K.K.L.L.L.L.K.K.P.P.P.L.P.K.h.<.  k v k v l ",
"v l l b 5   S i.C.H.K.H.J.J.K.J.K.K.L.L.K.L.K.C.8.C O l x j k l ",
"l v v v g 6 O $ i.V.I.P.P.P.I.I.I.I.I.I.I.I.k.i.  2 b b m x v x ",
"v v v b x d 2 1 C 3.u.y.t.u.u.u.u.u.u.u.u.u.1.V 6 h n v x x x x ",
"z v k k x k 6 <                                 v m x x v v j x ",
"v v k l v M h 6 d j x x k j x k k x l k j k h j x m m n v l l v ",
"v x v v l v M x v n M x l m v l k x x v x n x x x n v v x x x x "
};
