/* XPM */
static char *result[] = {
/* columns rows colors chars-per-pixel */
"32 32 111 2 ",
"   c #030201",
".  c #0D0101",
"X  c #0B0B0B",
"o  c #150101",
"O  c #1C0101",
"+  c #130B01",
"@  c #120E0E",
"#  c #141414",
"$  c #191716",
"%  c #1D1E1E",
"&  c #211100",
"*  c #2D2C2B",
"=  c #302F2E",
"-  c #31302E",
";  c #353533",
":  c #383736",
">  c #393836",
",  c #363C3C",
"<  c #3C3C3A",
"1  c #4D0500",
"2  c #750000",
"3  c #7F0000",
"4  c #403F3C",
"5  c #42413E",
"6  c #104242",
"7  c #1B4646",
"8  c #354646",
"9  c #464542",
"0  c #4A4946",
"q  c #4E4D4A",
"w  c #504F4D",
"e  c #52514E",
"r  c #555452",
"t  c #585754",
"y  c #5A5956",
"u  c #5D5C59",
"i  c #605F5D",
"p  c #677575",
"a  c #717979",
"s  c #8D0303",
"d  c #950000",
"f  c #9C0000",
"g  c #8F1616",
"h  c #9D1212",
"j  c #A50000",
"k  c #AC0000",
"l  c #A20F0E",
"z  c #B30000",
"x  c #BB0000",
"c  c #B30D0D",
"v  c #BB1313",
"b  c #C90000",
"n  c #D80000",
"m  c #DB1414",
"M  c #E50000",
"N  c #E90000",
"B  c #F70000",
"V  c #FD0303",
"C  c #EC1515",
"Z  c #FE1515",
"A  c #FF1919",
"S  c #8D5703",
"D  c #8E550B",
"F  c #B56701",
"G  c #B66C02",
"H  c #B96E02",
"J  c #C57103",
"K  c #C07803",
"L  c #C67009",
"P  c #C9760A",
"I  c #C78B02",
"U  c #D28503",
"Y  c #DD9303",
"T  c #D79A0A",
"R  c #DDB503",
"E  c #E0BD0B",
"W  c #F5DA59",
"Q  c #FADF5C",
"!  c #FFE65E",
"~  c #F3E064",
"^  c #FEE765",
"/  c #FEEA64",
"(  c #F5E66D",
")  c #F5E96E",
"_  c #FFED6B",
"`  c #F5EA73",
"'  c #FFF173",
"]  c #868F8F",
"[  c #899292",
"{  c #ED9D9A",
"}  c #D8A4A2",
"|  c #E5AAA8",
" . c #F1A8A3",
".. c #F9BEBB",
"X. c #CFCACA",
"o. c #DEC5C5",
"O. c #DFD8D8",
"+. c #FFCAC6",
"@. c #F0CCCA",
"#. c #FFD6D4",
"$. c #F7DBD9",
"%. c #E0E0DF",
"&. c #E5E7E7",
"*. c #E7EAEA",
"=. c #EAECEC",
"-. c #F6E1E1",
";. c #FCE3E1",
":. c #FDE9E9",
">. c #F5F4F3",
",. c #FAF4F4",
"<. c #FFFEFE",
/* pixels */
"0 q r r r e q q q r t t r q w 0 w q r r r r t r 5 5 5 t y e 5 5 ",
"e r t y y t r e y y y t t r r q q w y y y y y u y i t 5 y y t e ",
"r t t t u t r r y t r r t t t q r y i u y t t t y i t i y y y t ",
"w t t r r r r r e e e e t t y r r y r r t t r t u 5 5 i u y y 5 ",
"q t r r r e r r w e r w w w t r r t e e y y e e t e y y y y e 5 ",
"w t r r r r r q r r r q q q t r q r r r t e e q 0 e y y e e 5 e ",
"e y r r r r e q e r w q r r t e 0 q r r t t t r e e 0 e t e e r ",
"r i t r w q t r r w w q < ; ; * = ; ; 5 e t y e e t e e t t y e ",
"r y r r q r r w w w ; , % ]       @ [ $ , < r y t t e e e e e 0 ",
"r u t u e r w r q ; p 7 <.-.k . o v ,.=.6 a * y u y y e y y e 0 ",
"r t r r r r r t * # >.>.;.n x b b x m ,.,.%.  = e t e y y u y 0 ",
"r u t r t r r 9     X 3 z N V V B V M k 2       > e t y t e e e ",
"w u y r t r r ,   O z x N V V V V V V N z k & X > t y y e e e e ",
"q t t r t r , # @.s x V A ;.<.<.<.<.#.V B k g o.% 4 e r e e r e ",
"q w r r t r , # <...z Z <.<.<.<.<.<.<.:.V v +.=.4 > r r e e e 5 ",
"q q w w r q = # <.-.x A <.<.<.<.<.<.<.:.V v ,.*.+ - e y 5 e y 5 ",
"e 5 e y e e - # ,.{ z C <.<.<.<.<.<.<.:.M c  .=.8 ; r t r w q 0 ",
"q q e y t t ; @ | f j h $.<.<.<.<.<.<.@.d j l }   : r t t t r w ",
"e y y y r t -   . d 2   # O.=.&.&.&.X.  . 3 s     > t t y y t r ",
"5 r y r r r > +                                 @ < q r r t t w ",
"5 t t t e t e 5 X   + U G   & Y U 1 + J K     X 9 r w r r r r e ",
"i y r t t e q e < . L / W S E _ / R D ! Q F   9 t r r r r r r e ",
"t y 5 i t y r e < + P ^ / ' ^ ^ ! _ ' / Q H X 4 t r r t r r e e ",
"y u i i e e y r e = + T ( ( ` ` ` ` ) ~ I   ; q r w r t e q q q ",
"e y i y u t 5 u t r *                   X = r t t e w t t q w r ",
"5 y u 5 r r t u r t r , : : , - : , , ; , r r r t r r r r w t t ",
"t t 5 t r r r y t r r e r r e 0 r r r q r r r r t r r w r w t r ",
"t u u u y y t t r t t r r y r e e t r w w r t r w r w w w r r q ",
"r u t y t y t 5 e r r r r r r q r t y r w r r r r r r q r t u q ",
"q r t y t y y t r e r t y t e 0 r t i y t t u r r r e q r t t 9 ",
"q e y u u u y r t y y y i y r q w r u u t t u t r r t t y t t 9 ",
"e 0 t t t q q r e r t y r r w w q e y y r r r w w w r q r r r q "
};
