/* XPM */
static char *result[] = {
/* columns rows colors chars-per-pixel */
"32 32 188 2 ",
"   c #000000",
".  c #00080A",
"X  c #0A0C0E",
"o  c #00051A",
"O  c #001313",
"+  c #031E17",
"@  c #001B1B",
"#  c #181A16",
"$  c #2E0000",
"%  c #142314",
"&  c #272B1D",
"*  c #042324",
"=  c #0E2523",
"-  c #122523",
";  c #292A27",
":  c #322A22",
">  c #302E2B",
",  c #38302A",
"<  c #353431",
"1  c #3F3734",
"2  c #3A3834",
"3  c #3C3E39",
"4  c #490000",
"5  c #470805",
"6  c #530000",
"7  c #5B0000",
"8  c #500901",
"9  c #6F0000",
"0  c #760000",
"q  c #44391E",
"w  c #5F4224",
"e  c #44423E",
"r  c #4B453E",
"t  c #6F4D28",
"y  c #755221",
"u  c #7B532C",
"i  c #434341",
"p  c #494643",
"a  c #4D4A45",
"s  c #4E4D49",
"d  c #514C45",
"f  c #514E4A",
"g  c #525247",
"h  c #54524D",
"j  c #59554F",
"k  c #4C5656",
"l  c #565551",
"z  c #595653",
"x  c #565853",
"c  c #5B5A54",
"v  c #5E5C59",
"b  c #694D4D",
"n  c #744B49",
"m  c #635957",
"M  c #6B6C6B",
"N  c #746E6E",
"B  c #767375",
"V  c #840000",
"C  c #8D0000",
"Z  c #940000",
"A  c #9D0000",
"S  c #A40000",
"D  c #AB0100",
"F  c #B30000",
"G  c #BC0100",
"H  c #B41B03",
"J  c #A22419",
"K  c #95332C",
"L  c #A22D27",
"P  c #BC3B34",
"I  c #C30000",
"U  c #CC0000",
"Y  c #D40000",
"T  c #DB0000",
"R  c #DF0F00",
"E  c #D91C02",
"W  c #E00000",
"Q  c #EA0000",
"!  c #F20000",
"~  c #FD0000",
"^  c #DC240C",
"/  c #D42D1C",
"(  c #D73426",
")  c #D93B31",
"_  c #FD3628",
"`  c #FD3D32",
"'  c #8D5F27",
"]  c #875C2B",
"[  c #896020",
"{  c #8F6A2B",
"}  c #9B6627",
"|  c #96632A",
" . c #9C672D",
".. c #9F6A30",
"X. c #8A7433",
"o. c #A46B2B",
"O. c #B46F26",
"+. c #AF7429",
"@. c #B87829",
"#. c #A66C30",
"$. c #CE7E1E",
"%. c #DB443A",
"&. c #FD4133",
"*. c #C57C24",
"=. c #A64C47",
"-. c #D2554D",
";. c #D35954",
":. c #EE4C45",
">. c #FD5147",
",. c #FD5D52",
"<. c #ED695F",
"1. c #D76D64",
"2. c #DF736F",
"3. c #DE7674",
"4. c #DF7E7A",
"5. c #9D8435",
"6. c #BE8028",
"7. c #AB8F34",
"8. c #C7821F",
"9. c #CC851C",
"0. c #D1851E",
"q. c #D3881C",
"w. c #D7921D",
"e. c #D9A41E",
"r. c #E5B61D",
"t. c #EAB719",
"y. c #E7B91B",
"u. c #EABC1C",
"i. c #F0BF15",
"p. c #F2BF1C",
"a. c #CB8423",
"s. c #D59623",
"d. c #D8AC27",
"f. c #DBB22C",
"g. c #E3B322",
"h. c #E4B822",
"j. c #EABC21",
"k. c #FAC615",
"l. c #F5C31B",
"z. c #F3C221",
"x. c #E0827E",
"c. c #878989",
"v. c #919393",
"b. c #AD928E",
"n. c #B39C9A",
"m. c gray68",
"M. c #B2AFAF",
"N. c #B1B3B3",
"B. c #B7B9B9",
"V. c #E18986",
"C. c #E2928C",
"Z. c #E29490",
"A. c #FD9B96",
"S. c #FBA39E",
"D. c #C6A6A3",
"F. c #C1BFBF",
"G. c #D7B7B6",
"H. c #FBA4A1",
"J. c #EAB9B5",
"K. c #C0BEC0",
"L. c #C3C2C2",
"P. c #CECDCD",
"I. c #CFD1CF",
"U. c #CED3D3",
"Y. c #D2D6D8",
"T. c #DCDBDB",
"R. c #EBC8C5",
"E. c #F1D7D4",
"W. c #F2DEDD",
"Q. c #F2E1DE",
"!. c #D7DEE0",
"~. c #DDE2E2",
"^. c #E6E8E7",
"/. c #ECECEC",
"(. c #F3E4E3",
"). c #F3E9E6",
"_. c #F2EEEE",
"`. c #EEF1EE",
"'. c #F2F1EE",
"]. c #F9F0EF",
"[. c #F1EEF1",
"{. c #EEF5F4",
"}. c #EDF9F6",
"|. c #EDFAFA",
" X c #F1F1F1",
".X c #F9F3F3",
"XX c #F2FBFA",
"oX c #FBFBFB",
/* pixels */
"z f h f h f l h v c l l c l z d h j f z c c c c l c j z s p s h ",
"v f s f f l s j c c v v z d r f p r h m v v l z c x h l a a s r ",
"v h h s h x l j l l         @ O O @         z j c j g h f p a p ",
"z z l h z z l s l k N B N b 4 4 6 4 b B B M f v x h x x x g g c ",
"h z f z h j         P. XXXD.V S A C G.oX.XK.        v c l x f c ",
"f l z z e   v.B.N.N.^.(.V.-.G I G G ;.Z.).!.m.N.B.c.  x l h h h ",
"v f h z e   F.oX_.]..XR.U T T T T T Y Y E.]._..XoXM.  s j h h j ",
"h d f = 8 Z L =.P ^ / R ~ ~ ~ ~ ~ ~ ~ ~ E / ^ P =.J C 5 - f x c ",
"h z d * 6 S D D G Y W ! ~ ~ ~ ~ ~ ~ ~ ~ Q W Y G D D S 5 * d h h ",
"a h f   4 A I T Y Y ~ ~ ~ ~ ~ ~ ~ ~ ~ ~ ~ ~ U Y T G A $ . f s a ",
"f s a k n S I T ~ ~ ~ ~ S.H.H.H.H.H.H.A.~ ~ ~ ~ T G S b k e f f ",
"f <   !.J.I Y T ~ ~ ~ _ |.|. X}.|.|.|._.~ ~ ~ ~ T Y I R.U.  i h ",
"l <   ~.E.x.) Y ~ >.).W.`.[._._._._. X_.Q.W._ ~ Y %.V.(.Y.  e z ",
"h > X T..XXX4.Y ~ ,.|. X[.`.{.'. X'._.[.{.{.&.~ Y C.oX.XI.  e h ",
"d > X T. X{.3.Y ~ ,.}./.{.`.[.[.[.[.`.[. X`.&.~ U V.}..XU.  i z ",
"l > X T.XXoX4.Y ~ ,.}./.[._. X`. X`._.{.`.`.` ~ Y C.oX.XP.  e v ",
"c >   ^.E.2.( T Q <.XX`.{. X X/.{._./. X'. X:.Q Y ) x.Q.Y.  i c ",
"l >   T.J.I Y Y U 1./.^././././././././././.-.U Y Y U R.I.  e v ",
"f >   K G T T T D D D R.oX.XoXoXoXoXoXoXG.D D F T T T H K   2 v ",
"h <   C D U I G C V 0 n.L.L.L.L.F.L.L.L.b.9 V C I I I D V . 1 j ",
"j <   Z S S S A                                 A S S S C   2 j ",
"f e < 6 7 7 6 7  . .o.w   u #...o.#.t   t o.o.} 6 7 7 7 8 3 a f ",
"s l a @ O . + q 6.8.a.y   | 0.8.a.q.[   [ q.9.@.& % . O - d f a ",
"l m z f ,   | *.r.h.j.X.  7.l.t.y.j.7.  5.l.i.g.*.'   r d f c c ",
"s s p p ,   } a.r.u.u.f.f.g.u.u.u.u.h.f.h.p.i.t.*.|   r d a l c ",
"c c f s ,    .0.y.u.r.j.y.j.j.y.j.u.u.i.u.u.i.t.$.|   d z d j a ",
"h f f z ,   ] @.d.g.h.h.h.h.y.u.u.u.u.u.u.u.y.e.+.] o f j p a f ",
"f l l l e 2 o # @.s.z.z.z.z.z.z.l.l.l.l.l.k.w.O.  ; z l c h x h ",
"h l l z h e ; : u { 5.5.5.5.5.5.7.5.5.5.5.5.{ u 2 p x h g s h g ",
"f l f s h a 2 ;                                 z x h h l h s f ",
"j l d f l c i 2 e a g g d a h d d d d a p d r p h c x j l s s l ",
"l f h z f x c h j j v h h z l h d f h c j x h g h j l h h h h l "
};
