/* XPM */
static char *result[] = {
/* columns rows colors chars-per-pixel */
"32 32 174 2 ",
"   c #000000",
".  c #0D0000",
"X  c #150200",
"o  c #1C0100",
"O  c #111100",
"+  c #1C1000",
"@  c #1C1C08",
"#  c #240000",
"$  c #2B0000",
"%  c #230F00",
"&  c #2A0E00",
"*  c #291503",
"=  c #241C01",
"-  c #2A1A01",
";  c #21180A",
":  c #321D01",
">  c #2C1E13",
",  c #2C1E1E",
"<  c #232300",
"1  c #2B2400",
"2  c #232A00",
"3  c #2E2C03",
"4  c #2C290B",
"5  c #342400",
"6  c #332D04",
"7  c #31240F",
"8  c #2B2410",
"9  c #2B241B",
"0  c #2F2918",
"q  c #332B15",
"w  c #3C2C13",
"e  c #332D1F",
"r  c #382D1E",
"t  c #323211",
"y  c #35331B",
"u  c #3B311B",
"i  c #39391F",
"p  c #002B2B",
"a  c #103737",
"s  c #2D2D27",
"d  c #382D26",
"f  c #363423",
"g  c #3B3223",
"h  c #343920",
"j  c #3B3A26",
"k  c #36332A",
"l  c #3C332B",
"z  c #373C2C",
"x  c #3D3A2C",
"c  c #3E3434",
"v  c #440000",
"b  c #570000",
"n  c #670600",
"m  c #6B0400",
"M  c #730600",
"N  c #6A1E1E",
"B  c #7A2D00",
"V  c #7D3000",
"C  c #5C2222",
"Z  c #413B2C",
"A  c #453737",
"S  c #433B33",
"D  c #3E432A",
"F  c #42422E",
"G  c #434532",
"H  c #464A32",
"J  c #484833",
"K  c #444239",
"L  c #4C443B",
"P  c #474B39",
"I  c #4C4C3D",
"U  c #4D4943",
"Y  c #534B45",
"T  c #6A6B6A",
"R  c #7D7676",
"E  c #860000",
"W  c #890000",
"Q  c #940000",
"!  c #9B0000",
"~  c #A20000",
"^  c #AC0000",
"/  c #B30000",
"(  c #BC0000",
")  c #873A00",
"_  c #C40000",
"`  c #CA0000",
"'  c #D30000",
"]  c #DB0000",
"[  c #E40000",
"{  c #EB0000",
"}  c #F20000",
"|  c #FF0000",
" . c #EA1D00",
".. c #FF1700",
"X. c #E42102",
"o. c #FF2100",
"O. c #FF3B0B",
"+. c #C63A2E",
"@. c #C83D32",
"#. c #8E4A00",
"$. c #9B5500",
"%. c #9B5A00",
"&. c #A25C00",
"*. c #AA6D00",
"=. c #B36B00",
"-. c #B56900",
";. c #A67300",
":. c #BF7500",
">. c #C47700",
",. c #C37A00",
"<. c #CB7F00",
"1. c #FF462E",
"2. c #FF4D38",
"3. c #FF5F4E",
"4. c #FF6552",
"5. c #FF7465",
"6. c #FF7668",
"7. c #FF7A6D",
"8. c #FF7D75",
"9. c #9F8000",
"0. c #BD9D23",
"q. c #BF9E29",
"w. c #CD8100",
"e. c #DB9100",
"r. c #E18A00",
"t. c #E29A1D",
"y. c #C1A31D",
"u. c #C19F25",
"i. c #EB9323",
"p. c #C3A326",
"a. c #C2A12A",
"s. c #D8B63F",
"d. c #EFA524",
"f. c #F8A428",
"g. c #F3AA32",
"h. c #FEAD33",
"j. c #FFB333",
"k. c #FFB43A",
"l. c #FFBB3A",
"z. c #FFC03F",
"x. c #FFBD46",
"c. c #FFCF4C",
"v. c #FFD254",
"b. c #FFEA5E",
"n. c #FFF46E",
"m. c #FFFE6D",
"M. c #FFFF72",
"N. c #FFFF7C",
"B. c #817E81",
"V. c #A1A4A4",
"C. c #B3B6B6",
"Z. c #FF9185",
"A. c #FF9F94",
"S. c #FFA094",
"D. c #FFA59A",
"F. c #DEBEB9",
"G. c #FFADA9",
"H. c #FFBAB5",
"J. c #FFBFBA",
"K. c #FFC3B9",
"L. c #E9CECC",
"P. c #FFCAC6",
"I. c #FFD2CB",
"U. c #FFD6D0",
"Y. c #FFD8D4",
"T. c #E7E5E5",
"R. c #EAECEC",
"E. c #FFE7E3",
"W. c #FFF3EF",
"Q. c #EFF1F1",
"!. c #F4F6F6",
"~. c #FFF4F2",
"^. c #FFF9F7",
"/. c #FFFFFF",
/* pixels */
"l % , X 7 + f q P Z k 9 Z 7 g   2 j * c l K S x j F y l X   X 1 ",
"L X X X 1 4 . 6 J Z Y Y A o   #     - U Y I l x J h q d         ",
"U 8 % + 1 x j 6 K k                         Z y j j < - =       ",
"Z l > q l Z l   s @ T B.R b         C R R T @ K z < h Z g O = G ",
": A X S - w         /././.E.W / / Q ^./././.        I Z l l = F ",
"# > S l     C.!.R.R././.P.5.[ { { [ 8.Y././.T.Q.!.V.  k e ; = 4 ",
"S - 0 d     /./././././.| | | | | | | | /././././.T.  X r - 1 y ",
"7 X .     ~ ( @. .| o.| | | | | | | | | | ..| X.+._ !     # G F ",
"> d .   o ( ` _ { | | | | | | | | | | | | | | [ _ ` (     X 4 < ",
"  q -     ^ { | | | | | | | | | | | | | | | | | | [ ~     #     ",
"X     a M _ } | | | | | W.~.~.~.^.~.~.E.| | | | | { ( N p   < = ",
"+     /./.{ | | | | | 4././././././././.| | | | | | } /./.    1 ",
"7     /./.K.2.| | Z././././././././././././.4.| | 3.I././.    g ",
"5     /././.H.| | D././././././././././././.7.| | U./././.    q ",
"%     /././.G.| | S././././././././././././.6.| | P./././.    k ",
"q     /././.H.| | A././././././././././././.5.| | U./././.    L ",
"S     /./.G.O.| | D././././././././././././.8.| | 1.J././.    x ",
"k     /./.} | | } A././././././././././././.7.| | | | /./.    S ",
"%     / [ | | | ' ` _ /./././././././././.( ` ' | | | ] ~     L ",
"1     ! ` { { { Q E m L././././././././.F.b W ! { { { _ W     l ",
"y     ^ ( / ( ^                                 / ( / _ !     u ",
"-       $ $ X # =.:.,.v   V w.:.,.<.n   n <.>.=.  # $ $       & ",
"X ;             g.j.k.B   =.x.j.j.l.%.  %.z.l.d.                ",
"k L c X     =.h.m.M.M.9.  s.N.m.M.N.p.  y.N.m.n.f.&.    X - H J ",
".           -.k.m.m.M.m.n.M.M.M.M.M.m.n.M.M.M.n.h.&.    o   f D ",
"F F . X     :.l.M.M.M.M.M.M.M.M.M.m.m.m.M.M.M.m.h.-.. $ d   y . ",
"t = + l     $.t.b.n.M.m.m.m.M.m.m.M.m.m.M.M.m.b.e.#.  o 8   . O ",
"* q 0 d         i.v.N.N.N.N.N.N.N.N.m.m.K.N.c.r.    Z k S + f 8 ",
"q r d g =       ) ;.a.q.0.q.q.u.u.a.a.a.a.p.*.V     j 0 1 O 8 X ",
"< u X X =                                       g c 4 8 y 3   = ",
"- q X + 7 A         1 1 X X 5 X X # . X   X     1 l D y u X o r ",
"d 8 - l 7 l K = t i I 4 + l g X . - 1 l q h 1 + q h t y 8 7 1 = "
};
