/* XPM */
static char *result[] = {
/* columns rows colors chars-per-pixel */
"32 32 152 2 ",
"   c #010102",
".  c #04020B",
"X  c #0B090E",
"o  c #030113",
"O  c #090315",
"+  c #0C0C14",
"@  c #0A041D",
"#  c #120E18",
"$  c #101010",
"%  c #1A1B1D",
"&  c #20201E",
"*  c #010122",
"=  c #0B0A23",
"-  c #130825",
";  c #020238",
":  c #110B34",
">  c #201F27",
",  c #211A2C",
"<  c #201B32",
"1  c #261D3A",
"2  c #232323",
"3  c #2D2D2B",
"4  c #30302E",
"5  c #2D2A38",
"6  c #343433",
"7  c #36353B",
"8  c #3D3C3B",
"9  c #43423F",
"0  c #070646",
"q  c #01014B",
"w  c #140342",
"e  c #1C0547",
"r  c #010154",
"t  c #0A0057",
"y  c #05025C",
"u  c #160859",
"i  c #230C44",
"p  c #343241",
"a  c #383540",
"s  c #33335C",
"d  c #020068",
"f  c #0D036C",
"g  c #000076",
"h  c #39176F",
"j  c #211172",
"k  c #3A187B",
"l  c #493577",
"z  c #464542",
"x  c #484746",
"c  c #4A4946",
"v  c #4E4D4A",
"b  c #504F4C",
"n  c #52514E",
"m  c #4E4D52",
"M  c #555452",
"N  c #585754",
"B  c #5A5956",
"V  c #5D5C59",
"C  c #605F5D",
"Z  c #5B5C63",
"A  c #676567",
"S  c #75767B",
"D  c #07049B",
"F  c #240E93",
"G  c #301492",
"H  c #3A2987",
"J  c #0E00AC",
"K  c #0605B4",
"L  c #1005B3",
"P  c #2807B8",
"I  c #2C19B8",
"U  c #4B1F8E",
"Y  c #450599",
"T  c #49029D",
"R  c #4A159E",
"E  c #5C3591",
"W  c #441EA8",
"Q  c #5919AD",
"!  c #5427A8",
"~  c #5235AF",
"^  c #4424B3",
"/  c #4D28B0",
"(  c #5D23B3",
")  c #5E24BA",
"_  c #6126AE",
"`  c #662CB8",
"'  c #6637BE",
"]  c #5E4FA4",
"[  c #615EA1",
"{  c #7246B1",
"}  c #1B08C6",
"|  c #270EC6",
" . c #2B17C5",
".. c #3212C4",
"X. c #3E16D4",
"o. c #421CCB",
"O. c #4219D9",
"+. c #5335CF",
"@. c #5932DC",
"#. c #6729C0",
"$. c #6B2FC6",
"%. c #6A39C9",
"&. c #6939CE",
"*. c #7B3BC7",
"=. c #7134D6",
"-. c #7334DD",
";. c #7937DD",
":. c #7C3FDD",
">. c #7F3CE0",
",. c #7A45CC",
"<. c #7148CC",
"1. c #7849CF",
"2. c #785BCF",
"3. c #6846D9",
"4. c #7C49D3",
"5. c #7B5AD5",
"6. c #8639D7",
"7. c #813DE1",
"8. c #834CDD",
"9. c #8B4ADE",
"0. c #8859DB",
"q. c #915CDD",
"w. c #A24DDE",
"e. c #8463D6",
"r. c #8E6BD9",
"t. c #936DDE",
"y. c #9675D7",
"u. c #A568DE",
"i. c #B26FDE",
"p. c #A97ADE",
"a. c #B776DE",
"s. c #8B50E4",
"d. c #9254E1",
"f. c #AA6DE2",
"g. c #9A8DCA",
"h. c #A984DC",
"j. c #B797DD",
"k. c #B599DD",
"l. c #B28AE4",
"z. c #C496DE",
"x. c #C8A7DE",
"c. c #C9ABDA",
"v. c #CCBBDE",
"b. c #D3B3DC",
"n. c #C39EED",
"m. c #CBB9E7",
"M. c #D7C8D6",
"N. c #D6D4D9",
"B. c #DEDDDE",
"V. c #DFE0DE",
"C. c #D7D0E5",
"Z. c #E3D5F1",
/* pixels */
"z 9 n M v b 9 N n N M n 9 & & m     # M M N M m v v n M M M v x ",
"b M B N v 9 n N C B M     X i { j.q.=.( z B N B m M B B B N M n ",
"N V n B V B N N B n     - #.$.v.B.B.h.4.U n N N M M B B B N M M ",
"v n B V V 9 n V N 7   . ` ( *.B.B.B.m.w.>.A v M M M M M M N M n ",
"9 B V V B B 9 C v     T _ _ t.V.B.B.B.i.>.5 M v n M n M M N N m ",
"M 9 n 9 N B B 9 9   . T Q ,.h.N.v.g.[ ,.:.E M M v M M M M M N n ",
"n n N N N N 9 V 6   w T ` d.k.< @ S . @ G o m M v M M M M M B n ",
"n N B C 9 9 B M 3   e Y 1.p.c.% Z     = / @ n n M M v n n N Z M ",
"9 N n M M M B V 4     R 4.i.M.W ' , 6 <.Z.$ M n m M n v M M B M ",
"9 B N B V V V C 9     O q.u.b.C.m.l.f.n.B.S M v M M M M B N V M ",
"9 N B B B 9 M N M     . d.f.z.v.V.V.j.9.V.N.M V B M M M N M N m ",
"n N n N B M M M b 8 X O q.u.a.h.x.x.-.&.k.C.v V V B M N M N V M ",
"n N n n B B N 9 b M k @ s.q.h.u.8.%.<.~ j ] M N B N M M M B V n ",
"9 M n n n N B B M M x O s.8.k Q ;.' <.5.&.@ B B n M M N M N M v ",
"9 n 9 n N N N C N N N   i 8.z.u 7.) ! G ; O M M M B M N M M m v ",
"n M N n 9 N 9 9 b b n v + k T i U 6.;.&.e & n m n M v M n m v n ",
"x v v M N M v v n m M v M a   h @ 6.*.' 2 v 9 N b b 9 V V V 9 9 ",
"v N N B N N M v M M N M M v q q . .   @ 9 n n N n n B M V 9 M B ",
"M B B B M M M M N M B N M m P 2.q K O 6 9 B b n b n N M B B B 9 ",
"m N B M n m M M N M N B M 0 +.0.F h.&.s M M M N N n N n N C C 9 ",
"v M N M M m M N N N M N 7 : 5.2.y 3...7 B M M N N n N n N N N 9 ",
"M M M M M M M B B N M N 6 . 2.5.t | D 6 B n n M n b N N N n B B ",
"n m v M N M M N N N M M 7 L J y.H P K 4 V N M N n N N n B M N N ",
"v v v n N M m N M N M M p o.r @.e.g ; 4 N N B N N N N n V V V B ",
"M n v N B M n B N M M N f e.^ f  .r o 6 N B N N N b N B n V B n ",
"B M b M n n M B M M M m l r.y.P   * * 5 n M N N B n N n n N N n ",
"n N n n n M M M M M M > I y.3.q 2 * @ . b n N N B n n N n n N b ",
"v N n n v n M n M N M + } O.| X z . @   9 B V V N N B B V M V n ",
"v V B M v M M N M M M + X.X.d $ v       X 9 V 9 9 N B N B M V M ",
"z M M M v M n M M B z P O.X.J $ x 8     $ 9 M M N N B B B M M b ",
"x M N B N N M M B V c D e.r.t.$ v M M V B B N N N B C C C C n 9 ",
"b M M M v n n m n M n a : 5 1 8 n n n N B N n N B 9 9 M B C 9 M "
};
