/* XPM */
static char *result[] = {
/* columns rows colors chars-per-pixel */
"32 32 160 2 ",
"   c #010102",
".  c #02010B",
"X  c #09050E",
"o  c #0B0A0B",
"O  c #030114",
"+  c #090313",
"@  c #0D0B17",
"#  c #04021A",
"$  c #09031B",
"%  c #131213",
"&  c #1D1C1C",
"*  c #282A1E",
"=  c #040223",
"-  c #000029",
";  c #0F072A",
":  c #110921",
">  c #1B0E2A",
",  c #02003F",
"<  c #08003E",
"1  c #0E0D3E",
"2  c #282726",
"3  c #2A2A29",
"4  c #23213C",
"5  c #302E34",
"6  c #343332",
"7  c #393837",
"8  c #3C3B3A",
"9  c #43423F",
"0  c #010147",
"q  c #090447",
"w  c #1E0E46",
"e  c #171649",
"r  c #010053",
"t  c #130455",
"y  c #160158",
"u  c #1B0A58",
"i  c #241145",
"p  c #240D51",
"a  c #290A57",
"s  c #2E105E",
"d  c #170365",
"f  c #110F78",
"g  c #260F65",
"h  c #2A1867",
"j  c #371466",
"k  c #3F1576",
"l  c #3F296F",
"z  c #443D51",
"x  c #503A74",
"c  c #474643",
"v  c #4A4946",
"b  c #4E4D4B",
"n  c #504F4C",
"m  c #52514E",
"M  c #555452",
"N  c #585755",
"B  c #5A5956",
"V  c #58535F",
"C  c #5D5C59",
"Z  c #605F5D",
"A  c #696569",
"S  c #767779",
"D  c #010089",
"F  c #0D0089",
"G  c #110085",
"H  c #110B86",
"J  c #19108F",
"K  c #1F0C94",
"L  c #100699",
"P  c #3A0088",
"I  c #351281",
"U  c #370698",
"Y  c #0F03BC",
"T  c #2010AE",
"R  c #2009BD",
"E  c #341ABD",
"W  c #410096",
"Q  c #4D0D9F",
"!  c #4F109E",
"~  c #4B2689",
"^  c #4A229D",
"/  c #5C3996",
"(  c #4B1EA2",
")  c #5111A3",
"_  c #561CA7",
"`  c #4F24A5",
"'  c #572AA4",
"]  c #5923AA",
"[  c #5331A3",
"{  c #5D2FBC",
"}  c #4433B7",
"|  c #5738BA",
" . c #642FAF",
".. c #6228B4",
"X. c #622DBA",
"o. c #6936BA",
"O. c #594483",
"+. c #5F5C88",
"@. c #675096",
"#. c #776597",
"$. c #6E5FBD",
"%. c #2B09C6",
"&. c #3B15C8",
"*. c #3E14D1",
"=. c #442CC5",
"-. c #5B3DC8",
";. c #682AC5",
":. c #6C33C8",
">. c #6F38C9",
",. c #7436CA",
"<. c #722AD7",
"1. c #6838D4",
"2. c #7637D4",
"3. c #5C42C2",
"4. c #674BC8",
"5. c #7A4ACB",
"6. c #7859CD",
"7. c #6543D1",
"8. c #6D4CD1",
"9. c #6644DA",
"0. c #7D5BD0",
"q. c #8238C7",
"w. c #8033D4",
"e. c #813CD4",
"r. c #824ACF",
"t. c #8853C3",
"y. c #8B43D5",
"u. c #844AD5",
"i. c #8A55D7",
"p. c #8A58D5",
"a. c #9454D6",
"s. c #955DD6",
"d. c #8168C8",
"f. c #8969CF",
"g. c #9078CE",
"h. c #8162D2",
"j. c #8A68D1",
"k. c #9965D7",
"l. c #9776D2",
"z. c #A67BD7",
"x. c #B075D6",
"c. c #AF82D6",
"v. c #B784D6",
"b. c #B695D7",
"n. c #ADA7C9",
"m. c #BAA8D7",
"M. c #A58EEA",
"N. c #C38CD5",
"B. c #CC9DD4",
"V. c #C4B8CF",
"C. c #CDAFD7",
"Z. c #C9A5DA",
"A. c #CCBBD7",
"S. c #C7C2D7",
"D. c #CCC6D5",
"F. c #D6D5D6",
"G. c #D7D8D7",
"H. c #D7D6D8",
"J. c #DAD7DD",
"K. c #EFE0F9",
/* pixels */
"v b M M M n b b b m B M z + X X 5   o 7 M M N m m 9 9 M B 9 9 9 ",
"m M N B B B M m B B B u 2.2.b.m.:.s +   % C Z B N N m 9 B B B B ",
"M N N N B V M M B B B 1.a.D.H.F.g.;.] +   % N N M N m B B N C B ",
"n N N M N m M M m m / e.x.H.H.F.m. ...]     v m C m m B C B B 9 ",
"b B B M M b M M m M | y.C.F.F.F.F.5.) _ <   % m N m B B N C m 9 ",
"n M M M N M M b M c ,.o.[ $.+.n.V.s...Q P   % n n m B N 9 B 9 m ",
"m V n M M m M b M 7 i 0   * 6   z z.r.! P     M m n 9 N N m B m ",
"N C B M m b M M m 7 > U   o o n.% Z.i.] W .   m n M m m N N B m ",
"M B M M b m M n n c S K.O.A h ( M.B.a.] P     M B B m m m m m 9 ",
"M C B B m M M M n N F.G.y.2.D.J.D.N.s.o.    o Z C B N N B N B 9 ",
"m B M M M M M C V A H.S.<.A.F.F.b.v.k.o.+   2 N N m m N C C C n ",
"m C B M N M N Z Z #.S.g.g u.x.b.z.c.a.5.  i m m n m B B N m m n ",
"m Z B M N M N V N l ; [ h.{ 2.u.k.a.p.>.  Z M n 9 B B B m m m m ",
"b M V m M M M m C 8 h 1.8.{ ! 2.< ^ u. .o C N M B M m B m m m m ",
"b m M M N M B M M 9 I e { X.w...t.k.'   * B N C B B B m m m m 9 ",
"b b m b M n M m b m . ` 1.2.,.$ a p : 3 M N 9 C 9 9 m B 9 m M 9 ",
"n 9 m B m m m m N v 8 w ~ q.k O j @ m M b m m m b n M B M b b v ",
"n n m B N N N m m b b m . # q O L 1 N N M M M M m m M V B N M m ",
"n N B N m B 9 N m m m m = -.4.Y f.E 6 N N B M N M m M M B V B m ",
"v N B N m N M B N M N N H l.7.$ -.0.4 M N B M M V m n m M B B n ",
"v m N N 9 Z M C N M M B = J R $ | h.t n N N M B N M M m M M M b ",
"N N m N M B 9 B M m M B # 4.7.Y x h.y M M M B B N M M M M M M M ",
"B B m B C C M M B M M B # 3.4.+ 9.6.q M M M B M M M M M M m b m ",
"B C C C 9 M M B M B B B . F G # 8.T 7 B N M B M M m M N M b b b ",
"m B Z m B B m N B B B B b O d } d r 5 M N N M N V M M N N b b M ",
"m B N m N m m B M N M M v . d 0.8.&.6 m M M m M N M n M M b N N ",
"v B m m N m N B M M M b b % , d.j.&.e b M M M M N M M M M m N M ",
"m C m B B B N N M B B M n &   D 8.*.0 b m M N M m M b b m M M v ",
"N Z m B N N N n b M N M &     . %.*.t M n M M m N M M n M B C b ",
"9 m B B N B N n M M M N     - } =.*.u N M N C N M m m n M N m c ",
"m m B C C B N m N N B C B B } g.f.0.0 B M B C C M M N M C N M v ",
"B 9 B N B n n m n M N B N m q K @.f v B M M M b M b m n M m M b "
};
