/* XPM */
static char *result[] = {
/* columns rows colors chars-per-pixel */
"32 32 177 2 ",
"   c #020104",
".  c #02010B",
"X  c #09090A",
"o  c #131300",
"O  c #030114",
"+  c #090616",
"@  c #0D0B13",
"#  c #04021D",
"$  c #14121D",
"%  c #1B1C19",
"&  c #1C2015",
"*  c #010122",
"=  c #02012A",
"-  c #1D1B24",
";  c #040133",
":  c #130A38",
">  c #201638",
",  c #252323",
"<  c #27272C",
"1  c #2D2C2B",
"2  c #31302E",
"3  c #252537",
"4  c #363535",
"5  c #383735",
"6  c #3B3A3D",
"7  c #43423F",
"8  c #4F523B",
"9  c #010043",
"0  c #09004A",
"q  c #160C4A",
"w  c #161546",
"e  c #010054",
"r  c #03015E",
"t  c #150B5A",
"y  c #231346",
"u  c #383849",
"i  c #2B2753",
"p  c #3D3059",
"a  c #010064",
"s  c #03036A",
"d  c #020174",
"f  c #0C0677",
"g  c #03017A",
"h  c #180777",
"j  c #190678",
"k  c #1E107A",
"l  c #291464",
"z  c #220A7A",
"x  c #261177",
"c  c #3D296A",
"v  c #382677",
"b  c #44316C",
"n  c #464543",
"m  c #4A4946",
"M  c #4E4D4B",
"N  c #504F4C",
"B  c #52514E",
"V  c #44445A",
"C  c #514259",
"Z  c #555452",
"A  c #585754",
"S  c #5A5956",
"D  c #5C5B59",
"F  c #605F5D",
"G  c #5A5961",
"H  c #4A4C74",
"J  c #020184",
"K  c #1B048C",
"L  c #020094",
"P  c #0D0599",
"I  c #130599",
"U  c #20068E",
"Y  c #260B8B",
"T  c #230C94",
"R  c #291699",
"E  c #33258D",
"W  c #2D269A",
"Q  c #2509A9",
"!  c #2D0FAD",
"~  c #3311AE",
"^  c #3B1CAA",
"/  c #330EB1",
"(  c #3613B2",
")  c #371CBA",
"_  c #3224AA",
"`  c #4C368E",
"'  c #57388F",
"]  c #422F9A",
"[  c #493598",
"{  c #4D1EB8",
"}  c #4123AE",
"|  c #4E33A1",
" . c #543BA5",
".. c #573CAC",
"X. c #4323B1",
"o. c #4E2EB1",
"O. c #4830B2",
"+. c #5C3CB1",
"@. c #534487",
"#. c #674E9C",
"$. c #6D6C85",
"%. c #5F44AC",
"&. c #5D40B2",
"*. c #644BAB",
"=. c #6D52AC",
"-. c #7256AD",
";. c #6244B0",
":. c #684CB0",
">. c #7048BF",
",. c #7456B2",
"<. c #7558B0",
"1. c #7E67A1",
"2. c #3910DD",
"3. c #4424C7",
"4. c #4A35CA",
"5. c #5D37C4",
"6. c #552DDA",
"7. c #5B33DC",
"8. c #6535D6",
"9. c #6D4EDC",
"0. c #7D4AD0",
"q. c #7244D9",
"w. c #6542E9",
"e. c #7A4FE6",
"r. c #7150EE",
"t. c #6740F0",
"y. c #876CAF",
"u. c #825EC8",
"i. c #865AE6",
"p. c #8957FA",
"a. c #865DFB",
"s. c #955BF8",
"d. c #8D61EC",
"f. c #9166E6",
"g. c #9F75ED",
"h. c #8F60FE",
"j. c #9766FB",
"k. c #A36DFD",
"l. c #A671FD",
"z. c #AB78FB",
"x. c #AD7CFE",
"c. c #B47BFF",
"v. c #B87DFF",
"b. c #A78BAF",
"n. c #9689C7",
"m. c #9183D4",
"M. c #9B90D0",
"N. c #9381ED",
"B. c #AA95E6",
"V. c #AB8CFE",
"C. c #BB8CFF",
"Z. c #B790F9",
"A. c #B2A6E6",
"S. c #C68CFD",
"D. c #CB8DFF",
"F. c #D38EFF",
"G. c #C493FF",
"H. c #C699FE",
"J. c #CD9AFF",
"K. c #D89EFF",
"L. c #CDA7FE",
"P. c #CAABFE",
"I. c #D9A6FF",
"U. c #D5B7FF",
"Y. c #E2B4FF",
"T. c #E6BFFF",
"R. c #EFBCFF",
"E. c #F5BFFF",
"W. c #D6D1EE",
"Q. c #DBCBF9",
"!. c #E2DEEC",
"~. c #E1C9FE",
"^. c #F7D4FF",
"/. c #F1E8FF",
"(. c #FCEAFF",
"). c #FCF4FF",
"_. c #FEFEFF",
/* pixels */
"m M Z Z Z N M M N B S Z 6 2 < - & $ , 8 Z Z S B B m m M Z B 7 8 ",
"B Z A S S S Z B S S 7 X     r 1.n.e.g.f.b M D D Z B 8 N A S B M ",
"Z A A A S S Z Z S A X j.S.I.(._._._.I.v.k.c A A Z A B S S Z S A ",
"N A A Z Z Z Z Z B @ 5.S.K.^.)._._._.Y.C.c.O.6 A D Z N S F A Z M ",
"V A A A Z B Z Z B ; z.D.D.T._._._.).J.C.v.q.m B A B A A Z S B 8 ",
"Z A B Z Z Z Z M Z l l.I.(._._._._._.^.S.c.{ < B 8 N D Z N N m M ",
"N S B Z Z B B M B c z.Z.P.A.!._._.W.M.O.t # 5 B Z N N B Z Z N B ",
"A D A Z B N Z Z B 0   H i v z 2.O   o %   . Z B N Z N B A Z Z B ",
"Z S A Z M N Z N N + $.  @ O G 9.k     X V X N Z S S Z Z B B Z m ",
"Z S S S Z Z Z Z N . W i w @.m.Q.B.q     W . B D F F Z Z A A B m ",
"B S Z S Z B Z D D ; 7.a.p.p.V.P.~.a.N.t.k.-.D A B Z B A F F A M ",
"Z S S Z S Z S G D ' H.J.^.E.l.~.U.F.(.R.I.u.Z B M B Z S B B B M ",
"N G S Z Z Z Z S S > H.U.I.k.j./.C.j.9.G.J.` Z N N Z A S N N B B ",
"M A A Z Z Z Z Z S Z >.x.) i.p.).s.j.| j.k.y Z Z Z Z Z Z B B A N ",
"M B Z Z S Z S Z Z N ; a s._ a.L.d.w.s.# 8.- Z Z Z Z Z Z N N N n ",
"M M M N Z N Z B M B & s.k r.E +.4.h.4.: z m N B M N N N N N N m ",
"M 8 8 S B B N N A n n @ x z l 3.6.^ = 0.4 N B N M N Z S Z N M m ",
"M B A S Z S Z Z Z M M 1 . Y f # ; : . s 4 A Z A N Z Z S S A Z N ",
"M S A A Z A B 8 B B B Y ~   j r R   K =.r M Z A Z B Z Z A D S B ",
"8 Z A A B A B Z Z Z ,  ... .$ . . C [ P ] 3 Z A Z Z N B Z S A N ",
"m Z A A Z A B A A Z X <.T ] %._ } *.j g ! t M A G Z Z B B Z Z N ",
"Z Z Z A Z Z B B Z 2 d ;.O a ! Q +.P a O h Q 6 S Z Z Z Z Z Z Z Z ",
"A A Z A B Z Z Z Z 1 } [ = Q ^ ,.;./ d Z X f S A A Z Z A Z N N B ",
"S S D F A Z Z Z Z 2 =.x = P ( :.^ I g $ m n S Z Z N Z A B M M N ",
"B S F Z S A B Z A u s 9 = s ; ; R *.Q * S A Z S A Z Z A A M M Z ",
"B A Z B Z Z Z S A Z m 6 = L . e X.y.U 3 Z Z B Z S B B Z Z M Z A ",
"N Z N B Z B Z A Z Z Z N   e . J o.b.K M B Z Z Z A Z Z B Z B A Z ",
"B D A S A F A Z Z S S Z   # O . X._ g M N A Z Z B B V Z Z B A m ",
"A F B A Z Z Z B M Z A Z . . J = ( ( g Z N Z Z Z A A B B Z S D N ",
"N B A Z A F Z N Z Z Z A = L 9 P &.&.K S A A S A B B B N Z Z Z 7 ",
"M N F F F F F B A A S D u * B #.=.-.' G A A D S Z Z A A S A A m ",
"N m A Z B M M B N Z A A Z Z M p q c w S Z Z Z N B B B B B B Z M "
};
