/* XPM */
static char *result[] = {
/* columns rows colors chars-per-pixel */
"32 32 236 2 ",
"   c black",
".  c #000001",
"X  c #010101",
"o  c #000002",
"O  c #000003",
"+  c #000103",
"@  c #020202",
"#  c gray1",
"$  c #000004",
"%  c #000005",
"&  c #000107",
"*  c #050105",
"=  c #040404",
"-  c #050504",
";  c #060606",
":  c #00000B",
">  c #01010B",
",  c #01000C",
"<  c #03010D",
"1  c #09070D",
"2  c #0C0C0B",
"3  c #08080F",
"4  c #0D0D0C",
"5  c #10100F",
"6  c #000012",
"7  c #000014",
"8  c #020215",
"9  c #010117",
"0  c #030118",
"q  c #06001F",
"w  c #101010",
"e  c #141312",
"r  c gray8",
"t  c #151514",
"y  c #161615",
"u  c #171716",
"i  c gray9",
"p  c #151418",
"a  c #1A1A19",
"s  c #1C1C1A",
"d  c #1D1D1C",
"f  c #1D1D1D",
"g  c #1E1D1C",
"h  c #1E1D1D",
"j  c #1E1E1D",
"k  c #000020",
"l  c #010120",
"z  c #000021",
"x  c #020223",
"c  c #040421",
"v  c #000026",
"b  c #000028",
"n  c #01002A",
"m  c #00002B",
"M  c #01012C",
"N  c #0C062E",
"B  c #131224",
"V  c #020230",
"C  c #060233",
"Z  c #0A0832",
"A  c #14143D",
"S  c #20133A",
"D  c #22222A",
"F  c #2E2D2B",
"G  c #302F2D",
"H  c #31302F",
"J  c #32322F",
"K  c #292831",
"L  c #313031",
"P  c #323130",
"I  c #373735",
"U  c #393937",
"Y  c #3A393A",
"T  c #41403F",
"R  c #44433F",
"E  c #0C0140",
"W  c #080047",
"Q  c #020248",
"!  c #00004D",
"~  c #150F47",
"^  c #180C49",
"/  c #121246",
"(  c #151245",
")  c #1D124D",
"_  c #000050",
"`  c #03005E",
"'  c #1B0E5D",
"]  c #1D1554",
"[  c #16165A",
"{  c #3C3B41",
"}  c #010171",
"|  c #050072",
" . c #06017B",
".. c #05007D",
"X. c #18017C",
"o. c #2A1769",
"O. c #444340",
"+. c #454441",
"@. c #464541",
"#. c #454543",
"$. c #474642",
"%. c #474644",
"&. c #474645",
"*. c #484746",
"=. c #494844",
"-. c #4A4945",
";. c #494846",
":. c #4A4947",
">. c #4B4A46",
",. c #4A4A47",
"<. c #4C4B47",
"1. c #45444E",
"2. c #4A4949",
"3. c #4C4B49",
"4. c #4D4C48",
"5. c #4E4D49",
"6. c #4D4C4A",
"7. c #4E4D4B",
"8. c #4F4E4A",
"9. c #4D4C4C",
"0. c #4E4D4C",
"q. c #4F4E4C",
"w. c #504F4B",
"e. c #504F4D",
"r. c #51504C",
"t. c #52514D",
"y. c #51504E",
"u. c #52514E",
"i. c #52514F",
"p. c #53524E",
"a. c #54534F",
"s. c #484452",
"d. c #504F50",
"f. c #535250",
"g. c #535251",
"h. c #545351",
"j. c #555450",
"k. c #565551",
"l. c #545452",
"z. c #555452",
"x. c #565553",
"c. c #575652",
"v. c #575654",
"b. c #575655",
"n. c #585753",
"m. c #585755",
"M. c #595854",
"N. c #5A5955",
"B. c #595856",
"V. c #5A5957",
"C. c #5B5A56",
"Z. c #5C5B57",
"A. c #5B5A58",
"S. c #5C5B59",
"D. c #5D5C58",
"F. c #5E5D59",
"G. c #5D5C5A",
"H. c #5E5D5B",
"J. c #5F5E5A",
"K. c #5F5E5C",
"L. c #605F5D",
"P. c #0C0087",
"I. c #04008F",
"U. c #170187",
"Y. c #170089",
"T. c #1C008B",
"R. c #010191",
"E. c #0A0891",
"W. c #1F029D",
"Q. c #0301A2",
"!. c #0403AE",
"~. c #1000A9",
"^. c #2501AB",
"/. c #2C00A9",
"(. c #2A00BD",
"). c #4F32A0",
"_. c #0D00C1",
"`. c #0401CA",
"'. c #1B00DC",
"]. c #1C00DD",
"[. c #3700DA",
"{. c #2119DC",
"}. c #311BDA",
"|. c #0C01EF",
" X c #1600E1",
".X c #1A00E0",
"XX c #1802E1",
"oX c #1901E4",
"OX c #1509E0",
"+X c #1200E8",
"@X c #1E00EF",
"#X c #1F0AE8",
"$X c #280EE6",
"%X c #2505E8",
"&X c #2911E1",
"*X c #381BE9",
"=X c #2602F2",
"-X c #2700F4",
";X c #2D00F4",
":X c #3601F6",
">X c #3900F7",
",X c #3908FA",
"<X c #3C08FF",
"1X c #4407FB",
"2X c #4200FD",
"3X c #4000FE",
"4X c #4300FF",
"5X c #4002FF",
"6X c #4D1BF7",
"7X c #5016FA",
"8X c #492CE4",
"9X c #4C31E5",
"0X c #5C2DFB",
"qX c #673AED",
"wX c #6431FD",
"eX c #6E34FE",
"rX c #693AF8",
"tX c #6545EC",
"yX c #6943F1",
"uX c #7042F8",
"iX c #7442FB",
"pX c #7745FC",
"aX c #895BEC",
"sX c #8556F0",
"dX c #8A5CF6",
"fX c #8A5BF8",
"gX c #8B5BFA",
"hX c #8C5CFA",
"jX c #8D5CFB",
"kX c #9766F2",
"lX c #9263F8",
"zX c #9262FA",
"xX c #9565F9",
"cX c #9666F9",
"vX c #9564FA",
"bX c #9765FA",
/* pixels */
";.q.z.z.h.y.3.q.q.i.v.P r         e y J u.c.n.j.t.-.>.5.j.t.R $.",
"y.z.m.B.A.B.f.i.B.l.2 X               @ 5 n.Z.D.j.p.4.8.n.C.k.5.",
"h.v.m.B.A.B.x.z.V.i                     X G k.M.k.c.p.N.N.j.C.n.",
"y.v.v.x.z.f.z.x.f.;                         p.k.D.a.r.Z.F.n.k.5.",
"q.m.v.x.z.i.h.h.I X                         F p.c.a.M.n.c.N.t.$.",
"e.m.h.x.v.h.h.7.7.-                       X s w.8.r.Z.c.r.r.4.r.",
"i.V.f.h.z.i.h.7.f.4                       X g j.p.8.8.p.c.a.w.t.",
"z.K.v.h.i.q.v.z.i.y                       X j p.w.c.r.t.n.c.c.t.",
"h.V.z.x.7.f.z.y.y.u                       X d m.A.B.h.h.f.f.f.3.",
"x.S.m.V.h.h.h.z.q.y                       X h V.K.A.x.v.m.v.f.%.",
"i.B.z.v.z.f.h.V.S.U X                       T m.h.h.f.m.A.A.v.3.",
"f.S.m.x.m.z.m.L.G.t                         6.i.7.f.x.m.x.h.h.7.",
"i.H.V.z.v.z.v.V.v.a                         f.e.e.x.m.m.i.e.h.y.",
"3.v.m.f.v.h.x.f.B.&.X                   X f x.z.h.x.z.z.i.i.z.e.",
"6.i.z.h.m.z.B.z.z.f.=                   X &.x.v.x.x.h.h.e.q.q.%.",
"q.7.e.e.h.e.x.i.q.y.3.# o . o       o o H y.7.i.3.q.y.f.e.q.e.:.",
"4.<.t.Z.a.t.w.w.c.=.>.,.x 7 k $ O % v z L y.i.i.7.q.z.m.h.e.6.:.",
"4.w.p.N.c.M.j.t.k.5.8.{ XX~.].T.Y.X.+X.Xn g.z.x.i.i.x.B.B.m.z.e.",
"8.M.M.M.j.n.t.w.p.r.p.Z sXoX0X7X3XhX@X'.U.D h.v.z.f.h.x.B.S.V.i.",
"=.c.M.c.a.c.a.c.c.k.c.P.fX..kX{.>X8X-X| ;XE.d.v.x.f.y.i.z.B.m.e.",
"<.k.c.n.j.c.p.n.M.j.1 ).aX+ =X:X4X X/.6 (.[.s.B.m.z.f.f.f.x.x.e.",
"c.n.j.n.k.k.w.t.k.O.!.lX}.` ,X5X2X<X%XV Q _.c B.m.x.x.x.h.h.z.f.",
"c.c.j.M.j.n.k.j.c.+.W.rXW ^.bX6X&XcXyX~ K h b.v.v.h.z.v.h.y.y.i.",
"C.Z.F.J.a.k.c.c.c.n.p ' 8 I.dXo.#XgXiXE Y h.V.z.x.i.h.m.f.7.7.q.",
"f.B.K.h.A.m.i.x.v.B.B.m.3 M  .q _ OXpX^ 0.v.h.m.B.i.f.B.B.3.r.j.",
"f.v.x.e.h.h.f.V.v.v.z.h.&.9 m , $XzXuX) h.z.f.z.V.f.i.h.h.7.c.N.",
"7.z.y.f.z.h.z.V.x.x.h.i.*.9 v * 9XxXtX( i.x.x.x.v.z.h.i.h.y.n.j.",
"f.S.x.A.V.V.m.x.z.B.B.z.2.l b & wXvX|./ e.x.v.z.i.f.i.q.f.f.c.4.",
"z.H.x.B.x.B.v.e.y.z.x.h.;.R.! : 1XjXQ.B e.h.x.f.x.x.h.e.x.V.D.8.",
"7.z.x.B.m.V.v.e.f.h.z.v.g.[ } 0 *XeX`.A z.m.A.v.f.f.i.q.z.x.j.@.",
"7.e.A.H.H.A.m.x.m.m.V.G.K.b.9.w N S qX] v.V.S.B.x.x.m.v.A.m.c.=.",
"y.3.m.v.x.7.7.h.i.f.x.B.v.f.y.#.> < C 1.h.h.z.y.y.e.y.y.h.i.k.5."
};
