/* XPM */
static char *result[] = {
/* columns rows colors chars-per-pixel */
"32 32 253 2 ",
"   c black",
".  c #010100",
"X  c #000001",
"o  c #010101",
"O  c #020201",
"+  c #020202",
"@  c gray1",
"#  c #010007",
"$  c gray2",
"%  c #060605",
"&  c #060606",
"*  c #070308",
"=  c #00000E",
"-  c #080508",
";  c #0A0909",
":  c gray5",
">  c #0E0E0D",
",  c #130607",
"<  c #000017",
"1  c #000018",
"2  c #00001A",
"3  c #00001B",
"4  c #01001D",
"5  c #04001F",
"6  c #150F1F",
"7  c #131312",
"8  c #151514",
"9  c #181817",
"0  c #1D1D1B",
"q  c #1D1D1C",
"w  c #010028",
"e  c #07042B",
"r  c #07002C",
"t  c #14062C",
"y  c #171220",
"u  c #1E1E24",
"i  c #151429",
"p  c #1F1F2F",
"a  c #080135",
"s  c #100D30",
"d  c #1C1830",
"f  c #1D1D34",
"g  c #1F1E38",
"h  c #1F1E39",
"j  c #211F3A",
"k  c #231E3D",
"l  c #222220",
"z  c #232221",
"x  c #272626",
"c  c #272627",
"v  c #282726",
"b  c #26252B",
"n  c #292928",
"m  c #2A2928",
"M  c #2A2A28",
"N  c #2B2B2A",
"B  c #2D2C2B",
"V  c #2C2B2F",
"C  c #2F2B2F",
"Z  c #302F2E",
"A  c #2D2C31",
"S  c #2D2C32",
"D  c #2D2C33",
"F  c #2B2A35",
"G  c #2F2F35",
"H  c #22213B",
"J  c #312E32",
"K  c #302E38",
"L  c #353432",
"P  c #373636",
"I  c #30303C",
"U  c #3B3A39",
"Y  c #3C3A38",
"T  c #3B3D39",
"R  c #3E3D3B",
"E  c #40403D",
"W  c #41403E",
"Q  c #44433F",
"!  c #040142",
"~  c #0D0047",
"^  c #0D004A",
"/  c #000050",
"(  c #040354",
")  c #090152",
"_  c #0D0057",
"`  c #01005A",
"'  c #09075F",
"]  c #100F53",
"[  c #231F4D",
"{  c #262242",
"}  c #34344C",
"|  c #0E0266",
" . c #04006F",
".. c #0D0469",
"X. c #130263",
"o. c #0C0674",
"O. c #02007D",
"+. c #02007F",
"@. c #190E76",
"#. c #464541",
"$. c #474642",
"%. c #474644",
"&. c #474645",
"*. c #484746",
"=. c #494844",
"-. c #4A4945",
";. c #494846",
":. c #4A4947",
">. c #4B4A46",
",. c #4C4B47",
"<. c #494949",
"1. c #4C4B48",
"2. c #4C4B49",
"3. c #4D4C48",
"4. c #4E4D49",
"5. c #4D4C4A",
"6. c #4E4D4B",
"7. c #4F4E4A",
"8. c #4F4F4B",
"9. c #4F4E4C",
"0. c #504F4B",
"q. c #504F4D",
"w. c #51504C",
"e. c #52514D",
"r. c #51504E",
"t. c #52514F",
"y. c #53524E",
"u. c #54534F",
"i. c #535250",
"p. c #535251",
"a. c #545351",
"s. c #555450",
"d. c #555451",
"f. c #565551",
"g. c #555452",
"h. c #555453",
"j. c #565553",
"k. c #575652",
"l. c #575654",
"z. c #585753",
"x. c #585755",
"c. c #595854",
"v. c #5A5955",
"b. c #595856",
"n. c #5A5956",
"m. c #5A5957",
"M. c #5B5A56",
"N. c #5C5B57",
"B. c #5B5A58",
"V. c #5B5A59",
"C. c #5C5B59",
"Z. c #5D5C58",
"A. c #5E5D59",
"S. c #5D5C5A",
"D. c #5E5D5B",
"F. c #5F5E5A",
"G. c #5F5E5C",
"H. c #605F5D",
"J. c #0F0B83",
"K. c #05018B",
"L. c #1A1384",
"P. c #130196",
"I. c #1702AA",
"U. c #0001B5",
"Y. c #0900B3",
"T. c #1F05B8",
"R. c #2D01BC",
"E. c #6441AB",
"W. c #1100CA",
"Q. c #1600CC",
"!. c #1B01DA",
"~. c #3300CB",
"^. c #3408C8",
"/. c #200ADB",
"(. c #3A00DF",
"). c #3825DA",
"_. c #3926DE",
"`. c #0B02E6",
"'. c #1E00E7",
"]. c #2100E2",
"[. c #2300E9",
"{. c #2401ED",
"}. c #240AEA",
"|. c #2C0EE9",
" X c #3A00E5",
".X c #3C0AE5",
"XX c #3D0FE4",
"oX c #3503ED",
"OX c #3E0EEE",
"+X c #3E19EF",
"@X c #2500F1",
"#X c #2600F0",
"$X c #3100F5",
"%X c #3500F5",
"&X c #3A01F7",
"*X c #3E00F4",
"=X c #310EF2",
"-X c #3701FE",
";X c #3A00F8",
":X c #3A01F8",
">X c #3B00F9",
",X c #3A00FA",
"<X c #3E00FA",
"1X c #3C00FD",
"2X c #3C0CFE",
"3X c #3C17F2",
"4X c #3F2BE5",
"5X c #4B30DD",
"6X c #4101FC",
"7X c #4200FE",
"8X c #4300FE",
"9X c #4200FF",
"0X c #4400FE",
"qX c #4707FE",
"wX c #450BFF",
"eX c #470AFE",
"rX c #450EFE",
"tX c #4210F5",
"yX c #4E12FE",
"uX c #4819F9",
"iX c #4E1DFA",
"pX c #501EF5",
"aX c #501FFA",
"sX c #521AFE",
"dX c #402BE9",
"fX c #5437E6",
"gX c #5838E3",
"hX c #612EFA",
"jX c #672CFC",
"kX c #6936FA",
"lX c #6C32FD",
"zX c #6240E9",
"xX c #7049E9",
"cX c #7F54EF",
"vX c #6B41F1",
"bX c #7F49F9",
"nX c #8156D4",
"mX c #834FF9",
"MX c #804CFC",
"NX c #8558F4",
"BX c #8D5FF0",
"VX c #8353FB",
"CX c #8050FF",
"ZX c #8953FD",
"AX c #8B5AFB",
"SX c #8E5EFA",
"DX c #8F5FFA",
"FX c #9363F7",
"GX c #9667F6",
"HX c #9766F9",
"JX c #9565FA",
"KX c #9463FC",
"LX c #9462FE",
/* pixels */
";.9.g.g.a.r.2.9.9.i.l.U q       o 7 0 L 8.k.z.s.e.-.>.4.s.e.Q $.",
"r.g.x.b.B.b.i.t.m.b.9 o o           o o : f.N.Z.s.y.3.7.z.M.f.4.",
"a.l.x.b.B.b.j.g.m.Z o                   o l f.c.f.k.y.v.v.s.M.z.",
"r.l.l.j.g.i.g.j.i.>                         ,.s.Z.u.w.N.A.z.f.4.",
"9.x.l.j.g.t.a.a.t.                        . 0 y.k.u.c.z.k.v.e.$.",
"q.x.a.j.l.a.a.6.a.;                         & 0.7.w.N.k.w.w.3.w.",
"t.m.i.a.g.t.a.6.i.9 o                       % s.y.7.7.y.k.u.0.e.",
"g.G.l.a.t.9.l.g.t.m o                       & y.0.k.w.e.z.k.k.e.",
"a.m.g.j.6.i.g.r.r.N o                       % x.B.b.a.a.i.i.i.2.",
"j.C.x.m.a.a.a.g.9.n O                       @ m.G.B.j.l.x.l.i.%.",
"t.b.g.l.g.i.a.m.S.2.o                     o W l.a.a.i.x.B.B.l.2.",
"i.C.x.j.x.g.x.H.S.v o                     o U r.6.i.j.x.j.a.a.6.",
"t.D.m.g.l.g.l.m.l.B o                       q.q.q.j.x.x.t.q.a.r.",
"2.l.x.i.l.a.j.i.m.j.o                     $ x.g.a.j.g.g.t.t.g.q.",
"5.t.g.a.x.g.b.g.g.i.8 +                 o &.j.l.j.j.a.a.q.9.9.%.",
"9.6.q.q.a.q.j.t.9.r.2.7 o X X         X z r.6.t.2.9.r.i.q.9.q.:.",
"3.,.e.N.u.e.0.0.k.=.>.1.! 5 2 1 1 3 / _ [ 9.t.t.6.9.g.x.a.q.5.:.",
"3.0.y.v.k.c.s.e.f.4.0.y xX1X,X.X XXX;XrXgXd g.j.t.t.j.b.b.x.g.q.",
"7.c.c.c.s.z.e.0.y.0.Y J.MXR.eXvXqXNX-X^.ZXL.<.j.g.i.a.j.b.C.m.t.",
"=.k.c.k.u.k.u.k.k.d.H JX5X) &X}.0X=X$X .fXBX} l.j.i.r.t.g.b.x.q.",
",.f.k.z.s.k.y.z.c.s.U.GX+.4 (.<X9X>X~.= K.FXO.b.x.g.i.i.i.j.j.q.",
"k.z.s.z.f.f.0.e.k.6 CX`.E ` iXyX:XsXuX' M oXkXT x.j.j.j.a.a.g.i.",
"k.k.s.c.s.z.f.s.z.i +X] b | AXLX( KXmXX.I @.|.R l.a.g.l.a.r.r.t.",
"M.N.A.F.u.f.k.k.k.n.x z.p I.lXaX- hXjXP.D p.c g.j.t.a.x.i.6.6.9.",
"i.b.G.a.B.x.t.j.l.b.m.l.k 6X'.Y.< W.[.*XG j.a.x.b.t.i.b.b.2.w.s.",
"i.l.j.q.a.a.i.m.l.l.g.i.h {.7X@X# %X7X].S a.i.g.m.i.t.a.a.6.k.v.",
"6.g.r.i.g.a.g.m.j.j.a.r.f !.8X#X# %X7XQ.V g.j.j.l.g.a.t.a.r.z.s.",
"i.C.j.B.m.m.x.j.g.b.b.a.u o.VXT.w /.bX..F g.l.g.t.i.t.9.i.i.k.3.",
"g.D.j.b.j.b.l.q.r.g.j.i.g dXHXE.t nXHX_.C i.j.i.j.j.a.q.j.m.Z.7.",
"6.g.j.b.x.m.l.q.i.a.g.h.j 4XDXzX, cXSX).J l.B.l.i.i.t.9.g.j.s.#.",
"6.q.B.D.D.B.x.j.x.x.m.V.{ tXwX3X* pX2XOXK b.C.b.j.j.x.l.B.x.k.=.",
"r.2.x.l.j.6.6.a.t.i.j.x.A a ~ s *.e ^ r P i.g.r.r.q.r.r.a.t.f.4."
};
