/* XPM */
static char *result[] = {
/* columns rows colors chars-per-pixel */
"32 32 193 2 ",
"   c #020203",
".  c #0A0B06",
"X  c #05040A",
"o  c #09070D",
"O  c #0A0A0B",
"+  c #080613",
"@  c #0D0C13",
"#  c #0E0C1B",
"$  c #180F1A",
"%  c #121116",
"&  c #1A191A",
"*  c #20191B",
"=  c #1E201C",
"-  c #050E2C",
";  c #110E22",
":  c #161224",
">  c #1A152C",
",  c #1D1A2C",
"<  c #0C0A3C",
"1  c #1D1B31",
"2  c #19183A",
"3  c #231E2C",
"4  c #251C35",
"5  c #241B3C",
"6  c #212023",
"7  c #2A2B2E",
"8  c #2E2B32",
"9  c #282838",
"0  c #312D34",
"q  c #37353B",
"w  c #38363B",
"e  c #3C3C3C",
"r  c #5B0709",
"t  c #491600",
"y  c #571604",
"u  c #5A1903",
"i  c #5B1E0A",
"p  c #471710",
"a  c #7A0703",
"s  c #651602",
"d  c #6C1A01",
"f  c #761200",
"g  c #5A2313",
"h  c #572919",
"j  c #7F2101",
"k  c #593225",
"l  c #58382D",
"z  c #403F3E",
"x  c #583A38",
"c  c #6E3334",
"v  c #43423F",
"b  c #53433C",
"n  c #59443B",
"m  c #211D4C",
"M  c #2E2A46",
"N  c #2D264A",
"B  c #322D42",
"V  c #312B4E",
"C  c #363343",
"Z  c #3D3B45",
"A  c #3B364B",
"S  c #2F2855",
"D  c #372B57",
"F  c #3B2D52",
"G  c #352D5A",
"H  c #273156",
"J  c #3F3356",
"K  c #1F3869",
"L  c #3C3463",
"P  c #383469",
"I  c #433F45",
"U  c #412F5B",
"Y  c #423356",
"T  c #43345B",
"R  c #453768",
"E  c #4E3E6C",
"W  c #433774",
"Q  c #463C73",
"!  c #493F76",
"~  c #464543",
"^  c #4D4641",
"/  c #4A4946",
"(  c #474649",
")  c #4D4C4A",
"_  c #564147",
"`  c #514F4C",
"'  c #52514E",
"]  c #4C465A",
"[  c #514C57",
"{  c #555452",
"}  c #585754",
"|  c #5A5956",
" . c #58545B",
".. c #5D5C59",
"X. c #524667",
"o. c #534D62",
"O. c #5B5567",
"+. c #5E5C6C",
"@. c #4E427B",
"#. c #584679",
"$. c #5E4C7B",
"%. c #5D5073",
"&. c #67666E",
"*. c #666574",
"=. c #696779",
"-. c #6E697F",
";. c #860A00",
":. c #950D00",
">. c #8B1A02",
",. c #961302",
"<. c #8B1314",
"1. c #AC1404",
"2. c #A51903",
"3. c #BC1501",
"4. c #AA1713",
"5. c #B71C12",
"6. c #903B2E",
"7. c #982E39",
"8. c #B52B34",
"9. c #C91B07",
"0. c #F21F0E",
"q. c #C12017",
"w. c #EF2509",
"e. c #E32B28",
"r. c #84433F",
"t. c #AA497B",
"y. c #4C4583",
"u. c #524682",
"i. c #5B4A84",
"p. c #564A89",
"a. c #5A4D93",
"s. c #5E5196",
"d. c #634D87",
"f. c #675588",
"g. c #6E5B8E",
"h. c #6C4F92",
"j. c #6D5193",
"k. c #63559A",
"l. c #6D5899",
"z. c #715497",
"x. c #735A95",
"c. c #72569A",
"v. c #755B9A",
"b. c #7A5E9F",
"n. c #6D668E",
"m. c #727182",
"M. c #7D7B8E",
"N. c #796797",
"B. c #7B759A",
"V. c #4F54A2",
"C. c #5F54A2",
"Z. c #6B5CAA",
"A. c #6D5EB0",
"S. c #7C63A4",
"D. c #7D65A9",
"F. c #7968AB",
"G. c #7262B1",
"H. c #7964BD",
"J. c #7E67C2",
"K. c #A14980",
"L. c #A25496",
"P. c #826AA6",
"I. c #8266AD",
"U. c #846BAA",
"Y. c #8B76AF",
"T. c #957FAA",
"R. c #876BB6",
"E. c #896BB3",
"W. c #916DB7",
"Q. c #8E73B4",
"!. c #9274B3",
"~. c #947BB4",
"^. c #957BB8",
"/. c #8E84AD",
"(. c #9588A7",
"). c #9D94AE",
"_. c #9C84B5",
"`. c #9B89B5",
"'. c #9E95B5",
"]. c #A69DAA",
"[. c #A283B5",
"{. c #A38CB5",
"}. c #A392B6",
"|. c #A993B5",
" X c #A69AB7",
".X c #AE9FB3",
"XX c #ACA4B5",
"oX c #ADAAB9",
"OX c #B1ACB4",
"+X c #B2AEBA",
"@X c #B5B4B4",
"#X c #B6B6B9",
"$X c #C5C4D0",
/* pixels */
"/ ) O.g.d.d.f.%.Y 4 @ $ w / ` / ` ` ' } ' } } { n b v ' { ' v v ",
"` [ S.R.!. XOXOXY.c.$.4 o 0 ' / / ' | ..| | | ..} | ) ) | | { ' ",
"[ g.R.!.XX@X@X@X).I.I.x.$   7 ) ' | ....| } } | } } ' | | ' | | ",
"o.D.W.[.OX@X@X@X.XP.P.P.j.% X 8 ' { } } | | ' } ..' ' | ..} { ) ",
"] I.!.|.@X@X@X@X@XT.N.Z.P.#.X % v { ' ' } } ' ' } ' | } | } ' v ",
"X.E.^. X@X@X@X#X@X{.I.b.v.h.4 X 0 ' ' { { { ' ' ^ ' | } ' ' / ' ",
"T I.l.d.n.B.M.)..X{.!.P.c.z.Y   = ) ' { { } } | { ' / ' } ' ' ' ",
"4 i.m .     5 < -.).!.E.v.z.R   & ) { } { | | n ) } ' ' } } } ' ",
"$ W q 6 = +.&.+.X (.`.Y.S.z.T   O z } } ' } } } | | ' ' { ' ' ) ",
"8 S. .= # q o.B.B ].}.Y.P.h.F X   @ 7 ) { } } | ..| ' } | } ' / ",
"=.oX/.n.] R f.F./.OX}.^.I.#.4     @ @ 6 e { ' } } ' ' | | ..| / ",
"#X#X}.W.~.'.oX+XOXXX[.^.U.D o X   1 H P M z ' ` ' ' } | } { ' ) ",
"$X+XY.Q.|.OX@X@XOX|._._.U.5 o   > L p.k.p.H ) ' ' { { | ' ' ' ' ",
"+X}.F.S.}.OX@XXX{.{.[.^.U.+ X # V @.@.s.Z.@.7 ' { { { { ' ' ' ' ",
"`.n.E f.d.N.T.{.{.{.~.^.D.: X > G @.M L G.s.6 e { { { ' ' ' ' / ",
"J , B A %.X.$.S._._.^.^.D.o + > L p.N , Z.Z.H = / ) ' ' ) ) ) / ",
"w Z m.m.M.M.=.R S.I.S.Y.v.  # > G y.L , k.G.! O ~ ) { } { ) ) ) ",
") ( m.+.A m.*.% i.i.Y x.T   ; # M W @.N p.G.u.  w ' } }  .} { ) ",
") ' ~ I O.+.q D l.E #.Y @ 0 ) 7 1 L @.D R Z.@.+ Z ' { { } ..| ' ",
"/ } ` ] +.C T f.#.Y Y 8 w } } / 9 G u.Q R Z.P 2 A { ) { { }  .` ",
"/ ' } / 3 M R Y 3 Z z ' | } ' ' Z S u.k.W W G P H ` ' ' { { { ` ",
"} } } ' v w 8 w / ) ' | | ' ' ' / M U d.s.W y.y.V ) } } { { { ' ",
"} { ' | { } ' } } } } ..| { | { ' 9 o K Z.A.A.a.A ) { } { [ ' ' ",
"........{ { { ' } ..} } } { | ) { x 9.c V.J.H.C.H ~ { } ' ) ) ) ",
"' ....{ ..} ' { }  .| | } { | { { I 9.q.y.J.J.t.7._ { | | ) ` ' ",
"' { { ' { { { | { } { { { { ` / { w 4.9.8.K.L.e.w.r.` { { ) } | ",
"` ' ' ' { { { | { { { ` { { ` ) ^ * 1.3.9.0.5.1.w.6.} ' { ` } ' ",
"' ..} ..}  .} } { |  .{ { { ' x 0 - <.3.1.:.;.a 9.c ' ` ' ' } ) ",
"{ O.{ | { | } ) ` { { { ' k u u p $ r 2.,.f s ,.5.c { ) } | ..` ",
"` { { | } | } ' { { { } | n h i u y r f j d t >.2.g { ) { { ' ~ ",
") ' ........ .{ | } | ......` x g i s s d u u d d i } } | | } ^ ",
"' / } } { ) ) { ` { { | | ' ` ` ^ b n l h g g g k ^ ' ' { ' { ) "
};
