/* XPM */
static char *result[] = {
/* columns rows colors chars-per-pixel */
"32 32 165 2 ",
"   c #010102",
".  c #04030B",
"X  c #08070E",
"o  c #0E0D0D",
"O  c #060214",
"+  c #0D0C13",
"@  c #02011A",
"#  c #080518",
"$  c #161516",
"%  c #12141B",
"&  c #1D1D1C",
"*  c #030123",
"=  c #01002E",
"-  c #08002B",
";  c #130E2C",
":  c #191820",
">  c #000035",
",  c #0A073A",
"<  c #160837",
"1  c #1C0939",
"2  c #222221",
"3  c #282827",
"4  c #2C2C2C",
"5  c #31312E",
"6  c #2B2838",
"7  c #353333",
"8  c #3C3B3C",
"9  c #44433F",
"0  c #040246",
"q  c #180548",
"w  c #181742",
"e  c #070454",
"r  c #0D0C59",
"t  c #261249",
"y  c #241A5C",
"u  c #282345",
"i  c #30244E",
"p  c #372E48",
"a  c #3A2F50",
"s  c #02006E",
"d  c #0B096E",
"f  c #040372",
"g  c #371C69",
"h  c #240674",
"j  c #35007A",
"k  c #2C1874",
"l  c #40255F",
"z  c #421A7F",
"x  c #464543",
"c  c #4A4946",
"v  c #47454B",
"b  c #4E4D4B",
"n  c #504F4C",
"m  c #52514E",
"M  c #4E4C51",
"N  c #504E50",
"B  c #555452",
"V  c #585754",
"C  c #5A5956",
"Z  c #5D5C59",
"A  c #605F5D",
"S  c #5C4D74",
"D  c #0B0185",
"F  c #120385",
"G  c #0B089C",
"H  c #19049D",
"J  c #3D018C",
"K  c #2A1582",
"L  c #3D1C88",
"P  c #2B0D99",
"I  c #271694",
"U  c #301890",
"Y  c #1A08BB",
"T  c #451C85",
"R  c #470496",
"E  c #461A95",
"W  c #482281",
"Q  c #42328F",
"!  c #502091",
"~  c #512198",
"^  c #57289D",
"/  c #4C3298",
"(  c #603D94",
")  c #4D1EAC",
"_  c #5418A5",
"`  c #581AA8",
"'  c #5725A8",
"]  c #5F24B1",
"[  c #4832BA",
"{  c #642EBC",
"}  c #6532BD",
"|  c #574198",
" . c #797187",
".. c #786B9F",
"X. c #5E46BE",
"o. c #6F58AC",
"O. c #2B07C3",
"+. c #2B10C1",
"@. c #3413C6",
"#. c #331AC4",
"$. c #3E13D0",
"%. c #4016D0",
"&. c #4323C3",
"*. c #5C3BC2",
"=. c #522FD0",
"-. c #5834D2",
";. c #6628C6",
":. c #7437C6",
">. c #7037CD",
",. c #6F38D7",
"<. c #7D36D7",
"1. c #7939D8",
"2. c #5E47C4",
"3. c #6445CA",
"4. c #7743C7",
"5. c #7256C4",
"6. c #7C5DCC",
"7. c #6946D0",
"8. c #7C47D7",
"9. c #764ED7",
"0. c #7756D6",
"q. c #7D5CD2",
"w. c #926CBE",
"e. c #8B3BD7",
"r. c #903FD9",
"t. c #8B59C9",
"y. c #8448D6",
"u. c #8B49D6",
"i. c #8B57D6",
"p. c #8F59D5",
"a. c #9759D5",
"s. c #8464CE",
"d. c #8768CC",
"f. c #8A6ACF",
"g. c #9876CE",
"h. c #8463D0",
"j. c #8967D1",
"k. c #8A69D1",
"l. c #9C6DD6",
"z. c #9A6ED8",
"x. c #AB66D6",
"c. c #A073D7",
"v. c #A172E3",
"b. c #888AA0",
"n. c #A09FAC",
"m. c #A080D0",
"M. c #AF83D5",
"N. c #B485D6",
"B. c #BA85D7",
"V. c #A796DC",
"C. c #B497D8",
"Z. c #A9A1D2",
"A. c #BBA2D6",
"S. c #B187EA",
"D. c #BAADE5",
"F. c #BEA5F0",
"G. c #CA99D5",
"H. c #C9ABD6",
"J. c #CCB0D7",
"K. c #C9BED1",
"L. c #C6C4C8",
"P. c #D5D5D6",
"I. c #D7D8D6",
"U. c #D7D7DA",
"Y. c #D2C6E2",
/* pixels */
"x 9 m B b n 9 B m V V m 5 5 b $ $ & c B B C N n n b N B B B n v ",
"b B C V n 9 m V A C 5       z w.t.;.{ p V C C C N N C C C V B n ",
"V Z m C C m V B C 5     ~ ;.g.I.I.C.1.' b B V C B B C C C V V B ",
"b m C Z Z m m Z Z     E ] ] C.I.U.P.x.<. .B n n V B B B B B V n ",
"9 B C C V C 9 Z 2   q _ ` 4.K.P.P.P.B.y.( B N B B B B B B B C b ",
"m B 9 B V C C 9 o   j _ ' i.K.P.n.Z.d.1.:.B B B b B B B V B V N ",
"m 9 9 Z C 9 9 Z     J R 4.c...; 4 % . r T N B B b B N B B B C B ",
"V Z V C V V A 9     J { p.C.2 b.      k # n n N B B b n B V Z B ",
"9 V B B m B C A     R ' u.H.o.3.X $ g D.6 B B m M B B b B B C B ",
"9 C B C V V C A       } a.G.K.F.C.S.v.Y.L.B B b B B B B C B Z B ",
"9 V C C C m m m &     :.z.N.J.I.P.A.u.P.U.m B Z C B B B B B C B ",
"9 B B V C V m n c X   4.a.N.l.A.J.z.) V.P.a M Z Z C B B B V Z N ",
"C C 9 V C C B n n S . >.i.z.M.u.8.E 7.O | ^ B B C V B V B Z Z N ",
"9 V V V V V V B B V # :.y.} ' 1.h 9.0.9.L B B V B B B B B V B b ",
"9 V 9 C m B V V V B $ # 4.t.l } <.t K q < b B B B V B C B B B b ",
"9 C C 9 m m 9 m m b m + < ' g 1 e.<.,.E O b M b B B b B b M b b ",
"b b b B C B b b M B B b x X ! - :.r.>.W 7 9 9 V n n 9 Z A C 9 V ",
"b B C C C B M B B B B B B < @ > @ .   7 n n m C 9 V Z Z C 9 V 9 ",
"N C C C B B N B B B C B r 5.[ +.G s . 8 n m m m V 9 Z 9 C C Z 9 ",
"m V C B M B B B C B B B k q.I -.m.@.= 3 B V B B V V C V C Z A 9 ",
"b B B B B B B V C B V : [ 6., Y f.I @   B B V B V m V m C V m 9 ",
"B B B B B B B V C B B % 0.*.e @.2.D @   7 m m B m n V V V m C Z ",
"B M b B V B B V V C v &.k.I U $.h.X.*   & m V B m V V m C V V V ",
"b b b B V B N B B C v &.j.y +.%.j.U 8   b V Z V V V V m Z Z C C ",
"B b c C C B m V V B b d / F $.$.Y e n B Z A C V m m C Z m Z C m ",
"C B n B B m B C B m B o   0 O.h.-.s m B V 9 V V C m m m m V C m ",
"m V m m m B B B V B m       P 7.g.Q n m 9 Z V V C V m V m m m m ",
"n V m m b m N B V C       x f =.6.#.V V V Z C C V V C C Z m Z m ",
"n Z C B m B B B m B       $ & Y s.2.w m 9 Z C V 9 V C V Z m A V ",
"x B B B b B B N V V B 2 2 4 7 H s.k.K u V V V 9 B V C V C V C 9 ",
"c V V C B B B B C A C C A A V r 5.d.6.u C Z C C C C A A A A m 9 ",
"n m B B N m m m n V m m V V n c 0 i r 6 Z Z 9 B C 9 9 V V A 9 V "
};
