/* XPM */
static char *result[] = {
/* columns rows colors chars-per-pixel */
"32 32 176 2 ",
"   c #010102",
".  c #03020C",
"X  c #0A0B0B",
"o  c #040211",
"O  c #0A0713",
"+  c #0E0C14",
"@  c #02011D",
"#  c #100F19",
"$  c #14141E",
"%  c #1B1B19",
"&  c #2B2C19",
"*  c #010023",
"=  c #090023",
"-  c #01002C",
";  c #1D1B24",
":  c #020234",
">  c #03013C",
",  c #0A053D",
"<  c #0C0838",
"1  c #170C39",
"2  c #10103A",
"3  c #151938",
"4  c #282826",
"5  c #24232A",
"6  c #302F2E",
"7  c #30302C",
"8  c #2A2A3E",
"9  c #353634",
"0  c #3A3937",
"q  c #3C3B3A",
"w  c #3B4133",
"e  c #43423F",
"r  c #030244",
"t  c #080547",
"y  c #020248",
"u  c #010053",
"i  c #0A0455",
"p  c #01005B",
"a  c #0D095B",
"s  c #180657",
"d  c #16085A",
"f  c #393340",
"g  c #3F3F47",
"h  c #00006D",
"j  c #0A0969",
"k  c #100164",
"l  c #1B076B",
"z  c #140D6C",
"x  c #040375",
"c  c #03017D",
"v  c #0B0178",
"b  c #120076",
"n  c #1A0775",
"m  c #20066A",
"M  c #281976",
"N  c #3B1C7B",
"B  c #3B207C",
"V  c #4B3679",
"C  c #474643",
"Z  c #494744",
"A  c #4A4946",
"S  c #474549",
"D  c #4E4D4B",
"F  c #504F4D",
"G  c #52514E",
"H  c #4F4C50",
"J  c #555452",
"K  c #585754",
"L  c #5A5956",
"P  c #5C5B59",
"I  c #605F5D",
"U  c #030183",
"Y  c #0E0C82",
"T  c #000088",
"R  c #130788",
"E  c #140090",
"W  c #1C0196",
"Q  c #280387",
"!  c #270987",
"~  c #20068E",
"^  c #391D86",
"/  c #240595",
"(  c #250995",
")  c #290B95",
"_  c #24059A",
"`  c #2B0C9B",
"'  c #2E1196",
"]  c #331995",
"[  c #3A1C94",
"{  c #391F98",
"}  c #3A2A83",
"|  c #3D2698",
" . c #3E1BB3",
".. c #513B8A",
"X. c #442C9A",
"o. c #4A3396",
"O. c #503796",
"+. c #533C95",
"@. c #4A2CA5",
"#. c #5938A1",
"$. c #4B2AB6",
"%. c #542EBF",
"&. c #4F33B6",
"*. c #553FB0",
"=. c #594E8B",
"-. c #5C4496",
";. c #584198",
":. c #535092",
">. c #644B9A",
",. c #725A96",
"<. c #666184",
"1. c #76689D",
"2. c #6E59B2",
"3. c #7361AC",
"4. c #4E2DC3",
"5. c #593AC8",
"6. c #6035C7",
"7. c #633BCB",
"8. c #693FDA",
"9. c #5E20E7",
"0. c #5638E4",
"q. c #6F44C4",
"w. c #6840CF",
"e. c #7F58D5",
"r. c #7850DC",
"t. c #6344E5",
"y. c #6848EE",
"u. c #784EEF",
"i. c #6E42FB",
"p. c #714AF3",
"a. c #7846FF",
"s. c #7A4BFF",
"d. c #6E52FE",
"f. c #7855F5",
"g. c #7A55FB",
"h. c #8157E4",
"j. c #8C57FB",
"k. c #855BFB",
"l. c #935AFE",
"z. c #8960EA",
"x. c #8D61F9",
"c. c #9464FE",
"v. c #946BFF",
"b. c #8571F3",
"n. c #9479F2",
"m. c #9D74FF",
"M. c #A273FF",
"N. c #A67DFD",
"B. c #AA7AFE",
"V. c #B376FF",
"C. c #B2AFBB",
"Z. c #9D81D8",
"A. c #ABA9C4",
"S. c #B1B3CA",
"D. c #AE93E8",
"F. c #A885FE",
"G. c #B581FF",
"H. c #B289FF",
"J. c #B694FF",
"K. c #BEA4FF",
"L. c #CC95FF",
"P. c #C49DFE",
"I. c #CBA0FF",
"U. c #C1A9FF",
"Y. c #D3A8FF",
"T. c #D4B0FF",
"R. c #DEB5FF",
"E. c #D9BEFD",
"W. c #D7CAFA",
"Q. c #E7DFFF",
"!. c #EDDFFE",
"~. c #EDE7FF",
"^. c #F6EEFF",
"/. c #FBEFFD",
"(. c #F8F2FF",
"). c #FEFEFF",
/* pixels */
"A D J J J H D D D J K H 5 $ ; + X . O w K J K G G e e K K e e e ",
"G J K L L L J J L K q . a n #.D.W.x.m.v.%.6 L I J J K e K L L L ",
"J K K K L K J J L J @ c.J.P.!.).).).I.M.c.[ J L K K G P L K P L ",
"F K K J J J J J G . @.B.V.Y.).).).).J.F.c.w.7 J P G e I P L P e ",
"D K J J J H J J G   c.V.G.T.(.).).^.B.m.m.6.9 G K G L K K K G e ",
"H K J J K J J D D * 7.F.E.).).).).)./.N.h.Q % F F G L K G G e G ",
"J L J J J H J D H B e.2.3.9.=.A.C.<.y - s   q G G F A G K G J G ",
"J P J J J D J J A           X 0., #   D     L G F K F G K K K J ",
"J L J J D F J F S o :.X o   S.) Y     o 1.  J K L K G G G G G F ",
"J P L L J J J J C   r 3 *.b.n.W.U.&.F O a , K L I L K K L L G e ",
"H L J K J J J L P m r.k.n.F.m.J.Q.B.Z.j.m.q.J K G G G K P P L F ",
"J P L J K J K I P t H.J.R.L.x.K.U.l.P.T.P.7.J F F G K L K G G F ",
"H I L J K J K K K & z.J.x.i.s.~.j.v.o c.B.r G F G K K L G F G G ",
"D K L H K J J J K J   u.$.$.s.Q.a.p.u.4.l.  K J G J J J G G J G ",
"D G J J K J K K J J   $.5.f.a k.@.d.g.  N e K K J J G J F F F e ",
"D D F F J F J H D F S N ^ l y.t g.t.  8.X K e K e G G G F G K e ",
"G e e P G G J e J C A f .  .y b v ` - = D F J D D D J K J D D D ",
"e G L L K L K G J D q z `   > s . - . | 2 K J J J J J K K K J D ",
"L P L L G K G F G G + >.( j     o X _ ;.V D J K J H J K K P L J ",
"e L P I e K G K G A } +.  >...n l 1.M U -.. J K J J D J J K K D ",
"e K K L J K G K K : -.v o u c ' ) U     X.U 6 K L J J J J J J H ",
"I L J K J J F G 4 ! | 3   v ` -.O./ p q M ` d K L J J J J J J J ",
"K K J K J K J G % ( c 6   R ` -.O.( h D r ) k K J J J J J G H H ",
"L P P P J J J J C < g q x o.U 1 r E ..@ J , 8 J J G J L H D D G ",
"G K P J P K G J K K K q _ +.) @ p | ;.* K J J K L H H L L D D J ",
"G K J G J J G L K K J 0 x >./ i ` +.+.* J J J J L J G J J D J L ",
"F J G G J J J L J K J 9   >.W r U ,.^   J J J K K J J G J F K J ",
"G P J P L L L J J L K q . ` (   - ( ! . F J J J G J G D G J K A ",
"G I J L J L K e G J J 0 ~ ) c   * / ( * G J J J J J J F J L P F ",
"e J J L L L L K G J J q ) { c r T ] ] * J L L K J J F F J J J e ",
"G K L P I I L K L L K e -.-.;.r R -.-.< L L P L J J K K P K K A ",
"L e K K K J e G G G J Z j x ..A % z n ; G J J G F F G G G G J D "
};
