/* XPM */
static char *result[] = {
/* columns rows colors chars-per-pixel */
"32 32 226 2 ",
"   c black",
".  c #010101",
"X  c #000002",
"o  c #000003",
"O  c #020202",
"+  c #030302",
"@  c #000004",
"#  c #000007",
"$  c #030306",
"%  c #040404",
"&  c #070706",
"*  c #070707",
"=  c #000009",
"-  c #010009",
";  c #00000A",
":  c #01040A",
">  c #00000D",
",  c #01010E",
"<  c #0A060B",
"1  c #090909",
"2  c #0B0B0A",
"3  c #0C0B0B",
"4  c #0A0C0F",
"5  c #020111",
"6  c #010115",
"7  c #01001B",
"8  c #00001D",
"9  c #00001E",
"0  c #07031E",
"q  c #131312",
"w  c #141313",
"e  c #151514",
"r  c #151417",
"t  c #161617",
"y  c #1B1614",
"u  c #161618",
"i  c #14141E",
"p  c #15141E",
"a  c #191918",
"s  c #18181B",
"d  c #1B1B1A",
"f  c #1F1F1E",
"g  c #201916",
"h  c #000020",
"j  c #040122",
"k  c #000024",
"l  c #020025",
"z  c #000026",
"x  c #0B0521",
"c  c #080723",
"v  c #000028",
"b  c #03002B",
"n  c #050029",
"m  c #02022E",
"M  c #000030",
"N  c #0F0039",
"B  c #0D053E",
"V  c #150F38",
"C  c #1F1E30",
"Z  c #23193B",
"A  c #252423",
"S  c #252524",
"D  c #262627",
"F  c #292927",
"G  c #292329",
"H  c #2B2B29",
"J  c #2C2C2B",
"K  c #2F2E2D",
"L  c #2D2C34",
"P  c #313130",
"I  c #343332",
"U  c #383836",
"Y  c #3F3E3B",
"T  c #3F3F3D",
"R  c #403F3C",
"E  c #41413F",
"W  c #44433F",
"Q  c #040241",
"!  c #070243",
"~  c #020156",
"^  c #1A0D59",
"/  c #01017C",
"(  c #121273",
")  c #161573",
"_  c #200C7A",
"`  c #424241",
"'  c #464541",
"]  c #474642",
"[  c #414044",
"{  c #474644",
"}  c #474645",
"|  c #494844",
" . c #4A4945",
".. c #494846",
"X. c #4A4947",
"o. c #4B4A46",
"O. c #4C4B47",
"+. c #4B4A48",
"@. c #4C4B49",
"#. c #4D4C48",
"$. c #4E4D49",
"%. c #4D4C4A",
"&. c #4E4D4B",
"*. c #4F4E4A",
"=. c #4F4E4C",
"-. c #504F4B",
";. c #504F4D",
":. c #51504C",
">. c #51504D",
",. c #52514D",
"<. c #51504E",
"1. c #52514E",
"2. c #52514F",
"3. c #53524E",
"4. c #53534F",
"5. c #54534F",
"6. c #535250",
"7. c #545350",
"8. c #545351",
"9. c #545352",
"0. c #555450",
"q. c #565551",
"w. c #555452",
"e. c #555553",
"r. c #565553",
"t. c #575652",
"y. c #575654",
"u. c #575655",
"i. c #565557",
"p. c #585753",
"a. c #585755",
"s. c #595854",
"d. c #5A5955",
"f. c #595856",
"g. c #5A5957",
"h. c #5B5A56",
"j. c #5C5B57",
"k. c #595859",
"l. c #5B5A58",
"z. c #5C5B59",
"x. c #5D5C58",
"c. c #5E5D59",
"v. c #5D5C5A",
"b. c #5E5D5B",
"n. c #5F5E5A",
"m. c #5F5E5C",
"M. c #605F5D",
"N. c #010086",
"B. c #01018B",
"V. c #0F038A",
"C. c #120387",
"Z. c #00009A",
"A. c #06059F",
"S. c #110294",
"D. c #17069E",
"F. c #26098B",
"G. c #260B8F",
"H. c #0000AC",
"J. c #0906AA",
"K. c #0C04A9",
"L. c #1203BA",
"P. c #1101BF",
"I. c #3210A9",
"U. c #3611B1",
"Y. c #3B12BA",
"T. c #433288",
"R. c #654DB3",
"E. c #1E07DB",
"W. c #3B0DC3",
"Q. c #270ADF",
"!. c #0E02EB",
"~. c #1F09E4",
"^. c #1006F1",
"/. c #2903E0",
"(. c #220AE1",
"). c #2201ED",
"_. c #2400ED",
"`. c #2D04EA",
"'. c #2B06EC",
"]. c #2A0EEC",
"[. c #2A11EF",
"{. c #2D14EE",
"}. c #321DE7",
"|. c #2F0BF0",
" X c #3314F1",
".X c #3D24ED",
"XX c #4018DB",
"oX c #4809FE",
"OX c #4B09FE",
"+X c #4B1CF6",
"@X c #4C15FB",
"#X c #531EFF",
"$X c #4434E7",
"%X c #4E35EF",
"&X c #5023F9",
"*X c #5523FE",
"=X c #5725FE",
"-X c #5927FF",
";X c #6337F9",
":X c #6837FC",
">X c #6839FF",
",X c #5743EE",
"<X c #674FEC",
"1X c #6E54EE",
"2X c #714CF4",
"3X c #7355F3",
"4X c #7D56FB",
"5X c #7D52FD",
"6X c #8353FF",
"7X c #8057FD",
"8X c #8058FD",
"9X c #8259FD",
"0X c #A57FFB",
"qX c #A37BFF",
"wX c #A67FFD",
"eX c #A781FC",
"rX c #A982F9",
"tX c #A980FE",
"yX c #AC83FD",
"uX c #AC84FC",
"iX c #AC85FE",
"pX c #AE86FE",
"aX c #B088FC",
"sX c #B189FE",
"dX c #B58CFD",
"fX c #B48CFF",
/* pixels */
"..=.w.w.8.<.@.=.=.6.y.2.S * % % % & q H -.q.p.0.,. .o.$.0.,.W ] ",
"<.w.a.f.l.f.6.2.g.a.P   .             . . q.h.x.0.3.#.*.p.h.q.$.",
"8.y.a.f.l.f.r.w.g.e.                      2 4.s.q.t.3.d.d.0.h.p.",
"<.y.y.r.w.6.w.r.6.U O                     . F 0.x.5.:.j.c.p.q.$.",
"=.a.y.r.w.2.8.8.2.*                         3 3.t.5.s.p.t.d.,.] ",
";.a.8.r.y.8.8.&.8.J .                       O -.*.:.j.t.:.:.#.:.",
"2.g.6.8.w.2.8.&.6.T                         O 7.3.*.*.3.t.5.-.,.",
"w.m.y.8.2.=.y.w.2.<.                        + 1.-.t.:.,.p.t.t.,.",
"8.g.w.r.&.6.w.<.<.w.                        O y.l.f.8.8.6.6.6.@.",
"r.z.a.g.8.8.8.w.=.w.                        O f.m.l.r.y.a.y.6.{ ",
"2.f.w.y.w.6.8.g.v.6.O                       w y.8.8.6.a.l.l.y.@.",
"6.z.a.r.a.w.a.M.v.=.                        a <.&.6.r.a.r.8.8.&.",
"2.b.g.w.y.w.y.g.y.6.                      . I =.;.r.a.a.2.;.8.<.",
"@.y.a.6.y.8.r.6.g.y.1                     O a.w.8.r.w.w.2.2.w.;.",
"%.2.w.8.a.w.f.w.w.2.E .                 . d w.y.r.r.8.8.;.=.=.{ ",
"=.&.;.;.8.;.r.2.=.<.+.f .               O =.&.2.@.=.<.6.;.=.;.X.",
"#.O.,.j.5.,.-.-.t.| o.*.D o o ; # > X @ $ 2.2.2.&.=.w.a.8.;.%.X.",
"#.-.3.d.t.s.0.,.q.$.-.:.m E.!.G.C.F.Q.L.].K 8.r.2.2.r.f.f.a.w.;.",
"*.s.s.s.0.p.,.-.3.:.,.L _ (.'.wX@X:X>X`.rXc r.y.w.6.8.r.f.z.g.2.",
"| t.s.t.5.t.5.t.t.q.3.)  XB |.,X[.$XfXD.aXS.9.y.r.6.<.2.w.f.a.;.",
"O.q.t.p.0.t.3.p.s.0.[ U.XXb I.~.=X+X&Xj qXR.G a.a.w.6.6.6.r.r.;.",
"t.p.0.p.q.q.-.,.t.,.= K.~ - /.oX-X#XOXN.^.0XA.} a.r.r.r.8.8.w.6.",
"t.t.0.s.0.p.q.0.p.t.>.e A y 3XsX.X;XdXW.< 8XY.E y.8.w.y.8.<.<.2.",
"h.j.c.n.5.q.t.t.t.h.s.t.R : 7XtX{.T.uXJ.6 ^ C 8.r.2.8.a.6.&.&.=.",
"6.f.m.8.l.a.2.r.y.f.g.f.+.4 9X_./ N V.7 % y.6.a.f.2.6.f.f.@.:.0.",
"6.y.r.;.8.8.6.g.y.y.w.8.w.t 4XeX}.l M h &.w.6.w.g.6.2.8.8.&.t.d.",
"&.w.<.6.w.8.w.g.r.r.8.2.6.g 1XiX<X0 v 9 6.r.r.r.y.w.8.2.8.<.p.0.",
"6.z.r.l.g.g.a.r.w.f.f.w.w.r ).pX6Xx z k <.r.y.w.2.6.2.=.6.6.t.#.",
"w.b.r.f.r.f.y.;.<.w.r.8.8.i Z.yX*Xn 8 H.<.8.r.6.r.r.8.;.r.g.x.*.",
"&.w.r.f.a.g.y.;.6.8.w.y.f.p P.5X%XQ B.( w.a.l.y.6.6.2.=.w.r.0.' ",
"&.;.l.b.b.l.a.r.a.a.g.v.m.u 2XZ V s i.k.a.g.z.f.r.r.a.y.l.a.t.| ",
"<.@.a.y.r.&.&.8.2.6.r.f.y.` ! 5 , Y u.f.8.8.w.<.<.;.<.<.8.2.q.$."
};
