/* XPM */
static char *result[] = {
/* columns rows colors chars-per-pixel */
"32 32 215 2 ",
"   c #140924",
".  c #1A1625",
"X  c #27192A",
"o  c #38152A",
"O  c #331C2C",
"+  c #2F0232",
"@  c #351934",
"#  c #381E31",
"$  c #2C2123",
"%  c #37202D",
"&  c #3B242F",
"*  c #2D253A",
"=  c #362431",
"-  c #3A2334",
";  c #342339",
":  c #3C2B39",
">  c #412936",
",  c #4B213D",
"<  c #432D3C",
"1  c #4B2D3C",
"2  c #4B333C",
"3  c #42393D",
"4  c #53323C",
"5  c #352C46",
"6  c #363861",
"7  c #491C4D",
"8  c #520053",
"9  c #641C4E",
"0  c #532846",
"q  c #473D4F",
"w  c #4B3848",
"e  c #563543",
"r  c #5E334B",
"t  c #553B4B",
"y  c #452C52",
"u  c #5A2756",
"i  c #453552",
"p  c #4B355B",
"a  c #543852",
"s  c #5B3A52",
"d  c #523C5A",
"f  c #5C3D5C",
"g  c #64394B",
"h  c #693A55",
"j  c #683B5B",
"k  c #74395B",
"l  c #423C60",
"z  c #543C66",
"x  c #5C3E61",
"c  c #6C3F69",
"v  c #3B4944",
"b  c #3E406F",
"n  c #444442",
"m  c #4A4544",
"M  c #4B4946",
"N  c #49454B",
"B  c #4D4D4A",
"V  c #564647",
"C  c #514946",
"Z  c #514E4D",
"A  c #52514E",
"S  c #5A504A",
"D  c #48445D",
"F  c #574956",
"G  c #555451",
"H  c #585654",
"J  c #5A5956",
"K  c #5B5A5B",
"L  c #6C4147",
"P  c #644549",
"I  c #744B45",
"U  c #654654",
"Y  c #6B425E",
"T  c #614C5D",
"R  c #734355",
"E  c #76465B",
"W  c #744A5D",
"Q  c #7B4C5A",
"!  c #695456",
"~  c #615A59",
"^  c #444365",
"/  c #4B4667",
"(  c #4C4C6D",
")  c #544363",
"_  c #584667",
"`  c #544A6C",
"'  c #4F506D",
"]  c #52516D",
"[  c #554A73",
"{  c #555473",
"}  c #595A75",
"|  c #684367",
" . c #634C64",
".. c #6B4B62",
"X. c #714666",
"o. c #794460",
"O. c #734C63",
"+. c #724B6B",
"@. c #6A5366",
"#. c #6B5369",
"$. c #79546B",
"%. c #684973",
"&. c #714873",
"*. c #645C77",
"=. c #745272",
"-. c #7F5B71",
";. c #785877",
":. c #706C6B",
">. c #736F7A",
",. c #804F45",
"<. c #94645B",
"1. c #864965",
"2. c #8B4B63",
"3. c #95496B",
"4. c #85546D",
"5. c #885668",
"6. c #815B6C",
"7. c #985869",
"8. c #894D77",
"9. c #835C75",
"0. c #885977",
"q. c #835D7B",
"w. c #975C76",
"e. c #AA5F63",
"r. c #A55D73",
"t. c #B25D7D",
"y. c #9A6569",
"u. c #9F6C6E",
"i. c #876777",
"p. c #8C6D74",
"a. c #84617B",
"s. c #986677",
"d. c #956A74",
"f. c #9B707F",
"g. c #A5756A",
"h. c #B77966",
"j. c #A66679",
"k. c #B4667A",
"l. c #A67471",
"z. c #A2747F",
"x. c #B2717D",
"c. c #B47B7C",
"v. c #AE8578",
"b. c #685D82",
"n. c #8C5585",
"m. c #9A5C80",
"M. c #AD5D80",
"N. c #986884",
"B. c #9A6E86",
"V. c #867288",
"C. c #9B7884",
"Z. c #A36682",
"A. c #AA6E89",
"S. c #B66C88",
"D. c #A07483",
"F. c #AB758C",
"G. c #A87889",
"H. c #B7778D",
"J. c #B87A88",
"K. c #AD6F90",
"L. c #A97D98",
"P. c #B47B92",
"I. c #C17985",
"U. c #C27B88",
"Y. c #8E8789",
"T. c #93898E",
"R. c #8E8490",
"E. c #988B98",
"W. c #9D9194",
"Q. c #9D939B",
"!. c #A8818F",
"~. c #B48486",
"^. c #B88488",
"/. c #BC838D",
"(. c #A98292",
"). c #B48394",
"_. c #BB8A96",
"`. c #A79095",
"'. c #BD9099",
"]. c #9E9AA2",
"[. c #B589A4",
"{. c #A39BA3",
"}. c #B998B1",
"|. c #ADA2A8",
" X c #C5828C",
".X c #C28B8E",
"XX c #CD908D",
"oX c #C48393",
"OX c #C38A92",
"+X c #C98B94",
"@X c #C6889D",
"#X c #D48D9B",
"$X c #CD9295",
"%X c #C8979A",
"&X c #D49396",
"*X c #D5949B",
"=X c #DC959C",
"-X c #DB8FA1",
";X c #CA91A3",
":X c #D097A2",
">X c #D699A7",
",X c #DC9DA3",
"<X c #DAA1A7",
"1X c #DBA2A9",
"2X c #CFB1BE",
"3X c #E3A7AC",
"4X c #EBAFB8",
"5X c #EBB3B9",
"6X c #ECB4BA",
"7X c #D0BACC",
"8X c #F2BAC3",
"9X c #F1BFCA",
"0X c #EDC9D5",
"qX c #DDCAE0",
"wX c #F0DAE9",
/* pixels */
"M M G A A N M M C B C > % 2 4 & = < > & 2 V M A B m M M A B n m ",
"Z Z H H K G B A Z m 2 & % - & O % $ O X # P ! B B B M m G G A B ",
"Z H G H G G G G 2 3   V 2 > , e g R Q R g 4 R P S B B H G A J A ",
"B Z G G A A A w - . X s r R 7.A.OX>X<X&X/.l.L 1 e Z A J J G A B ",
"Z G A G A A Z 1 . ; t Y R x. X&X3X6X4X4X=X&Xc.L > 4 A A G J M M ",
"Z G Z Z H M t : . U $.$.5. X+X$X<X4X0X4X=X=X&Xu.1 $ M J B B B B ",
"Z K G G H C 2   t 6.9.X.u.oXoX$X<X3X0X6X=X&X&Xc.L O : A A B A B ",
"G H A G B M ; *  .4.+.4./.OXOX%X,X3X6X5X,X=X&X~.Q % : A G G A A ",
"Z H A Z B v X q #.O.9.G.OX.XOX+X:X1X5X8X3X&XXX/.Q % : A A A B M ",
"A G G G A w   q +.O.f.)./.J././.@X@X:X5X<X*X&X.XQ o : Z A A B m ",
"B G G G Z 3   F T t T i.D.z.G.H.).L.F.B.y.y.l..Xu.o < J J G H B ",
"G H G A H M ; N T @.y y f O.0.B.B.q.T + @ 7 h u.~.= $ G A A A M ",
"Z K G G H C X q @.w F F i a &.[.L.&.a p %.=.7 T.%X4 L S A A A Z ",
"B G Z B B m O *. .1 _ 5 i 5 1.>X>Xw y f  .D.d.~..XI <.~ B A B Z ",
"M M A B G B 0 *.T a x y i ; 7.*X,Xy.Q 4.d.G.oXv.v.I e.J M B M M ",
"B B B Z B Z w @...X.+.X.4.g 2.-X#XI.J.k.7.A.;X.Xg.,.k.~ M A B m ",
"Z B A G A N 1 X.q.K.P.A.w.U 1.-XU.x.I.t.S.P.P.>X_.<.$X~ B A B M ",
"M M A G G B w &.n.A.Z.1.Q k w.U. XI.I.r.1.m.K.S.v.+X1XJ G G B B ",
"B J G A A G t &.n.8.h h o.o.j.H.U.k.S.J.w.k k B.d.^.z.B H H K G ",
"M Z G G A A A &.c 0 g X.j j 4.H.w.7.z.J.m.1.@ W d.S v Z A G Z Z ",
"B A G G A G A ..X.U 7 r j j s Y 0.f.s.1.9 , e E 6.Z G B B A A A ",
"Z G A A B A M F 8.n.j , k 9 9 k 3.3.j.U.d.Q 4.7.6.B Z G A G G A ",
"G G A H G G A H =.a.=.u [.7X}.[.2X9XwX0Xs.Z.s.d.! B G A A B B A ",
"A J J J G G A A  .;.a.u *.7XqXqXwXwX7XD.1.H.s.6.B A G G G B M A ",
"A G J A G H M A A _ a.=.8 7 V.E.(.C._.u.j.@Xd.B J A B J G M A A ",
"B B B B A B G H A n $.;.c k 0.N.C.).;Xk.P.'.! B A B A A A M A J ",
"B B B G G A A B ` %.x &.&.8.3.M.K.S.t.H.@X).u.g.>.K v n A A A A ",
"A J B G A M D / b._ x c &.=.w.s.M.A.).).'.C.g.h.i.].Y.:.B n A A ",
"M S A ] / / { ` *.F %.l %.q.q.B.B.F.).).G.c l.h.p.].|.|.T.>.S n ",
">.*.] { / ( ' ( }  ._ z z m.N.K.P.P.'.'.>.i.5.g.Y.Q.Q.Q.{.{.T.~ ",
">.b ( { i ' } { { d x [ z | s.K.F.F.!.>.=.f.d.$.`.Q.Q.Q.{.Q.|.W.",
"6 6 ^ ' ^ ' } b ( i f ) ` p f 9.a.-. .x i.f.!.p.R.T.E.Q.Q.E.Q.W."
};
