/* XPM */
static char *result[] = {
/* columns rows colors chars-per-pixel */
"32 32 178 2 ",
"   c #010103",
".  c #02020B",
"X  c #0A0508",
"o  c #0B0B0C",
"O  c #020113",
"+  c #03011C",
"@  c #0B0918",
"#  c #14111E",
"$  c #1A191C",
"%  c #090626",
"&  c #02002A",
"*  c #090128",
"=  c #121224",
"-  c #1C1C24",
";  c #030132",
":  c #010138",
">  c #0B073B",
",  c #150B37",
"<  c #111130",
"1  c #1A1637",
"2  c #201F20",
"3  c #2C2C2F",
"4  c #2C2634",
"5  c #2A2831",
"6  c #353336",
"7  c #363537",
"8  c #393837",
"9  c #38363A",
"0  c #3C3C3B",
"q  c #44433F",
"w  c #040245",
"e  c #1D0D4E",
"r  c #121249",
"t  c #010055",
"y  c #080054",
"u  c #02025C",
"i  c #150655",
"p  c #251457",
"a  c #281E58",
"s  c #2B2141",
"d  c #31244E",
"f  c #3B374A",
"g  c #00006D",
"h  c #14046A",
"j  c #030172",
"k  c #0A0A70",
"l  c #00007B",
"z  c #150177",
"x  c #1D0B73",
"c  c #1B037B",
"v  c #220E6A",
"b  c #281A67",
"n  c #3D2678",
"m  c #403F42",
"M  c #46346C",
"N  c #412F70",
"B  c #464542",
"V  c #4A4946",
"C  c #4E4D4B",
"Z  c #504F4D",
"A  c #52514E",
"S  c #58584B",
"D  c #555452",
"F  c #585754",
"G  c #5A5956",
"H  c #595759",
"J  c #5D5C59",
"K  c #605F5D",
"L  c #524864",
"P  c #625770",
"I  c #070482",
"U  c #03008E",
"Y  c #0E078A",
"T  c #150382",
"R  c #1B038E",
"E  c #020193",
"W  c #0B0695",
"Q  c #280D87",
"!  c #2E148D",
"~  c #2C1A89",
"^  c #240B96",
"/  c #291A97",
"(  c #34248A",
")  c #1A08A1",
"_  c #2309A3",
"`  c #2A0CA7",
"'  c #2C1DA1",
"]  c #3B1CA6",
"[  c #2D0EB1",
"{  c #310CB5",
"}  c #3513B1",
"|  c #3E1CB1",
" . c #3D14B8",
".. c #3824A3",
"X. c #452C97",
"o. c #4F3794",
"O. c #563E96",
"+. c #481FAD",
"@. c #421FB0",
"#. c #4628AA",
"$. c #533AA2",
"%. c #5738AA",
"&. c #4325B5",
"*. c #482BB1",
"=. c #5027BD",
"-. c #4931B9",
";. c #5633B8",
":. c #4E4798",
">. c #5D449B",
",. c #60429F",
"<. c #6E709F",
"1. c #5C41B0",
"2. c #634AAD",
"3. c #6E52AC",
"4. c #7356AF",
"5. c #785CAF",
"6. c #6846B1",
"7. c #6B4EB3",
"8. c #764FBC",
"9. c #7A66B3",
"0. c #5B3CDB",
"q. c #673BD3",
"w. c #6638E5",
"e. c #6944DA",
"r. c #7044DA",
"t. c #785ED4",
"y. c #7E78C5",
"u. c #7577DB",
"i. c #7047E7",
"p. c #6A47F0",
"a. c #7E5BFA",
"s. c #8279A6",
"d. c #8558EE",
"f. c #8858F8",
"g. c #925DF6",
"h. c #8967F3",
"j. c #9762F8",
"k. c #9964FF",
"l. c #9A69FE",
"z. c #9672F5",
"x. c #9977FC",
"c. c #A36FF5",
"v. c #A26AFF",
"b. c #A772FF",
"n. c #AC74FE",
"m. c #B175FE",
"M. c #BF7FFF",
"N. c #A88BAF",
"B. c #B299EF",
"V. c #B383FB",
"C. c #BA86FF",
"Z. c #BC8EFF",
"A. c #BC92FE",
"S. c #C080FF",
"D. c #C48BFE",
"F. c #CC94FE",
"G. c #CF9BFE",
"H. c #D496FF",
"J. c #D199FF",
"K. c #C8A8FF",
"L. c #D7A9FF",
"P. c #D6B2FF",
"I. c #DBB9FC",
"U. c #E3A2FF",
"Y. c #E4ABFF",
"T. c #E3B6FF",
"R. c #EFBEFF",
"E. c #DDD3FF",
"W. c #EAC9FF",
"Q. c #EEDCFF",
"!. c #F0D2F7",
"~. c #F3D6FF",
"^. c #F5DDFF",
"/. c #EEE2FF",
"(. c #F0E4FF",
"). c #F6ECFF",
"_. c #F8F2FF",
"`. c #FFFEFF",
/* pixels */
"V C D D D A V C C D F C $       o h X.,.n S F S A V V C S A q B ",
"A D F H H G D D G G F   %.g.V.W.`.Q.I.A.n.-.0 G S A V A F G S C ",
"D F F F H F D D G F o r.F.T.Y.`.`.`.`.F.C.l.5 F D F A F F D G F ",
"Z F F D D D D D A q > m.D.H.^.`.`.`.).J.A.n.~ D J A A G J F S Z ",
"C F H D D C D D A # +.S.U.~._.`.`.`.Q.G.M.m.v 0 S D F F F F A q ",
"Z F D D F D D C A   O z.K./.`.`.`.`.`.E.h.] w V Z A G S Z A C A ",
"Z H A D D Z D C A   8.k <.Q w.l 9.-   X * i X A A Z C A F S C A ",
"F J D D D C F D A   X 3       1 p.%   0 . - o Z Z F Z Z F F S A ",
"D H D D C A D A A   . u.+   % y.B.-.+ X @ :.o F G F D D Z D A C ",
"D J G H A D D D C   & #.$.z.x.K.(.A.t.s.X.q.L H K G D F F F A B ",
"D G D F D A D H J 0 j.V.C.^.T.v._.K.R.!.G.Z.P F A D D F J H F C ",
"A H G D F D G K J m ;.P.~.Y.S.k._.b.f.T.L.F.d D Z A D F D D A C ",
"A J H D D D G H F D 2 V.Z.&.j.j.).k.i.~ l.c.5 C A D D H A A D A ",
"V G H A D D D A F D 0 ! ] h.e.l.P.g.f.X.q.q.9 D D D D D A A D C ",
"C A D D H D G D D D C , =.w.h.e d.-.a.e.* e H D D D A D Z Z Z B ",
"C C A Z D Z D A Z Z C 4 6., z e.0.a.x h q.9 C A Z Z A A Z Z Z V ",
"C V A J A A C A D B V V , + &.z h T  .: $ A D C C C D H D C C V ",
"C C A G D F S A D C C 1 $.c O ! t y . ^ v C D D D D D H G F D C ",
"C S F F S F A C S C $ / ' / 3     . o.*.O.f D F D D D D G H H D ",
"V F G D D D D S F Z > { E c 9.$.] 5.2.{ 3.s D F D A C A D G G C ",
"V F F F D D A F G 0 ` Q O O E | ` W l   7.a C H H D A D D D D C ",
"S F D S S D A A D A u o V u [ 1.7.@._ . ....6 G H D D D D D D D ",
"F F S F D F D S G S C A 3 u ) *.7.| ) ; p 3.9 D F D D D D A Z A ",
"G G J K A D D F D J F G < _ E E W E t & w Y 6 D D Z D H A C C C ",
"A G K D H F Z D D H H F = R 1.( O   E & 8 7 D F H Z A H H C Z D ",
"A F D Z D D D H F F D D - z 5.;.+ . j . D D A D G D A D D C D G ",
"Z D Z A D D D G D D D A C j N.2.I O .   A F D D G D D A D Z F D ",
"A J F J H G F D D F H D C u [ 2.O . O . A D F D Z A A C A A F V ",
"F J F G D G F Z C D D D C u } }   g U ; Z D F A F D D Z F G J C ",
"C D D G G G F Z D D D F A x *.*.Y t : = D G J D A D Z C D F D q ",
"C C H J J H F D F F H J H N 4.3.>.6 C J F H J H D F G G G G S V ",
"A C F F F C C D Z D F H D r N b M B F G D A D A A C Z Z D A D C "
};
