/* XPM */
static char *result[] = {
/* columns rows colors chars-per-pixel */
"32 32 189 2 ",
"   c #020203",
".  c #0A0B06",
"X  c #05040A",
"o  c #09070D",
"O  c #0A0A0B",
"+  c #080613",
"@  c #0D0C13",
"#  c #0E0C1B",
"$  c #180F1A",
"%  c #121116",
"&  c #1A191A",
"*  c #1E201C",
"=  c #050E2C",
"-  c #110E22",
";  c #161224",
":  c #1A152C",
">  c #1D1A2C",
",  c #0C0A3C",
"<  c #1D1B31",
"1  c #19183A",
"2  c #251C35",
"3  c #241B3C",
"4  c #212023",
"5  c #2A2B2E",
"6  c #2E2B32",
"7  c #282838",
"8  c #312D34",
"9  c #37353B",
"0  c #38363B",
"q  c #3C3C3C",
"w  c #5B0709",
"e  c #491600",
"r  c #571604",
"t  c #5A1903",
"y  c #5B1E0A",
"u  c #471710",
"i  c #7A0703",
"p  c #651602",
"a  c #6C1A01",
"s  c #761200",
"d  c #5A2313",
"f  c #572919",
"g  c #593225",
"h  c #58382D",
"j  c #403F3E",
"k  c #6E3334",
"l  c #43423F",
"z  c #53433C",
"x  c #59443B",
"c  c #211D4C",
"v  c #2E2A46",
"b  c #2D264A",
"n  c #322D42",
"m  c #312B4E",
"M  c #382F4A",
"N  c #363343",
"B  c #3D3B45",
"V  c #3B364B",
"C  c #2F2855",
"Z  c #372B57",
"A  c #3B2D52",
"S  c #352D5A",
"D  c #273156",
"F  c #3F3356",
"G  c #3D315D",
"H  c #1F3869",
"J  c #3C3463",
"K  c #383469",
"L  c #433F45",
"P  c #412F5B",
"I  c #423356",
"U  c #43345B",
"Y  c #443C5C",
"T  c #453768",
"R  c #4E3E6C",
"E  c #463C73",
"W  c #464543",
"Q  c #4D4641",
"!  c #4A4946",
"~  c #474649",
"^  c #4D4C4A",
"/  c #564147",
"(  c #514F4C",
")  c #52514E",
"_  c #4C465A",
"`  c #514C57",
"'  c #555452",
"]  c #585754",
"[  c #5A5956",
"{  c #58545B",
"}  c #5D5C59",
"|  c #524667",
" . c #534D62",
".. c #5B5567",
"X. c #5E5C6C",
"o. c #4E427B",
"O. c #584679",
"+. c #5E4C7B",
"@. c #5D5073",
"#. c #67666E",
"$. c #666574",
"%. c #696779",
"&. c #6E697F",
"*. c #860A00",
"=. c #950D00",
"-. c #8B1A02",
";. c #961302",
":. c #8B1314",
">. c #AC1404",
",. c #A51903",
"<. c #BC1501",
"1. c #AA1713",
"2. c #B71C12",
"3. c #903B2E",
"4. c #982E39",
"5. c #833431",
"6. c #B52B34",
"7. c #C91B07",
"8. c #D31C07",
"9. c #EF2509",
"0. c #E32B28",
"q. c #84433F",
"w. c #AA497B",
"e. c #4C4583",
"r. c #524682",
"t. c #5B4A84",
"y. c #564A89",
"u. c #5E5880",
"i. c #5A4D93",
"p. c #5E5196",
"a. c #634D87",
"s. c #675588",
"d. c #6E5B8E",
"f. c #6C4F92",
"g. c #625294",
"h. c #6D5193",
"j. c #63559A",
"k. c #6D5899",
"l. c #715497",
"z. c #735A95",
"x. c #72569A",
"c. c #755B9A",
"v. c #6D668E",
"b. c #71668D",
"n. c #727182",
"m. c #7D7B8E",
"M. c #7B759A",
"N. c #4F54A2",
"B. c #5F54A2",
"V. c #6B5CAA",
"C. c #705FAF",
"Z. c #6D5EB0",
"A. c #7C63A4",
"S. c #7968AB",
"D. c #7262B1",
"F. c #7964BD",
"G. c #7E67C2",
"H. c #A14980",
"J. c #A25496",
"K. c #826AA6",
"L. c #8266AD",
"P. c #846BAA",
"I. c #957FAA",
"U. c #896BB3",
"Y. c #916DB7",
"T. c #8E73B4",
"R. c #9274B3",
"E. c #947BB4",
"W. c #957BB8",
"Q. c #8E84AD",
"!. c #9588A7",
"~. c #9D94AE",
"^. c #9C84B5",
"/. c #9E8BBA",
"(. c #9E95B5",
"). c #A69DAA",
"_. c #A283B5",
"`. c #A38CB5",
"'. c #A392B6",
"]. c #A993B5",
"[. c #A69AB7",
"{. c #AE9FB3",
"}. c #ACA4B5",
"|. c #ADAAB9",
" X c #B1ACB4",
".X c #B2AEBA",
"XX c #B5B4B4",
"oX c #B6B6B9",
"OX c #C5C4D0",
/* pixels */
"W l ) ' ^ z ! ) ' ] ] ) ' ) ) z l ) l j $ @ 2 A @.s.a.a.s...^ ! ",
"( ' [ [ ^ ^ ) ' } [ [ [ } [ ' z ) ' 8 . 2 +.x.I. X X{.R.U.A._ ( ",
"] } ) [ [ ) ' ' ] ] ] } } } [ ) ! 5 . % z.P.K.'.XXXXXX}.R.U.z.` ",
"^ ) ] } } ) ' } ] ) ] ] ] ] [ ) 6 . % d.K.V.P.}.oXXXXX X_.Y.C.{ ",
"l ' [ ' ] ] ) ] ) ) [ ] ) ) ' j % o +.K.c.K.I. XXXXXXXXX].R.P._ ",
"' l ) ) ' } ' z ( ) ' ' ' ) ) 6 o < h.V.c.K._.XXoXXXXX X].W.Y.R ",
") ) ' ' ' z ) ) ' ' [ ' ] ) ^ 4   I h.c.K.R.`. X~.M.M.v.a.x.K.I ",
") ] ' [ ) ) ' ) ) [ [ ' [ ) ^ &   T x.c.L.R.~.&., 7     . c t.2 ",
"l ] ' ' ' ' [ } [ ] ] ' ] ' j O   P l.A.T.`.!.  X.$.X.* 4 9 K : ",
"l [ ] ] ' ' [ } [ ] ' ' ! 5 @     A f.L.T.`.).n M. .N # * { A.8 ",
"! ] [ [ ] ' ' ' [ ) ' B 4 @ @     2 O.K.R.`.}.Q.S.u.T _ v.^.}.#.",
"^ ' ) ] ] ' ) ^ ^ ^ q D G S <   X o P P.E.`.{.XX.X|./.Q.Y.[.oXoX",
") ' ) ) ] ] ' ) ) ^ v y.j.y.K >   o 3 P.^.^.]. XXXoX X'.Y.E..XOX",
") ' ) ) ' ' ' ' ^ 7 o.V.p.o.o.m # X + K.W.^.`.`.}.XX X'.A.S.(..X",
"! ^ ^ ) ' ) ' ' j < p.C.J m o.S :   ; L.W.E.`.`.`.!.b.a.a.R v.Q.",
"! ^ ) ^ ) ) ^ ^ * D V.V.> v y.J : + o K.W.W.^.^.K.+.| @.V N : Y ",
"! ^ ^ ' ] ' ^ ~ . o.D.j.: J r.A : #   c.U.A.K.A.T %.m.m.n.n.N q ",
"( ' [ [ } ' ( 9   r.D.y.b o.E c - -   U z.F t.t.% $.n.B X.&.! ^ ",
") [ } ' ' ' ' N X o.D.T Z r.J : 5 ! 6 @ U O.R k.A N X...L ~ ) ^ ",
"( { { ' ' ( ' V 1 K j.T E e.Z 7 ! ] ] 0 6 I I O.g.U N X._ ) ] ! ",
"( ' ' ) ' ' ^ V K J E o.g.r.C B ' ) ] [ ' W q 4 U T v 4 ! ] ' ! ",
"' ' ' ' ' ' ^ m e.e.K i.i.P b ! ) ) ) ] [ ) ( Q 0 6 0 l ' ) ] ] ",
") ) ) ) { ' ^ M i.Z.D.V.H o 7 ( ) ] ) } } ] ' ] ) ' ] ' [ ' ' ] ",
"^ ^ ^ ) ' ' W D B.F.G.N.k 7.k ' ( [ ] ] ] [ [ ] ] ' ' ' } } } [ ",
"' ) ^ [ { ) ! 4.w.G.G.e.2.8.j ' ' ' { ' { } } ' ' ) ' } ' } } ' ",
"[ ' ^ ' ' ) q.9.0.J.H.6.8.1.q ' ^ ) ' ' ' ' ' ' } ) ' ' ^ ' ' ' ",
"' [ ) ) ) ' 3.9.>.2.9.8.<.1.& W ! ' ' ' ) ' ' ' } ] ) ' ' ^ ' ^ ",
"^ ' ) ' ( ) 5.2.i *.=.>.<.:.= 8 z ) ' ' ' ' { ' ) ] } [ { ' } ' ",
"^ } } ' ( ' k 2.;.p s ;.,.w $ u t t g ' ' ' ' ) ( ] } ' [ ' } ' ",
"W ' ' ' ^ ) d ,.-.e a s s w r t t f x [ ] ' ' ' ( { ] ] [ ' ' ^ ",
"! ' ] } ' [ y a a r t a a p y f h ( [ } } { ] ] ' ] } } } } ' ^ ",
"^ ' ^ ' ' ' z g d y f f h / z Q ( ) ' ' ] ' ' ) ' ^ ^ ' ' { ^ ( "
};
