/* XPM */
static char *result[] = {
/* columns rows colors chars-per-pixel */
"32 32 158 2 ",
"   c #010102",
".  c #04020B",
"X  c #0B090E",
"o  c #030113",
"O  c #090315",
"+  c #0C0C14",
"@  c #0A041D",
"#  c #120E18",
"$  c #101010",
"%  c #1A1B1D",
"&  c #20201E",
"*  c #010122",
"=  c #0B0A23",
"-  c #130825",
";  c #1B122A",
":  c #080038",
">  c #110B34",
",  c #201F27",
"<  c #211A2C",
"1  c #201B32",
"2  c #261D3A",
"3  c #232323",
"4  c #2D2D2B",
"5  c #30302E",
"6  c #2D2A38",
"7  c #343433",
"8  c #36353B",
"9  c #3D3C3B",
"0  c #403F3C",
"q  c #43423F",
"w  c #070646",
"e  c #01014B",
"r  c #140342",
"t  c #1C0547",
"y  c #010154",
"u  c #0A0057",
"i  c #05025C",
"p  c #230C44",
"a  c #251043",
"s  c #343241",
"d  c #33335C",
"f  c #020068",
"g  c #0D036C",
"h  c #000076",
"j  c #39176F",
"k  c #211172",
"l  c #3A187B",
"z  c #3E207B",
"x  c #413F40",
"c  c #493577",
"v  c #464542",
"b  c #484746",
"n  c #4A4946",
"m  c #4E4D4A",
"M  c #504F4C",
"N  c #52514E",
"B  c #4E4D52",
"V  c #555452",
"C  c #585754",
"Z  c #5A5956",
"A  c #5D5C59",
"S  c #605F5D",
"D  c #5B5C63",
"F  c #676567",
"G  c #75767B",
"H  c #07049B",
"J  c #240E93",
"K  c #301492",
"L  c #3A2987",
"P  c #0E00AC",
"I  c #0605B4",
"U  c #1005B3",
"Y  c #2807B8",
"T  c #2C19B8",
"R  c #4B1F8E",
"E  c #450599",
"W  c #49029D",
"Q  c #5C3591",
"!  c #441EA8",
"~  c #5919AD",
"^  c #5427A8",
"/  c #5235AF",
"(  c #4424B3",
")  c #4D28B0",
"_  c #5D23B3",
"`  c #5E24BA",
"'  c #6126AE",
"]  c #662CB8",
"[  c #6637BE",
"{  c #5E4FA4",
"}  c #5742B9",
"|  c #615EA1",
" . c #7246B1",
".. c #785CBC",
"X. c #1B08C6",
"o. c #270EC6",
"O. c #2B17C5",
"+. c #3212C4",
"@. c #3E16D4",
"#. c #421CCB",
"$. c #4219D9",
"%. c #5335CF",
"&. c #5932DC",
"*. c #6B2FC6",
"=. c #6939CE",
"-. c #7B3BC7",
";. c #6B34D5",
":. c #7134D6",
">. c #7334DD",
",. c #7937DD",
"<. c #7C3FDD",
"1. c #7F3CE0",
"2. c #7A45CC",
"3. c #7148CC",
"4. c #7849CF",
"5. c #785BCF",
"6. c #6846D9",
"7. c #7C49D3",
"8. c #7B5AD5",
"9. c #8639D7",
"0. c #813DE1",
"q. c #8B4ADE",
"w. c #8859DB",
"e. c #915CDD",
"r. c #A24DDE",
"t. c #8463D6",
"y. c #8E6BD9",
"u. c #916FD7",
"i. c #936DDE",
"p. c #9675D7",
"a. c #A568DE",
"s. c #B26FDE",
"d. c #A97ADE",
"f. c #B776DE",
"g. c #8448E1",
"h. c #8B50E4",
"j. c #9254E1",
"k. c #AA6DE2",
"l. c #9A8DCA",
"z. c #A984DC",
"x. c #B886DD",
"c. c #B599DD",
"v. c #BEB8D5",
"b. c #B28AE4",
"n. c #C496DE",
"m. c #C8A7DE",
"M. c #C9ABDA",
"N. c #CCBBDE",
"B. c #D3B3DC",
"V. c #C39EED",
"C. c #CBB9E7",
"Z. c #D7C8D6",
"A. c #D6D4D9",
"S. c #DEDDDE",
"D. c #DFE0DE",
"F. c #E1E2DD",
"G. c #D7D0E5",
"H. c #E3D5F1",
/* pixels */
"n m V V V B m m M V C C N #     B 3 & 0 N C C N M q q V Z q q q ",
"N V C Z Z C V V Z Z C v _ :.e.c. .p O     C A S V V N q Z Z Z Z ",
"V C C C Z C V V Z C B R <.x.S.S.N.*.] -     N C V V N Z Z C A Z ",
"M C C V V V V V N M F ,.r.C.S.S.S.-.` ] .   7 V A V N A A Z Z q ",
"m C C V V B V V M N 6 0.f.D.S.S.S.i.' ~ W   . m C N Z Z C A N q ",
"m C V V C V V m V V Q <.2.| l.v.A.d.2.~ W     v M N Z C q C q N ",
"V Z N V V B V m N V o K @ . G = 1 c.e.] W r   7 N M q C C N Z V ",
"C A C V N m V V V N * ) =     D % M.d.7.E t   4 N V N N C V Z N ",
"V Z V V m B V m V V X H.3.7 < } ! Z.s.7.W     5 Z Z N N N N N m ",
"V A C Z V V V V m V G S.V.k.b.C.G.B.a.e.O     0 A Z C C Z C C q ",
"V C V C V V C Z A V A.F.q.x.D.S.N.n.k.j..     V V V N C A A C q ",
"B A C V C V C A A M G.c.=.1.m.m.z.f.a.j.O . 0 N M N C C C N C N ",
"V A C V C V C C C V { k / 4.*.g.k.z.e.g.# c M M q C C C N N N N ",
"m C C V V V C B C V @ =.8.3.[ >.^ l <.h.$ q V N Z C N C N N V N ",
"m B V V C V C V V V o : K ^ ` g.t n.g.a $ Z C C C C V V C q q q ",
"m m m V V m V V M N 3 t =.,.9.R p ! z + q C q C N q N V N N V N ",
"N q N Z N N N N V n n ; [ -.9.O j   8 V B N N N m B V C V N m b ",
"m N N Z C Z V Z V m m m @   .   i y m V V C V V N N V C C C V N ",
"N Z C C N Z N q N N V m 7 O I e 5.Y B V C C C V V V N V C A Z B ",
"n V C C N C V C Z N V V d ;.z.J w.%.w V C C V C V V N N V C C N ",
"n N C C V C N Z Z V V Z 8 +.6.i 5.8.r 8 C C C C C V N V V V V B ",
"C C N C V V q C V N N Z 7 H o.u 8.... 7 C V C C C V V C V V V V ",
"Z Z V Z V V A q Z V V A 7 I U L u.P U 7 V V C C C V V C V N M N ",
"Z Z A A V Z Z C V Z Z Z 7 : h t.&.i #.s V V C V V N V C B m m m ",
"N Z A V Z C N C C C C C 5 o y O.i ( t.g V V V A C B N C C m M V ",
"N V C N V V N Z C C V V s * *   +.p.i.c N V V V Z V N V V B V C ",
"N V N N V V C Z C V V m o * * 3 e 6.p.T , V V V C V V N V N V V ",
"N A V Z Z Z Z V V Z C 9 o *   v X X.@.X.+ V V V N V N m N N V m ",
"C A C Z V Z V N m V m         m $ f @.$.+ V V V V V V m V A A m ",
"m N C Z Z Z V N V V m       9 n $ P @.$.Y q A V V N N N V C V q ",
"m m Z A A Z Z V C C Z Z Z C N m + y.y.t.H n A A V V V V A Z V n ",
"N m C C Z m m N M V C Z V V N N 9 2 6 > x N V N N N N N V N V m "
};
