/* XPM */
static char *result[] = {
/* columns rows colors chars-per-pixel */
"32 32 163 2 ",
"   c #010102",
".  c #02010B",
"X  c #09050E",
"o  c #0B0A0B",
"O  c #030114",
"+  c #090313",
"@  c #0D0B17",
"#  c #04021A",
"$  c #09031B",
"%  c #131213",
"&  c #1D1C1C",
"*  c #282A1E",
"=  c #040223",
"-  c #0F072A",
";  c #110921",
":  c #1B0E2A",
">  c #010032",
",  c #02003F",
"<  c #08003E",
"1  c #0E0D3E",
"2  c #282726",
"3  c #2A2A29",
"4  c #23213C",
"5  c #302E34",
"6  c #343332",
"7  c #393837",
"8  c #3C3B3A",
"9  c #43423F",
"0  c #010147",
"q  c #090447",
"w  c #120046",
"e  c #1E0E46",
"r  c #171649",
"t  c #010053",
"y  c #130455",
"u  c #160158",
"i  c #1B0A58",
"p  c #241145",
"a  c #240D51",
"s  c #290A57",
"d  c #2E105E",
"f  c #2C2040",
"g  c #170365",
"h  c #110F78",
"j  c #260F65",
"k  c #2A1867",
"l  c #37047F",
"z  c #3F1576",
"x  c #3F296F",
"c  c #443D51",
"v  c #503A74",
"b  c #474643",
"n  c #4A4946",
"m  c #4E4D4B",
"M  c #504F4C",
"N  c #52514E",
"B  c #555452",
"V  c #585755",
"C  c #5A5956",
"Z  c #58535F",
"A  c #5D5C59",
"S  c #605F5D",
"D  c #696569",
"F  c #767779",
"G  c #010089",
"H  c #0D0089",
"J  c #110085",
"K  c #110B86",
"L  c #19108F",
"P  c #1F0C94",
"I  c #100699",
"U  c #3A0088",
"Y  c #351281",
"T  c #370698",
"R  c #0F03BC",
"E  c #2010AE",
"W  c #2009BD",
"Q  c #410096",
"!  c #4D0D9F",
"~  c #4F109E",
"^  c #4B2689",
"/  c #4A229D",
"(  c #5C3996",
")  c #4B1EA2",
"_  c #4818A8",
"`  c #5111A3",
"'  c #561CA7",
"]  c #4F24A5",
"[  c #572AA4",
"{  c #5923AA",
"}  c #5331A3",
"|  c #5C2CB4",
" . c #5D2FBC",
".. c #4433B7",
"X. c #5738BA",
"o. c #642FAF",
"O. c #6228B4",
"+. c #622DBA",
"@. c #6936BA",
"#. c #594483",
"$. c #5F5C88",
"%. c #675096",
"&. c #776597",
"*. c #6E5FBD",
"=. c #2B09C6",
"-. c #3B15C8",
";. c #3E14D1",
":. c #442CC5",
">. c #4733C1",
",. c #5B3DC8",
"<. c #682AC5",
"1. c #6F38C9",
"2. c #7436CA",
"3. c #722AD7",
"4. c #6838D4",
"5. c #7637D4",
"6. c #5C42C2",
"7. c #674BC8",
"8. c #7A4ACB",
"9. c #7859CD",
"0. c #6543D1",
"q. c #6D4CD1",
"w. c #6644DA",
"e. c #7B40D4",
"r. c #704FD5",
"t. c #7D5BD0",
"y. c #7F60C7",
"u. c #8238C7",
"i. c #8033D4",
"p. c #824ACF",
"a. c #8853C3",
"s. c #8B43D5",
"d. c #844AD5",
"f. c #8A55D7",
"g. c #8A58D5",
"h. c #9454D6",
"j. c #955DD6",
"k. c #8465CF",
"l. c #8969CF",
"z. c #9078CE",
"x. c #8162D2",
"c. c #8A68D1",
"v. c #9965D7",
"b. c #9776D2",
"n. c #A67BD7",
"m. c #B075D6",
"M. c #A8A9BF",
"N. c #B784D6",
"B. c #B695D7",
"V. c #ADA7C9",
"C. c #BAA8D7",
"Z. c #A58EEA",
"A. c #C38CD5",
"S. c #CC9DD4",
"D. c #C4B8CF",
"F. c #CDAFD7",
"G. c #C9A5DA",
"H. c #C7C2D7",
"J. c #CCC6D5",
"K. c #D6D5D6",
"L. c #D7D8D7",
"P. c #DAD7DD",
"I. c #EFE0F9",
/* pixels */
"b 9 N B m M 9 V B V V B 7 o o 5 X + X c B V B M M n M B B B m n ",
"m B C V m 9 N V A C V %   X d @.C.B.5.5.i C V C M B V A C V B M ",
"V A B C A C V V V V %   + { <.z.K.K.J.h.4.V B V B B C C V V V B ",
"m N V A A 9 N A V n     ' O.o.C.K.K.K.m.e.( N B V B B B V V V M ",
"9 C A A C C 9 S N %   < ' ` 8.K.K.K.K.F.s.| B N B B M B B V V m ",
"B 9 N 9 V C C 9 M %   U ! o.j.D.V.$.*.} @.5.9 B m B B V B B V M ",
"N N N V B V 9 A N     Q ~ p.n.c   6 *   , p 8 B m B M B B B Z M ",
"N C V C N 9 C B N     Q { f.G.% M.o o . T : 7 B B B m B M V S B ",
"9 V N B 9 C A A C o   l { h.S.Z._ k D #.I.F b M M B N m B B C B ",
"9 C V C V V A S C %     +.v.A.J.P.H.s.s.L.K.V M B B N B C V A B ",
"9 V C C C V B V V 2   + @.v.N.B.K.K.H.3.H.L.D A Z B B B B B Z B ",
"N V N V A A 9 B N N f   1.h.N.n.B.m.d.j z.H.&.S A C B V B V A N ",
"N B 9 C A C V 9 M B Z   1.f.g.v.d.5.+.x.} - x A C C B B B C A N ",
"9 V N N B V V B B V A # o.d./ w 4.) X.q.4.k f S B B B Z B V B m ",
"9 N 9 N B A C C V B V 2 . [ v.a.{ i.+. .e Y 9 B B V B B N B N m ",
"N B V N N 9 9 B B m m B 3 ; a s $ 2.i.4.] X M M N B N N N N m M ",
"n m M B C B m m N N N N B N @ k + z u.^ p 9 9 B M M 9 C S N 9 N ",
"M B V V C B N N B B B B B V 1 I O q # O M M M B M B C V C N C 9 ",
"N C A V B B N B C B V V B 6 -.k.R 7.,.= M N N N 9 N C B A A A 9 ",
"M V Z B N N B B B B V V B 4 y.6.$ 0.b.K B B B B A V B N B A S 9 ",
"N B B B B B B V C B B C N y t.,.$ W L # C B B C V N V N V B B 9 ",
"N B B B B B B V C C B B B u t.v R 0.7.# C N N B N N N V V B C C ",
"N N N N B B B B B C B B B q 9.w.+ 7.7.O A V B V N C V N C V C V ",
"m m m B B B B Z B C B B A 6 E r.# J H . V V C V N C V N A A C C ",
"B N n C C B M V C B B C B 6 t g >.i o V C A V V C N C A N A C N ",
"Z B m N B N B C B B B B N 6 -.q.t.i o 9 N N V V C N N V N V V V ",
"B V N B N B B B B B B N m r ;.c.y.> & 9 N N V B C N N N N N N M ",
"n B B B m M B N B B Z N m 0 -.q.G   * 9 V C V V C C C C C V A N ",
"m A C B M B B B B B B N N y ;.=..     & N V B N M V C V C N A V ",
"b B B B M N N B B A B B V i ;.:...=     V B N N M V C C C V N M ",
"b V C A B Z B B C C C B V q x.l.c...C A A A C C B V C S S A N M ",
"m B N N N N N N N B B B C n h %.P 1 N B C B N B C 9 n V C C 9 N "
};
