/* XPM */
static char *result[] = {
/* columns rows colors chars-per-pixel */
"32 32 167 2 ",
"   c #010102",
".  c #04030B",
"X  c #08070E",
"o  c #0E0D0D",
"O  c #060214",
"+  c #0D0C13",
"@  c #02011A",
"#  c #080518",
"$  c #161516",
"%  c #12141B",
"&  c #1D1D1C",
"*  c #030123",
"=  c #01002E",
"-  c #08002B",
";  c #130E2C",
":  c #191820",
">  c #000035",
",  c #0A073A",
"<  c #160837",
"1  c #1C0939",
"2  c #231F29",
"3  c #222221",
"4  c #282827",
"5  c #2C2C2C",
"6  c #31312E",
"7  c #2B2838",
"8  c #353333",
"9  c #3C3B3C",
"0  c #44433F",
"q  c #040246",
"w  c #180548",
"e  c #181742",
"r  c #070454",
"t  c #0D0C59",
"y  c #261249",
"u  c #241A5C",
"i  c #282345",
"p  c #30244E",
"a  c #372E48",
"s  c #3A2F50",
"d  c #02006E",
"f  c #0B096E",
"g  c #040372",
"h  c #371C69",
"j  c #240674",
"k  c #35007A",
"l  c #2C1874",
"z  c #40255F",
"x  c #421A7F",
"c  c #464543",
"v  c #4A4946",
"b  c #47454B",
"n  c #4E4D4B",
"m  c #504F4C",
"M  c #52514E",
"N  c #4E4C51",
"B  c #504E50",
"V  c #555452",
"C  c #585754",
"Z  c #5A5956",
"A  c #52505D",
"S  c #5D5C59",
"D  c #605F5D",
"F  c #5C4D74",
"G  c #0B0185",
"H  c #120385",
"J  c #0B089C",
"K  c #19049D",
"L  c #3D018C",
"P  c #2A1582",
"I  c #3D1C88",
"U  c #2B0D99",
"Y  c #271694",
"T  c #301890",
"R  c #1A08BB",
"E  c #200DBA",
"W  c #451C85",
"Q  c #470496",
"!  c #461A95",
"~  c #482281",
"^  c #42328F",
"/  c #502091",
"(  c #512198",
")  c #57289D",
"_  c #4C3298",
"`  c #603D94",
"'  c #4D1EAC",
"]  c #5418A5",
"[  c #581AA8",
"{  c #5725A8",
"}  c #5C25AB",
"|  c #5F24B1",
" . c #4832BA",
".. c #6532BD",
"X. c #574198",
"o. c #797187",
"O. c #786B9F",
"+. c #6F58AC",
"@. c #2B07C3",
"#. c #2B10C1",
"$. c #3413C6",
"%. c #331AC4",
"&. c #3F16CF",
"*. c #3E13D0",
"=. c #4323C3",
"-. c #5C3BC2",
";. c #522FD0",
":. c #5834D2",
">. c #6628C6",
",. c #7437C6",
"<. c #753DCC",
"1. c #6F38D7",
"2. c #7D36D7",
"3. c #7939D8",
"4. c #5E47C4",
"5. c #6445CA",
"6. c #7743C7",
"7. c #7256C4",
"8. c #7C5DCC",
"9. c #6946D0",
"0. c #7E40D6",
"q. c #764ED7",
"w. c #7756D6",
"e. c #7D5CD2",
"r. c #926CBE",
"t. c #8B3BD7",
"y. c #8B59C9",
"u. c #8448D6",
"i. c #8B49D6",
"p. c #8B57D6",
"a. c #8F59D5",
"s. c #9759D5",
"d. c #8464CE",
"f. c #8768CC",
"g. c #9876CE",
"h. c #8463D0",
"j. c #8967D1",
"k. c #8A69D1",
"l. c #9C6DD6",
"z. c #9A6ED8",
"x. c #AB66D6",
"c. c #A073D7",
"v. c #A172E3",
"b. c #888AA0",
"n. c #A09FAC",
"m. c #A080D0",
"M. c #AF83D5",
"N. c #B485D6",
"B. c #BA85D7",
"V. c #A796DC",
"C. c #B497D8",
"Z. c #A9A1D2",
"A. c #BBA2D6",
"S. c #B187EA",
"D. c #BAADE5",
"F. c #BEA5F0",
"G. c #CA99D5",
"H. c #C3A6D6",
"J. c #C9ABD6",
"K. c #CCB0D7",
"L. c #C9BED1",
"P. c #C6C4C8",
"I. c #C8C0D6",
"U. c #D5D5D6",
"Y. c #D7D8D6",
"T. c #D7D7DA",
"R. c #D2C6E2",
/* pixels */
"v n V V V B n n m V C C V b & $ $ n 6 6 M C C M M v n m V M 0 0 ",
"M V C Z Z C V V Z C Z V a >.>.y.r.x       6 Z D V M 0 n Z Z S 0 ",
"V C C C C C V V Z C V n { 3.A.Y.U.g.>.(     6 C V V M Z Z V S Z ",
"m C C V V V V V V m B o.2.x.U.U.U.C.| | !     S D M m S S Z S 0 ",
"n C C V V N V V m V V ` u.B.U.U.U.I.,.[ { 1   3 C M Z Z V S 0 0 ",
"n C V V C V V n V V V ,.3.d.Z.n.U.I.a.} ] k   o 0 M S Z 0 Z 0 S ",
"V Z B V V N V n V V V W t . % 5 ; O.c.6.Q L   . C M 0 Z S 0 Z V ",
"V S C V V n C V B m m @ l       b.2 C.p.} L     m C M M Z Z Z M ",
"V Z V C n B V B B V M 7 D.h $ . 5.+.J.i.{ L     Z Z M M M M M 0 ",
"C Z C Z V V V V m V C P.R.v.S.C.F.L.G.a...      D Z C C Z C Z 0 ",
"B C V C V B V Z S V m T.T.i.H.T.Y.J.B.z.<.    & C C M C S Z Z 0 ",
"V S C V C V C D S m s Y.V.' z.K.H.l.N.s.6.  . n 0 C C C C V Z V ",
"B S Z V V V Z Z Z m ) X.@ 5.! 0.i.M.g.p.,.. F m 0 V Z Z 0 0 S V ",
"n Z C V V V V V Z Z B I q.w.q.j 3.{ ..u.,.# C V Z V V V Z V S 0 ",
"n B V V Z V Z V V V m < w P y 2...z y.6.+ $ V Z Z Z V V V Z 0 0 ",
"n n B m V n V B n m n O ! 1.2.t.1 h [ < o M n C 0 m V S 0 0 V V ",
"M 0 M Z Z 0 C 0 C 0 v 8 ~ <.t.,.- / X c n B B B m m V Z B m n v ",
"0 M M Z Z Z Z V V n m m 8   . @ > * , V V C C V V m V Z Z Z V m ",
"M S C Z C C Z M M M M M 9 . d J #.=.7.t V Z V V V B V Z Z S Z B ",
"0 Z C C M C 0 Z V V C V 4 = $.m.:.Y y.l V C V C V V m m V Z Z m ",
"m V C C 0 D C Z Z V V Z   @ Y f.E , e. .: Z V Z C V B V B V V m ",
"C C M C C V 0 Z V M m 6   @ G 4.$.q -.e.% V C Z C V C V V V V M ",
"C C M Z S S V V Z V V 3   * 4.f.&.Y Y k.=.b C C C V V C M m B M ",
"Z S S S 0 V Z V V S S 0   9 T e.&.#.u k.=.b Z C C B V Z M m m m ",
"M Z S V Z C M C C C C C A m r R *.&.H _ f m V C C B V S C b M V ",
"M C C M V V V C C C V V V B g :.h.@.q   o V M V S M M M M m V Z ",
"m C M M V V V C V C V M M B ^ m.9.U     . m V V C V V B V m C V ",
"M S M S Z C C C V Z Z V V A %.e.;.g c       V V M M M m M V V n ",
"C S C Z C C C m B V C M M e 4.e.R 3 $     . V V V V V m V Z S m ",
"0 M C Z C Z C m M V V V i P k.8.K 8 5 3 3 M Z C V V m m V V V 0 ",
"M M S S D D C M C C S C i e.j.8.t V S S C Z Z Z V V C C Z C C v ",
"C 0 C C Z 0 M M B V V C 7 w p , v M C C V V V M M m M m V M V n "
};
