/* XPM */
static char *result[] = {
/* columns rows colors chars-per-pixel */
"32 32 111 2 ",
"   c #000001",
".  c #0E0904",
"X  c #000009",
"o  c #120B03",
"O  c #1B1305",
"+  c #17130C",
"@  c #1B180F",
"#  c #211B0D",
"$  c #2B1E0E",
"%  c #381E0A",
"&  c #2F241C",
"*  c #3B2211",
"=  c #3A2916",
"-  c #312418",
";  c #2C2821",
":  c #333334",
">  c #412714",
",  c #4B331B",
"<  c #4E3A1F",
"1  c #543614",
"2  c #543C1E",
"3  c #4D3D2B",
"4  c #543D21",
"5  c #513C2E",
"6  c #593E29",
"7  c #463937",
"8  c #4D3D3B",
"9  c #513D3A",
"0  c #64461C",
"q  c #66491D",
"w  c #6B4C1D",
"e  c #77461E",
"r  c #744E1F",
"t  c #5A4025",
"y  c #4D433D",
"u  c #5C4935",
"i  c #53453C",
"p  c #644722",
"a  c #664B24",
"s  c #6A4C25",
"d  c #674E29",
"f  c #6B4A28",
"g  c #744E21",
"h  c #6F5024",
"j  c #675129",
"k  c #6B522B",
"l  c #6C5A2D",
"z  c #755224",
"x  c #7B5325",
"c  c #7B5A24",
"v  c #72542A",
"b  c #79552A",
"n  c #76592B",
"m  c #7C5B2D",
"M  c #645339",
"N  c #6A593D",
"B  c #725E33",
"V  c #795A30",
"C  c #736032",
"Z  c #7F6133",
"A  c #464542",
"S  c #4C4542",
"D  c #4C4946",
"F  c #474949",
"G  c #4E4C4A",
"H  c #544442",
"J  c #554B45",
"K  c #5A4C45",
"L  c #514F4C",
"P  c #5F5346",
"I  c #52514E",
"U  c #5A514A",
"Y  c #555452",
"T  c #585655",
"R  c #575855",
"E  c #5A5956",
"W  c #5C5B59",
"Q  c #604F44",
"!  c #65564B",
"~  c #605D5B",
"^  c #5F605E",
"/  c #746653",
"(  c #796A54",
")  c #825C2D",
"_  c #825E31",
"`  c #82632F",
"'  c #846432",
"]  c #896633",
"[  c #866935",
"{  c #8B6A35",
"}  c #866C38",
"|  c #8D6D39",
" . c #916F37",
".. c #916E39",
"X. c #8E7037",
"o. c #8D723B",
"O. c #917237",
"+. c #93743A",
"@. c #97783D",
"#. c #9A7B3E",
"$. c #8E7341",
"%. c #937541",
"&. c #957C43",
"*. c #9B7C41",
"=. c #9D8144",
"-. c #9D844A",
";. c #A18444",
":. c #A28845",
">. c #A38548",
",. c #A68C4B",
"<. c #A88F4E",
/* pixels */
"A A Y Y I L L 7 } <.:.:.>.:.,.,.:.,.,.,.,.,.<.@.Q D G I I Y y F ",
"Y L E E W T T H o.-.| } } @.O.+.O.+.O.+.+.+.#.) U Y I I W W I I ",
"G Y T E W W R H o.-.V f f s w ) _ x x b s n ..z U T Y ^ ^ E ^ R ",
"G T E E I T W S m | f = X +   j ] = + $   k { q J R Y W E E R I ",
"L T T T T T ^ Q 6 u v =   o   l +.>   .   C #.g P Y R I U ^ D L ",
"G T T Y W T Y H ! / c - X @   l +.>   #   C #.g i I E R I Y Y L ",
"L T W T E Y T 9 $.-.' Z } &.&.&.O.m { o.o.-.#.x J L L U R I R Y ",
"Y W Y I L I E 8 ' +.v a s k d n b p j s a n Z w D I G L R R E E ",
"I T T Y G Y T 8 o.=.V ,   X   l +.*   .   B &.r U W L Y Y R I G ",
"I T T W Y Y W 8 } =.V ,   O   C @.%   O   C #.r U R Y I Y R I L ",
"L W T W Y G T 8 o.-.) , X +   l  .* X @   B #.r J I I R R R R L ",
"I T I T T Y W G ' ..v ' [ Z ' { { V } } ' { ] 0 i I R R I Y ^ L ",
"L W W T T Y W H o.-.' %.>.=.;.;.{ O.=.=.;.@...x i R W I U Y R I ",
"L T W I Y I T 8 +.-.v n ' ) _ ] ] ) ) m n Z { x K Y I R L L I Y ",
"F S T L T Y I H +.-.b n ' ] ] @.{ ) { M : ; t e K R I Y I I D L ",
"G L G G L G L H 3 M z v m b n { m h ` t & m v 1 y G G L D L I D ",
"G G Y T Y I Y i ! ( c m ] { { #.{ ) | { ] *.#.g S I Y Y Y I L L ",
"D D Y E T Y I 8 $.-.{ { @.>.#.;.+.O.;.;.=.=.*.x J I Y R W W G I ",
"D W Y Y L Y Y y o.-.` ` { ] { { { { { ..' ] ..z J I L Y W W W R ",
"G Y T E Y L T A ` | j a s s s n b s f p p v V w U T Y Y R R T Y ",
"D Y T Y I T T H o.&.v V ] ] ' @.{ m ] m m #.@.z K Y I I Y W Y Y ",
"Y T T T Y Y Y 8 o.=.v V ..{ { *.O.) { { ] #.@.g U Y I T I Y W R ",
"W T L W T Y T H +.-.b _ { { { #.{ m ` ] X.#.#.x K Y I T Y Y I R ",
"Y W T E T Y T A ' $.v ' ..{ { +.` { ..{ { O.{ q D Y T T I I I T ",
"I R W I E R I S o.-.' { | ' ) { { { { { {  .{ z J Y L T Y L T R ",
"I I I G I I R H { &.m n b b ) ] ` x b z b ] X.x J I Y Y Y L R W ",
"G L G I Y I R Q 5 N ) V { { ] +.{ b { ] ` #.@.r U R I I T Y E E ",
"L R I T Y Y Y i ! / r v m n v { Z z m m n ] ] q J R I I I T T T ",
"Y E I Y T R T 8 $.-.m '  .{ { #.{ m { { { X.O.x J I I I T E W L ",
"L Y T T W W Y 9 +.-.n +.,.>.>.;.O.@.:.=.*.;.O.x K I I L Y R T G ",
"D D R R W W ^ J @.>.` { ] {  .{ { O.{ { { | ..x K Y I R ~ W L D ",
"I L I I T G Y S a k 4 t 4 2 2 2 2 2 2 2 < 2 2 2 y Y L I Y Y I I "
};
