/* XPM */
static char *result[] = {
/* columns rows colors chars-per-pixel */
"32 32 129 2 ",
"   c #272F00",
".  c #2A2E00",
"X  c #263700",
"o  c #2C3400",
"O  c #2F3A00",
"+  c #323502",
"@  c #333900",
"#  c #33340E",
"$  c #363C0B",
"%  c #343514",
"&  c #353813",
"*  c #36361C",
"=  c #36381D",
"-  c #383B1C",
";  c #373820",
":  c #393B23",
">  c #3B3A28",
",  c #383633",
"<  c #3A363B",
"1  c #3C393E",
"2  c #413F3D",
"3  c #3E4321",
"4  c #40412D",
"5  c #434432",
"6  c #42413F",
"7  c #3E3C41",
"8  c #2D1D64",
"9  c #2E1C72",
"0  c #321D76",
"q  c #391D7F",
"w  c #332566",
"e  c #322863",
"r  c #36256B",
"t  c #39246D",
"y  c #36286A",
"u  c #3C2E6C",
"i  c #3C237F",
"p  c #413E43",
"a  c #42356E",
"s  c #452877",
"d  c #492E79",
"f  c #454343",
"g  c #484745",
"h  c #4A4846",
"j  c #474549",
"k  c #49464A",
"l  c #4D4B4A",
"z  c #504F4D",
"x  c #51514E",
"c  c #545351",
"v  c #3B1C85",
"b  c #3D2086",
"n  c #3500A6",
"m  c #3800A5",
"M  c #3600AA",
"N  c #3C01AB",
"B  c #3E01B2",
"V  c #401F89",
"C  c #4C1F8E",
"Z  c #442384",
"A  c #422089",
"S  c #4B258B",
"D  c #542C83",
"F  c #563483",
"G  c #51318B",
"H  c #542495",
"J  c #572991",
"K  c #582895",
"L  c #4102AE",
"P  c #4302B3",
"I  c #4A05B5",
"U  c #4C09B5",
"Y  c #4501B9",
"T  c #4C02BB",
"R  c #4E0ABA",
"E  c #510CB5",
"W  c #5205BD",
"Q  c #540BBC",
"!  c #5B0BBE",
"~  c #5D13BF",
"^  c #6012BF",
"/  c #723BA5",
"(  c #4F00C3",
")  c #5404C1",
"_  c #5903C4",
"`  c #550AC1",
"'  c #5B0CC4",
"]  c #5903C9",
"[  c #5E0CC9",
"{  c #5E14C2",
"}  c #610DC7",
"|  c #6707CB",
" . c #6C05CE",
".. c #640CC9",
"X. c #6A0CCD",
"o. c #6215C2",
"O. c #6817C7",
"+. c #6418C5",
"@. c #6413CA",
"#. c #6A14CC",
"$. c #6619C9",
"%. c #6C1ACB",
"&. c #7016CE",
"*. c #731CCE",
"=. c #791FCF",
"-. c #6E15D2",
";. c #6E19D2",
":. c #7115D2",
">. c #721CD2",
",. c #791DD4",
"<. c #7B1DD9",
"1. c #7223CD",
"2. c #7921CF",
"3. c #7523D2",
"4. c #7B23D5",
"5. c #7C2CD5",
"6. c #7D23D9",
"7. c #812DD7",
"8. c #8123DA",
"9. c #852CDB",
"0. c #8A2CDE",
"q. c #8534D7",
"w. c #8634D9",
"e. c #8937DA",
"r. c #9134DF",
"t. c #8A2DE0",
"y. c #8D33E0",
"u. c #8F38E1",
"i. c #9334E4",
/* pixels */
"f f f 3 G >.:.#.*.W N ! Q N Y ;.o.P N I { 1.-.%.%.! B a 5 k l x ",
"x 6 f @ / y.2.8.,.E n W ' I T ) Y B I T 7.i.2.6.,.E M u 4 l l c ",
"x h p @ J  .w.5.P M Q ;.<.@._ 4.$.M L [ :.| 7.5.P M ' d - k l l ",
"l c j - i ] ' I n Q 6.*.' ' B 5.w.) M I I ` } I m Q <.F $ l x c ",
"f f 7 ; 0 Y L n o.6.;.P m P N L @.,.{ N m P I n o.6.#.r 3 f j l ",
"l f 7 + Z _ I ! t.3.N N N P I N N #.8.{ U ! P ! t.3.P 8 * f l f ",
"l f 7 o K -.Y *.,.I m P R ) _ ` B N %.%.@.%.Y >.4.I M w % f f l ",
"l l 7 o C _ B T ) Y I N ' &.2.*.I n I _ .._ Y Y _ Y Y y * 6 h z ",
"f h p o H [ Y ' @.( Y N Q 4.i.2.Y I ` @.#.} Y ' @.Y Y w = 7 l l ",
"h l p @ A Y Y $.6.O.L P ) } *.,.#.I Y Y W Y B +.8.%.P w * f f l ",
"l x p $ b T N N #.t.5.I ' #.9.y.~ M U R Y R L N @.0.6.t ; j l l ",
"z l p @ A :.$.P P 1.i.4._ 9.9.Q n I 6.3.( -.$.I P 1.i.F @ k l c ",
"h f 1 + v -.t.%.N M %.,.X.,.o.N I 4.0.$.Y ;.9.%.P n @.D O f f c ",
"z h p @ v Y O.y.1.L L Y W Y m U #.6.^ M T P #.e.1.N B r - f l l ",
"z z f # b Y T e.e._ B Q ' I P *.,.U N N P I T q.u.' Y r ; j l l ",
"g f 1 # 9 I ..| | [ Y #.:.) } ,.o.N m I N I ..| | ' ( r = f f l ",
"z z p o S >.:.-.#.` P ) ) N I ;.+.B N Y { 1.-.#.:.) B r ; l f g ",
"l z k X / i.=.6.6.E n W ' I T _ B Y I W 7.r.=.6.6.E M r > f l l ",
"l f j o H  .w.5.P M Q %.<.@._ 3.$.M L ' >.| 9.7.I m ` s & 7 f 6 ",
"h l p # q _ } I M W 6.%.@.' P 5.9._ M I W Q } U n W 6.D O f 6 l ",
"h g 2 * 0 P L n o.6.*.P m P N L @.>.' N m P P n { 6.:.r = p f z ",
"l , p + V _ I ! 0.3.L N N P I N N %.8.o.U Q P ! t.5.B e > p g z ",
"l f p o K -.T %.6.I n P W W _ ) B B %.%.@.%.T %.<.U M r , k l c ",
"6 h <   C _ B T _ Y I N ' #.=.*.U n I ) ..) Y T ) Y Y 8 . 7 3 f ",
"h h < . H [ Y [ @.T P N E 6.i.4.Y N ` ..#.' P ' } T Y w = < g f ",
"l 2 < + A T B $.8.$.P Y ) } *.,.-.T I T ) T P $.8.$.Y w : f g l ",
"f 2 1 . v T N N O.t.2.T { @.w.e.{ n U R Y T L M #.t.4.r * f f h ",
"f x h @ A -.$.P P 3.i.4._ 8.0.Q M P 6.3.T ;.$.P B 3.i.F O j l z ",
"f f p + v ;.t.%.L M %.4.X.,.o.N P ,.e.%.Y >.0.%.B M %.D o 7 g l ",
"g 2 < + b Y %.t.1.m L Y W T m U %.8.o.N Y Y O.y.1.N B r % p f l ",
"g 6 < @ v Y T e.u._ B W ' I L *.,.Q M N P I T e.u.` B r = f f l ",
"g f f - 0 T } | X.[ Y #.:.) ' ,.} M N P L I ..| X.' ( t % f l l "
};
