/* XPM */
static char *result[] = {
/* columns rows colors chars-per-pixel */
"32 32 157 2 ",
"   c #44433F",
".  c #464541",
"X  c #474642",
"o  c #4E4942",
"O  c #494844",
"+  c #4A4945",
"@  c #494846",
"#  c #4B4A46",
"$  c #4C4B49",
"%  c #4D4C48",
"&  c #4E4D49",
"*  c #4E4D4B",
"=  c #4F4E4A",
"-  c #4F4E4C",
";  c #504F4D",
":  c #51504B",
">  c #54514A",
",  c #56524B",
"<  c #51504C",
"1  c #51504D",
"2  c #52514D",
"3  c #51504E",
"4  c #52514F",
"5  c #53524E",
"6  c #59564F",
"7  c #5D574D",
"8  c #535250",
"9  c #545351",
"0  c #555450",
"q  c #565551",
"w  c #555452",
"e  c #565553",
"r  c #575652",
"t  c #575654",
"y  c #585753",
"u  c #5A5752",
"i  c #5C5750",
"p  c #585755",
"a  c #5D5950",
"s  c #5C5851",
"d  c #5E5951",
"f  c #5A5955",
"g  c #595856",
"h  c #5A5957",
"j  c #5B5957",
"k  c #5B5A56",
"l  c #5C5955",
"z  c #5B5A58",
"x  c #5C5B59",
"c  c #5D5C58",
"v  c #5E5D59",
"b  c #5E5D5B",
"n  c #675A43",
"m  c #6D5D41",
"M  c #6F5F45",
"N  c #645B4A",
"B  c #665D4D",
"V  c #695D48",
"C  c #6A5D48",
"Z  c #6B5E48",
"A  c #6C5F48",
"S  c #685E4C",
"D  c #695F4E",
"F  c #645F54",
"G  c #6D604A",
"H  c #6D614B",
"J  c #716040",
"K  c #716146",
"L  c #796543",
"P  c #706248",
"I  c #73654B",
"U  c #77664A",
"Y  c #70644D",
"T  c #71654E",
"R  c #676258",
"E  c #80683E",
"W  c #8D6D39",
"Q  c #8B6E3C",
"!  c #916F34",
"~  c #997537",
"^  c #91713A",
"/  c #94733B",
"(  c #9A7738",
")  c #9B773A",
"_  c #AC7D2B",
"`  c #AE7E2A",
"'  c #A47A30",
"]  c #A07834",
"[  c #A17834",
"{  c #A37B35",
"}  c #A37B36",
"|  c #A97E35",
" . c #8F7240",
".. c #917340",
"X. c #AF802F",
"o. c #B3812C",
"O. c #B5822D",
"+. c #B8852D",
"@. c #BB862D",
"#. c #B9862F",
"$. c #BC872C",
"%. c #BD882B",
"&. c #B68532",
"*. c #B28436",
"=. c #D4911E",
"-. c #D6921E",
";. c #D9941E",
":. c #D9941F",
">. c #DB951E",
",. c #DD961D",
"<. c #DE961C",
"1. c #DE961D",
"2. c #DE971E",
"3. c #EE9E17",
"4. c #E69A19",
"5. c #E59A1B",
"6. c #E2991C",
"7. c #E2991D",
"8. c #E0981F",
"9. c #E49A1D",
"0. c #E69B1C",
"q. c #E69B1D",
"w. c #E89B1A",
"e. c #EA9C19",
"r. c #EA9D19",
"t. c #EB9D19",
"y. c #EC9E19",
"u. c #EE9E18",
"i. c #F09F16",
"p. c #F0A016",
"a. c #F3A116",
"s. c #F2A117",
"d. c #F7A315",
"f. c #F4A217",
"g. c #F6A316",
"h. c #FBA613",
"j. c #FCA613",
"k. c #FDA613",
"l. c #FEA612",
"z. c #FEA712",
"x. c #FFA712",
"c. c #FEA613",
"v. c #F8A414",
"b. c #F9A414",
"n. c #F8A415",
"m. c #F1A118",
"M. c #C08727",
"N. c #C78B25",
"B. c #C78B26",
"V. c #CD8E22",
"C. c #CC8F25",
"Z. c #C28828",
"A. c #C88D28",
"S. c #C98F29",
"D. c #D69322",
"F. c #D89420",
"G. c #D89421",
/* pixels */
"@ - w w 9 3 $ - > C ) 0.x.x.x.x.x.x.x.x.7./ H 6 2 + # & 0 2   X ",
"3 w p g z g 8 M #.s.x.x.x.x.x.x.x.x.x.x.x.x.m.&.K 5 % = y k q & ",
"9 t p g z g { y.z.x.x.x.x.x.x.x.x.x.x.x.x.x.x.c.t.( 5 f f 0 k y ",
"3 t t e i X.j.x.x.x.x.x.x.x.x.x.x.x.x.x.x.x.x.x.x.j.o.F v y q & ",
"- p t s +.l.x.x.x.x.x.x.x.x.x.x.x.x.x.x.x.x.x.x.x.x.k.%.a f 2 X ",
"; p 9 +.z.x.x.x.x.x.x.x.x.x.x.x.x.x.x.x.x.x.x.x.x.x.x.z.M.< % < ",
"4 j Q a.x.x.x.x.x.x.x.x.x.x.x.x.x.x.x.x.x.x.x.x.x.x.x.x.n.~ : 2 ",
"w R D.x.x.x.x.x.x.x.x.x.x.x.x.x.x.x.x.x.x.x.x.x.x.x.x.x.x.2.S 2 ",
"9 ..l.x.x.x.x.x.x.x.x.x.x.x.x.x.x.x.x.x.x.x.x.x.x.x.x.x.x.z.[ $ ",
"u f.x.x.x.x.x.x.x.x.x.x.x.x.x.x.x.x.x.x.x.x.x.x.x.x.x.x.x.x.j.o ",
"E x.x.x.x.x.x.x.x.x.x.x.x.x.x.x.x.x.x.x.x.x.x.x.x.x.x.x.x.x.x.! ",
"B.x.x.x.x.x.x.x.x.x.x.x.x.x.x.x.x.x.x.x.x.x.x.x.x.x.x.x.x.x.x.;.",
"F.x.x.x.x.x.x.x.x.x.x.x.x.x.x.x.x.x.x.x.x.x.x.x.x.x.x.x.x.x.x.5.",
"<.x.x.x.x.x.x.x.x.x.x.x.x.x.x.x.x.x.x.x.x.x.x.x.x.x.x.x.x.x.x.r.",
"w.x.x.x.x.x.x.x.x.x.x.x.x.x.x.x.x.x.x.x.x.x.x.x.x.x.x.x.x.x.x.i.",
"u.x.x.x.x.x.x.x.x.x.x.x.x.x.x.x.x.x.x.x.x.x.x.x.x.x.x.x.x.x.x.a.",
"3.x.x.x.x.x.x.x.x.x.x.x.x.x.x.x.x.x.x.x.x.x.x.x.x.x.x.x.x.x.x.p.",
"4.x.x.x.x.x.x.x.x.x.x.x.x.x.x.x.x.x.x.x.x.x.x.x.x.x.x.x.x.x.x.t.",
",.x.x.x.x.x.x.x.x.x.x.x.x.x.x.x.x.x.x.x.x.x.x.x.x.x.x.x.x.x.x.5.",
"=.x.x.x.x.x.x.x.x.x.x.x.x.x.x.x.x.x.x.x.x.x.x.x.x.x.x.x.x.x.x.1.",
"` x.x.x.x.x.x.x.x.x.x.x.x.x.x.x.x.x.x.x.x.x.x.x.x.x.x.x.x.x.x.' ",
"P z.x.x.x.x.x.x.x.x.x.x.x.x.x.x.x.x.x.x.x.x.x.x.x.x.x.x.x.x.j.N ",
"r C.x.x.x.x.x.x.x.x.x.x.x.x.x.x.x.x.x.x.x.x.x.x.x.x.x.x.x.x.Z.4 ",
"k T j.x.x.x.x.x.x.x.x.x.x.x.x.x.x.x.x.x.x.x.x.x.x.x.x.x.x.v.m - ",
"8 l *.j.x.x.x.x.x.x.x.x.x.x.x.x.x.x.x.x.x.x.x.x.x.x.x.x.k._ , 0 ",
"8 t G >.x.x.x.x.x.x.x.x.x.x.x.x.x.x.x.x.x.x.x.x.x.x.x.x.6.n r f ",
"* w 3 V h.x.x.x.x.x.x.x.x.x.x.x.x.x.x.x.x.x.x.x.x.x.x.h.A 3 y 0 ",
"8 x e z Y q.z.x.x.x.x.x.x.x.x.x.x.x.x.x.x.x.x.x.x.z.e.J 8 8 r % ",
"w b e g e U A.x.x.x.x.x.x.x.x.x.x.x.x.x.x.x.x.x.x.G.L 1 e h c = ",
"* w e g p h d W d.x.x.x.x.x.x.x.x.x.x.x.x.x.x.j.] 7 4 - w e 0 . ",
"* ; z b b z p e D $.8.g.x.x.x.x.x.x.x.x.b.9.S.I e e p t z p r O ",
"3 $ p t e * * 9 4 8 B  .} O.N.:.-.V.@.| ^ Z w 3 3 ; 3 3 9 4 q & "
};
