/* XPM */
static char *result[] = {
/* columns rows colors chars-per-pixel */
"32 32 122 2 ",
"   c #7D331B",
".  c #7E321A",
"X  c #7E331B",
"o  c #79351F",
"O  c #7C341D",
"+  c #7C341E",
"@  c #743725",
"#  c #793620",
"$  c #7B3721",
"%  c #773925",
"&  c #723B29",
"*  c #753B28",
"=  c #733C2A",
"-  c #713E2D",
";  c #44433F",
":  c #5C423A",
">  c #5C453D",
",  c #70402F",
"<  c #7B402D",
"1  c #7C402C",
"2  c #6F4436",
"3  c #654439",
"4  c #6D4538",
"5  c #61493F",
"6  c #464541",
"7  c #474642",
"8  c #474644",
"9  c #484743",
"0  c #484745",
"q  c #494844",
"w  c #4A4945",
"e  c #494846",
"r  c #4A4947",
"t  c #4B4A46",
"y  c #4C4B47",
"u  c #4F4B46",
"i  c #4B4A48",
"p  c #4C4B49",
"a  c #4D4C48",
"s  c #4E4D49",
"d  c #4D4C4A",
"f  c #4E4D4B",
"g  c #4F4E4A",
"h  c #4F4E4C",
"j  c #554842",
"k  c #504F4B",
"l  c #504F4D",
"z  c #56504A",
"x  c #51504C",
"c  c #52514D",
"v  c #51504E",
"b  c #52514F",
"n  c #53524E",
"m  c #54504C",
"M  c #54534F",
"N  c #59524D",
"B  c #535250",
"V  c #545351",
"C  c #555450",
"Z  c #565551",
"A  c #555452",
"S  c #565452",
"D  c #565553",
"F  c #575652",
"G  c #575654",
"H  c #585753",
"J  c #5D5653",
"K  c #585755",
"L  c #595854",
"P  c #5A5955",
"I  c #595856",
"U  c #5A5957",
"Y  c #5B5A56",
"T  c #5C5B57",
"R  c #5B5A58",
"E  c #5C5B59",
"W  c #5D5C58",
"Q  c #5E5D59",
"!  c #5D5C5A",
"~  c #5E5D5B",
"^  c #5F5E5A",
"/  c #5F5E5C",
"(  c #604941",
")  c #614A40",
"_  c #604D46",
"`  c #64534B",
"'  c #61534E",
"]  c #69544C",
"[  c #7E5649",
"{  c #79584D",
"}  c #78584E",
"|  c #7D594D",
" . c #7B5C4F",
".. c #685650",
"X. c #6D5851",
"o. c #685C57",
"O. c #605F5D",
"+. c #765C53",
"@. c #80341C",
"#. c #80351E",
"$. c #81361E",
"%. c #82371F",
"&. c #843B23",
"*. c #843B24",
"=. c #884029",
"-. c #8A422C",
";. c #8B442E",
":. c #8F4A34",
">. c #934F3A",
",. c #94513C",
"<. c #825749",
"1. c #83584A",
"2. c #835A4C",
"3. c #855A4C",
"4. c #8E5B4A",
"5. c #9A5944",
"6. c #9B5A46",
"7. c #915C4B",
"8. c #945C4A",
"9. c #955C4A",
"0. c #9C5D49",
"q. c #9D5D49",
/* pixels */
"e h A A V v p h h B K G A f v : k g n F C F H C c w t s C c ; 7 ",
"v A K I R I B b J * . . . . . . . . . . . . O 2 5 z u g H Y Z s ",
"V G K I 4 % . . . -.q.-.q.q.q.q.q.;.q.-.. . . . . . . + P C Y H ",
"v G G - . . >.q.q.q.q.] D X.q.q.q.q.q.q.q.q.q.q.. . . . $ , Z s ",
"h K . . q.q.q.V b B V l v v I V M F M c H L M n . . . . . . c 7 ",
"l . . . . . . > ( A A h f h K V k C F C Z ) . . . . . . . . . ` ",
"m q.. . . . . . . . . . . . . . . . . . . . . . . :.@.. . #.q.0.",
"| q.q.=.q.,.. . . . ,.5.5.. . 5.. . 5.. . . . . 5.6.$.q.q.q.q.N ",
"{ q.q.q.q.q.q.q.q.q.q.q.q.q.q.q.q.*.q.q.q.. q.. q.q.q.q.q.4.B p ",
"D +.q.q.q.q.q.} q.q.q.q.q.q.q.q.q.q.q.q.q.q.q.q.q.q.D G K G B 8 ",
"b I S G A B V U o.1 q.q.q.q.q.q.q.q.q.q.q.. q.q.. V B K R R G p ",
"B E K D K A K O.< . . . # f 8.V B G 9.K B A . . @ B D K D V V f ",
"b ~ U A G A G U q.q.&.. j v G l v I K G 3 . X q.l D K K b l V v ",
"p G K B G V D B U 7.,.,.%.. & o . =   . . ,.q...V D A A b b A l ",
"d b A V K A I A A B b q.q.q.q.q.q.q.q.q.q.q.2.G D D V V l h h 8 ",
"h f l l V l D b h v p i i _ [ 1.q.q.<.3.' b f b p h v B l h l r ",
"a y c T M c k k F q t k M c q 9 0 0 V V h b b b f h A K V l d r ",
"a k n P F L C c Z s k x M H x y f h G D A G A D b b D I I K A l ",
"g L L L C H c k n x n k c P Z a B A K D K I D G A B V D I E U b ",
"q F L F M F M F F Z F F H Y H c V K G A K K V G D B v b A I K l ",
"y Z F H C F n H L C Z T Y F C M B I G D K D D I K A B B B D D l ",
"F H C H Z Z k c F c c T  .n n c l G D G G A K I K D D D V V A B ",
"F F C L C H Z C H F F W Y Z H n v A D K D V U G G V A G V v v b ",
"Y T Q ^ M Z F F F Y L L H H P k V G G R D V U A D b V K B f f h ",
"B I / V R K b D G I U I G G G D M Z V A I G V K I b B I I p x C ",
"B G D l V V B U G G A V A D v p Z F B b A A B A U B b V V f F P ",
"f A v B A V A U D D V b B A v e C F B h B D D D G A V b V v H C ",
"B E D R U U K D A I I A A K G b n F A l v D G A b B b h B B F a ",
"A ~ D I D I G l v A D V V D V h M L U V v V D B D D V l D U W g ",
"f A D I K U G l B V A G I K v e M P O.E D K R G B B b h A D C 6 ",
"f l R ~ ~ R K D K K U ! / R V h x Z ~ ~ K U E I D D K G R K F q ",
"v p K G D f f V b B D I G B v v y k K I V V A v v l v v V b Z s "
};
