/* XPM */
static char *result[] = {
/* columns rows colors chars-per-pixel */
"32 32 114 2 ",
"   c #7E321A",
".  c #7D331C",
"X  c #7C341E",
"o  c #6E3828",
"O  c #773621",
"+  c #793621",
"@  c #783824",
"#  c #783825",
"$  c #713D2C",
"%  c #44433F",
"&  c #5B4239",
"*  c #5C443A",
"=  c #614237",
"-  c #6D4132",
";  c #62473D",
":  c #64463C",
">  c #6E473A",
",  c #464541",
"<  c #474642",
"1  c #474644",
"2  c #484743",
"3  c #484745",
"4  c #494844",
"5  c #4A4945",
"6  c #494846",
"7  c #4A4947",
"8  c #4B4A46",
"9  c #4C4B47",
"0  c #4B4A48",
"q  c #4C4B49",
"w  c #4E4B49",
"e  c #4D4C48",
"r  c #4E4D49",
"t  c #4D4C4A",
"y  c #4E4D4B",
"u  c #4F4E4A",
"i  c #4F4E4C",
"p  c #584B45",
"a  c #5C4C45",
"s  c #504F4B",
"d  c #504F4D",
"f  c #564F4C",
"g  c #51504C",
"h  c #52514D",
"j  c #51504E",
"k  c #52514F",
"l  c #53524E",
"z  c #54534F",
"x  c #5E544E",
"c  c #535250",
"v  c #545351",
"b  c #565351",
"n  c #555450",
"m  c #565551",
"M  c #555452",
"N  c #565553",
"B  c #575553",
"V  c #575652",
"C  c #575654",
"Z  c #595451",
"A  c #585753",
"S  c #595654",
"D  c #585755",
"F  c #5A5754",
"G  c #595854",
"H  c #5A5955",
"J  c #595856",
"K  c #5A5957",
"L  c #5B5A56",
"P  c #5C5956",
"I  c #5C5B57",
"U  c #5B5A58",
"Y  c #5C5B59",
"T  c #5D5C58",
"R  c #5E5D59",
"E  c #5D5C5A",
"W  c #5E5D5B",
"Q  c #5F5E5A",
"!  c #5F5E5C",
"~  c #624B41",
"^  c #694C42",
"/  c #614F49",
"(  c #6F5248",
")  c #68554E",
"_  c #72594F",
"`  c #77584D",
"'  c #74584E",
"]  c #7F5A4D",
"[  c #7D5A4F",
"{  c #7E5B4F",
"}  c #615550",
"|  c #625650",
" . c #675750",
".. c #665A54",
"X. c #6E5A53",
"o. c #605F5D",
"O. c #94543F",
"+. c #82594B",
"@. c #875A4B",
"#. c #895848",
"$. c #8F5C4B",
"%. c #8A5B4C",
"&. c #985742",
"*. c #935B4A",
"=. c #935D4B",
"-. c #945C4A",
";. c #955C4A",
":. c #945C4B",
">. c #945D4B",
",. c #965D4A",
"<. c #9B5D49",
"1. c #9C5D49",
"2. c #9D5D49",
"3. c #815D51",
/* pixels */
"6 i M M v j q i i c D C M y j 0 s u l V n V A n h 5 8 r n h % < ",
"j M D J P / ; k K J P -.2.2.2.2.1.*.;.>.,.:.I T n l e u A L m r ",
"v C #     @ - M K ] -.' J [ K i z L Q T .._ V G m     x H n L A ",
"p         c M N c j j j N C U k m G V m G G m m T z g       ~ r ",
"      N M k v v k c v d j j J v z V z h A G z l V z G A V X h < ",
"  S v N C v v y v M M i y i D v s n V n m n h s u g I V g g e g ",
"  K c v M k v y c c k y j c J k 8 g V V m A A n l u u l V z s h ",
"$ . C v k i C M k j d i N C J q z n G G m G H l s V g h A V V h ",
"v K | B y c M j j M c N E W U c c C D K M D  .$.=.%.Z } ) c c q ",
"N Y D K v b b <.i <.2.2.3.o.Y y k M N K 1.2.1.K ! U N C D C c 1 ",
"k J M C M c v { E <.*.N N v D N k M M K O.  M D v v c D U U C q ",
"c Y D N D M D o.^ O = N c y v v c C C D c   k k y c N D N v v y ",
"k W K M C M C K +   j j t j C d j J D C a   : d d N D D k d v j ",
"q C D c C v N c X.2.2.2.w * f y d D S F   > D M v N M M k k M d ",
"t k M v D M J M M @.#.2.    &.2.2.2.2.2.2.<.N C N N v v d i i 1 ",
"i y d d v d N k i j q 0 & o 2.2.( ( 2.` +.k y k q i j c d i d 7 ",
"e 9 h I z h s s V 4 8 s z h 4 2 3 3 v v i k k k y i M D v d t 7 ",
"e s l H V G n h m r s g z A g 9 y i C N M C M N k k N J J D M d ",
"u G G G n A h s l g l s h H m e c M D N D J N C M c v N J Y K k ",
"4 V G V z V z V V m V V A L A h v D C M D D v C N c j k M J D d ",
"9 m V A n V l A G n m I L V n z c J C N D N N J D M c c c N N d ",
"V A n A m m s h V h h I L l l h d C N C C M D J D N N N v v M c ",
"V V n G n A m n A V V T L m A l j M N D N v K C C v M C v j j k ",
"L I R Q z m V V V L G G A A H s v C C U N v K M N k v D c y y i ",
"c J ! v U D k N C J K J C C C N z m v M J C v D J k c J J q g n ",
"c C N d v v c K C C M v M N j q m V c k M M c M K c k v v y V H ",
"y M j c M v M K N N v k c M j 6 n V c i c N N N C M v k v j A n ",
"c Y N U K K D N M J J M M D C k l V M d j N C M k c k i c c V e ",
"M W N J N J C d j M N v v N v i z G K v j v N c N N v d N K T u ",
"y M N J D K C d c v M C J D j 6 z H o.Y N D U C c c k i M N n , ",
"y d U W W U D N D D K E ! U v i g m W W D K Y J N N D C U D V 4 ",
"j q D C N y y v k c N J C c j j 9 s D J v v M j j d j j v k m r "
};
