/* XPM */
static char *result[] = {
/* columns rows colors chars-per-pixel */
"32 32 128 2 ",
"   c #7D331B",
".  c #7E321A",
"X  c #7C331C",
"o  c #7C331D",
"O  c #6B3E2F",
"+  c #793520",
"@  c #733A27",
"#  c #733F2D",
"$  c #44433F",
"%  c #4B443F",
"&  c #6F4132",
"*  c #6C4233",
"=  c #6A4335",
"-  c #6B4639",
";  c #66483D",
":  c #6A4A3F",
">  c #464541",
",  c #474642",
"<  c #474644",
"1  c #484743",
"2  c #484745",
"3  c #494844",
"4  c #4A4945",
"5  c #494846",
"6  c #4A4947",
"7  c #4B4A46",
"8  c #4C4B47",
"9  c #4C4B49",
"0  c #4D4C48",
"q  c #4E4D49",
"w  c #4D4C4A",
"e  c #4E4D4B",
"r  c #4F4E4A",
"t  c #4F4E4C",
"y  c #504F4B",
"u  c #504F4D",
"i  c #594F4B",
"p  c #51504C",
"a  c #52514D",
"s  c #51504E",
"d  c #52514F",
"f  c #53524E",
"g  c #54534F",
"h  c #5B504B",
"j  c #5D544F",
"k  c #535250",
"l  c #545351",
"z  c #555450",
"x  c #565551",
"c  c #555452",
"v  c #565552",
"b  c #565553",
"n  c #575652",
"m  c #575654",
"M  c #595553",
"N  c #585753",
"B  c #5E5450",
"V  c #5D5650",
"C  c #5D5653",
"Z  c #585755",
"A  c #595854",
"S  c #5A5955",
"D  c #595856",
"F  c #5A5957",
"G  c #5B5A56",
"H  c #5C5B57",
"J  c #5B5A58",
"K  c #5C5B59",
"L  c #5D5C58",
"P  c #5E5D59",
"I  c #5D5C5A",
"U  c #5E5D5B",
"Y  c #5F5E5A",
"T  c #5F5E5C",
"R  c #624F48",
"E  c #60524B",
"W  c #68534A",
"Q  c #6C5249",
"!  c #72584F",
"~  c #7B584B",
"^  c #7D584B",
"/  c #7C594D",
"(  c #7E594C",
")  c #695B56",
"_  c #605F5D",
"`  c #715951",
"'  c #80351D",
"]  c #81361E",
"[  c #823820",
"{  c #823821",
"}  c #833921",
"|  c #833922",
" . c #833A22",
".. c #843A23",
"X. c #863D26",
"o. c #863E27",
"O. c #873F28",
"+. c #884029",
"@. c #89422B",
"#. c #8A432D",
"$. c #8B442D",
"%. c #8B442E",
"&. c #8D4630",
"*. c #8D4731",
"=. c #8F4A34",
"-. c #914C37",
";. c #924E39",
":. c #934F39",
">. c #934F3A",
",. c #94503B",
"<. c #96543F",
"1. c #865B4D",
"2. c #8B5A4B",
"3. c #985742",
"4. c #995742",
"5. c #9A5945",
"6. c #9B5A46",
"7. c #9C5B47",
"8. c #925B49",
"9. c #905C4B",
"0. c #945D4A",
"q. c #965C4A",
"w. c #985C49",
"e. c #9B5D49",
"r. c #985D4A",
"t. c #9D5C48",
"y. c #9C5D49",
"u. c #9D5D49",
/* pixels */
"5 t c c l s 9 t t k Z m c X . . o r f n z n N z a 4 7 q z a $ , ",
"s c Z D J D k d F R . . . u.3.*.*.*.o.. - E H L z f 0 r N G x q ",
"l m Z D J D v = . . [ u.t.u.u.u.t.t.=.. . . . . . n f S S z G N ",
"s m ; *   . . u.u.=.=.=.=.=.=.=.=.. =.=.=.u.u.. . . . # P N x q ",
"t & . 6.u.] . . u.5.u.u.5.u.u.u.u.u.7.u.7.u.. . . . . . . . O % ",
"+ . . . . . . . . . . . . @.. . . . . u.. . . . . . . . . . . . ",
"@ . . . . . . . . . . . . . . . . . . . . . . . . . | . . ' u.. ",
"| O.. . . . . ,.,.%.-.. . . . . . . . . . u.$.. u.,.u.. u.u.u.^ ",
"w.u.u.u.u.u.X.u.u.u.u.u.X.. X.X.} . . X.X.u.u.u.u.u.u.u.u.u.2.Q ",
"b ) u.u.u.u.u.u.u.u.u.u.u.<.u.u.u.u.u.u.u.u.u.u.u.u.u.u.u.1.k < ",
"d D / . >.. :.>.u.u.u.u.u.u.u.u.u.u.u.u.u.u.>.u.u.>. .o.e.J m 9 ",
"k K Z h . . . . . . . : j i B B k m m Z k { . . . . 4.u.M l l e ",
"d U F c . . . . #.#.. . . . . . . . . . . . . . . ..u.` d u l s ",
"9 m Z k C u.u.u.u.u.u.6.. . . . . . . . . . . . ;.y.c c d d c u ",
"w d c l Z c 0.u.u.u.u.+.&.u.&.] &.. u.u.u.u.u.u.u.! l l u t t < ",
"t e u u l u b d t s y.y.u.y.u.y.y.y.y.y.y.8.W d 9 t s k u t u 6 ",
"0 8 a H g a y y n 3 7 y g a 3 1 2 2 l l t d d d e t c Z l u w 6 ",
"0 y f S n A z a x q y p g N p 8 e t m b c m c b d d b D D Z c u ",
"r A A A z N a y f p f y a S x 0 k c Z b Z D b m c k l b D K F d ",
"3 n A n g n g n n x n n N G N a l Z m c Z Z l m b k s d c D Z u ",
"8 x n N z n f N A z q.r.G n z g ~ D m b Z b b D Z c k k k b b u ",
"n N z N x x y a n a a H G f f a u m b m m c Z D Z b b b l l c k ",
"n n z A z N x z N n n L G x N f s c b Z b l F m m l c m l s s d ",
"G H P Y g x n n n G A A N N S y l m m J b l F c b d l Z k e e t ",
"k D T l J Z d b m D F D m m m b g x l c D m l Z D d k D D 9 p z ",
"k m b u l l k F m m c l c b s 9 V 9.( d c c k c F k d l l e n S ",
"e c s k c l c F b b l d k c s 5 z n k t k b b b m c l d l s N z ",
"k K b J F F Z b c D D c c Z m d f n c u s b m c d k d t k k n 0 ",
"c U b D b D m u s c b l l b l t g A F l s l b k b b l u b F L r ",
"e c b D Z F m u k l c m D Z s 5 g S _ K b Z J m k k d t c b z > ",
"e u J U U J Z b Z Z F I T J l t p x U U Z F K D b b Z m J Z n 3 ",
"s 9 Z m b e e l d k b D m k s s 8 y Z D l l c s s u s s l d x q "
};
