/* XPM */
static char *result[] = {
/* columns rows colors chars-per-pixel */
"32 32 169 2 ",
"   c #581503",
".  c #581603",
"X  c #581604",
"o  c #581705",
"O  c #581807",
"+  c #581A09",
"@  c #631703",
"#  c #601C04",
"$  c #7E1D02",
"%  c #552212",
"&  c #572212",
"*  c #592D1F",
"=  c #652004",
"-  c #6E2805",
";  c #712B05",
":  c #7B3406",
">  c #7F3706",
",  c #602711",
"<  c #6E3B1C",
"1  c #783E1E",
"2  c #793F1F",
"3  c #562D21",
"4  c #44433F",
"5  c #4E423B",
"6  c #584039",
"7  c #58443E",
"8  c #464541",
"9  c #474642",
"0  c #474644",
"q  c #494844",
"w  c #4A4945",
"e  c #494846",
"r  c #4A4947",
"t  c #4B4947",
"y  c #4B4A46",
"u  c #4C4B47",
"i  c #4D4B47",
"p  c #4C4B49",
"a  c #4D4C48",
"s  c #4E4D49",
"d  c #4F4E49",
"f  c #4D4C4A",
"g  c #4E4D4B",
"h  c #4F4E4A",
"j  c #4F4E4C",
"k  c #554641",
"l  c #564944",
"z  c #504E4A",
"x  c #504F4B",
"c  c #504F4D",
"v  c #544F4C",
"b  c #51504C",
"n  c #52514D",
"m  c #51504E",
"M  c #52514F",
"N  c #53524E",
"B  c #55514E",
"V  c #54534F",
"C  c #57534E",
"Z  c #59504C",
"A  c #535250",
"S  c #545351",
"D  c #565250",
"F  c #555450",
"G  c #565551",
"H  c #555452",
"J  c #565553",
"K  c #575553",
"L  c #575652",
"P  c #575654",
"I  c #595550",
"U  c #585451",
"Y  c #585452",
"T  c #585753",
"R  c #585654",
"E  c #585755",
"W  c #5C5A51",
"Q  c #595854",
"!  c #5A5955",
"~  c #595856",
"^  c #5A5957",
"/  c #5B5A56",
"(  c #5C5B57",
")  c #5F5E56",
"_  c #5B5A58",
"`  c #5C5B59",
"'  c #5D5C58",
"]  c #5E5D59",
"[  c #5E5D5B",
"{  c #5F5E5C",
"}  c #7D6742",
"|  c #6E6A5A",
" . c #6D6A5D",
".. c #74705F",
"X. c #7A755F",
"o. c #7F7A62",
"O. c #861F02",
"+. c #922202",
"@. c #9E2402",
"#. c #823907",
"$. c #843C07",
"%. c #863D07",
"&. c #B12801",
"*. c #B92A01",
"=. c #BD2B01",
"-. c #D12F01",
";. c #D93101",
":. c #DA3E11",
">. c #E13201",
",. c #EA3400",
"<. c #F83B03",
"1. c #FA3A02",
"2. c #FE3900",
"3. c #FF3900",
"4. c #A05409",
"5. c #9C621F",
"6. c #AF610B",
"7. c #B7680C",
"8. c #BC6C0C",
"9. c #8F4934",
"0. c #934731",
"q. c #977539",
"w. c #C04521",
"e. c #DF981F",
"r. c #EB9510",
"t. c #EC9E19",
"y. c #F19A11",
"u. c #F7A011",
"i. c #F1A017",
"p. c #FAA312",
"a. c #FFA712",
"s. c #FFA814",
"d. c #FFA916",
"f. c #FFAA17",
"g. c #FFB72F",
"h. c #FFB933",
"j. c #868067",
"k. c #948C69",
"l. c #A49B6F",
"z. c #A19870",
"x. c #A79E70",
"c. c #AAA174",
"v. c #B5AA76",
"b. c #B5AB76",
"n. c #CBBE7F",
"m. c #D9BC72",
"M. c #FFC64B",
"N. c #FFD86B",
"B. c #FFD86C",
"V. c #FFE27E",
"C. c #CDC080",
"Z. c #CFC180",
"A. c #E3D487",
"S. c #E3D488",
"D. c #E7D789",
"F. c #EADA8A",
"G. c #EFDE8C",
"H. c #F3E28D",
"J. c #F7E68F",
"K. c #F8E78F",
"L. c #FFEA8D",
"P. c #FFEB8E",
"I. c #FAE890",
"U. c #FAE990",
"Y. c #FCEA91",
"T. c #FDEB91",
"R. c #FDEC91",
"E. c #FEEC92",
"W. c #FFED92",
/* pixels */
"e j H H S m p j j A R K       t z d N L F L T F n w y s F n 4 9 ",
"m H E ~ _ ~ A M ^ ~                 ! ' ! ! ( ' F N a h T / G s ",
"S P E ~ _ ~ J H ^ P &.&.&.&.&.$           X + * G L N ! ! F / T ",
"m P P J H A H J A m 0.3.3.3.3.3.3.                      ] T G s ",
"j E P J B                   -.                          L ! n 9 ",
"c E S J                           3.,.        3.;.      b b a b ",
"M ^ A S                       >.3.3.3.3.3.3.3.3.3.3.3.1.L V x n ",
"H { P S Z <.3.3.3.3.3.3.3.3.O.  @.3.3.3.3.3.3.3.3.3.3.:.T L L n ",
"S ^ H J g A X                                       v S A A A p ",
"J ` E ^ S k                                       o D P E P A 0 ",
"M ~ H P l                                     7 S S A E _ _ P p ",
"A ` E J Y @ 3.3.3.3.3.3.3.3.3.3.*.            M g A J E J S S g ",
"M [ ^ H P H P 2.3.3.3.3.3.3.3.3.*.                      M c S m ",
"p P E A P S J A w.3.3.3.3.3.3.=.+.                          H c ",
"f M H S E H ~ H U 9.3.3.3.3.3.                              j 0 ",
"j g c c                           #.y.  y.y.              a.c r ",
"i 5 3                           a.a.a.a.a.a.a.a.a.a.a.a.t.c f r ",
"%                               a.a.a.a.a.a.a.a.a.a.a.e.~ E H c ",
"&                               8.a.a.P.N.g.a.h.V.a.} J ~ ` ^ M ",
"q C I     u.=     a.    a.-   u.u.  # # f.s.a.#   A m M H ~ E c ",
"u G L , : a.%.: a.a.a.a.a.a.4.a.a.a.a.          6 H A A A J J c ",
"L T F T q.a.a.a.a.a.a.a.a.a.a.7.a.a.r.p.a.a.a.5.E J J J S S H A ",
"L L F Q F T i.a.a.a.$.a.      ; $.$.>       6.a.< S H P S m m M ",
"/ ( ] C.E.L L                                   O M X.Y.k.g g j ",
"| S.{ S _ E M J                                 . M A ~ ~ p A.F ",
"D...J c S S A ^ 2                             1 J.A M S S g v.n.",
"g b.F.x.H S H ^ W.W.m.m.m.              m.m.W.W...H S M Z.T.o.F ",
"A ` J _ z.I.E.W.W.W.W.W.W.W.W.M.d.W.W.W.W.W.W.W.W.W.I.W A A L a ",
"H [ J ~ J ~ P c T.W.W.B.B.L.W.W.W.W.W.W.W.W.W.W.R.J S c J ^ ' h ",
"g H J ~ E ^ P c A l.W.W.W.W.W.W.W.W.a.P.W.W.W.P A A M j H J F 8 ",
"g c _ [ [ _ E J E  .W.W.W.W.W.W.W.W.W.W.W.W.c.~ J J E P _ E L q ",
"m p E P J g g S M A J j.U.W.W.W.W.W.W.K.H.G.) m m c m m S M G s "
};
