/* XPM */
static char *result[] = {
/* columns rows colors chars-per-pixel */
"32 32 156 2 ",
"   c #44433F",
".  c #68583D",
"X  c #7E663B",
"o  c #464541",
"O  c #474642",
"+  c #474644",
"@  c #494844",
"#  c #4A4945",
"$  c #494846",
"%  c #4A4947",
"&  c #4B4A46",
"*  c #4C4B47",
"=  c #4C4B49",
"-  c #4D4C48",
";  c #4E4D49",
":  c #4D4C4A",
">  c #4E4D4B",
",  c #4F4E4A",
"<  c #4F4E4C",
"1  c #504F4B",
"2  c #504F4D",
"3  c #51504C",
"4  c #52514D",
"5  c #51504E",
"6  c #52514F",
"7  c #53524E",
"8  c #54514C",
"9  c #55524E",
"0  c #54534F",
"q  c #5A554C",
"w  c #5B554C",
"e  c #5F5A4F",
"r  c #535250",
"t  c #545351",
"y  c #555450",
"u  c #565551",
"i  c #555452",
"p  c #565552",
"a  c #565553",
"s  c #575652",
"d  c #575653",
"f  c #575654",
"g  c #585650",
"h  c #595651",
"j  c #5A5751",
"k  c #585753",
"l  c #585755",
"z  c #5A5853",
"x  c #5D5953",
"c  c #595854",
"v  c #5A5955",
"b  c #595856",
"n  c #5A5957",
"m  c #5B5A56",
"M  c #5C5A55",
"N  c #5C5B57",
"B  c #5B5A58",
"V  c #5C5B59",
"C  c #5D5C58",
"Z  c #5E5D59",
"A  c #5D5C5A",
"S  c #5E5D5B",
"D  c #5F5E5A",
"F  c #5F5E5C",
"G  c #625844",
"H  c #61584A",
"J  c #615A4C",
"K  c #635B4D",
"L  c #655C4C",
"P  c #655D4E",
"I  c #685D4A",
"U  c #6A5F4B",
"Y  c #605B50",
"T  c #625C51",
"R  c #635D51",
"E  c #655D50",
"W  c #605F5D",
"Q  c #6D604A",
"!  c #6A604F",
"~  c #6D624E",
"^  c #6E624F",
"/  c #706146",
"(  c #706147",
")  c #7F6842",
"_  c #7D6944",
"`  c #746449",
"'  c #76664A",
"]  c #74654C",
"[  c #7F6C4A",
"{  c #6A6150",
"}  c #6A6151",
"|  c #6C685A",
" . c #6C695A",
".. c #6E6B5E",
"X. c #716D5E",
"o. c #74705E",
"O. c #8B6E3F",
"+. c #8F723E",
"@. c #977336",
"#. c #987435",
"$. c #937138",
"%. c #92733E",
"&. c #9F7A3C",
"*. c #AE7E2E",
"=. c #A57C36",
"-. c #836A40",
";. c #876E43",
":. c #8D7040",
">. c #827A5F",
",. c #B3822D",
"<. c #BF892A",
"1. c #B08131",
"2. c #DF981E",
"3. c #E89C1B",
"4. c #EB9E1A",
"5. c #ED9E19",
"6. c #EC9E1A",
"7. c #E89D1C",
"8. c #EFA018",
"9. c #F3A116",
"0. c #F7A315",
"q. c #F4A216",
"w. c #FBA513",
"e. c #FCA513",
"r. c #FCA613",
"t. c #FDA613",
"y. c #FEA712",
"u. c #FFA712",
"i. c #FBA514",
"p. c #F0A018",
"a. c #C88C25",
"s. c #C48C2A",
"d. c #C88D29",
"f. c #D39122",
"g. c #D99520",
"h. c #D89421",
"j. c #DB9620",
"k. c #FFB124",
"l. c #FFBC38",
"z. c #A2996F",
"x. c #AAA074",
"c. c #FFC64B",
"v. c #FFCA51",
"b. c #FFD160",
"n. c #FFD261",
"m. c #FFD96E",
"M. c #FFDF78",
"N. c #FFE27E",
"B. c #D9CA84",
"V. c #DACB85",
"C. c #E8D889",
"Z. c #FFEA8D",
"A. c #FFEB8E",
"S. c #FFEC90",
"D. c #FFEC91",
"F. c #FFED92",
/* pixels */
"$ < i i t 5 = < < r l f u.u.u.u.u., 7 s / _ k y 4 # & ; y 4   O ",
"5 i l b B b r 6 n ! ] l u.u.u.u.u.7 R u.u.u.u.[ y 7 - , k m u ; ",
"t f l b B b a i u.u.u.u.u.u.u.u.,.m y.u.u.u.u.u.g s 7 v v y m k ",
"5 f f a i r i u.u.u.u.u.u.u.u.a.u +.u.u.u.u.u.u.&.0 3 N Z k u ; ",
"< l f a i 6 I u.u.u.u.u.u.t.b t 0 <.u.u.u.u.u.u.6.0 c k s v 4 O ",
"2 l t a f t ( u.u.u.u.u.u.t.l t 1 y u.u.u.u.u.u.G 3 N s 3 3 - 3 ",
"6 n r t i 6 t u.u.u.u.u.u.r.' w & 3 j.u.u.u.u.8.7 , , 7 s 0 1 4 ",
"i F f t 6 < f h.u.u.u.u.u.u.u.u.0.J c =.u.u.d.7 1 s 3 4 k s s 4 ",
"t n i a > r i 5 $.u.u.u.u.u.u.u.u.u.x n i l a l B b t t r r r = ",
"a V l n t t t i < i a %.u.u.u.u.u.u.<.n d i.u.u.u.y.j f l f r + ",
"6 b i f i r t n A r 2 Q u.u.u.u.u.u.) n u.u.u.u.u.u.u.E B B f = ",
"r V l a l i l W A < : a f.u.u.u.u.4.f 5.u.u.u.u.u.u.u.r.a t t > ",
"6 S n i f i f n f r 5 5 : @.1.*.#.b l u.u.u.u.u.u.u.u.u.9 2 t 5 ",
"= f l r f t a r n f r 5 = : r X 9.3.T u.u.u.u.u.u.u.u.u.H 6 i 2 ",
": 6 i t l i b i K e.u.u.w.% . u.u.u.u.u.u.u.u.u.u.u.u.u.8 < < + ",
"< > 2 2 t 2 a q u.u.u.u.u.u.u.u.u.u.u.u.u.u.u.u.u.u.u.y.2 < 2 % ",
"- * 4 N 0 4 1 u.u.u.u.u.u.u.u.u.u.u.u.-.u.u.u.u.u.u.u.:.t 2 : % ",
"- 1 7 v s c y u.u.u.u.u.u.u.u.u.u.u.u.u.u.u.u.u.u.u.O.b b l i 2 ",
", c c c y k 4 u.u.u.u.u.u.u.u.u.u.u.u.u.u.u.e P h r t a b V n 6 ",
"@ s c s 0 s 0 u.u.u.u.u.u.u.u.u.u.u.u.u.u.u.q.f a r 5 6 i b l 2 ",
"* u s k y s 7 Y u.u.u.u.u.u.u.u.u.u.u.u.u.u.u.;.l i r r r a a 2 ",
"s k y k u u 1 4 u.u.u.u.N.F.u.u.u.u.u.u.u.u.u.u.l a a a t t i r ",
"s s y c y o.z.y u.u.u.u.b.m.u.u.u.u.F.u.u.u.u.u.>. .M f t 5 5 6 ",
"m N Z D 0 u s s u.u.u.u.u.u.u.c.c.k.u.u.u.u.u.u.U 6 t V.r > > < ",
"r b F t B l 6 a u.u.u.u.u.n.F.F.F.F.F.u.u.F.u.u.~ 6 r B...= 3 y ",
"r f a 2 t C.r n u.F.v.u.u.F.F.F.F.F.F.D.u.u.u.u.^ z F.| t > s v ",
"> i 5 r i t c x.F.Z.Z.Z.N.F.F.F.F.F.F.F.Z.Z.S.F.X.p t 6 t 5 k y ",
"r V a B n n l a L u.u.u.F.F.F.F.F.F.F.F.M.u.u.2.6 r 6 < r r s - ",
"i S a b a b f 2 5 g.u.u.F.F.F.F.F.F.F.F.M.u.u.r a a t 2 a n C , ",
"> i a b l n f 2 r t p.u.N.F.F.F.F.F.F.F.u.u.} f r r 6 < i a y o ",
"> 2 B S S B l a l l n 7.u.F.F.F.F.F.F.A.u.{ V b a a l f B l s @ ",
"5 = l f a > > t 6 r a b ` u.F.F.F.F.l.s.t t i 5 5 2 5 5 t 6 u ; "
};
