/* XPM */
static char *result[] = {
/* columns rows colors chars-per-pixel */
"32 32 179 2 ",
"   c #581503",
".  c #591503",
"X  c #581603",
"o  c #591603",
"O  c #581604",
"+  c #581705",
"@  c #581706",
"#  c #581906",
"$  c #581908",
"%  c #581F0F",
"&  c #641803",
"*  c #6A1903",
"=  c #741B02",
"-  c #7C1D02",
";  c #7D1D02",
":  c #572111",
">  c #572211",
",  c #572617",
"<  c #582212",
"1  c #592213",
"2  c #5A2D1F",
"3  c #7A3206",
"4  c #562E23",
"5  c #57362C",
"6  c #57372D",
"7  c #563F37",
"8  c #653425",
"9  c #6B3D2F",
"0  c #44433F",
"q  c #574039",
"w  c #59443D",
"e  c #6E4A31",
"r  c #7D4C3B",
"t  c #7E4F3F",
"y  c #464541",
"u  c #474642",
"i  c #474644",
"p  c #494844",
"a  c #4A4945",
"s  c #494846",
"d  c #4A4947",
"f  c #4B4A46",
"g  c #4C4B47",
"h  c #4B4A48",
"j  c #4C4B49",
"k  c #4D4C48",
"l  c #4E4D49",
"z  c #4D4C4A",
"x  c #4E4D4B",
"c  c #4F4E4A",
"v  c #4F4E4C",
"b  c #564540",
"n  c #564741",
"m  c #504F4B",
"M  c #504F4D",
"N  c #584F49",
"B  c #51504C",
"V  c #52514D",
"C  c #51504E",
"Z  c #52514F",
"A  c #53524E",
"S  c #54514E",
"D  c #55514E",
"F  c #54534F",
"G  c #57554F",
"H  c #58544E",
"J  c #535250",
"K  c #545351",
"L  c #555351",
"P  c #555450",
"I  c #565551",
"U  c #555452",
"Y  c #565553",
"T  c #575652",
"R  c #575654",
"E  c #5B5550",
"W  c #5A5451",
"Q  c #585753",
"!  c #585754",
"~  c #585755",
"^  c #595853",
"/  c #595854",
"(  c #5A5955",
")  c #595856",
"_  c #5A5957",
"`  c #5B5A56",
"'  c #5C5A54",
"]  c #5D5B55",
"[  c #5C5B57",
"{  c #5B5A58",
"}  c #5C5B59",
"|  c #5D5C58",
" . c #5E5D59",
".. c #5E5D5B",
"X. c #5F5E5A",
"o. c #5F5E5C",
"O. c #624B44",
"+. c #655D4D",
"@. c #615C51",
"#. c #625D52",
"$. c #6A604E",
"%. c #716D5C",
"&. c #77735E",
"*. c #7A7662",
"=. c #7E7862",
"-. c #7C7865",
";. c #8E2102",
":. c #952202",
">. c #982302",
",. c #803807",
"<. c #883F07",
"1. c #A52602",
"2. c #A92702",
"3. c #AA2702",
"4. c #AF2801",
"5. c #B22801",
"6. c #B32901",
"7. c #B52901",
"8. c #B82A01",
"9. c #BA2A01",
"0. c #BD2B01",
"q. c #C32C01",
"w. c #C42C01",
"e. c #C92D01",
"r. c #CB2E01",
"t. c #CD2E01",
"y. c #DA3101",
"u. c #E33300",
"i. c #E43300",
"p. c #E73400",
"a. c #EC3500",
"s. c #EE3500",
"d. c #EF3A06",
"f. c #F03600",
"g. c #F63700",
"h. c #FA3A02",
"j. c #FF3900",
"k. c #8B4108",
"l. c #A85B0A",
"z. c #BC411D",
"x. c #B5670B",
"c. c #BE6F0C",
"v. c #A94527",
"b. c #BF4420",
"n. c #98753A",
"m. c #A37933",
"M. c #A67C37",
"N. c #826B42",
"B. c #846D44",
"V. c #896E40",
"C. c #827D66",
"Z. c #AC8137",
"A. c #EF9F17",
"S. c #E59A1B",
"D. c #F2A016",
"F. c #FAA312",
"G. c #FDA512",
"H. c #FFA712",
"J. c #CC8E24",
"K. c #D19123",
"L. c #D29226",
"P. c #DA9521",
"I. c #868066",
"U. c #988F6A",
"Y. c #9C936D",
"T. c #AAA070",
"R. c #B2A774",
"E. c #B9AE79",
"W. c #BFB379",
"Q. c #BFB47A",
"!. c #CABD7E",
"~. c #D5C783",
"^. c #DFCF86",
"/. c #E1D287",
"(. c #EEDD8B",
"). c #F0E08C",
"_. c #F6E48F",
"`. c #FDEB91",
"'. c #FFED92",
/* pixels */
"s v U U K C j v v J ~ R @     h m c A T P T Q P V a f l P V 0 u ",
"C U ~ ) { ) J Z _ O       ;.;.=   8 ( | ( ( [ | P A k c Q ` I l ",
"K R ~ ) { ) Y U _ b.j.j.i.j.j.j.j.5.          / I T A ( ( P ` Q ",
"C R R Y U J 6 +     - y.j.j.j.u.                    B [  .Q I l ",
"v ~ R Y <                 j.j.      9.>.            p.N T ( V u ",
"M ~ S X               :.  8.  r.:.j.j.j.j.j.6.j.j.2.j.j.B B k B ",
"Z _ J y.j.s.j.j.j.j.j.j.j.8.  j.j.j.j.j.j.j.j.j.j.j.j.r T F m V ",
"U o.R h.j.j.j.j.j.j.j.j.j.8.  3.j.  j.j.j.j.j.j.z.E B V Q T T V ",
"K _ U W j.j.j.j.j.j.j.j.0.              w.j.* * % ) K K J J J j ",
"Y } ~ _ K K K D                                   { Y R ~ R J i ",
"Z ) U R U J K #                               f.d.K J ~ { { R j ",
"J } ~ Y ~ U ~ j.j.j.j.j.j.j.j.j.j.j.j.j.j.j.t.    4 q ! Y K K x ",
"Z .._ U R U R j.j.j.j.j.j.j.j.& 7.    &               $ , M K C ",
"j R ~ J R K Y 9 e.j.j.i.7.                                Z U M ",
"z Z U K ~ U ) 5                       g.g.g.g.g.;       O.v v i ",
"v x M M K M Y :   1.q.j.j.j.j.j.j.j.j.j.j.j.j.j.j.j.j.j.j.v M d ",
"k g V 2 O               j.j.j.j.j.j.j.j.      j.j.j.j.j.K M z d ",
"k >                               j.j.j.j.j.4.4.a.v.t ) ) ~ U M ",
"c @.H.        H.H.  G.G.G.G.G.    .             b J K Y ) } _ Z ",
"p T H.H.H.H.H.H.H.H.H.H.H.H.H.H.                n J C Z U ) ~ M ",
"g I +.H.H.H.o     H.H.H.H.H.H.H.H.H.H.o H.H.H.B.~ U J J J Y Y M ",
"T Q G N.K.H.H.H.H.H.H.H.  l.l.H.l.l.3 c.H.H.l.e ~ Y Y Y K K U J ",
"T T P / P ^ I P Q F.                          O R K U R K C C Z ",
"` [ C.X.F I T T T 1                           U Y Z K *.J x x v ",
"J ) o.K { ~ Z Y R w                       @ 7 ~ ) Z J ) ) j T.P ",
"J R Y M K K J _ R R U     ,.k.  <.x.x.  U U J U _ J Z K K x T =.",
"_.] C J U K U _ Y Y K Z H.H.H.H.H.H.H.H.H Y Y Y R U K Z ' (.^.P ",
"J -.Q.'.~.E.I.Y U ) ) U H.H.H.H.H.H.H.H.H.Y R %.R.!.'.W.&.J T k ",
"U ..Y ) Y ) R U./.).`.'.'.'.'.'.'.'.'.'.)./.Y.J Y Y K M Y _ | c ",
"x U Y ) ~ _ R M J K U V.H.H.H.H.H.H.H.L.Y ~ { R J J Z v U Y P y ",
"x M { ....{ ~ Y ~ ~ _ Z.H.H.H.H.H.H.H.H.$._ } ) Y Y ~ R { ~ T p ",
"C j ~ R Y x x K Z J Y #.n.m.J.S.D.A.P.M.L K U C C M C C K Z I l "
};
