/* XPM */
static char *result[] = {
/* columns rows colors chars-per-pixel */
"32 32 179 2 ",
"   c #581503",
".  c #581603",
"X  c #5B1603",
"o  c #5C1603",
"O  c #5F1603",
"+  c #581604",
"@  c #581704",
"#  c #581605",
"$  c #581705",
"%  c #581706",
"&  c #581806",
"*  c #571F0F",
"=  c #581908",
"-  c #591D0C",
";  c #571F10",
":  c #621703",
">  c #6E1A03",
",  c #6F1A03",
"<  c #721B03",
"1  c #761B02",
"2  c #771C02",
"3  c #731D04",
"4  c #7F1D02",
"5  c #552112",
"6  c #572313",
"7  c #572416",
"8  c #582212",
"9  c #592314",
"0  c #582416",
"q  c #582516",
"w  c #592516",
"e  c #562719",
"r  c #592E1F",
"t  c #532D21",
"y  c #56352B",
"u  c #5B3429",
"i  c #5B362B",
"p  c #59372D",
"a  c #59382D",
"s  c #5A382D",
"d  c #543D33",
"f  c #543E36",
"g  c #6A3222",
"h  c #44433F",
"j  c #574038",
"k  c #704639",
"l  c #474642",
"z  c #474644",
"x  c #484541",
"c  c #494844",
"v  c #4A4945",
"b  c #494846",
"n  c #4A4947",
"m  c #4B4A46",
"M  c #4C4B47",
"N  c #4C4B49",
"B  c #4D4C48",
"V  c #4E4D49",
"C  c #4D4C4A",
"Z  c #4E4C4A",
"A  c #4E4D4B",
"S  c #4F4E4A",
"D  c #4F4E4C",
"F  c #514944",
"G  c #574B46",
"H  c #574E47",
"J  c #504F4B",
"K  c #544F4B",
"L  c #504F4D",
"P  c #51504C",
"I  c #52514D",
"U  c #51504E",
"Y  c #52514F",
"T  c #53524E",
"R  c #54504D",
"E  c #55524F",
"W  c #54534F",
"Q  c #5F504A",
"!  c #59514C",
"~  c #59524E",
"^  c #5F534E",
"/  c #535250",
"(  c #545350",
")  c #545351",
"_  c #555450",
"`  c #565551",
"'  c #555452",
"]  c #565452",
"[  c #565553",
"{  c #575652",
"}  c #575654",
"|  c #595651",
" . c #595552",
".. c #585653",
"X. c #585753",
"o. c #5B5652",
"O. c #585755",
"+. c #595755",
"@. c #5A5755",
"#. c #5D5754",
"$. c #595854",
"%. c #5A5955",
"&. c #595856",
"*. c #5A5957",
"=. c #5B5A56",
"-. c #5C5B57",
";. c #5B5A58",
":. c #5C5A58",
">. c #5C5B59",
",. c #5D5C58",
"<. c #5E5D59",
"1. c #5D5C5A",
"2. c #5E5D5B",
"3. c #5F5E5A",
"4. c #5F5E5C",
"5. c #734E42",
"6. c #61524C",
"7. c #62524C",
"8. c #69544C",
"9. c #7B5648",
"0. c #7F584C",
"q. c #625550",
"w. c #625853",
"e. c #665852",
"r. c #625A57",
"t. c #6A5952",
"y. c #625D5A",
"u. c #605F5D",
"i. c #801E02",
"p. c #811E02",
"a. c #841F02",
"s. c #892002",
"d. c #8C2002",
"f. c #8D2002",
"g. c #932202",
"h. c #9B2302",
"j. c #A12502",
"k. c #AB2E0A",
"l. c #B62901",
"z. c #BB2A01",
"x. c #BC2B01",
"c. c #C42C01",
"v. c #C52C01",
"b. c #C62D01",
"n. c #C82D01",
"m. c #C92D01",
"M. c #D83101",
"N. c #D93101",
"B. c #DD3201",
"V. c #DF3E0F",
"C. c #D63F13",
"Z. c #EB3500",
"A. c #ED3500",
"S. c #E13D0D",
"D. c #E53D0C",
"F. c #F23600",
"G. c #F33600",
"H. c #F43700",
"J. c #F43B06",
"K. c #FD3901",
"L. c #FF3900",
"P. c #FC3A02",
"I. c #8E4A35",
"U. c #8B4C39",
"Y. c #8C4D39",
"T. c #924A33",
"R. c #9C4B33",
"E. c #8F503C",
"W. c #A44628",
"Q. c #B24726",
"!. c #B44625",
"~. c #C4411A",
"^. c #C1421D",
"/. c #D34116",
"(. c #D84014",
"). c #835849",
"_. c #83584A",
"`. c #925C4A",
"'. c #955C4A",
/* pixels */
"b D ' ' ) U N D D / O.} ' Z ; . 6 S T { _ { X._ I v m V _ I h l ",
"U ' O.&.;.&./ Y *.&.*.O.p *         9 s -   w ,._ T B S X.=.` V ",
") } O.&.;.&.[ ' *.&     F.                    r ` { T %.%._ =.X.",
"U } } [ ' / E j         L.L.L.L.L.b.                d -.<.X.` V ",
"D O.} [ ' f 7   p.L.,       o i.i.                  $ q H %.I l ",
"L O.) ] G                                   j.          3 P B P ",
"Y *./ y   L.i.    L.    L.f.: z.H.c.  z.  z.N.L.z.z.z.z.T.W J I ",
"' 4.} I.L.L.L.L.L.L.L.L.L.L.L.L.L.L.L.L.L.L.L.L.L.L.L.W.X.{ { I ",
") *.' [ A L.L.L.L.L.L.L.L.L.L.L.L.L.n.L.L.L.L.L.L.L.A.    / / N ",
"[ >.O.*.) ) L.L.L.L.L.  a.L.                <               & z ",
"Y &.' } $                                                     t ",
"/ >.O.]                                               g.m.B.D.A ",
"Y 2.*.' 8   L.L.L.                                    @ Y L ) U ",
"N } O./ } k L.L.L.L.L.L.                                Y Y ' L ",
"C Y ' ) O.' #.6.7.Q O   L.G.G.G.:   L.2 L.L.L.L.L.G.G.G.K D D z ",
"D A L L ) L [ Y D U     v.L.L.L.L.L.L.L.L.L.L.L.L.L.L.^.L D L n ",
"B M I -.W I F e 0 5         4 4 L.L.L.L.L.  M.M.L.L.K.O.) L C n ",
"B J T %.{ a         1 1 >         Z.L.L.L.L.L.L.L.  [ &.&.O.' L ",
"S $.$.$._ k.x.x.x.x.L.L.L.L.L.L.    d.h.L.L.L.L.s.  ) [ &.>.*.Y ",
"c { $.{ W { C.L.L.L.L.L.L.L.L.L.L.X X             / U Y ' &.O.L ",
"M ` { X._ { T Q.J.L.L.L.L.L.L.L.L.L.L.L.L.L.l.  O.' / / / [ [ L ",
"{ X._ X.` ` J I { ~.L.L.L.L.L.L.L.L.L.L.L.L.L.L.R.[ [ [ ) ) ' / ",
"{ { _ $._ X.` _ X.| P.L.L.L.L.L.L.L.L.L.L.L.L.L.L.5.' } ) U U Y ",
"=.-.<.3.W ` { { { =.$.$.X.!.(.S.V./.Y.E.U.L.L.L.  Y ) O./ A A D ",
"/ &.4.) ;.#.^ `.e.+.  &.} } } [ W ` ) ' &.} ) ..g '.0.&.&.N P _ ",
"/ }  .! ) ) / *.}     ) ' [ U N ` { / Y ' ' / ' *./ Y ) ) A { %.",
"_.' U / ' ) ' *.[ [ ) Y / ' U b = % # + + $ [ [ } ' ) Y ) U X._ ",
"/ >.[ ;.*.*.O.[ ' &.&.' ' O.} Y +           + ' Y / Y D / / { B ",
"' 2.[ &.[ &.} L U ' [ ) ) [ ) D W $.*.R U ) [ / [ [ ) L [ *.,.S ",
"A ] o.&.O.*.} L / ) ' } &.O.U b W %.u.>.[ O.;.} / / Y D ' [ _ x ",
"A L ;.y.2.:.@.[ O.O.*.1.4.;.) D P ` i u O.*.>.&.[ [ O.} r.w.{ c ",
"U N O.} [ A A ) Y / [ &.} ( ~ 8.9.).t.&.q.) ' U U L U U ) Y ` V "
};
