/* XPM */
static char *result[] = {
/* columns rows colors chars-per-pixel */
"32 32 162 2 ",
"   c #44433F",
".  c #464541",
"X  c #474642",
"o  c #474644",
"O  c #494844",
"+  c #4A4945",
"@  c #494846",
"#  c #4A4947",
"$  c #4B4A46",
"%  c #4C4B47",
"&  c #4B4A48",
"*  c #4C4B49",
"=  c #4D4C48",
"-  c #4E4D49",
";  c #4D4C4A",
":  c #4E4D4B",
">  c #4F4E4A",
",  c #4F4E4C",
"<  c #504F4B",
"1  c #504F4D",
"2  c #51504C",
"3  c #52514D",
"4  c #51504E",
"5  c #52514F",
"6  c #53524E",
"7  c #54534F",
"8  c #56544E",
"9  c #56554E",
"0  c #535250",
"q  c #545351",
"w  c #555450",
"e  c #555451",
"r  c #565551",
"t  c #555452",
"y  c #565552",
"u  c #565553",
"i  c #575652",
"p  c #575653",
"a  c #575654",
"s  c #585753",
"d  c #585755",
"f  c #595755",
"g  c #595853",
"h  c #5A5852",
"j  c #5F5D53",
"k  c #595854",
"l  c #5A5955",
"z  c #595856",
"x  c #5A5957",
"c  c #5B5A56",
"v  c #5D5B55",
"b  c #5C5A56",
"n  c #5C5B57",
"m  c #5E5C55",
"M  c #5F5D55",
"N  c #5B5A58",
"B  c #5C5B59",
"V  c #5D5C58",
"C  c #5E5D59",
"Z  c #5D5C5A",
"A  c #5E5D5B",
"S  c #5F5E5A",
"D  c #5F5E5C",
"F  c #605E55",
"G  c #625F54",
"H  c #605F5D",
"J  c #626056",
"K  c #656257",
"L  c #626058",
"P  c #626059",
"I  c #646259",
"U  c #666358",
"Y  c #696758",
"T  c #6B685B",
"R  c #6D695A",
"E  c #6D6A5B",
"W  c #6F6B5A",
"Q  c #6F6B5B",
"!  c #6E6A5C",
"~  c #706C5C",
"^  c #75705D",
"/  c #74705F",
"(  c #77735F",
")  c #78745F",
"_  c #7A7560",
"`  c #7B7660",
"'  c #7C7761",
"]  c #7E7964",
"[  c #7F7A64",
"{  c #817B62",
"}  c #807B63",
"|  c #817B63",
" . c #857F63",
".. c #817B65",
"X. c #8A8365",
"o. c #8B8565",
"O. c #8F8969",
"+. c #918967",
"@. c #928B6B",
"#. c #938C6B",
"$. c #948C68",
"%. c #978F69",
"&. c #958D6B",
"*. c #9C946D",
"=. c #9F9770",
"-. c #A1986D",
";. c #A2996F",
":. c #A19970",
">. c #A69C70",
",. c #A59C72",
"<. c #A99F71",
"1. c #AAA171",
"2. c #ABA173",
"3. c #B1A774",
"4. c #B3A876",
"5. c #B4AA76",
"6. c #B5AA77",
"7. c #B7AC76",
"8. c #BDB278",
"9. c #BEB279",
"0. c #C7BA7D",
"q. c #C7BB7D",
"w. c #C9BD7E",
"e. c #CFC17F",
"r. c #CEC180",
"t. c #D1C380",
"y. c #D2C480",
"u. c #D5C781",
"i. c #D4C782",
"p. c #D5C782",
"a. c #D5C783",
"s. c #D7C983",
"d. c #DDCE85",
"f. c #DECF86",
"g. c #DFD086",
"h. c #E2D286",
"j. c #E2D287",
"k. c #E3D387",
"l. c #E5D588",
"z. c #E5D688",
"x. c #E6D689",
"c. c #E8D889",
"v. c #EADA89",
"b. c #EBDA8A",
"n. c #EADA8B",
"m. c #EBDB8B",
"M. c #EFDE8C",
"N. c #F1E08C",
"B. c #F4E38E",
"V. c #F5E48E",
"C. c #F6E48E",
"Z. c #F6E58E",
"A. c #F6E58F",
"S. c #F7E68F",
"D. c #F8E68F",
"F. c #F8E78F",
"G. c #F9E890",
"H. c #FAE990",
"J. c #FBE990",
"K. c #FDEB91",
"L. c #FEEC92",
"P. c #FFED92",
/* pixels */
"@ , t t q 4 * , , 0 d a t : 4 & < > 6 i w i s w 3 + $ - w 3   X ",
"4 t d z N z 0 5 x z x d d 0 t * = 6 l V l l n V w 6 = > s c r - ",
"q a d z N z u t x a t t z d x , 7 c S V c s i k r i 6 l l w c s ",
"4 a a u t 0 t u 0 4 4 4 u T .. .X.} R h k k r r V 7 2 n C s r - ",
", d a u t 5 q q 5 0 M %.7.y.n.F.G.b.u.8.<.T 7 6 i 7 k s i l 3 X ",
"1 d q u a q q : q ( g.S.P.P.P.P.P.P.P.P.J.c.-.9 > 2 n i 2 2 = 2 ",
"5 x 0 q t 5 q 8 >.P.P.P.P.P.P.P.P.P.P.P.P.P.P.t.G > > 6 i 7 < 3 ",
"t D a q 5 , I 4.G.P.P.P.P.P.P.P.P.P.P.P.P.P.P.P.h.) 2 3 s i i 3 ",
"q x t u : r ;.Z.P.P.P.P.P.P.P.P.P.P.P.P.P.P.P.P.L.a.Q q 0 0 0 * ",
"u B d x q W F.P.P.P.P.P.P.P.P.P.P.P.P.P.P.P.P.P.P.K.2.b d a 0 o ",
"5 z t a g d.P.P.P.P.P.P.P.P.P.P.P.P.P.P.P.P.P.P.P.P.S./ N N a * ",
"0 B d u O.P.P.P.P.P.P.P.P.P.P.P.P.P.P.P.P.P.P.P.P.P.P.6.u q q : ",
"5 A x t i.P.P.P.P.P.P.P.P.P.P.P.P.P.P.P.P.P.P.P.P.P.P.A.5 1 q 4 ",
"* a d K x.P.P.P.P.P.P.P.P.P.P.P.P.P.P.P.P.P.P.P.P.P.P.P.W 5 t 1 ",
"; 5 t { M.P.P.P.P.P.P.P.P.P.P.P.P.P.P.P.P.P.P.P.P.P.P.P.+., , o ",
", : 1 $.C.P.P.P.P.P.P.P.P.P.P.P.P.P.P.P.P.P.P.P.P.P.P.P.1., 1 # ",
"= % 3 :.D.P.P.P.P.P.P.P.P.P.P.P.P.P.P.P.P.P.P.P.P.P.P.P.3.1 ; # ",
"= < 6 &.B.P.P.P.P.P.P.P.P.P.P.P.P.P.P.P.P.P.P.P.P.P.P.P.=.d t 1 ",
"> k k ' m.P.P.P.P.P.P.P.P.P.P.P.P.P.P.P.P.P.P.P.P.P.P.P.[ B x 5 ",
"O i k F k.P.P.P.P.P.P.P.P.P.P.P.P.P.P.P.P.P.P.P.P.P.P.L.v z d 1 ",
"% r i s 9.P.P.P.P.P.P.P.P.P.P.P.P.P.P.P.P.P.P.P.P.P.P.q.0 u u 1 ",
"i s w s Y K.P.P.P.P.P.P.P.P.P.P.P.P.P.P.P.P.P.P.P.P.K._ q q t 0 ",
"i i w k w 5.P.P.P.P.P.P.P.P.P.P.P.P.P.P.P.P.P.P.P.L.0.L q 4 4 5 ",
"c n C S 7 J e.P.P.P.P.P.P.P.P.P.P.P.P.P.P.P.P.P.P.l.` d 0 : : , ",
"0 z D q N f ^ f.P.P.P.P.P.P.P.P.P.P.P.P.P.P.P.P.G.o.e z z * 2 w ",
"0 a u 1 q q 0 ] z.P.P.P.P.P.P.P.P.P.P.P.P.P.P.B.@.0 5 q q : i l ",
": t 4 0 t q t x E w.V.P.P.P.P.P.P.P.P.P.P.H.s.| a t q 5 q 4 s w ",
"0 B u N x x d u t P #.r.K.P.P.P.P.P.P.P.j.*.! y 5 0 5 , 0 0 i = ",
"t A u z u z a 1 4 t p m U &.0.v.N.p.,.~ j y u 0 u u q 1 u x V > ",
": t u z d x a 1 0 q t a z d 4 @ 7 l H B u d N a 0 0 5 , t u w . ",
": 1 N A A N d u d d x Z D N q , 2 r A A d x B z u u d a N d i O ",
"4 * d a u : : q 5 0 u z a 0 4 4 % < d z q q t 4 4 1 4 4 q 5 r - "
};
