/* XPM */
static char *result[] = {
/* columns rows colors chars-per-pixel */
"32 32 153 2 ",
"   c #7D321B",
".  c #7D331B",
"X  c #7E321A",
"o  c #7D331C",
"O  c #7B351F",
"+  c #7B361F",
"@  c #7C341D",
"#  c #6F3B2A",
"$  c #6E3E2D",
"%  c #6E3F2F",
"&  c #7B3520",
"*  c #793620",
"=  c #783721",
"-  c #783723",
";  c #723B2A",
":  c #703D2C",
">  c #44433F",
",  c #6F4030",
"<  c #694336",
"1  c #684337",
"2  c #6B4537",
"3  c #6E4436",
"4  c #694438",
"5  c #724030",
"6  c #464541",
"7  c #474642",
"8  c #474644",
"9  c #494844",
"0  c #4A4945",
"q  c #494846",
"w  c #4A4947",
"e  c #4B4A46",
"r  c #4E4845",
"t  c #4C4B47",
"y  c #4F4C47",
"u  c #4C4B49",
"i  c #4D4C48",
"p  c #4E4D49",
"a  c #4D4C4A",
"s  c #4E4D4B",
"d  c #4F4E4A",
"f  c #4F4E4C",
"g  c #564944",
"h  c #544B47",
"j  c #524C47",
"k  c #5A4C45",
"l  c #5D4E45",
"z  c #534D48",
"x  c #504F4B",
"c  c #504F4D",
"v  c #56504B",
"b  c #51504C",
"n  c #52514D",
"m  c #51504E",
"M  c #52514F",
"N  c #53524E",
"B  c #54514E",
"V  c #54534F",
"C  c #59524E",
"Z  c #5C524E",
"A  c #58544F",
"S  c #59544F",
"D  c #535250",
"F  c #545351",
"G  c #565351",
"H  c #555450",
"J  c #555451",
"K  c #565551",
"L  c #555452",
"P  c #565553",
"I  c #575652",
"U  c #575654",
"Y  c #585452",
"T  c #585753",
"R  c #5E5450",
"E  c #585755",
"W  c #5A5754",
"Q  c #595854",
"!  c #5A5955",
"~  c #595856",
"^  c #5A5957",
"/  c #5B5A56",
"(  c #5C5B57",
")  c #5B5A58",
"_  c #5C5B59",
"`  c #5D5C58",
"'  c #5E5D59",
"]  c #5D5C5A",
"[  c #5E5D5B",
"{  c #5F5E5A",
"}  c #5F5E5C",
"|  c #624B42",
" . c #624D45",
".. c #6D554B",
"X. c #74594F",
"o. c #605652",
"O. c #605956",
"+. c #625A56",
"@. c #6B5851",
"#. c #6A5952",
"$. c #6E5A52",
"%. c #80341D",
"&. c #80351D",
"*. c #80361E",
"=. c #823720",
"-. c #823820",
";. c #833A22",
":. c #843B24",
">. c #853B24",
",. c #853C24",
"<. c #853C25",
"1. c #863D26",
"2. c #863E27",
"3. c #873E27",
"4. c #873E28",
"5. c #88402A",
"6. c #8A422C",
"7. c #894630",
"8. c #8C4630",
"9. c #8D4731",
"0. c #8E4832",
"q. c #8F4933",
"w. c #854F3E",
"e. c #904B36",
"r. c #904C36",
"t. c #914C36",
"y. c #934E39",
"u. c #934F3A",
"i. c #94513C",
"p. c #95513C",
"a. c #96533E",
"s. c #96543F",
"d. c #86594A",
"f. c #86594B",
"g. c #80594C",
"h. c #825B4E",
"j. c #8B5B4B",
"k. c #885C4D",
"l. c #985641",
"z. c #985642",
"x. c #995743",
"c. c #995843",
"v. c #985844",
"b. c #9A5945",
"n. c #9B5A45",
"m. c #9C5B47",
"M. c #9C5C47",
"N. c #975C4A",
"B. c #965D4A",
"V. c #985C49",
"C. c #9B5D49",
"Z. c #9C5D49",
"A. c #9D5D49",
/* pixels */
"q f L L F m u f h ; X X X X X r z j v | l S T H n 0 e p H n > 7 ",
"m L E ~ ) ~ B X X X X X X X X X X X X X X X X X = N i d T / K p ",
"F U E W + o X X X X X X X X X X X X X X X X M.M.X o @ 2 ! H / T ",
"m U U - X i.A.A.m.<.X X X X X X X X l.s.X X A.A.r.X l.X X . K p ",
"g O c.b.A.X A.A.A.A.A.A.A.A.A.x.n.A.A.A.A.A.A.A.A.A.2.-.X X X 7 ",
"  X A.;.*.X ;.X e.A.A.A.A.A.A.A.A.A.A.A.;.;.X X X X X X X X X X ",
"X X X X X X X X X X X X X <.<.<.<.X X X X X X X X X X X X X X X ",
"X i.X X X X X X X X X X i.:.X X X X X X X X X X i.i.=.%.i.X i.A.",
"A.A.A.A.A.u.y.X u.A.A.u.A.A.A.A.A.X b.A.A.X X X A.A.p.A.A.A.A.C.",
"A.A.A.A.A.A.A.A.A.A.A.A.A.A.A.A.A.A.A.A.A.A.A.A.A.A.A.A.A.N.D 8 ",
"M k.A.A.L A.A.A.A.A.A.A.A.A.A.A.A.A.A.A.A.A.A.A.A.A.A.7.+.) U u ",
"D _ E P E 8.X X X X X X >.8.8.8.A.A.0.A.A.A.q.8.X X X X X : F s ",
"M [ ^ * X X X X X X X X X X X X X X X 0.0.0.&.X X X X X X # F m ",
"u U Z X X X X X X X X ,.A.X X X X X X X X X X X X X A.A.f.M L c ",
"a M J % 6.s.X X X X X X X X X X X X X X X X X X X X 1 F c f f 8 ",
"f s c c g.A.5.5.5.A.A.X X X X X X X X X X X X X X X X D c f c w ",
"i t n ( V d.A.A.A.1.X A.A.9.3.X X X X A.X A.A.3.3.4.v.E F c a w ",
"i x N ! I Q H ..j.V.A.A.A.A.A.A.A.A.A.A.A.A.A.A.A.A.P ~ ~ E L c ",
"d Q Q Q H T n x N b N x n B.A.A.A.A.A.X X X A.A.A.A.F P ~ _ ^ M ",
"9 I Q I V I V I I K I I T / T n F Z.A.A.A.A.A.Z.X.D m M L ~ E c ",
"t K I T H I N T Q H K ( / I H V D ~ U o.A.A.A.h.E L D D D P P c ",
"I T H T K K x n I n n ( / N N n c U P U U L E ~ E P P P F F L D ",
"I I H Q H T K H  .O X & 3 A T N m L P E P F ^ U U F L U F m m M ",
"/ ( ' { V K I I X X X X X , ! x F U U ) P F ^ L P M F E D s s f ",
"D ~ } F ) E M P w.A.A.A.A.@.U C X < F L ~ U F E ~ M D ~ ~ u b H ",
"D U P c F F D ^ U U Y G L P m u K I D M L L D L ^ D M F F s I ! ",
"s L m D L F L ^ P P F M D L m q H I D f D P P P U L F M F m T H ",
"D _ P ) ^ ^ E P L ~ ~ L L E U M N I L c m P U L M D M f D D I i ",
"L [ P ~ P ~ U c m L P F F P F f V Q ^ F m F P D P P F c P ^ ` d ",
"s L P ~ E ^ U c D F L U ~ E m q $ X X 5 4 E ) U D D M f L P H 6 ",
"s c ) [ [ ) E P E E ^ ] } ) F f t.A.A.z.a.O._ ~ P P E U ) E I 9 ",
"m u E U P s s F M D P ~ U D m m y k #.$.R F L m m c m m F M K p "
};
