/* XPM */
static char *result[] = {
/* columns rows colors chars-per-pixel */
"32 32 126 2 ",
"   c #44433F",
".  c #464541",
"X  c #474642",
"o  c #474644",
"O  c #494844",
"+  c #4A4945",
"@  c #494846",
"#  c #4A4947",
"$  c #4B4A46",
"%  c #4C4B47",
"&  c #4B4A48",
"*  c #4C4B49",
"=  c #4D4C48",
"-  c #4E4D49",
";  c #4D4C4A",
":  c #4E4D4B",
">  c #4F4E4A",
",  c #4F4E4C",
"<  c #504F4B",
"1  c #504F4D",
"2  c #5A5347",
"3  c #545049",
"4  c #51504C",
"5  c #52514D",
"6  c #51504E",
"7  c #52514F",
"8  c #53524E",
"9  c #54534F",
"0  c #5B554A",
"q  c #5B554B",
"w  c #58544D",
"e  c #59564F",
"r  c #5D574C",
"t  c #5C574D",
"y  c #5E594F",
"u  c #535250",
"i  c #545351",
"p  c #555450",
"a  c #565551",
"s  c #555452",
"d  c #565553",
"f  c #575652",
"g  c #575654",
"h  c #5B5751",
"j  c #585753",
"k  c #585755",
"l  c #5D5850",
"z  c #5E5950",
"x  c #5F5950",
"c  c #5C5953",
"v  c #595854",
"b  c #5A5955",
"n  c #595856",
"m  c #5A5957",
"M  c #5B5957",
"N  c #5B5A56",
"B  c #5F5B55",
"V  c #5C5B57",
"C  c #5B5A58",
"Z  c #5C5B59",
"A  c #5D5C58",
"S  c #5E5D59",
"D  c #5D5C5A",
"F  c #5E5D5B",
"G  c #5F5E5A",
"H  c #5F5E5C",
"J  c #665C49",
"K  c #61594C",
"L  c #615A4F",
"P  c #635C4D",
"I  c #655D4C",
"U  c #6A5F48",
"Y  c #6C5F49",
"T  c #625C51",
"R  c #615C53",
"E  c #605F5D",
"W  c #716144",
"Q  c #7B6640",
"!  c #7E6943",
"~  c #716249",
"^  c #626058",
"/  c #846838",
"(  c #9C7533",
")  c #9A7537",
"_  c #9C7737",
"`  c #9F7836",
"'  c #91713B",
"]  c #95753A",
"[  c #93753E",
"{  c #AA7B2A",
"}  c #AE7E2D",
"|  c #A17833",
" . c #A57B33",
".. c #A57C35",
"X. c #A97E34",
"o. c #A87E35",
"O. c #806942",
"+. c #BB862C",
"@. c #BD882B",
"#. c #B18130",
"$. c #B28230",
"%. c #D5921F",
"&. c #D9941F",
"*. c #DD971F",
"=. c #E59B1D",
"-. c #E99C19",
";. c #EB9D19",
":. c #EB9E1A",
">. c #EC9D18",
",. c #F2A016",
"<. c #F5A215",
"1. c #FBA513",
"2. c #FCA613",
"3. c #FFA712",
"4. c #F8A314",
"5. c #F8A315",
"6. c #F9A414",
"7. c #F9A415",
"8. c #F0A019",
"9. c #F2A118",
"0. c #C18827",
"q. c #C78B27",
"w. c #CC8E26",
"e. c #D29122",
"r. c #D59322",
"t. c #D89420",
/* pixels */
"@ , s s i 6 * , , u k g s : &.& < > 8 f p I j p 5 + $ - p 5   X ",
"6 s k n C n u 7 m n m k k u 3./ = 8 b A b [ V A p 8 = > j N a - ",
"i g k n C n d s m g s s n k 7.,.9 N ^ A N #.f v a f 8 b b p N j ",
"6 g g d s u s d u 6 6 6 d g C 3.a v @.a o.3._ a A 9 4 V S j a - ",
", k g d s 7 i i 7 u K 1 6 6 n 3.9 f 6.5 3.3.3.8 f 9 v j f b 5 X ",
"1 k i d g i i 3 i 5.3.%.: , c 3.< p :.p 3.3.3.< > 4 V f 4 4 = 4 ",
"7 m u i s 7 i 2 u 3.3.4.6 u 2.3.$ 4 ] f ` 3.3.p 8 > > 8 f 9 < 5 ",
"s H g i 7 , g y 7 >.3.<.d g 3.3.r p v v a v 3.8 < f 4 5 j f f 5 ",
"i m s d : u s 6 6 s t l D F 3.3.J g k m s k 3.k C n i i u u u * ",
"d Z k m i i i s , s d R F E 9.3.7 s d m d k 3.m H C d g k g u o ",
"7 n s g s u i m D u 1 x d i k h 7 s s m d g 2.k i i u k C C g * ",
"u Z k d k s k E D , ; x u : i  .u g g k u s ;.7 : u d k d i i : ",
"7 F m s g s g m g u 6 q ; 6 g -.6 n k g u g *.} 0.d k k 7 1 i 6 ",
"* g k u g i d u m g u 0 * ; u 2.1.3.T n d Z 3.3.3.L s s 7 7 s 1 ",
"; 7 s i k s n s s ) 3.$.u # @ 3.3.3.t.k d n 3.3.3.+.i i 1 , , o ",
", : 1 1 i 1 d 7 , 3.3.3.& { 3.3.3.3.3.q.7 7 3.3.3.( 6 u 1 , 1 # ",
"= % 5 V 9 5 < < P 3.3.3.3.3.3.3.3.3.3.3.3.| 3.3.3., s k i 1 ; # ",
"= < 8 b f v p 5 Y 3.3.3.3.3.3.3.3.3.3.3.3.3.3.z W 7 d n n k s 1 ",
"> v v v p j 5 < Q 3.3.3.3.3.3.3.3.3.3.3.3.3.3...s u i d n Z m 7 ",
"O f v f 9 f 9 f ! 3.3.3.3.3.3.3.3.3.3.3.3.3.3.3.d u 6 7 s n k 1 ",
"% a f j p f 8 j 3.3.3.3.3.3.3.3.3.3.3.3.3.3.3.3.w.s u u u d d 1 ",
"f j p j a a < 5 3.3.3.3.3.3.3.3.3.3.3.3.3.3.3.3.3.d d d i i s u ",
"f f p v p j a U 3.3.3.3.3.3.3.3.3.3.3.3.3.3.3.3.3.i s g i 6 6 7 ",
"N V S G 9 a f ! 3.3.3.3.3.3.3.3.3.3.3.3.3.3.3.3.3.7 i k u : : , ",
"u n H i C k 7 ~ 3.3.3.3.3.3.3.3.3.3.3.3.3.3.3.3.3.7 u n n * 4 p ",
"u g d 1 i i u M 3.3.3.3.3.3.3.3.3.3.3.3.3.3.3.3.3.u 7 i i : f b ",
": s 6 u s i s m 3.3.3.3.3.3.3.3.3.3.3.3.3.3.3.3.r.s i 7 i 6 j p ",
"u Z d C m m k d O.3.3.3.3.3.3.3.3.3.3.3.3.3.3.3.w u 7 , u u f = ",
"s F d n d n g 1 6 2.3.3.3.3.3.3.3.3.3.3.3.3.3.e.d d i 1 d m A > ",
": s d n k m g 1 u e 3.3.3.3.3.3.3.3.3.3.3.3.8.g u u 7 , s d p . ",
": 1 C F F C k d k k B 3.3.3.3.3.3.3.3.3.3.=.Z n d d k g C k f O ",
"6 * k g d : : i 7 u d n X.3.3.3.3.3.3.3.' i s 6 6 1 6 6 i 7 a - "
};
