/* XPM */
static char *result[] = {
/* columns rows colors chars-per-pixel */
"32 32 135 2 ",
"   c #44433F",
".  c #764D3E",
"X  c #7E4D3D",
"o  c #6D533E",
"O  c #474643",
"+  c #4A4946",
"@  c #4E4D4A",
"#  c #5A4C47",
"$  c #504F4C",
"%  c #5B4F4A",
"&  c #52514E",
"*  c #5B524C",
"=  c #555452",
"-  c #585754",
";  c #5A5956",
":  c #5D5C59",
">  c #6D4F44",
",  c #724F43",
"<  c #7B4F40",
"1  c #645244",
"2  c #6F5343",
"3  c #6E5847",
"4  c #62544C",
"5  c #69544B",
"6  c #63594F",
"7  c #6D5B4B",
"8  c #735244",
"9  c #725943",
"0  c #7D5D45",
"q  c #73564B",
"w  c #755D4A",
"e  c #7C5F49",
"r  c #615A53",
"t  c #605F5D",
"y  c #6F654A",
"u  c #73694C",
"i  c #844A36",
"p  c #8D4C37",
"a  c #804E3D",
"s  c #954B34",
"d  c #9C4B32",
"f  c #934E38",
"g  c #82503F",
"h  c #8D543D",
"j  c #8E5C3B",
"k  c #9F5F35",
"l  c #915238",
"z  c #935D3E",
"x  c #995C3A",
"c  c #A54A2D",
"v  c #AD4829",
"b  c #B24B28",
"n  c #AC5F2F",
"m  c #BA5C26",
"M  c #BB572A",
"N  c #B75B2E",
"B  c #BD5A2B",
"V  c #A35131",
"C  c #94633E",
"Z  c #8F773F",
"A  c #90753C",
"S  c #9C7538",
"D  c #BA602F",
"F  c #BF7028",
"G  c #A66737",
"H  c #A2663B",
"J  c #A76839",
"K  c #AA6939",
"L  c #B36332",
"P  c #B66B35",
"I  c #BF6E33",
"U  c #B47330",
"Y  c #C15E2B",
"T  c #C46E25",
"R  c #C5652D",
"E  c #CA6B2D",
"W  c #CE712F",
"Q  c #CD782E",
"!  c #D1732E",
"~  c #D47B2C",
"^  c #C67031",
"/  c #C87030",
"(  c #D27930",
")  c #835040",
"_  c #805D42",
"`  c #876145",
"'  c #8C6243",
"]  c #956440",
"[  c #986843",
"{  c #A37142",
"}  c #9B823C",
"|  c #A8873B",
" . c #BE8130",
".. c #ECB51F",
"X. c #CE8023",
"o. c #C2812D",
"O. c #D7812B",
"+. c #D8852A",
"@. c #DB8B29",
"#. c #DD9425",
"$. c #DC9D25",
"%. c #C18D31",
"&. c #CE8639",
"*. c #CE883A",
"=. c #DA8C36",
"-. c #DE973A",
";. c #E19A25",
":. c #E39F2C",
">. c #CCA12C",
",. c #E4A225",
"<. c #E5AB22",
"1. c #E9AD21",
"2. c #E6A72D",
"3. c #E6B021",
"4. c #EBB320",
"5. c #EDB923",
"6. c #EEBC2A",
"7. c #E2A13E",
"8. c #EFBF31",
"9. c #E9B33F",
"0. c #F1C22C",
"q. c #F2C630",
"w. c #F4CD36",
"e. c #F2C83A",
"r. c #F6D33C",
"t. c #EEC148",
"y. c #F0C549",
"u. c #F3CC4B",
"i. c #F8D740",
"p. c #F9DB44",
"a. c #F6D54E",
"s. c #F9DD49",
"d. c #FBE24C",
"f. c #FDE651",
"g. c #FFED56",
/* pixels */
"+ @ = = = & @ @ @ = - - q K _ + $ $ & ' K w - & & + + @ = &     ",
"& = - - : - = & ; ; ; - w H w @ @ $ ; [ / z q : & & @ $ - ; - @ ",
"= - - - : - = = ; - = = ; ; ; $ & ; : [ E M s 6 - - & ; - = r - ",
"$ - - = = = = = & = $ $ - - : $ - - = w C V s * : & & r : - = @ ",
"$ ; = = = & = = $ * * # % & ; & 4 6 & * * h p * - & - - - r $   ",
"$ = = = = = = @ = X d s X $ ; 6 C C ; & - 1 1 &   & 6 - $ $ @ & ",
"& ; = = = & = @ > s v v p * u A o. .Z y = - - & - & & - - & $ & ",
"= t = = & $ - , v v v v f = } <...3.<.} * ; ; & & -   & - - = & ",
"= : = = @ $ = , v v v v n | >.......4.%.' 7 = ; ; ; = = & & & @ ",
"= : = : = = = 5 d v v v F <.......5.4.#.^ e - ; t ; = = ; - & O ",
"& - = = = = = : q s c X S <...........#.^ w = ; & & = ; : ; - @ ",
"& : : = - = = t : . i 5 A $.<.....<.#.o.H q & & $ & - - = = = @ ",
"& t : = = = = ; = % % & q W ;.....#.m j * ; & $ & = - ; & & = & ",
"@ = = = = = = = : - = & 5 ) U ~ X.T b a = : ; - = = = = & & = @ ",
"@ & = = ; = ; = = = & = = + i b b b v g - r 4 - - ; & & $ $ @ O ",
"@ @ $ $ = $ = = @ $ @ + @ + l R R B b X * ' G G G S y & $ $ & + ",
"@ + & ; & * $ * w o o 9 q 2 k ! ! E M l 8 P ! ! ! / 0 ; = @ @ + ",
"@ $ & ; = ; & 0 I I ^ I L c D ! ! ! E N c R ! ! ! / e ; ; - = $ ",
"@ ; - ; & 6 _ J W ! ! ! E B E ! ! ! ! R Y E ! ! P C 5 = - : ; = ",
"  - ; - & w P W ! ( ( ( ( ~ ! ! ! ! ! ~ ~ ! ! ! ] = & & = ; - @ ",
"@ = - - = w P ( ! 7.t.t.t.t.-.! ! O.;.;.;.O.! ! ] = & & = = = $ ",
"; - & - = 3 L Q =.y.g.g.g.g.9.O.~ ;.4...1.;.~ ! H 5 - - = = = & ",
"- - * - & 7 d &.a.g.g.g.g.g.e.<.1.1.....4.1.;.~ N d > ; = & & & ",
"; r : : & 5 d &.g.g.g.g.f.i.r.w.w.0.4.4.....,.~ Y c 5 = & @ @ $ ",
"& ; t = ; 6 d *.g.g.g.g.i.5.r.g.g.s.5.......,.~ Y v , : ; @ $ = ",
"& - = & = = 2 S 7.u.f.r.0.4.r.g.g.s.5.4.4.;.+.~ E Y n { = @ = ; ",
"@ - & = = = = ` W 9.p.0.5.0.i.g.g.d.0.6.6.;.~ ~ ( ! ! ! = $ - = ",
"& : = ; ; ; ; ` W 2.5.5.q.s.f.g.g.f.d.s.a.6.<.1.@.! ! ! = = - + ",
"= : = ; - - 8 x W @.,.6.r.g.g.g.g.g.g.g.d.q.4...;.! E Y = ; : $ ",
"$ = = ; - 5 d B ! ! =.u.g.g.g.g.g.g.g.g.f.q.5...#.W M v = = =   ",
"@ $ : : l f c M ! +.2.d.g.g.g.g.g.g.g.g.g.a.8.:.~ W x < : - = O ",
"$ @ ; ; v v v B W $.0.d.g.g.g.g.g.g.g.g.g.g.u.( ! / 0 $ = $ = $ "
};
