/* XPM */
static char *result[] = {
/* columns rows colors chars-per-pixel */
"32 32 104 2 ",
"   c #44433F",
".  c #7C4837",
"X  c #724C3D",
"o  c #474643",
"O  c #4A4946",
"+  c #4E4D4A",
"@  c #564C46",
"#  c #504F4C",
"$  c #5C4E48",
"%  c #52514E",
"&  c #5F544E",
"*  c #555452",
"=  c #585754",
"-  c #5A5956",
";  c #5D5C59",
":  c #664A40",
">  c #734E41",
",  c #7B4E40",
"<  c #665046",
"1  c #6C5546",
"2  c #65554C",
"3  c #6C5349",
"4  c #66594D",
"5  c #6A594C",
"6  c #7A5243",
"7  c #745C47",
"8  c #715D4E",
"9  c #635B54",
"0  c #615E5B",
"q  c #9F492E",
"w  c #8D4933",
"e  c #8C4E3A",
"r  c #924A33",
"t  c #934F39",
"y  c #89513E",
"u  c #975631",
"i  c #A6492C",
"p  c #AE4828",
"a  c #B24D28",
"s  c #B95927",
"d  c #B4522B",
"f  c #B9552A",
"g  c #BC592A",
"h  c #91623F",
"j  c #98633F",
"k  c #BB782F",
"l  c #A76B3B",
"z  c #AB6A39",
"x  c #B96230",
"c  c #B66B34",
"v  c #C66E27",
"b  c #C4632C",
"n  c #C8672C",
"m  c #C76A2A",
"M  c #CC6D2D",
"N  c #C67125",
"B  c #CF722E",
"V  c #D1742E",
"C  c #D37B2C",
"Z  c #C26F32",
"A  c #825341",
"S  c #855D41",
"D  c #876246",
"F  c #8B6344",
"G  c #976340",
"H  c #ECB51F",
"J  c #D18125",
"K  c #D38923",
"L  c #D7812B",
"P  c #DB8B2A",
"I  c #DB9325",
"U  c #D4912A",
"Y  c #D78233",
"T  c #DC8E36",
"R  c #DD9A37",
"E  c #DF973A",
"W  c #E29B25",
"Q  c #E0992B",
"!  c #E5A422",
"~  c #E6AA22",
"^  c #E8AC22",
"/  c #ECB520",
"(  c #EEBA24",
")  c #EEBD2A",
"_  c #E3A237",
"`  c #E9B139",
"'  c #F0C12B",
"]  c #F2C731",
"[  c #F3C932",
"{  c #F3CA3B",
"}  c #F7D43D",
"|  c #E7AE41",
" . c #E3B044",
".. c #EAB443",
"X. c #EDBF45",
"o. c #EDC445",
"O. c #EECA4C",
"+. c #F4CD41",
"@. c #F8D740",
"#. c #FADD46",
"$. c #FADE4A",
"%. c #FCE44D",
"&. c #FCE552",
"*. c #FFED56",
/* pixels */
"O + * * * % + + + * * * * + # + + + < , & * = * % O O + * %     ",
"% * = = ; = % % ; = ; * = * * + + % , e 9 = - ; % % + @ = = = # ",
"* = = = - - * * ; * * * = = ; + $ ; 0 0 - = = = = = % - - * 9 * ",
"# = = * * * * * * # # # * = ; % * = = * = = * = ; % % - 9 * * + ",
"# = * * * % * * # * * $ > , 2 ; , & * % * - % % = % - = = - %   ",
"# = * * - * * + * * * : p i A A p 3 * * * * % @   % - & # # + % ",
"# ; * * * * % + * * % > i > G x b 6 = = * = = * - % % * = % + % ",
"* ; * * # # * * % # # $ , = G g B 8 - = * - = % + = &   = = = % ",
"* ; * * + # * # # * * * ; ; y p l 9 - - * = = = - - * * % % % + ",
"* ; = - * * * * # * * - ; ; y t * * * - * = = - 0 - * = = = % o ",
"% - * * * # * ; ; * # * * * & 3 * * * - * = * = % % * * ; ; = + ",
"* ; - * ; * * ; ; # + * * + * * * * * = * * % % % % - - * * % + ",
"% ; ; * = * * ; * * % % + # = # + - = = % = & 1 % * = = % # * # ",
"+ = - % * % * * ; * % % + + % + # = = - = ; D k - * * * % % * # ",
"+ % * * * * - * * * # 3 r w w . + % * = * - F k 4 * * * # # # o ",
"+ + + # = # * * # # % , p p p q X @ O * % % 1 h + # % % # # # O ",
"%   % - % % # # * X u s s d a p a X 5 2 # % % # # # * - * % + O ",
"+ # % 4 * - % % & c I ^ ! C g f M Z Z z = - * = % # * - - = * + ",
"# - = = * = # @ 4 k W H H W v f B Q W U l 5 * = * # * * - - - % ",
"  & = = % = * = 5 x I H H H J b P ^ / ! V G < = = * # % * = = % ",
"+ % - = = = # = 2 i K H ( ( Q P H / ( ~ V f e = = * * * * * * # ",
"= - % = = * + # 2 i m _ %.%.$.+./ } %.o.s a e = = * * * * * * * ",
"= = * - * = * * 4 i b R *.*.*.%.} %.*.O.d N k j A * * * * # # % ",
"- - ; 0 % * * 4 S d n E $.*.*.*.$.*.%.X.d I ! C f % * * * + + # ",
"% - 0 % - - % h V V V P ( %.*.#.H #.} W a I / ^ V = % - - + + * ",
"% = - % * * * h V V V V L ) ' ) H ' ( ! m C Q ^ C % % = * + = - ",
"+ = % % * * * 7 V V E | ..{ ' / H H H ~ C V L I V = % % % % = % ",
"% ; % - ; ; ; h V V X.*.*.*.} ' ' ( / ~ T T Y V V * % + % * * + ",
"* 0 * - * - = 7 V V o.*.*.*.*.*.&.' H ( &.&...B B = % % = - ; + ",
"+ * * - = - = h V V X.*.*.*.*.*.*.%.@.%.*.*. .g f % % + * * * o ",
"+ # - 0 ; ; = 7 b B ` %.*.*.*.*.*.*.*.*.*.$.R p p = * = ; = * O ",
"# + = = = + % . a B W [ *.*.*.*.*.*.*.*.*.] J p p % % % * % * + "
};
