/* XPM */
static char *result[] = {
/* columns rows colors chars-per-pixel */
"32 32 115 2 ",
"   c #44433F",
".  c #71493C",
"X  c #7C4D3C",
"o  c #7F5A3E",
"O  c #474643",
"+  c #484745",
"@  c #4A4946",
"#  c #4E4D4A",
"$  c #5D4E46",
"%  c #504F4C",
"&  c #52514E",
"*  c #5A534E",
"=  c #555452",
"-  c #585754",
";  c #5A5956",
":  c #5D5C59",
">  c #624C44",
",  c #6C4E44",
"<  c #764E41",
"1  c #64514A",
"2  c #6C5348",
"3  c #64594E",
"4  c #6B5A4C",
"5  c #745444",
"6  c #7B5041",
"7  c #745A45",
"8  c #7E5E46",
"9  c #735D4C",
"0  c #7B5F4A",
"q  c #625550",
"w  c #625A54",
"e  c #605F5D",
"r  c #7B6049",
"t  c #9C482E",
"y  c #894934",
"u  c #844D3C",
"i  c #8B4C38",
"p  c #944C34",
"a  c #984C34",
"s  c #815B3E",
"d  c #8A5F3E",
"f  c #9D5436",
"g  c #9F5937",
"h  c #90503A",
"j  c #AD4829",
"k  c #B14A28",
"l  c #B85927",
"z  c #B2532C",
"x  c #B8542A",
"c  c #BE5C2B",
"v  c #A45632",
"b  c #A95631",
"n  c #AB5B33",
"m  c #B05E32",
"M  c #976A36",
"N  c #9D663E",
"B  c #AC6636",
"V  c #AD6937",
"C  c #A4673B",
"Z  c #AC6A39",
"A  c #B56332",
"S  c #B26A36",
"D  c #B96D34",
"F  c #B06B38",
"G  c #C26727",
"H  c #C4632B",
"J  c #C76D2C",
"K  c #C77325",
"L  c #CB7925",
"P  c #CD712E",
"I  c #CD7A2E",
"U  c #D1732E",
"Y  c #D47C2B",
"T  c #C67031",
"R  c #CA7130",
"E  c #C87A35",
"W  c #D57E32",
"Q  c #815D41",
"!  c #836045",
"~  c #8A6245",
"^  c #986641",
"/  c #AC8035",
"(  c #BB8935",
")  c #ECB51F",
"_  c #D28524",
"`  c #D38823",
"'  c #D9852A",
"]  c #DB8D28",
"[  c #DB9424",
"{  c #DE922A",
"}  c #D68133",
"|  c #DB8D36",
" . c #D6913B",
".. c #DE9639",
"X. c #E29D27",
"o. c #E19C3A",
"O. c #E3A222",
"+. c #E7AA21",
"@. c #E8AF20",
"#. c #E4A228",
"$. c #EBB220",
"%. c #EEBC26",
"&. c #E6A935",
"*. c #EEBD31",
"=. c #EAB43C",
"-. c #F1C635",
";. c #F3C934",
":. c #F2C944",
">. c #F3CC4B",
",. c #F9DA43",
"<. c #F5D34B",
"1. c #F7D849",
"2. c #FBE24B",
"3. c #FCE553",
"4. c #FFED56",
/* pixels */
"@ # = = = & # # # = - - = # % + % # , 2 * - - = &     & = &     ",
"& = - - : - & & ; - ; - - & = # # = a i - ; ; : = = # # - w = # ",
"= - - - : ; = = ; - = = ; ; : # & q a Q ; - = - = - & ; ; = ; ; ",
"% - - = = = = = = % % & = = : & = q Q 6 ; ; = = : * % w : = = # ",
"# - ; = = & = = & & * % % & w = = = & % - ; & & - & ; ; - ; &   ",
"# - = = = = = # * u a p > 7 Z B Q = - = & - & # # & ; * & &   & ",
"= : & = = & & # * p k j M / ] Y A Q 3 - = = ; * & # # & * & & & ",
"= e = = & % = = & i j j [ ) ) ' U U 0 ; = ; ; * # - % & ; ; ; & ",
"= - = = # = = # # - q 2 ( ) %.' U R 9 - = - = - ; ; = = & & = @ ",
"= : = : = = = = # = = : } | ` K A ^ 4 : - - - ; e ; & - ; - = O ",
"% ; = - = = = : : = % - C c j j i - = : = - = - = = & - ; ; = @ ",
"= : ; = = = = e : % % = 2 i j X 1 - = - & = & & # & ; ; = = = % ",
"% e : = = = = : = = & & # < j > # ; - - & - = & & = ; = & & = & ",
"# = = = = = = = : = & & # . j . % ; - - - w ; - = = = = & & = % ",
"# = = = : = = = = = & = = . j t . % = - - N F M 3 = = = % # % O ",
"# # # # = # = = % 2 Q Q $ . j j y # @ = * V I _ 4 % % = % % % @ ",
"&   & ; & & % % 3 V U P 8 X k j y + = = % B U R 5 % = - = % # + ",
"# & & w - - & r S T U P D m j j y % - = * f H R 7 % = ; - - = % ",
"# - - - = = & s U U Y ] ] ' K H n Q w = q p b ^ 4 = = = - : : & ",
"  = - = * - & ! P P ] ) ) ) $.' U R Q - q a i - - & % & = - - % ",
"% = - - = = & 3 0 v L ) $.$.$.' U P b a a j h ; ; = & = = = = % ",
"- - & - = = % & * p G X.*.;.;.#.} U H x j x n ~ Q 9 = = = = = = ",
"; ; = ; - - - & - p c } >.4.4.;.#.W U H k J U U U C q ; = % % = ",
"; : w : & & - - * a E >.3.4.4.2.1.>.| H j H U U U T C w = # # # ",
"& ; e & : = & 3 ~ m  .4.4.4.4.4.4.3.&.Y c Y ] ] W U R 0 ; # % = ",
"& = = % = = = d U U o.3.4.4.4.4.4.3.;.#.Y O.) @.W U J 9 = # - - ",
"% = & = * * o B U U } ..<.4.4.4.4.4.2.=.U O.) ) ' H z , = % - = ",
"= ; = ; ; ; g G U U Y { <.4.4.4.4.4.4.:.] +.O._ J z u 1 = = = @ ",
"= : - ; = ; V Y U U ] %.2.4.4.4.4.4.4.;.) @._ j j i = & = ; : % ",
"% = = ; - ; Z U U U o.,.4.4.4.4.4.4.4.2.) L l j j u & # = = & O ",
"# % ; : : : ~ B G _ =.4.4.4.4.4.4.4.4.2.-.E x j p < - - ; - = @ ",
"& @ - - - # # < z [ ;.4.4.4.4.4.4.4.4.4.3...H j , % % % = & * % "
};
