/* XPM */
static char *result[] = {
/* columns rows colors chars-per-pixel */
"32 32 119 2 ",
"   c #44433F",
".  c #6F4A3D",
"X  c #7B4E3E",
"o  c #77563D",
"O  c #7E5B3E",
"+  c #7B663B",
"@  c #474643",
"#  c #4A4946",
"$  c #4E4D4B",
"%  c #524B46",
"&  c #504F4C",
"*  c #5D5345",
"=  c #52514E",
"-  c #5B524C",
";  c #555452",
":  c #585754",
">  c #5A5956",
",  c #5D5C59",
"<  c #724D40",
"1  c #675546",
"2  c #65544B",
"3  c #6D5349",
"4  c #65594F",
"5  c #6D584C",
"6  c #755243",
"7  c #7C5243",
"8  c #725D4D",
"9  c #7C5D48",
"0  c #655B53",
"q  c #6C5C50",
"w  c #605F5D",
"e  c #716548",
"r  c #7E6049",
"t  c #934C35",
"y  c #994B33",
"u  c #85503F",
"i  c #855B3B",
"p  c #8B5E3D",
"a  c #995437",
"s  c #9F5B37",
"d  c #97593B",
"f  c #A5492C",
"g  c #AF4928",
"h  c #B14B28",
"j  c #AC562E",
"k  c #B65129",
"l  c #B9552A",
"z  c #B35A2F",
"x  c #BF5F2C",
"c  c #AC5931",
"v  c #94613A",
"b  c #9C653B",
"n  c #997738",
"m  c #947C3A",
"M  c #A36037",
"N  c #A1663B",
"B  c #AB6A39",
"V  c #B36B35",
"C  c #BB6E35",
"Z  c #B06B38",
"A  c #C15F2B",
"S  c #C5652B",
"D  c #CA6A2D",
"F  c #C67225",
"G  c #C97724",
"H  c #CF712E",
"J  c #C57C2F",
"K  c #CD7A2D",
"L  c #D1732E",
"P  c #D47B2C",
"I  c #C26F32",
"U  c #C67131",
"Y  c #D67F32",
"T  c #865540",
"R  c #825C43",
"E  c #846343",
"W  c #8B6142",
"Q  c #926442",
"!  c #ECB51F",
"~  c #CB8628",
"^  c #D68B24",
"/  c #D7822C",
"(  c #D9852A",
")  c #DB8D28",
"_  c #DE9426",
"`  c #CC8439",
"'  c #D58232",
"]  c #DB8D36",
"[  c #D98F38",
"{  c #E09925",
"}  c #E0982D",
"|  c #E09A32",
" . c #E09B3B",
".. c #DCA324",
"X. c #E4A422",
"o. c #E4AC22",
"O. c #E8AC21",
"+. c #EBB420",
"@. c #EEBB25",
"#. c #EFBF29",
"$. c #F0BF29",
"%. c #ECB93D",
"&. c #F1C42E",
"*. c #F2C731",
"=. c #F4CC35",
"-. c #F4CC3A",
";. c #F6D23C",
":. c #EAB644",
">. c #F0C449",
",. c #F4CF4B",
"<. c #F6D442",
"1. c #F8D741",
"2. c #FADD47",
"3. c #F6D44E",
"4. c #F7D84C",
"5. c #F9DB4B",
"6. c #FCE44E",
"7. c #FAE052",
"8. c #FFED56",
/* pixels */
"# $ ; ; ; = $ $ $ = > ; ; $ $ # $ $ = ; * ; : : =     = : =     ",
"= ; : : , : = = > , , ; > ; T < $ & > , > > > > : ; # $ : > : & ",
"; : : : , > ; ; > ; ; ; > > T < ; > w , > > : : ; : = > > : > : ",
"& : : ; ; ; ; ; = = & = ; ; , & ; > : ; : : : : , * & , 0 > >   ",
"$ , ; ; ; = ; = & = ; = $ ; : ; 2 N r = : : = = : = : : : : =   ",
"& ; ; ; ; ; ; $ ; ; ; $ $ $ : e n U W ; ; - = $ $ = > : & & $ = ",
"= , ; ; ; = ; $ = ; = $ ; ; : m ..P d : ; : : : = $ $ = * = & = ",
"; w ; ; ; $ ; ; ; & & $ ; ; : * E j T : ; : : = * : = = > : : = ",
"= , ; ; $ ; ; & & ; ; ; w w > ; - u 3 : : : ; : > > ; ; = = ; # ",
"; , ; , & ; ; ; $ ; ; , w , , % = ; : , 4 4 4 > , > ; ; > ; ; @ ",
"& : ; ; ; ; ; > , ; ; Q W ; : : ; ; ; q Z C N > ; ; ; > > > : # ",
"; , , ; ; ; > w , 3 W C b $ ; ; ; ; ; 8 I P V : $ = ; > : ; ; & ",
"& w , ; ; ; > , : R L L Q ; : $ $ > : 5 U U b = & ; > ; ; & ; & ",
"$ ; : ; ; ; ; = , R L L s $ ; $ $ > > 8 C b 4 ; ; ; ; ; & = ; & ",
"$ & ; ; : ; > ; ; 2 T C b % i v p - ; 5 z r ; ; ; ; ; ; & & & @ ",
"$ $ & & ; & ; = & ; 6 C B + J / K o * 2 a 1 & = $ & = = & & & # ",
"=   = , ; = % = : o U D ^ o.! O.X.K W 2 f X & & $ $ ; > = & $ # ",
"$ & = : : : ; = ; O L _ X.! ! ! O.P C M h y T ; = = ; > > > ; & ",
"$ > : : * : = $ = O D ^ X.! ! o.{ P L D h h y : ; = ; ; > > > ; ",
"  ; : : = : = : : 6 g g G ! ! _ L L L D h g y : ; ; = = ; > > & ",
"$ * > ; - ; = : : X g g S ) -.,.>.>. .D h F ~ B q ; ; ; = ; ; = ",
"> > = > ; : & = : . h l S Y 3.8.8.8.>.[ x ) O._ Q 2 ; ; ; = ; ; ",
": : = > : : ; ; ; 7 h D L Y 3.8.8.8.8.3.' _ +.! D y ; ; ; & = = ",
": > w w = = : ; : 6 h S L Y 3.8.8.8.8.3.' { +.+.' c ; ; ; $ $ $ ",
"= > w = , > * E R d h D P } 4.8.8.8.8.5.} { X.! ) B = > > $ & ; ",
"= : ; & = ; r ~ L D h D ) @.2.8.8.8.8.2.@.) ( O.) B = ; = $ ; > ",
"& ; = = ; ; r K L D D D ) +.&.;.8.8.1.$.! ) L P Y B ; = ; & : ; ",
"= , ; , : : r H L L Y  .%.=.@.&.<.8.2.=.-.| L L S s = $ = ; ; $ ",
"; w ; > : > 9 D H L / 3.8.8.*.#.&.6.8.8.8.:.D H l t ; & ; > , $ ",
"$ ; ; > : > 6 k D ^ o.5.8.8.6.6.6.8.8.8.7.:.D h h t ; $ ; ; ; @ ",
"$ & , , , > 4 T j ' ;.6.8.8.8.8.8.8.8.7.:.] D A a < : : , : ; # ",
"& $ : : ; $ $ ; t ` 8.8.8.8.8.8.8.8.8.3.' L L L R = & & ; = ; $ "
};
