/* XPM */
static char *result[] = {
/* columns rows colors chars-per-pixel */
"32 32 105 2 ",
"   c #44433F",
".  c #7B4E3E",
"X  c #474643",
"o  c #4A4946",
"O  c #4E4D4A",
"+  c #5C4B45",
"@  c #504F4C",
"#  c #52514E",
"$  c #5D534D",
"%  c #555452",
"&  c #585754",
"*  c #5A5956",
"=  c #5D5C59",
"-  c #6C4B40",
";  c #614F48",
":  c #685047",
">  c #65544B",
",  c #665A4B",
"<  c #6A5A4D",
"1  c #7B5D45",
"2  c #725348",
"3  c #725C4A",
"4  c #675751",
"5  c #655B54",
"6  c #615F5B",
"7  c #6C644B",
"8  c #776943",
"9  c #824E3C",
"0  c #8C4E3A",
"q  c #934D36",
"w  c #81533E",
"e  c #985C3C",
"r  c #A0482D",
"t  c #AE4828",
"y  c #B34C29",
"u  c #B65527",
"i  c #BA5B26",
"p  c #B6562C",
"a  c #B9552A",
"s  c #BE5C2A",
"d  c #A65C34",
"f  c #9B653D",
"g  c #AC6F37",
"h  c #A4683B",
"j  c #AA6A3A",
"k  c #B36C37",
"l  c #BD6F35",
"z  c #B06B38",
"x  c #A9703B",
"c  c #C26A26",
"v  c #C3632D",
"b  c #CC6D2D",
"n  c #C87424",
"m  c #CF712F",
"M  c #D1742E",
"N  c #D47A2D",
"B  c #C36C31",
"V  c #CB7230",
"C  c #D57C31",
"Z  c #815141",
"A  c #895940",
"S  c #8C6344",
"D  c #936542",
"F  c #ECB51F",
"G  c #CC8F2B",
"H  c #D18523",
"J  c #D68B24",
"K  c #D6802B",
"L  c #D9852A",
"P  c #DC8F28",
"I  c #DD9227",
"U  c #DC9328",
"Y  c #D68133",
"T  c #DB8E37",
"R  c #DE9539",
"E  c #E19B26",
"W  c #E09829",
"Q  c #D5A625",
"!  c #E5A423",
"~  c #E7A822",
"^  c #E9AF20",
"/  c #E3A12B",
"(  c #ECB420",
")  c #EEBB25",
"_  c #EBB42D",
"`  c #E3A533",
"'  c #E2A23A",
"]  c #E7AE3B",
"[  c #F1C32D",
"{  c #F1C434",
"}  c #F3CB35",
"|  c #F7D43E",
" . c #E2AD43",
".. c #E8B042",
"X. c #EBB845",
"o. c #ECC54B",
"O. c #F2CA42",
"+. c #F2CC4B",
"@. c #F8D741",
"#. c #F9DA43",
"$. c #F5D54E",
"%. c #F7D84F",
"&. c #F9DD4A",
"*. c #FBE24C",
"=. c #FFED56",
/* pixels */
"o O % % % # O O O % & & % O # o @ @ # $ % % * % #     @ % #     ",
"# % & & = & # # = * & & & $ : O O # & 6 * * * 5 % % @ @ & * & @ ",
"% & & & * * % % * % % % * Z Z @ % 5 6 6 * & % * % & # * * & * & ",
"@ & & % % % % % % @ O % & $ 2 % % A D $ * * % $ 5 # # * 7 * *   ",
"@ & % % % # % % # % % O # # & % # A d # & & # # % # & & % * @   ",
"@ & % % * % % O % % % O O O % % @ Z 0 $ $ # # # @ @ 7 * @ @ O # ",
"# = % % % % % O # # # O # # & % o + & & % & & % # O   * & # @ # ",
"% = % % O O % % # # # @ % & & O $ % & & % * & # @ & @ @ & & & # ",
"% * % % O @ % @ @ % @ & = = = % % & & * % & % & * * % % # # # O ",
"% = * * % % % % @ % % = = = = O # % & * & & & * 6 * % & & & # X ",
"@ * % & % @ % = = % @ % % % 2 q $ % % & & & # * % # # * * * & O ",
"% = * % = % % = = @ O % % - q t 9 ; & & % > S $ @ # % * % % % O ",
"@ = = % % % % = % % # @ + q t t t Z & & # 7 g , % % * % % # # # ",
"O & % % % % % % = % % : r t t t t Z & & & = 5 & % % % % # # % # ",
"O % % % & % & % % % 2 z H i t y s j A = % * % % % % % % # O O X ",
"O O O @ % @ % % @ 6 x W ( c a c K L V 1 % # # # O O O % @ O @ o ",
"@   # * # # @ @ 7 Q F F F c n F F F ! m 1 # # # O @ % & % @ O o ",
"@ O # * $ * # # 7 Q F ~ L i n ) F } { N 8 & % % # # % * * & % @ ",
"@ * * & % $ # # , G E P M a c E { &.+.C e 2 & % % # % % & = * # ",
"  & * & # * # & , k m M Y B v Y %.=.+.V p q > * & # # # % * * @ ",
"  % % * % % # $ * , h T $.$. .Y %.=.o.p t p k < & % # % % % % O ",
"7 & % * % % @ # $ # f R =.=.O./ &.+.' K H J U x 4 % % % % % % % ",
"& & % * % * % % * 3 j T +.&.} ) @.' L ( F F ^ K D & % % % O @ % ",
"* * = = % % % $ , l m m M ! F F ( U L ( F F ^ K S % % & % O O O ",
"# * 6 % = % # 8 z V M N ! ^ F F F I N L ~ F ^ N D % # * * O O % ",
"# * % # % % % S M M T ] } } [ F F I M M P E W N D % # % % O & & ",
"O & @ # % % % S M M X.=.=.=.#.) ) W N C C C M M S & % # % @ & % ",
"# = % * = & & S M M X.=.=.=.=.&.*.{ _ $.$...M M A % # @ # # % O ",
"% = % = % & & . v b ` #.=.=.=.=.=.&.#.=.=...s s A & % @ & * 6 O ",
"O % % & & = & . y b W [ =.=.=.=.=.=.=.=.=. .t t Z # # O % % %   ",
"O @ = = = * & 1 u b W [ =.=.=.=.=.=.=.=.=. .t t Z % & & * & % o ",
"@ O & & % O O $ w B K ` =.=.=.=.=.=.=.=.| ' s Z ; O @ # % # % O "
};
