/* XPM */
static char *result[] = {
/* columns rows colors chars-per-pixel */
"32 32 108 2 ",
"   c #44433F",
".  c #7A4D3D",
"X  c #474643",
"o  c #4A4946",
"O  c #4E4D4A",
"+  c #504F4C",
"@  c #5A4F4A",
"#  c #52514E",
"$  c #5D524C",
"%  c #555452",
"&  c #585754",
"*  c #5A5956",
"=  c #5D5C59",
"-  c #6C4F44",
";  c #61544E",
":  c #6D5448",
">  c #665B4E",
",  c #6C5A4B",
"<  c #755144",
"1  c #7C5142",
"2  c #745B47",
"3  c #7C5D44",
"4  c #71544A",
"5  c #755D4B",
"6  c #785D48",
"7  c #625651",
"8  c #615A53",
"9  c #6A5D54",
"0  c #615F5C",
"q  c #68604C",
"w  c #79614E",
"e  c #8A4D36",
"r  c #824D3C",
"t  c #8D4E39",
"y  c #974A31",
"u  c #9A4C33",
"i  c #8C513E",
"p  c #8C5B3F",
"a  c #93523A",
"s  c #A44A2E",
"d  c #AD4829",
"f  c #B24C29",
"g  c #A6512F",
"h  c #A9502E",
"j  c #A55A2D",
"k  c #B95827",
"l  c #B55129",
"z  c #B9552A",
"x  c #B65B2E",
"c  c #BD592A",
"v  c #A55D37",
"b  c #B05A30",
"n  c #92623F",
"m  c #9C643D",
"M  c #A66430",
"N  c #A26B37",
"B  c #A0663A",
"V  c #A2683D",
"C  c #AA6939",
"Z  c #BB6731",
"A  c #B26B37",
"S  c #BF6A31",
"D  c #BC7130",
"F  c #C05E2B",
"G  c #C46C26",
"H  c #C6652C",
"J  c #CB6C2D",
"K  c #CB7627",
"L  c #CE7927",
"P  c #CD722C",
"I  c #D1732E",
"U  c #D47C2C",
"Y  c #C16F32",
"T  c #C77131",
"R  c #CA7130",
"E  c #805C42",
"W  c #8B6243",
"Q  c #866348",
"!  c #936340",
"~  c #B18E32",
"^  c #ECB51F",
"/  c #D7812A",
"(  c #DB8C2A",
")  c #C5952B",
"_  c #C59C2B",
"`  c #D69325",
"'  c #DE9226",
"]  c #D88434",
"[  c #DE9536",
"{  c #E29D25",
"}  c #E09B37",
"|  c #E4A323",
" . c #E7AA22",
".. c #E8AC21",
"X. c #EAB120",
"o. c #EEBA25",
"O. c #EDBA2F",
"+. c #E7AC34",
"@. c #EAB43C",
"#. c #F1C42E",
"$. c #E8AF42",
"%. c #EDBC46",
"&. c #F2CA44",
"*. c #F8DA45",
"=. c #FADF48",
"-. c #FADF51",
";. c #FDE650",
":. c #FFED56",
/* pixels */
"o O % % % # O O + % & & % O O O O O # & $ % & % #     # % #     ",
"# % & & = & # # * * * & 4 - % O O # & 8 * * 8 = % % O O & 8 % O ",
"% & & & = & % % * & % 7 u t * O % 0 0 = * & & * % % # * & & = & ",
"+ & & % % % % & # # + @ u t = # : V E % & & & & = % # 8 q * *   ",
"O & % % % # # % + % % + r . * 4 ! Y m + * * # # & # * & & * + X ",
"+ & % % % % % O # % % O @ + * ! R I p % % $ # # O O q & # + O + ",
"% * % % % # # O # % % O O % * B J F E % % & & # # +   & & # + # ",
"% = % % % + & % % + O O % & * N P g E & % & & # + & # # & & % # ",
"% = % % O % % O O * % % = = = ~ ) 6 7 * % * % * * & % % # # % O ",
"% = % = % % % % % 4 Q Q 9 0 = ~ _ > & = % * % * 0 = % % * % # X ",
"% % % % % % % = w Y R S 5 % * ~ ) q % 8 & 7 & & # % # * = = % O ",
"% = = % * % % = w S I Y 2 + % a M > % 8 n C C 2 O # & * % % % O ",
"# = = % % % * * w Y I R E < 4 y y 7 * > A I I E # * % * # # # # ",
"O % % % % % % # 9 Y I R f d d d y ; & 9 A I I E % % % % # # % # ",
"O # % % * % * % 4 b H J f d d f y $ - a Y I U w % % % # O # O X ",
"O O + + % + % % 4 s H J z d l z j - e f H P T q o # # # # O O o ",
"o o # 8 # # + O 2 Z P P z c J ( ` S x f J H l . + O % * % + O o ",
"O + # * & & # 3 m J I I K L (  ...{ K k F z d 1 # # % * * & & + ",
"+ & * & # * # B I I I U | ^ ^ ^ ^ ^ ' J z f d 1 % % % % & = * # ",
"  & & & # & # V I I I U | ^ ^ ^  .( U I H F d u r @ # # % * * O ",
"O % % % # & # V I I J J ' { { { { I I I I H z f y ; % % % % % + ",
"& 8 % 8 & % # N I I F l J I U U I I I I I I I c y ; % % % % % # ",
"% % # * # & % 2 m k l f F F R +.%.$.%.$.] I I z h m w = % # + # ",
"* 8 0 = % % % % : s d f f F R %.:.:.:.-.} U I F F J E & # O O + ",
"% * 0 % = % % % : s d f H P I %.:.:.:.;.O.' I I J J ! % & O O % ",
"# & % + % # % , t d f c J U ' &.:.:.:.:.*.+.I I I I ! % % O % * ",
"O & + # # # & a f d F I I ( o.*.:.:.:.:.;.%.I I I I ! % % # & & ",
"# = & * * w C D F f F J I } =.;.:.:.:.:.:.%.I I I I ! + % # & o ",
"& = * & & Q I I P G L ( [ %.:.:.:.:.:.:.=.@.I I I F W + % * = O ",
"O % & & & Q I I / | X.o.*.:.:.:.:.:.:.;.#.{ I I H f r O % % % X ",
"O O = = i v P ( | ^ X.o.=.:.:.:.:.:.:.;.O.{ I I H F E % * & & X ",
"+ O & % d c I { ^ o.X.o.=.:.:.:.:.:.:.;.O.{ I I H d r O & # % O "
};
