/* XPM */
static char *result[] = {
/* columns rows colors chars-per-pixel */
"32 32 115 2 ",
"   c #44433F",
".  c #6B4A3F",
"X  c #79583F",
"o  c #474643",
"O  c #4A4946",
"+  c #4E4D4A",
"@  c #504F4C",
"#  c #5E5145",
"$  c #52514E",
"%  c #5E534B",
"&  c #555452",
"*  c #585754",
"=  c #5A5956",
"-  c #5D5C59",
";  c #654D44",
":  c #6B4E44",
">  c #724F43",
",  c #7C4F41",
"<  c #625245",
"1  c #6D5246",
"2  c #64524A",
"3  c #6B544B",
"4  c #6D5B4C",
"5  c #705642",
"6  c #785245",
"7  c #775C46",
"8  c #7D5C43",
"9  c #715B4A",
"0  c #795E49",
"q  c #635651",
"w  c #665C51",
"e  c #605F5D",
"r  c #864A37",
"t  c #804E3C",
"y  c #8C4E3B",
"u  c #924B34",
"i  c #8E533D",
"p  c #815A3E",
"a  c #9B5435",
"s  c #9D5A37",
"d  c #A54A2D",
"f  c #AC4929",
"g  c #B24C29",
"h  c #BA5C27",
"j  c #B75329",
"k  c #BA562A",
"l  c #B75E28",
"z  c #BD5B2A",
"x  c #9E6336",
"c  c #95633C",
"v  c #9E663C",
"b  c #9B683D",
"n  c #BF6227",
"m  c #BE622E",
"M  c #AE6A38",
"N  c #B36533",
"B  c #B36B36",
"V  c #BD6C33",
"C  c #AC753A",
"Z  c #C15E2B",
"A  c #C26B25",
"S  c #C5642C",
"D  c #CC6E2D",
"F  c #C67325",
"G  c #CA7526",
"H  c #CA7F25",
"J  c #CD712C",
"K  c #CC7F2D",
"L  c #D1732E",
"P  c #D57B2C",
"I  c #C26D31",
"U  c #C47032",
"Y  c #CB7230",
"T  c #D47B31",
"R  c #8B5A40",
"E  c #846147",
"W  c #8B6142",
"Q  c #946542",
"!  c #AC8334",
"~  c #B58E33",
"^  c #ECB51F",
"/  c #D58825",
"(  c #D7832A",
")  c #D8852A",
"_  c #DB8B2A",
"`  c #D79022",
"'  c #DE9327",
"]  c #D89728",
"[  c #D58433",
"{  c #DB8C37",
"}  c #DD9238",
"|  c #E19B25",
" . c #E09A3A",
".. c #E3A422",
"X. c #E6A921",
"o. c #E8AD21",
"O. c #E4A42E",
"+. c #EAB120",
"@. c #E3A23D",
"#. c #E9B132",
"$. c #F0C22C",
"%. c #F5D039",
"&. c #C3AF4F",
"*. c #E9B343",
"=. c #EDBC45",
"-. c #DDC14D",
";. c #EEC147",
":. c #F3CB45",
">. c #F2CC4B",
",. c #F7D541",
"<. c #F8D943",
"1. c #F9DE51",
"2. c #FDE64F",
"3. c #FDE652",
"4. c #FFEC56",
/* pixels */
"O + & & & $ + + + $ = * & + @ O 6 U 0 & & & & & $   + + * $     ",
"$ & * * - * $ $ = = = * * & & + % 8 w - = = w - & &   + * = * @ ",
"& * * * = = & & = * & & * * * + $ = e - = * * * & * $ * = * = * ",
"@ * * & & & & & & $ @ $ * * - $ * = & & * * & % - & $ w w = =   ",
"+ * & & & $ & & $ $ & @ @ @ * & $ * $ $ * = & $ * $ * * * = $ o ",
"+ * & & = & & + & & & @ ; > 6 2 + % * $ * $ $ @ + $ = % @ @   $ ",
"& - & & & & & + $ $ @ @ u f f > O $ & * % * * & $ @ @ $ & $ $ $ ",
"& e & & + + & & $ @ : u d f f . & & * * & * * $ @ & @ $ = = = $ ",
"& * & & + & & + $ & & , d d i 2 $ * * - & * * * w = $ & $ $ $ + ",
"& - * - & & & & + & & - y i - @ % * * = * * * * - = & & = = $ o ",
"$ & & & & $ $ - - & @ & 2 2 * Q B M 4 = * * & * & & $ = - - = O ",
"& - - & * & * e e + + & & < W V J J 9 * $ & $ $ + $ * = & $ & + ",
"$ - * & * & & - & & * q @ R L [ T Y E = $ * $ $ $ & * * $ $ & $ ",
"+ * * & & & & $ - & 3 N 5 > Y *.*.L V Q * - * & & & & & $ $ & + ",
"+ $ & * * & * & & 6 v L 8 < s -.;.L L B X < * * & & & & $ + + O ",
"+ + + + & + * & + Q L L 6 O + &.*.L J Z a & + $ + + $ $ $ + + O ",
"+ O # = $ $ @ @ * x L L R @ O C [ L k g d ; @ $ $ + & * & $ + O ",
"+ @ $ = * * $ < t N L L s r X m D Z g h / ! 0 * $ $ * * * * & @ ",
"+ * * = $ = $ : f Z J L k f g D D h g G ^ ^ ~ 4 * $ $ * = = = & ",
"  * = * $ * $ 1 f g z Y k k D | X...n G ^ ^ ] B 4 $ $ $ * = * + ",
"+ & * * $ * $ 9 d k S L k A | X.^ ^ ` / ' ' ( I w & & & & & & $ ",
"* % & * & & < p l J P L k A +.^ ^ ^ ^ | L L D V 4 & & & & $ & $ ",
"& & & * & * c K X.o.| L k A ^ ^ ^ ^ ^ | L L S f 3 & & & & $ $ $ ",
"- - - - $ & v ( ^ ^ o.| J H ^ ^ X.` _ ) L S j d 3 & & = $ + + + ",
"$ - e & = * b / o.^ ^ ..( _ $.$.#.{ T L L j f d 3 $ $ = = + + & ",
"$ & & + & & b / ^ ^ ..P L  .3.4.3.1.} L D j f d 3 $ $ & & + & = ",
"@ & $ & & & 7 b F G G L @.>.4.4.4.4.#._ L S k d 3 & & $ $ $ = & ",
"$ - & - * = * 1 f f k ( :.4.4.4.4.4.%.O.L L S j 3 $ $ + $ & & O ",
"& e & = * * * : d f A o.2.4.4.4.4.4.4.=.T L L I 4 * $ $ * = - + ",
"+ & * = * = * 1 m S [ ,.2.4.4.4.4.4.4.:.| | _ D a > $ + & * & o ",
"+ + = - - - 2 R J { *.4.4.4.4.4.4.4.4.%.+.^ | Y z R & * - & & O ",
"$ + * * * + r k J =.4.4.4.4.4.4.4.4.4.<.+.+.| L Y s $ $ & $ & + "
};
