/* XPM */
static char *result[] = {
/* columns rows colors chars-per-pixel */
"32 32 115 2 ",
"   c #44433F",
".  c #704D3F",
"X  c #7B4E3F",
"o  c #474643",
"O  c #4A4946",
"+  c #4E4D4B",
"@  c #504F4C",
"#  c #52514E",
"$  c #5C544D",
"%  c #555452",
"&  c #585754",
"*  c #5A5956",
"=  c #5D5C59",
"-  c #664D44",
";  c #624F48",
":  c #744D40",
">  c #6D5846",
",  c #655249",
"<  c #6F5A4A",
"1  c #755145",
"2  c #7D5443",
"3  c #735A46",
"4  c #7A5A46",
"5  c #72554A",
"6  c #7E5649",
"7  c #735D4C",
"8  c #7A5B49",
"9  c #605751",
"0  c #625954",
"q  c #605F5D",
"w  c #7B614C",
"e  c #99492F",
"r  c #8F4C36",
"t  c #944B34",
"y  c #9E4B31",
"u  c #82513F",
"i  c #855D3E",
"p  c #9B5435",
"a  c #925339",
"s  c #A54A2D",
"d  c #AD4929",
"f  c #B34F27",
"g  c #B14B29",
"h  c #BB5E26",
"j  c #B5512A",
"k  c #B8542A",
"l  c #BC5A2A",
"z  c #A05634",
"x  c #A15C38",
"c  c #94633D",
"v  c #9B643D",
"b  c #AA6736",
"n  c #AE6837",
"m  c #A6683B",
"M  c #AA6A39",
"N  c #BB6D34",
"B  c #BD7633",
"V  c #C05E2B",
"C  c #C06725",
"Z  c #C4652D",
"A  c #CB6D2D",
"S  c #CF7B27",
"D  c #CF722C",
"F  c #D1732E",
"G  c #D47C2C",
"H  c #C36F32",
"J  c #C47633",
"K  c #D57C31",
"L  c #805142",
"P  c #835E42",
"I  c #8A5F41",
"U  c #846146",
"Y  c #856248",
"T  c #986641",
"R  c #ECB51F",
"E  c #D8852A",
"W  c #DB8C29",
"Q  c #DE9327",
"!  c #DF9D24",
"~  c #CF883A",
"^  c #D78333",
"/  c #D88734",
"(  c #DB8E37",
")  c #D38B39",
"_  c #DF9732",
"`  c #DE9639",
"'  c #E19C25",
"]  c #E19B2E",
"[  c #E19D3B",
"{  c #E4A322",
"}  c #E7A922",
"|  c #E8AA21",
" . c #EDB621",
".. c #EEBA24",
"X. c #E8AF35",
"o. c #E3A43E",
"O. c #E4B039",
"+. c #E9B139",
"@. c #F0C22B",
"#. c #F3CA34",
"$. c #F0C53D",
"%. c #F5D13A",
"&. c #E6AD41",
"*. c #E8AF42",
"=. c #EBB644",
"-. c #EFC341",
";. c #EDC54A",
":. c #F4CF46",
">. c #F2CA4B",
",. c #F9DC45",
"<. c #F6D44E",
"1. c #F9DE51",
"2. c #FCE34C",
"3. c #FCE452",
"4. c #FFEC55",
/* pixels */
"O + & % % # + @ @ % & % % + % I I @ # & $ # * % #   @ @ $ #     ",
"# % & & & & # # * & * & & % % P u # & = * * 0 = % %   + & * & @ ",
"% & & & = * % % * & % % & & = + # * q = * * & * % % # * * & * & ",
"@ & & % % % % % % @ @ # % & = @ & & % $ * * # % = $ # * = * *   ",
"+ & & % % # % % # # # @ # # & % # & > > & & # # & # & & & $ #   ",
"+ & % % % % % + % % % @ @ @ & % @ $ m m & # # # + # * & # #   # ",
"% * % % % % % + # % 5 v ; % & # O # M J m 7 & % # + + # & # % % ",
"% q % % + + % % % @ I H 8 % & + # % c B F U & # # $ # # & $ & # ",
"% * % % + @ % @ @ % L H w q = # # & = Y ~ w % * * * # # # # # + ",
"% = * * % % % % @ % L k p 6 = + # % % 4 h 7 % = q * & & * * # o ",
"% * % % % % % * q , L V k a & & @ % % < r - % % % % # & = = * + ",
"@ = * % & % & q 0 t l A F x % % % & & & $ # # # + # & & % # # + ",
"% = = % % % & 5 L d V A A Z x a : * & & % % % @ @ % & & # # # # ",
"+ % % % % % % : g g V F F F F V p 8 0 & % = * % % % % % # # % @ ",
"+ % % % % % = 1 d d V F F F F F A J 8 & % * % % % % % % @ @ @ o ",
"+ + + + % @ % 5 d d V A o.=.=.[ W D b P # # @ # + @ # # @ @ @ O ",
"@   # * # # @ . y d l G >.4.4.#.X.( K n - $ @ @ + + % & % # + O ",
"+ # # * & & # $ , e l F >.4.4.4.3.1.` Z s 1 % % # % & & & & % @ ",
"@ * $ * # * # @ # . p N ;.4.4.4.4.4.) k g x T T < % % % * = * # ",
"  $ * * # % # & & , u j &.3.4.4.3.<.J f h D G F P % @ @ % * & @ ",
"+ % & & $ & # & 9 t s f D &.4.4.;.^ l C { } ' F w % % % % % % + ",
"$ * % & # & i c v s f Z A _ %.%.X.F Z S R R { F Y % % % % % % % ",
"& & % & $ w J G G l V F F W R R ' F F W } } ' F P % % % % + + % ",
"* = = = P J ! | { G A F F W R R ' F F F G G G F P % % & % + + + ",
"# * q # c E { R  .+.*.o.] {  .#.$.&./ F F F H T 0 % # * * O @ % ",
"# & % # i E { ..@.,.4.4.#... .,.4.4.&.K F F b % & % # % % + & & ",
"+ % # # X h ! #.1.4.4.4.3.%. .,.4.4.1.=.F F n & & % % @ % # & % ",
"% * & * u f B O.4.4.4.4.4.2.%.2.4.4.4.:.Q G N L ; % # @ # # % + ",
"% = & & X s d ) 1.4.4.4.4.4.4.4.4.4.4.,...W Z g 1 % # # % = = @ ",
"+ % & * $ 3 e Z ` <.4.4.#.:.4.4.4.4.4.4.3.[ Z g : % # @ % % %   ",
"+ @ = = = 0 2 z Z &.-.%.%.,.4.4.4.4.4.4.4.[ A l 6 % % & * & % O ",
"@ + & & & + + X f Z Q  .,.4.4.4.4.4.4.4.4.[ F F L # # # % # % + "
};
