/* XPM */
static char *result[] = {
/* columns rows colors chars-per-pixel */
"32 32 54 1 ",
"  c #494846",
". c #4F4E4C",
"X c #555452",
"o c #545351",
"O c #51504E",
"+ c #4C4B49",
"@ c #535250",
"# c #585755",
"$ c #575654",
"% c #4E4D4B",
"& c #4B4A48",
"* c #504F4B",
"= c #4F4E4A",
"- c #53524E",
"; c #575652",
": c #555450",
"> c #585753",
", c #52514D",
"< c #4A4945",
"1 c #4B4A46",
"2 c #4E4D49",
"3 c #44433F",
"4 c #474642",
"5 c #595856",
"6 c #5B5A58",
"7 c #52514F",
"8 c #5A5957",
"9 c #4D4C48",
"0 c #5A5955",
"q c #5D5C58",
"w c #5C5B57",
"e c #5B5A56",
"r c #565551",
"t c #565553",
"y c #54534F",
"u c #5F5E5A",
"i c #595854",
"p c #51504C",
"a c #5E5D59",
"s c #504F4D",
"d c #5F5E5C",
"f c #5D5C5A",
"g c #5E5D5B",
"h c #5C5B59",
"j c #605F5D",
"k c #474644",
"l c #4D4C4A",
"z c #4A4947",
"x c #4C4B47",
"c c #494844",
"v c #484743",
"b c #484745",
"n c #464541",
"m c white",
/* pixels */
" .XXoO+..@#$X%O&*=-;:;>:,<12:,34",
"OX#565@7858##@X+9-0q00wq:-9=>er2",
"o$#565tX8$XX5#8.yeuqe>;ir;-00:e>",
"O$$tX@Xt@OOOt$67ri;riirrqypwa>r2",
".#$tX7oo7@osOO5oy;y,>iy-;yi>;0,4",
"s#ot$oo%oXX.%.#o*:;:r:,*=pw;pp9p",
"78@oX7o%@@7%O@571p;;r>>:-==-;y*,",
"Xd$o7.$X7Os.t$5+y:iiri0-*;p,>;;,",
"o8Xt%@XOOX@tfg6@@$#8X#t#65oo@@@+",
"th#8oooX.Xt5gjh%7Xt8t#$8d6t$#$@k",
"75X$X@o8f@stto#t7XX8t$X#oo@#66$+",
"@h#t#X#jf.lt@%oo@$$#@X77%@t#too%",
"7g8X$X$8$@OOlO$sO5#$@$osst##7soO",
"+$#@$ot@8$@O+l@%s##5th#XotXX77Xs",
"l7Xo#X5XX@7$@z  l7@#t5t$ttoos..k",
".%ssost7.O+&& +%zz+o77%7+.O@s.sz",
"9x,wy,**;c1*y,cvbboo.777%.X#oslz",
"9*-0;i:,r2*py>px%.$tX$Xt77t55#Xs",
"=iii:>,*-p-*,0r9@X#t#5t$X@ot5h87",
"c;i;y;y;;r;;>e>,o#$X##o$t@O7X5#s",
"xr;>:;->i:rwe;:y@5$t#tt5#X@@@tts",
";>:>rr*,;,,we--,s$t$$X#5#tttooX@",
";;:i:>r:>;;qer>-OXt#to8$$oX$oOO7",
"ewauyr;;;eii>>0*o$$6to8Xt7o#@%%.",
"@5do6#7t$585$$$tyroX5$o#57@55+p:",
"@$tsoo@8$$XoXtO+r;@7XX@X8@7oo%;0",
"%XO@XoX8tto7@XO :;@.@ttt$Xo7oO>:",
"@ht688#tX55XX#$7-;XsOt$X7@7.@@;9",
"Xgt5t5$sOXtooto.yi8oOot@ttost8q=",
"%Xt5#8$s@oX$5#O y0jht#6$@@7.Xt:n",
"%s6gg6#t##8fd6o.prgg#8h5tt#$6#;c",
"O+#$t%%o7@t5$@OOx*#5ooXOOsOOo7r2"
};
