/* XPM */
static char *result[] = {
/* columns rows colors chars-per-pixel */
"32 20 33 1 ",
"  c #003858",
". c #013F62",
"X c #014469",
"o c #01466C",
"O c #014B72",
"+ c #014E77",
"@ c #01517C",
"# c #015581",
"$ c #015987",
"% c #015E8E",
"& c #0382C0",
"* c #0487C8",
"= c #0487CA",
"- c #0488CA",
"; c #0489CB",
": c #048ACE",
"> c #048CD0",
", c #0491D7",
"< c #0591D8",
"1 c #0493D9",
"2 c #0594DB",
"3 c #059CE7",
"4 c #05A2F1",
"5 c #05A8F8",
"6 c #05A8F9",
"7 c #05A8FA",
"8 c #05A9FB",
"9 c #05ABFE",
"0 c #05ACFF",
"q c #05ADFF",
"w c #05AEFF",
"e c #05B2FF",
"r c None",
/* pixels */
"rrrrrrrrrrrrrrrrrrrrrrrrrrrrrrrr",
"rrrrrrrrrrrrrrrrrrrrrrrrrrrrrrrr",
"rrrrrrrrrrrrrrrrrrrrrrrrrrrrrrrr",
"rrrrrrrrrrrrrrrrrrrrrrrrrrrrrrrr",
"rrrrrrrrrrrrrrrr14rrrrrrrrrrrrrr",
"rrrrrrrrrrrrrrr,9+$=rrrrrrrrrrrr",
"rrrrrrrrrrrrrr<0XO6qrrrrrrrrrrrr",
"rrrrrrrrrrrrr29.@5w>rrrrrrrrrrrr",
"rrrrrrrrrrrr:0 #7w;rrrrrrrrrrrrr",
"rrrrrrrrrrrrro%8w-rrrrrrrrrrrrrr",
"rrrrrrrrrrrrrr3e*rrrrrrrrrrrrrrr",
"rrrrrrrrrrrrrrr&rrrrrrrrrrrrrrrr",
"rrrrrrrrrrrrrrrrrrrrrrrrrrrrrrrr",
"rrrrrrrrrrrrrrrrrrrrrrrrrrrrrrrr",
"rrrrrrrrrrrrrrrrrrrrrrrrrrrrrrrr",
"rrrrrrrrrrrrrrrrrrrrrrrrrrrrrrrr",
"rrrrrrrrrrrrrrrrrrrrrrrrrrrrrrrr",
"rrrrrrrrrrrrrrrrrrrrrrrrrrrrrrrr",
"rrrrrrrrrrrrrrrrrrrrrrrrrrrrrrrr",
"rrrrrrrrrrrrrrrrrrrrrrrrrrrrrrrr"
};
