/* XPM */
static char *result[] = {
/* columns rows colors chars-per-pixel */
"32 32 141 2 ",
"   c #44433F",
".  c #394E59",
"X  c #03527D",
"o  c #02547F",
"O  c #03547F",
"+  c #235E7B",
"@  c #345E72",
"#  c #36647B",
"$  c #37667C",
"%  c #39667C",
"&  c #39677D",
"*  c #464541",
"=  c #474642",
"-  c #474644",
";  c #484743",
":  c #484745",
">  c #494844",
",  c #4A4945",
"<  c #494846",
"1  c #4A4947",
"2  c #4B4A46",
"3  c #4C4B47",
"4  c #464948",
"5  c #4B4A48",
"6  c #4C4B49",
"7  c #4D4C48",
"8  c #4E4D49",
"9  c #4D4C4A",
"0  c #4C4D4A",
"q  c #4D4C4B",
"w  c #4E4D4B",
"e  c #4F4E4A",
"r  c #4C4D4C",
"t  c #4D4D4C",
"y  c #4E4D4C",
"u  c #4E4E4C",
"i  c #4F4E4C",
"p  c #4E4E4D",
"a  c #4F4F4E",
"s  c #504F4B",
"d  c #504F4D",
"f  c #51504C",
"g  c #52514D",
"h  c #50504E",
"j  c #51504E",
"k  c #50504F",
"l  c #52514F",
"z  c #53524E",
"x  c #52534F",
"c  c #54534F",
"v  c #4E5050",
"b  c #4E5150",
"n  c #4A5356",
"m  c #4D5254",
"M  c #4F5757",
"N  c #4C5659",
"B  c #47595F",
"V  c #4D585B",
"C  c #4A595D",
"Z  c #4D585C",
"A  c #515150",
"S  c #525250",
"D  c #535250",
"F  c #525351",
"G  c #545351",
"H  c #555450",
"J  c #565551",
"K  c #555452",
"L  c #545453",
"P  c #565553",
"I  c #575652",
"U  c #535554",
"Y  c #555554",
"T  c #555654",
"R  c #575654",
"E  c #575754",
"W  c #565655",
"Q  c #575756",
"!  c #585753",
"~  c #585754",
"^  c #585755",
"/  c #595854",
"(  c #5A5955",
")  c #595856",
"_  c #585857",
"`  c #5A5957",
"'  c #5A5A56",
"]  c #5B5A56",
"[  c #5C5B57",
"{  c #51585A",
"}  c #595958",
"|  c #5B5A58",
" . c #5A5A59",
".. c #5C5B59",
"X. c #5D5C58",
"o. c #5E5D59",
"O. c #5D5C5A",
"+. c #5E5D5B",
"@. c #5E5E5A",
"#. c #5F5E5A",
"$. c #5F5E5C",
"%. c #605F5D",
"&. c #465D66",
"*. c #4B5C63",
"=. c #4E5C60",
"-. c #505C61",
";. c #406677",
":. c #075983",
">. c #025A88",
",. c #166993",
"<. c #146B96",
"1. c #256685",
"2. c #2F6E8B",
"3. c #2D6E8E",
"4. c #376880",
"5. c #2D7091",
"6. c #2E7294",
"7. c #307291",
"8. c #0471A9",
"9. c #0472AA",
"0. c #0473AC",
"q. c #1E7BA8",
"w. c #0476B0",
"e. c #067AB5",
"r. c #067CB8",
"t. c #067EBA",
"y. c #287BA3",
"u. c #0580BE",
"i. c #1986BC",
"p. c #148FCB",
"a. c #1590CD",
"s. c #1490CE",
"d. c #0E99DB",
"f. c #0B99DF",
"g. c #0D98DC",
"h. c #0C99DE",
"j. c #0C9BE0",
"k. c #059FE9",
"l. c #069FE9",
"z. c #069FEB",
"x. c #06A0EC",
/* pixels */
"< i K K G j 6 i i D ^ R K w j 5 s e z I H I ! H g , 2 8 H g   = ",
"j K ^ ) | ) D l ` ) ` ^ ^ D K 6 0 x ( X.( ( [ X.H z 7 e ! ] J 8 ",
"G R ^ ) | ) P K ` R K K ) ^ } p c ' @.X.] ! I / J I z ( ( H ] ! ",
"j R R P K D K P D j j j P W  .b B =.I J / / J J X.c f [ o.! J 8 ",
"i ^ R P K l G G l D G d k k R $ i.1.4 g ! / c z I c / ! I ( g = ",
"d ^ G P R G G w G K K p t 9 & p.u.:.+ &.J H g s e f [ I f f 7 f ",
"l ` D G K l G w D D A t y # a.t.O 9.f.y.C E ~ H z e e z I c s g ",
"K $.R G l i R K l j a r 4.s.r.o 8.l.j.7.M / ( z s I f g ! I I g ",
"G ` K P w D K j j K S % a.e.X 0.z.h.6.-.U Q P ^ | ) G G D D D 6 ",
"P ..^ ` G G G K i K P ;.,.>.w.x.g.5.Z } Y ^ R ` $.| P R ^ R D - ",
"l ) K R K D G ` O.D d { . <.k.d.3.V L } P R K ^ G G D ^ | | R 6 ",
"D ..^ P ^ K ^ %.O.i 9 T v @ q.2.N W W ^ D K l l w D P ^ P G G w ",
"l +.` K R K R ` R D j j q m *.n h _ ^ R D R G d d P ^ ^ l d G j ",
"6 R ^ D R G P D ` R D j 6 q F u d ^ ^ ) P ..^ K G P K K l l K d ",
"9 l K G ^ K ) K K D l R D 1 < < 9 l D ^ P ) P R P P G G d i i - ",
"i w d d G d P l i j 6 5 5 < 6 w 1 1 6 G l l w l 6 i j D d i d 1 ",
"7 3 g [ c g s s I > 2 s c g > ; : : G G i l l l w i K ^ G d 9 1 ",
"7 s z ( I / H g J 8 s f c ! f 3 w i R P K R K P l l P ) ) ^ K d ",
"e / / / H ! g s z f z s g ( J 7 D K ^ P ^ ) P R K D G P ) ..` l ",
"> I / I c I c I I J I I ! ] ! g G ^ R K ^ ^ G R P D j l K ) ^ d ",
"3 J I ! H I z ! / H J [ ] I H c D ) R P ^ P P ) ^ K D D D P P d ",
"I ! H ! J J s g I g g [ ] z z g d R P R R K ^ ) ^ P P P G G K D ",
"I I H / H ! J H ! I I X.] J ! z j K P ^ P G ` R R G K R G j j l ",
"] [ o.#.c J I I I ] / / ! ! ( s G R R | P G ` K P l G ^ D w w i ",
"D ) $.G | ^ l P R ) ` ) R R R P c J G K ) R G ^ ) l D ) ) 6 f H ",
"D R P d G G D ` R R K G K P j 6 J I D l K K D K ` D l G G w I ( ",
"w K j D K G K ` P P G l D K j < H I D i D P P P R K G l G j ! H ",
"D ..P | ` ` ^ P K ) ) K K ^ R l z I K d j P R K l D l i D D I 7 ",
"K +.P ) P ) R d j K P G G P G i c / ` G j G P D P P G d P ` X.e ",
"w K P ) ^ ` R d D G K R ) ^ j < c ( %...P ^ | R D D l i K P H * ",
"w d | +.+.| ^ P ^ ^ ` O.$.| G i f J +.+.^ ` ..) P P ^ R | ^ I > ",
"j 6 ^ R P w w G l D P ) R D j j 3 s ^ ) G G K j j d j j G l J 8 "
};
