/* XPM */
static char *result[] = {
/* columns rows colors chars-per-pixel */
"32 32 137 2 ",
"   c #44433F",
".  c #02496E",
"X  c #024970",
"o  c #024A71",
"O  c #02537D",
"+  c #1B5877",
"@  c #3F5A66",
"#  c #366275",
"$  c #31637B",
"%  c #35657B",
"&  c #31667E",
"*  c #33667F",
"=  c #464541",
"-  c #474642",
";  c #474644",
":  c #494844",
">  c #4A4945",
",  c #494846",
"<  c #4A4947",
"1  c #4B4A46",
"2  c #4C4B47",
"3  c #40484B",
"4  c #434A4A",
"5  c #464A4A",
"6  c #4B4A48",
"7  c #4A4B4A",
"8  c #4B4B4B",
"9  c #4C4B49",
"0  c #4D4C48",
"q  c #4E4D49",
"w  c #4C4C4A",
"e  c #4D4C4A",
"r  c #4C4C4B",
"t  c #4E4D4B",
"y  c #4F4E4A",
"u  c #4D4D4C",
"i  c #4E4D4C",
"p  c #4F4E4C",
"a  c #4E4E4D",
"s  c #504F4B",
"d  c #504F4D",
"f  c #4F504F",
"g  c #51504C",
"h  c #52514D",
"j  c #51504E",
"k  c #50504F",
"l  c #51514F",
"z  c #52514F",
"x  c #51524E",
"c  c #52524E",
"v  c #53524E",
"b  c #53524F",
"n  c #52534F",
"m  c #54534F",
"M  c #4E5253",
"N  c #4F5354",
"B  c #505150",
"V  c #515150",
"C  c #515251",
"Z  c #535250",
"A  c #525251",
"S  c #535251",
"D  c #535352",
"F  c #545351",
"G  c #555450",
"H  c #565551",
"J  c #545452",
"K  c #555452",
"L  c #545453",
"P  c #555553",
"I  c #565553",
"U  c #575652",
"Y  c #565753",
"T  c #545554",
"R  c #555554",
"E  c #555555",
"W  c #565554",
"Q  c #575654",
"!  c #565655",
"~  c #575756",
"^  c #585753",
"/  c #585755",
"(  c #575854",
")  c #595854",
"_  c #5A5955",
"`  c #595856",
"'  c #585857",
"]  c #5A5957",
"[  c #5B5A56",
"{  c #5C5B57",
"}  c #5B5A58",
"|  c #5C5B59",
" . c #5D5C58",
".. c #5E5D59",
"X. c #5D5C5A",
"o. c #5E5D5B",
"O. c #5F5E5A",
"+. c #5F5E5C",
"@. c #605F5D",
"#. c #415B66",
"$. c #455A64",
"%. c #465D67",
"&. c #4A616A",
"*. c #416677",
"=. c #025580",
"-. c #16668F",
";. c #186E9A",
":. c #2A6481",
">. c #2A6886",
",. c #2F6984",
"<. c #2A6D8C",
"1. c #306985",
"2. c #306A86",
"3. c #206F95",
"4. c #0474AD",
"5. c #0476B0",
"6. c #0578B3",
"7. c #0478B4",
"8. c #047BB8",
"9. c #047DBA",
"0. c #047DBB",
"q. c #1D87BB",
"w. c #0482C1",
"e. c #0E93D3",
"r. c #0F94D1",
"t. c #0D93D4",
"y. c #0C92D5",
"u. c #0C93D7",
"i. c #0D95D7",
"p. c #0B96DB",
"a. c #0B96DC",
"s. c #0B97DD",
"d. c #06A4EF",
"f. c #07A8F8",
"g. c #06A9F8",
"h. c #07A9F8",
"j. c #06A9F9",
/* pixels */
", p K K F j 9 p p Z / Q K t j 6 s y v U G U ^ G h > 1 q G h   - ",
"j K / ` } ` Z z ] ` ] / / Z K 9 0 v _  ._ _ {  .G v 0 y ^ [ H q ",
"F Q / ` } ` I K ] Q K K ` / ] p m [ O. .[ ^ U ) H U v _ _ G [ ^ ",
"j Q Q I K Z K I Z j j j I Q } z H ) U H ) ) H H  .m g { ..^ H q ",
"p / Q I K z F F z Z F d j j ` F m U m h ^ ) m v U m ) ^ U _ h - ",
"d / F I Q F F t F K K p t p / F s G U G H G h s y g { U g g 0 g ",
"z ] Z F K z F t Z Z z t j Z ` z 1 g U U H ^ ^ G v y y v U m s h ",
"K +.Q F z p Q K z j d p I Q ` 9 m G ) ) H ) _ v s U g h ^ U U h ",
"F ] K I t Z K j j K Z I X.o.} Z Z Q / ] K / I / } ` F F Z Z Z 9 ",
"I | / ] F F F K p K I ` o.@.| i C T I ] I / Q ] +.} I Q / Q Z ; ",
"z ` K Q K Z F ] X.Z d I I F ~ R V J J ] I Q K / F F Z / } } Q 9 ",
"Z | / I / K / @.X.p e I Z u D N @ %.W / A K z z t Z I / I F F t ",
"z o.] K Q K Q ] Q Z j j r k T ,.y.;.3 ! Z Q F d d I / / z d F j ",
"9 Q / Z Q F I Z ] Q Z B 8 7 1.p.9.=.-.*.P | / K F I K K z z K d ",
"e z K F / K ` K K Z V ! f :.a.7.X 6.f.q.$.' R Q I I F F d p p ; ",
"p t d d F d I z p l w 5 >.s.5.o 8.g.i.2.M z t z 9 p j Z d p d < ",
"0 2 h { m h s s U : > & u.4.. 0.j.t.* z a V z z t p K / F d e < ",
"0 s v _ U ) G h H q s #.+ O w.h.e.$ I R L Q K I z z I ` ` / K d ",
"y ) ) ) G ^ h s v g c s 4 3.d.r.% F ~ E / ` I Q K Z F I ` | ] z ",
": U ) U m U m U U H U Y ( &.<.# Z ~ ! K / / F Q I Z j z K ` / d ",
"2 H U ^ G U v ^ ) G H { [ U G m S ' Q I / I I ` / K Z Z Z I I d ",
"U ^ G ^ H H s h U h h { [ b n x d Q I Q Q K / ` / I I I F F K Z ",
"U U G ) G ^ H G ^ U U  .[ H ^ v j K I / I F ] Q Q F K Q F j j z ",
"[ { ..O.m H U U U [ ) ) ^ ^ _ s F Q Q } I F ] K I z F / Z t t p ",
"Z ` +.F } / z I Q ` ] ` Q Q Q I m H F K ` Q F / ` z Z ` ` 9 g G ",
"Z Q I d F F Z ] Q Q K F K I j 9 H U Z z K K Z K ] Z z F F t U _ ",
"t K j Z K F K ] I I F z Z K j , G U Z p Z I I I Q K F z F j ^ G ",
"Z | I } ] ] / I K ` ` K K / Q z v U K d j I Q K z Z z p Z Z U 0 ",
"K o.I ` I ` Q d j K I F F I F p m ) ] F j F I Z I I F d I ]  .y ",
"t K I ` / ] Q d Z F K Q ` / j , m _ @.| I / } Q Z Z z p K I G = ",
"t d } o.o.} / I / / ] X.+.} F p g H o.o./ ] | ` I I / Q } / U : ",
"j 9 / Q I t t F z Z I ` Q Z j j 2 s / ` F F K j j d j j F z H q "
};
