/* XPM */
static char *result[] = {
/* columns rows colors chars-per-pixel */
"32 32 144 2 ",
"   c #44433F",
".  c #3A525B",
"X  c #285166",
"o  c #325363",
"O  c #3B5561",
"+  c #315B6E",
"@  c #366175",
"#  c #35647B",
"$  c #464541",
"%  c #474642",
"&  c #414647",
"*  c #474644",
"=  c #474745",
"-  c #474746",
";  c #494844",
":  c #4A4945",
">  c #494846",
",  c #494947",
"<  c #4A4947",
"1  c #4B4A46",
"2  c #4A4B47",
"3  c #4C4B47",
"4  c #4B4A48",
"5  c #4B4B49",
"6  c #4A4B4A",
"7  c #4B4B4B",
"8  c #4C4B49",
"9  c #4D4C48",
"0  c #4D4D49",
"q  c #4E4D49",
"w  c #4D4C4A",
"e  c #4C4C4B",
"r  c #4E4D4B",
"t  c #4F4E4A",
"y  c #4F4E4C",
"u  c #4F4F4C",
"i  c #504F4B",
"p  c #504F4C",
"a  c #504F4D",
"s  c #51504C",
"d  c #51504D",
"f  c #50514D",
"g  c #52514D",
"h  c #50504E",
"j  c #51504E",
"k  c #52514F",
"l  c #53524E",
"z  c #54534F",
"x  c #4C5557",
"c  c #4F5656",
"v  c #47575C",
"b  c #48565B",
"n  c #515150",
"m  c #505151",
"M  c #525150",
"N  c #525250",
"B  c #535250",
"V  c #505352",
"C  c #535352",
"Z  c #545350",
"A  c #545351",
"S  c #545352",
"D  c #555450",
"F  c #555451",
"G  c #565551",
"H  c #545452",
"J  c #555452",
"K  c #545453",
"L  c #545553",
"P  c #565552",
"I  c #565553",
"U  c #575652",
"Y  c #555554",
"T  c #575654",
"R  c #575756",
"E  c #585753",
"W  c #585755",
"Q  c #595854",
"!  c #5A5955",
"~  c #595856",
"^  c #585857",
"/  c #595857",
"(  c #595957",
")  c #5A5957",
"_  c #5B5A56",
"`  c #5C5B57",
"'  c #505759",
"]  c #5B5A58",
"[  c #5C5B59",
"{  c #5D5C58",
"}  c #5E5D59",
"|  c #5D5C5A",
" . c #5E5D5B",
".. c #5F5E5A",
"X. c #5D5D5C",
"o. c #5E5E5C",
"O. c #5F5E5C",
"+. c #605F5D",
"@. c #405964",
"#. c #415B66",
"$. c #435B66",
"%. c #425C67",
"&. c #4B5D65",
"*. c #405C68",
"=. c #525D62",
"-. c #44606D",
";. c #4A626C",
":. c #416271",
">. c #035E8D",
",. c #035F8F",
"<. c #0A5E8A",
"1. c #106089",
"2. c #036090",
"3. c #036192",
"4. c #036396",
"5. c #036496",
"6. c #036699",
"7. c #256483",
"8. c #37718D",
"9. c #2B7092",
"0. c #1F7CAA",
"q. c #1E7CAB",
"w. c #1E7EAA",
"e. c #1D7DAC",
"r. c #1D7EAD",
"t. c #0E7DB4",
"y. c #287AA2",
"u. c #1180B7",
"i. c #1F82B2",
"p. c #1F83B4",
"a. c #2280AE",
"s. c #0889CA",
"d. c #098ACB",
"f. c #088ACC",
"g. c #088BCC",
"h. c #118FCA",
"j. c #068ED2",
"k. c #0590D5",
"l. c #0591D7",
"z. c #0592D7",
"x. c #09A0E9",
"c. c #09A0EA",
"v. c #0AA1EB",
"b. c #09A2EC",
/* pixels */
"> y J J A j 8 y y B W T J r j 4 i t l U D U E D g : 1 q D g   % ",
"j J W ~ ] ~ B k ) ~ ) W W B J 8 9 l ! { ! ! ` { D l 9 t E _ G q ",
"A T W ~ ] ~ I J ) T J J ~ W ) y z _ ..{ _ E U Q G U l ! ! D _ E ",
"j T T I J B J I B j j j I T ] k G Q U G Q Q G G { z s ` } E G q ",
"y W T I J k A A k B A a j j ~ A z U z g E Q z l U z Q E U ! g % ",
"a W A I T A A r A J J y r y W A p F U D G D g i t s ` U s s 9 s ",
"k ) B A J k A r B B k r j B ~ n 2 f U U G E E D l t t l U z i g ",
"J O.T A k y T J k j a y I T ^ 6 x c Q Q G Q ! l i U s g E U U g ",
"A ) J I r B J j j J B I | X.( %.9.@ m ) J W I W ] ~ A A B B B 8 ",
"I [ W ) A A A J y J I / X.o.;.0.d.1.o =.I W T ) O.] I T W T B * ",
"k ~ J T J B A ) | B a Y H $.a.g.6.5.u.8.' T J W A A B W ] ] T 8 ",
"B [ W I W J W +.| y e L #.q.f.4.>.j.b.y.b K M k r B I W I A A r ",
"k  .) J T J T ) T B h @.e.s.3.,.k.v.p.:.V T A a a I W W k a A j ",
"8 T W B T A I B ) T N # t.5.2.l.c.i.-.R Y [ W J A I J J k k J a ",
"w k J A W J ~ J J B k &.X <.z.x.r.*.N R Y ~ I T I I A A a y y * ",
"y r a a A a I k y j 8 5 & 7.h.w.O , 7 C k k r k 8 y j B a y a < ",
"9 3 g ` z g i i U ; 1 u Z v + . = - S A y k k k r y J W A a w < ",
"9 i l ! U Q D g G q i s z E d 3 r y T I J T J I k k I ~ ~ W J a ",
"t Q Q Q D E g i l s l i g ! P 0 B J W I W ~ I T J B A I ~ [ ) k ",
"; U Q U z U z U U G U U E _ E g A W T J W W A T I B j k J ~ W a ",
"3 G U E D U l E Q D G ` _ U D z B ~ T I W I I ~ W J B B B I I a ",
"U E D E G G i g U g g ` _ l l g a T I T T J W ~ W I I I A A J B ",
"U U D Q D E G D E U U { _ G E l j J I W I A ) T T A J T A j j k ",
"_ ` } ..z G U U U _ Q Q E E ! i A T T ] I A ) J I k A W B r r y ",
"B ~ O.A ] W k I T ~ ) ~ T T T I z G A J ~ T A W ~ k B ~ ~ 8 s D ",
"B T I a A A B ) T T J A J I j 8 G U B k J J B J ) B k A A r U ! ",
"r J j B J A J ) I I A k B J j > D U B y B I I I T J A k A j E D ",
"B [ I ] ) ) W I J ~ ~ J J W T k l U J a j I T J k B k y B B U 9 ",
"J  .I ~ I ~ T a j J I A A I A y z Q ) A j A I B I I A a I ) { t ",
"r J I ~ W ) T a B A J T ~ W j > z ! +.[ I W ] T B B k y J I D $ ",
"r a ]  . .] W I W W ) | O.] A y s G  . .W ) [ ~ I I W T ] W U ; ",
"j 8 W T I r r A k B I ~ T B j j 3 i W ~ A A J j j a j j A k G q "
};
