/* XPM */
static char *result[] = {
/* columns rows colors chars-per-pixel */
"32 32 88 1 ",
"  c #273A1D",
". c #283B1E",
"X c #721B17",
"o c #741D1A",
"O c #781C1B",
"+ c #4A310E",
"@ c #572F13",
"# c #5E3214",
"$ c #5F371E",
"% c #67230C",
"& c #6C210A",
"* c #6D290E",
"= c #682610",
"- c #642A14",
"; c #6D261E",
": c #792814",
"> c #722A18",
", c #613516",
"< c #7E1622",
"1 c #7C1C22",
"2 c #4B3921",
"3 c #5F3B2D",
"4 c #5F3E35",
"5 c #53422D",
"6 c #4B4334",
"7 c #44433F",
"8 c #534331",
"9 c #5C4233",
"0 c #55463B",
"q c #58433A",
"w c #514839",
"e c #474643",
"r c #4A4743",
"t c #474840",
"y c #4B4946",
"u c #4E4D4A",
"i c #544D44",
"p c #5A4F45",
"a c #504F4C",
"s c #52514E",
"d c #5B544D",
"f c #555452",
"g c #585754",
"h c #5A5956",
"j c #5D5C59",
"k c #605F5D",
"l c #871F0D",
"z c #8B1E0F",
"x c #971413",
"c c #9C1414",
"v c #951E12",
"b c #991D12",
"n c #B50C1B",
"m c #BA0A1B",
"M c #AC1617",
"N c #AE1719",
"B c #A51D1C",
"V c #B41019",
"C c #BE141B",
"Z c #85200D",
"A c #8D2412",
"S c #8C241E",
"D c #9A2317",
"F c #95221D",
"G c #9A221C",
"H c #8A0B2E",
"J c #920A2C",
"K c #801424",
"L c #851229",
"P c #8B112D",
"I c #841E29",
"U c #881C2A",
"Y c #8D0D30",
"T c #930B35",
"R c #95023B",
"E c #9D023C",
"W c #990939",
"Q c #AC0933",
"! c #A1013E",
"~ c #B50037",
"^ c #BC0034",
"/ c #C3121D",
"( c #CE0621",
") c #D30522",
"_ c #DA0023",
"` c #D20921",
"' c #D0002A",
"] c #E20026",
/* pixels */
"yufffsuuusgffuuuuusffggds77afst7",
"sfggjgssjgjghsfuushjhhhjffuihhfi",
"fgggjhffggffhhhufhkjhgggdgshhfhh",
"aggffsfgssssfgjsfggfggdgjfshhhfu",
"aggffsffuffusshsffssggssffggggs7",
"agfffffufffuu2++++5fdssuushgssws",
"ajfffffusfs6 B//C/G.wdgdsuwfgsss",
"fkffuufff0,FC)____)CS3psugssgggs",
"fgffusfsq@v)________(A,phhffssft",
"fjgjffsf4S__]_________Aikhfgggft",
"agfffffp@bnZzzzzzzlM(_b#ifsghhhu",
"fjjfgfgs:NN)((((`))mM))>tfggfffu",
"akjffffp*b]____)____xn_Dtfggssfs",
"ufffffsXnb__________cm_`#fffssfa",
"uaffjfg%VD__________cm_`-gffaaat",
"uuaafuf;Vb]_________cm_(#assauay",
"yysjssi&Vb________)_cm_`-afgfsuy",
"yishggf&Vb]_________cm_`-sfggggu",
"shggdgs&Vb__________cn_Q-sffgjja",
"tgggsgs%Pv__________cn~W-fssfjgu",
"ydggsgs%L1~________^KJ!W;fsfsffa",
"hhsgffs%Y1R~'''''(^ROH!W@gffffff",
"ggdgdhg%ETOHHHHHHHH<XLEW;afgfsas",
"hhjkssg%E!TKKKO%%<<HEH<T$afgsuuu",
"shksjfs9IIIUUUI3=E!!E!H1@ashhuuf",
"sgfsfffd8655558r=RERERE;4ssffufh",
"ufssfffhfffsffae4ooo1X<4ffssfsgf",
"sjfjhhgffhhffggfsffaafffsfsassfu",
"fkfhgggssffffffafghffffffffufhjs",
"uffhgggasfffggayshkjffjffsssfffe",
"uajjjjgfgggjkhfuugjkfjjhffgfhgfe",
"auggfuufsfgggfssyaggfffsssssfsfa"
};
