/* XPM */
static char *result[] = {
/* columns rows colors chars-per-pixel */
"32 32 255 2 ",
"   c #721F17",
".  c #761A19",
"X  c #76191B",
"o  c #751A1B",
"O  c #761A1A",
"+  c #77191C",
"@  c #781A19",
"#  c #7D191B",
"$  c #48300E",
"%  c #4A300E",
"&  c #4A310F",
"*  c #5C2C10",
"=  c #5C2C11",
"-  c #5D2C12",
";  c #5F2C13",
":  c #5F2C14",
">  c #5F2D15",
",  c #4B3211",
"<  c #45371A",
"1  c #4A331C",
"2  c #4D371C",
"3  c #5C341E",
"4  c #692E07",
"5  c #69270D",
"6  c #602B0D",
"7  c #742909",
"8  c #602A13",
"9  c #622C13",
"0  c #632916",
"q  c #632917",
"w  c #632A17",
"e  c #642815",
"r  c #652815",
"t  c #642A17",
"y  c #602D14",
"u  c #612D14",
"i  c #6F291C",
"p  c #732E16",
"a  c #792F1A",
"s  c #7B281C",
"d  c #693217",
"f  c #7F1322",
"g  c #7D1622",
"h  c #7D1923",
"j  c #7F1B24",
"k  c #5B3521",
"l  c #5C3B27",
"z  c #573A29",
"x  c #563E29",
"c  c #5B3E29",
"v  c #5E3B2F",
"b  c #6D2A22",
"n  c #42402F",
"m  c #44433F",
"M  c #544232",
"N  c #534431",
"B  c #564637",
"V  c #534438",
"C  c #5A463E",
"Z  c #544B3F",
"A  c #5B4A3F",
"S  c #464541",
"D  c #474642",
"F  c #474644",
"G  c #494844",
"H  c #4A4945",
"J  c #494846",
"K  c #4A4947",
"L  c #4B4A46",
"P  c #4C4B47",
"I  c #4B4A48",
"U  c #4C4B49",
"Y  c #4D4C48",
"T  c #4E4D49",
"R  c #4D4C4A",
"E  c #4E4D4B",
"W  c #4F4E4A",
"Q  c #4F4E4C",
"!  c #504B46",
"~  c #514E4A",
"^  c #504F4B",
"/  c #504F4D",
"(  c #514F4D",
")  c #524F4C",
"_  c #53534B",
"`  c #565049",
"'  c #51504C",
"]  c #52504D",
"[  c #52514D",
"{  c #51504E",
"}  c #52514E",
"|  c #52514F",
" . c #53524E",
".. c #56524D",
"X. c #54534F",
"o. c #57534F",
"O. c #5A514A",
"+. c #535250",
"@. c #545351",
"#. c #555351",
"$. c #555450",
"%. c #565450",
"&. c #565551",
"*. c #555452",
"=. c #565553",
"-. c #575652",
";. c #575654",
":. c #595650",
">. c #585652",
",. c #585753",
"<. c #5B5753",
"1. c #585755",
"2. c #5A5754",
"3. c #5F5953",
"4. c #595854",
"5. c #5A5954",
"6. c #5A5955",
"7. c #595856",
"8. c #5A5956",
"9. c #5A5957",
"0. c #5B5A56",
"q. c #5C5B57",
"w. c #5B5A58",
"e. c #5C5B59",
"r. c #5D5C58",
"t. c #5E5D59",
"y. c #5D5C5A",
"u. c #5E5D5B",
"i. c #5F5E5A",
"p. c #5F5E5C",
"a. c #605F5D",
"s. c #8C1A10",
"d. c #8D1A10",
"f. c #8C1A11",
"g. c #911910",
"h. c #931810",
"j. c #9F1A14",
"k. c #9F1A15",
"l. c #AF0F18",
"z. c #B10F18",
"x. c #B20F18",
"c. c #B40E19",
"v. c #BE0D1B",
"b. c #BE0E1B",
"n. c #BC0B1D",
"m. c #BF0B1C",
"M. c #BF0B1D",
"N. c #BE0C1C",
"B. c #BF0D1D",
"V. c #BE0E1C",
"C. c #AD1217",
"Z. c #AB1516",
"A. c #AB1517",
"S. c #A81716",
"D. c #AC1617",
"F. c #A41A10",
"G. c #A01914",
"H. c #A01A14",
"J. c #A61718",
"K. c #AE141D",
"L. c #B41519",
"P. c #B3141C",
"I. c #B7161F",
"U. c #872311",
"Y. c #8E2310",
"T. c #81271B",
"R. c #8B092F",
"E. c #8C0B2E",
"W. c #8D0B2F",
"Q. c #8A0D2C",
"!. c #8B0C2E",
"~. c #9A0C2D",
"^. c #980E2E",
"/. c #821123",
"(. c #801322",
"). c #811223",
"_. c #821125",
"`. c #821726",
"'. c #831B21",
"]. c #831328",
"[. c #851328",
"{. c #85152B",
"}. c #88122A",
"|. c #8A112E",
" X c #821B2B",
".X c #890B30",
"XX c #8C0E31",
"oX c #920935",
"OX c #9A033A",
"+X c #9A073A",
"@X c #9B073A",
"#X c #9B073B",
"$X c #9C003C",
"%X c #9D003C",
"&X c #9D003D",
"*X c #9E013C",
"=X c #9E003D",
"-X c #9F003D",
";X c #9E013D",
":X c #9F013D",
">X c #9F003E",
",X c #9F013E",
"<X c #9D073C",
"1X c #990939",
"2X c #9A083A",
"3X c #9B093A",
"4X c #9D093A",
"5X c #9E093C",
"6X c #A4003B",
"7X c #A1003F",
"8X c #A1013F",
"9X c #A8013E",
"0X c #B20932",
"qX c #C00B1B",
"wX c #C40E18",
"eX c #C20A1D",
"rX c #C5091E",
"tX c #C50F1D",
"yX c #C60E1E",
"uX c #C80B1E",
"iX c #C8101F",
"pX c #CB0620",
"aX c #CE0520",
"sX c #C80B21",
"dX c #CE0C21",
"fX c #C4002E",
"gX c #CE002B",
"hX c #CF002B",
"jX c #CC002D",
"kX c #CE002C",
"lX c #D30523",
"zX c #D70523",
"xX c #D00027",
"cX c #D80023",
"vX c #D90023",
"bX c #DA0022",
"nX c #DA0023",
"mX c #DB0023",
"MX c #D80323",
"NX c #DA0024",
"BX c #DB0024",
"VX c #DB0124",
"CX c #DC0024",
"ZX c #DE0024",
"AX c #DF0024",
"SX c #D00821",
"DX c #D20922",
"FX c #D30922",
"GX c #D40922",
"HX c #C21121",
"JX c #C50030",
"KX c #CD0130",
"LX c #E00024",
"PX c #E00124",
"IX c #E00125",
/* pixels */
"J Q *.*.@.{ U Q Q +.1.;.*.E { I ^ W  .-.$.-.,.$.[ H L T $.[ m D ",
"{ *.1.7.w.7.+.| 9.7.9.1.1.+.*.U Y  .6.r.6.6.q.r.$. .Y W ,.0.&.T ",
"@.;.1.7.w.7.=.*.9.;.*.*.7.1.9.Q X.0.i.r.0.,.-.4.&.-. .6.6.$.0.,.",
"{ ;.;.=.*.+.*.=.+.{ { { =.;.w.| &.4.-.&.4.4.&.&.r.X.' q.t.,.&.T ",
"Q 1.;.=.*.| @.@.| +.@./ { { 7.@.X.-.X.[ ,.4.X. .-.X.4.,.-.6.[ D ",
"/ 1.@.=.;.@.@.E @.*.*.Q E Q 1.@.^ $.-.$.&.$.[ ^ W ' q.-.' ' Y ' ",
"| 9.+.@.*.| @.E +.+.] E ~ 2 , & $ % Z -.%.>.,.$. .W W  .-.X.^ [ ",
"*.p.;.@.| Q ;.*.} ( ! z 1 I.tXyXtXiXi 3 ` :.5. .^ -.' [ ,.-.-.[ ",
"@.9.*.=.E +.*.{ ) B d K.dXMXNXBXNXVXSXuXa c o.1.w.7.@.@.+.+.+.U ",
"=.e.1.9.@.@.@.#.V 4 J.VXcXnXnXnXnXnXvXcXsX7 l 8.p.w.=.;.1.;.+.F ",
"| 7.*.;.*.+.@.<.N Y.VXeXl.z.z.z.z.x.z.c.nXL.< O.@.@.+.1.w.w.;.U ",
"+.e.1.=.1.*.1.3.p n.rXS.A.Z.A.Z.Z.Z.A.A.C.pXU.M E +.=.1.=.@.@.E ",
"| u.9.*.;.*.;._ s lXG.aXLXZXAXAXAXAXAXCXD.N.P.n / =.1.1.| / @.{ ",
"U ;.1.+.;.@.=.k HXB.g.nXvXnXnXnXnXnXnXvXM.k.zXT.@.=.*.*.| | *./ ",
"R | *.@.1.*.7.- DXb.h.nXnXnXnXnXnXnXnXvXm.H.PXf.=.=.@.@./ Q Q F ",
"Q E / / @./ =.= GXb.h.mXnXnXnXnXnXnXnXvXm.H.PXd.U Q { +./ Q / K ",
"Y P [ q.X.[ ^ * GXv.h.mXnXnXnXnXnXnXnXvXm.H.PXs.E Q *.1.@./ R K ",
"Y ^  .6.-.4.$.* GXb.h.mXnXnXnXnXnXnXnXvXm.H.PXs.| | =.7.7.1.*./ ",
"W 4.4.4.$.,.[ * FXV.h.nXnXnXnXnXnXnXnXvXm.j.IXs.*.+.@.=.7.e.9.| ",
"G -.4.-.X.-.X.u 0XwXh.nXvXnXnXnXnXnXnXcXqXF.KX@ =.+.{ | *.7.1./ ",
"P &.-.,.$.-. .y 4X^.# fXvXbXbXbXbXbXnXxX~.'.9Xo 1.*.+.+.+.=.=./ ",
"-.,.$.,.&.&.^ ; 3XoXh OXJXhXgXgXgXkXjX6X|.{.8XO 1.=.=.=.@.@.*.+.",
"-.-.$.4.$.,.&.: 1X>XE.[.R..X.X.X.X.X.XW.g *X;XX ;.@.*.;.@.{ { | ",
"0.q.t.i.X.&.-.> 2X%X=X!.f ).)..   /.(._.%X%X,X+ =.| @.1.+.E E Q ",
"+.7.p.@.w.1.| 6 j :X$X=X-X=X>XQ.].7X=X=X&X-XXX5 7.| +.7.7.U ' $.",
"+.;.=./ @.@.+.A b 5X+X#X@X@X#X}.`.<X@X@X#X<X Xx 9.+.| @.@.E -.6.",
"E *.{ +.*.@.*.2.C e w q w w 0 8 9 t w 0 w r v ..;.*.@.| @.{ ,.$.",
"+.e.=.w.9.9.1.=.*.7.7.*.*.1.;.|  .-.*./ { =.;.*.| +.| Q +.+.-.Y ",
"*.u.=.7.=.7.;./ { *.=.@.@.=.@.Q X.4.9.@.{ @.=.+.=.=.@./ =.9.r.W ",
"E *.=.7.1.9.;./ +.@.*.;.7.1.{ J X.6.a.e.=.1.w.;.+.+.| Q *.=.$.S ",
"E / w.u.u.w.1.=.1.1.9.y.p.w.@.Q ' &.u.u.1.9.e.7.=.=.1.;.w.1.-.G ",
"{ U 1.;.=.E E @.| +.=.7.;.+.{ { P ^ 1.7.@.@.*.{ { / { { @.| &.T "
};
