/* XPM */
static char *result[] = {
/* columns rows colors chars-per-pixel */
"32 32 114 2 ",
"   c #3A3517",
".  c #3D3719",
"X  c #5B0401",
"o  c #5B1600",
"O  c #701F17",
"+  c #7A1E14",
"@  c #731E19",
"#  c #5F2805",
"$  c #4A310F",
"%  c #423517",
"&  c #4B3210",
"*  c #4C321A",
"=  c #5C3115",
"-  c #5A351D",
";  c #523819",
":  c #672506",
">  c #622C09",
",  c #71220C",
"<  c #6C2A17",
"1  c #71261E",
"2  c #722E1F",
"3  c #753219",
"4  c #7D1D25",
"5  c #46302D",
"6  c #4C3E2C",
"7  c #513D25",
"8  c #5E3F33",
"9  c #7C2522",
"0  c #7F2F32",
"q  c #683830",
"w  c #7A3033",
"e  c #44433F",
"r  c #514535",
"t  c #5C4334",
"y  c #53463C",
"u  c #474643",
"i  c #4A4946",
"p  c #4E4D4A",
"a  c #534B44",
"s  c #504F4C",
"d  c #52514E",
"f  c #5A524B",
"g  c #555452",
"h  c #585754",
"j  c #5A5956",
"k  c #5D5C59",
"l  c #605F5D",
"z  c #5D615E",
"x  c #62605C",
"c  c #5E6B6E",
"v  c #61797F",
"b  c #7E7179",
"n  c #861E0F",
"m  c #891E0E",
"M  c #9D1415",
"N  c #941F13",
"B  c #921F1B",
"V  c #A40F15",
"C  c #AB0E15",
"Z  c #BB091F",
"A  c #AA1317",
"S  c #A41817",
"D  c #A71C1E",
"F  c #B6121A",
"G  c #BD141C",
"H  c #96231E",
"J  c #98092F",
"K  c #85162B",
"L  c #8B122D",
"P  c #910C34",
"I  c #9E003D",
"U  c #9A0A38",
"Y  c #8E1431",
"T  c #901431",
"R  c #B01423",
"E  c #AD0A31",
"W  c #A1013D",
"Q  c #BC0032",
"!  c #8E2B2E",
"~  c #A62224",
"^  c #A4343C",
"/  c #C60E1E",
"(  c #D4001F",
")  c #C60626",
"_  c #CF0521",
"`  c #CE0E21",
"'  c #C3002F",
"]  c #C8002D",
"[  c #D30422",
"{  c #DA0023",
"}  c #D20A20",
"|  c #D10028",
" . c #DA0428",
".. c #DB0B2C",
"X. c #A30140",
"o. c #826D74",
"O. c #647D83",
"+. c #957D81",
"@. c #76929B",
"#. c #899EA9",
"$. c #87A4AE",
"%. c #85A6B2",
"&. c #8FB1BF",
"*. c #A9AEB1",
"=. c #93B4C1",
"-. c #96BAC7",
";. c #99BECD",
":. c #A1BDC9",
">. c #9CC3D2",
",. c #A1C8D7",
"<. c #A3C9D9",
"1. c #A9CCDA",
"2. c #D6E7ED",
"3. c #D8EDF6",
/* pixels */
"i p g g g d p p p g h h g p d p p p d h f g j f d e i p g d e e ",
"d g h h k h d d j h j h h d g p i d h k j j z j f g a p h j h p ",
"g h h h j j g g j h g g j j j s g j z k j g g j h g g j j g j h ",
"s h h g g g g g d g s d g h j d g j g g g z f g z d s j z j j y ",
"s h g g g d g g d d g s s s h d g g g d h h d d h d j g g j d e ",
"s h g g h g g p g g g p r $ & & $ 7 f g h d d s p a z g s s y d ",
"d j g g g g g p d d a = B / ` / / D * t d h h d d s p d h d d d ",
"g z g g s p g g d y = N _ { { { { [ ` H r f f f a h d d h g h d ",
"g j g g p s g s p - B {  .{ { { { { { S > > 3 f z g g g g g d e ",
"g k h k g g g g i 1 Z Z Z Z [ { { { { { M # ( 3 f j g h h g h e ",
"d h g g g g g j 5 +.b o.o.b ^ [ { { { { { : A G . g d h h z h p ",
"g k j g g g j 8 *.3.;.,.>.<.#.~ [ { { { { F , G . g h j g g g s ",
"d z k g g g j X 2.3.>.,.;.;.-.w ..{ { { { { N G   g j j s s g d ",
"p g g g g g j o :.1.;.>.,.;.-.0 ..{ { { { { m G   g g g d d g s ",
"p s g g k g h o =.;.;.>.;.>.@.2 { { { { { { n G . j g d s s p u ",
"p p s s g p g X =.,.;.=.=.@.O.9  .{ { { { } m D   s d d s s s i ",
"a i f j g s s : $.&.%.v O.O.c H { { { { { { m R % p g h g p p i ",
"p s d j g h f ; h j j l x z ! ( { { { { { ] + Y * d h j h h h s ",
"p h j j g g d s = S A C C V [ { { { { { ' W @ T ; d g g h k j g ",
"e h j g g g g g = ( { { { { {  .{ { { ' W I @ Y ; d d d g h h p ",
"p g h h g g d g = E { [ _ _ _  .{ { { Q I I @ T 7 g g g g g g d ",
"h h f h g g f s = U W J @ , , ) _ | Q I I I @ L * g g g g g g d ",
"h f g g d j h d - P W W X.4 P I I I I I I I O K 7 g g g g d d d ",
"j k k z f g h g f q L L L 4 P I I I I I I I < t g d g g d p p p ",
"d j z g j h d g g g 8 8 - P X.X.X.X.X.X.X.Y 8 g j d d j j p s g ",
"d j g s g d f z h h g g 6 9 4 K 0 4 4 4 4 6 g g j g d g g p g h ",
"p d s s g d d z h g g d g g s i d h d p g g g g h g g d g d h g ",
"g z g z j j h d g j j g g h h s d h g d d g g g d d d p d d g p ",
"g k g h g j g d s g g g g h d p d j j d g g g g g g g d g k k p ",
"s g g h j j g d g g g g h j d i g j l k g g k g g d d p g g g u ",
"p s k z z k h g h h k k l j g p d g l k g k k h g g h g j h g u ",
"s p h g g p p g s g g h g g d d i p h j g g g d d d d d g g g p "
};
