/* XPM */
static char *result[] = {
/* columns rows colors chars-per-pixel */
"32 32 111 2 ",
"   c #701D1D",
".  c #781E1F",
"X  c #4F2902",
"o  c #542A02",
"O  c #592A01",
"+  c #58270A",
"@  c #542F11",
"#  c #4E3214",
"$  c #5A3314",
"%  c #573419",
"&  c #5F331B",
"*  c #50381F",
"=  c #64260A",
"-  c #6E2508",
";  c #6B2414",
":  c #632A16",
">  c #6C2A1C",
",  c #722219",
"<  c #752A1C",
"1  c #731A23",
"2  c #781E20",
"3  c #443D24",
"4  c #5F3425",
"5  c #6C2920",
"6  c #722120",
"7  c #7A2624",
"8  c #6C3027",
"9  c #474334",
"0  c #4B4634",
"q  c #44433F",
"w  c #574636",
"e  c #63473C",
"r  c #474643",
"t  c #4A4946",
"y  c #4E4D4A",
"u  c #544B43",
"i  c #584B43",
"p  c #504F4C",
"a  c #52514E",
"s  c #59524B",
"d  c #555452",
"f  c #585754",
"g  c #5A5956",
"h  c #5D5C59",
"j  c #704545",
"k  c #7B4343",
"l  c #704B49",
"z  c #67514E",
"x  c #77504F",
"c  c #685451",
"v  c #605F5D",
"b  c #73615D",
"n  c #7F5D61",
"m  c #5C7277",
"M  c #5E7378",
"N  c #62797E",
"B  c #871F0F",
"V  c #8B1E16",
"C  c #9C1615",
"Z  c #961E11",
"A  c #BE0D1E",
"S  c #A61E15",
"D  c #AF1518",
"F  c #B41516",
"G  c #B41419",
"H  c #B1181B",
"J  c #88200D",
"K  c #88271F",
"L  c #84291E",
"P  c #8C2A1E",
"I  c #8D0C33",
"U  c #920934",
"Y  c #9F0830",
"T  c #9D003C",
"R  c #9A083A",
"E  c #8D1432",
"W  c #BC0725",
"Q  c #BE0E21",
"!  c #BC032F",
"~  c #A50337",
"^  c #AE0036",
"/  c #A0013E",
"(  c #BF0030",
")  c #B00139",
"_  c #82282A",
"`  c #CA071F",
"'  c #C50A1E",
"]  c #C8081C",
"[  c #CD0422",
"{  c #CB0A22",
"}  c #C1002F",
"|  c #D40323",
" . c #DA0023",
".. c #DC0228",
"X. c #DB0C2C",
"o. c #647D83",
"O. c #698187",
"+. c #6F888F",
"@. c #6E8991",
"#. c #728E97",
"$. c #86A5B1",
"%. c #93B5C2",
"&. c #98BFCF",
"*. c #9BC0CF",
"=. c #9CC2D1",
"-. c #A0C5D4",
";. c #A4C9D9",
":. c #BEDBE6",
">. c #CCE4ED",
",. c #D2EAF2",
"<. c #E0F2F8",
/* pixels */
"r q a d y t t s d f s d f a p p q a t f f f d y p y a d d d y t ",
"y d g f p t a d h g g g h g f q a f a f f g f g a a f h f f d a ",
"f g d g g s f d g f f g h v f s a f f f d d f f d f f h f f f d ",
"y s f h g p s h f s g g s f f g a g f f a a y d d d a d f f d p ",
"q f g d f g a f a d f s a s f a d f u p p a a a d a a d d f f y ",
"a 0 a a f g a y p a d d s f 0 3 3 3 9 0 p d d d y d d f f d f y ",
"a a d d a p y a d f f d u 0 P S S S S L 0 u s d y a a d d d h a ",
"a f s f a p d a a g g u K D `  .X.| | ] J $ u a d f y a a d v d ",
"t d a d d d f g d * % @ C  . . . . . . .[ B # y a d a y d d h a ",
"q d f f d d g g 4 H o J |  . . . . .[ | | { 2 t d d d d h f h d ",
"t f g h f d d * A ' - {  . . . . .Q j k k k x 5 d d a d d d h y ",
"y d d d f f a X ' = J  . . . . .{ b ;.=.=.=.,.x h f d f d h h a ",
"a d p a f f d X ' Z  . . . . .X._ %.*.=.&.&.,.<.o.d d f d h h d ",
"y d a a d d f X ' Z  . . . . .X._ *.*.=.-.&.:.>.n d d f d d d t ",
"r y p p d d d X ' Z  . . . . .X.7 $.=.*.&.-.&.&.z d d f d d d t ",
"t a p p a a y X ' Z  . . . . . .< N $.=.-.&.&.&.z a p d p p y y ",
"t y p d f d y X ] Z .. . . . . .< M O.#.@.%.=.=.c a a a h a y y ",
"p d f f f d a o Y V .. . . . . .A l M m m O.@.+.e s g d g a p t ",
"p h h f f d a O U . ) |  . . . . .A 8 < < < < & u a d d g f f p ",
"p f f f a a d O U . T ^ |  . . . . .........| : s a d s s g f q ",
"p d d d d a d O U . / T ( .. . . . . . . . .[ = s s d d g f d q ",
"d d d a d d d O U   / T ) |  . . .F G F W } ~ = 0 a d d g d g g ",
"a a a a d d d O U . / T T ) ( ( ! , + 1 I T T = s f f s g d f s ",
"y y y a f d d w , , / T T T T T R U ; / T / R = s f f a h h h h ",
"d a t h d a a f i 6 / / T T T T T I ; T T T T = s a f h d v f d ",
"h d y d d a a h p 8 R R R R R R R E > R R R U $ s a a d p d f a ",
"d f p d a d d d d i & & : : : : : 8 u : : : 4 y f a f d a p d y ",
"y d d a y a a a d d a a y d f d a d f f d f f d f f g g h f h a ",
"y h h d a d d d a f a a d g f d y a d d a f d a y f f d g f h d ",
"r a d a p a d d f g f f h v g a t a f g f d d a a f h f g d d y ",
"t f h h f f d d f h g f v h d y y d g v h h f f d f h h h h p y ",
"y d a a a a p p a d d d g f a t a a a f f f a a d y y d f f y p "
};
