/* XPM */
static char *result[] = {
/* columns rows colors chars-per-pixel */
"32 32 151 2 ",
"   c black",
".  c #0A0300",
"X  c #000A03",
"o  c #001717",
"O  c #0C1B17",
"+  c #00191F",
"@  c #181014",
"#  c #131916",
"$  c #220009",
"%  c #3B000D",
"&  c #290010",
"*  c #220B12",
"=  c #300011",
"-  c #3D0016",
";  c #36021F",
":  c #3F021C",
">  c #3C0B1D",
",  c #201A19",
"<  c #22201E",
"1  c #2E0022",
"2  c #3E1321",
"3  c #341C22",
"4  c #381E24",
"5  c #002323",
"6  c #00292C",
"7  c #1E292D",
"8  c #19302E",
"9  c #252C2A",
"0  c #372929",
"q  c #26332F",
"w  c #28302D",
"e  c #233732",
"r  c #293330",
"t  c #28373A",
"y  c #343432",
"u  c #383A36",
"i  c #3C3C3A",
"p  c #5B0000",
"a  c #5E080F",
"s  c #43021C",
"d  c #510014",
"f  c #411413",
"g  c #4E1614",
"h  c #5F1511",
"j  c #511D1A",
"k  c #610000",
"l  c #620D07",
"z  c #6B0B03",
"x  c #730000",
"c  c #7C0100",
"v  c #661814",
"b  c #4E0725",
"n  c #530325",
"m  c #5A0026",
"M  c #5D0429",
"N  c #5B082B",
"B  c #6C0333",
"V  c #660832",
"C  c #6B0933",
"Z  c #6C0839",
"A  c #720135",
"S  c #730A37",
"D  c #7B0C35",
"F  c #760438",
"G  c #740B39",
"H  c #7A0C3C",
"J  c #741139",
"K  c #79123C",
"L  c #4F2829",
"P  c #542A2B",
"I  c #37413E",
"U  c #43423F",
"Y  c #1D4F55",
"T  c #214044",
"R  c #384747",
"E  c #334846",
"W  c #3B5E63",
"Q  c #3C6167",
"!  c #3D626A",
"~  c #434542",
"^  c #494744",
"/  c #414944",
"(  c #4B4946",
")  c #434B4A",
"_  c #4E4D4A",
"`  c #514E4C",
"'  c #4D514E",
"]  c #52514E",
"[  c #4D5754",
"{  c #495B5E",
"}  c #555451",
"|  c #595654",
" . c #575855",
".. c #595956",
"X. c #5C5C59",
"o. c #445D62",
"O. c #4B5D62",
"+. c #4C6266",
"@. c #556E75",
"#. c #5E7177",
"$. c #810000",
"%. c #8F0C00",
"&. c #9F0000",
"*. c #950800",
"=. c #860415",
"-. c #A60000",
";. c #A90100",
":. c #AA0E00",
">. c #BA0700",
",. c #B70C00",
"<. c #BA0D00",
"1. c #B21301",
"2. c #BC1502",
"3. c #BE1805",
"4. c #B71508",
"5. c #BC190A",
"6. c #AB1715",
"7. c #A4121E",
"8. c #B21518",
"9. c #95231E",
"0. c #850C2F",
"q. c #8A0D2D",
"w. c #900F2F",
"e. c #9C1025",
"r. c #A71323",
"t. c #C21701",
"y. c #C11806",
"u. c #C81B01",
"i. c #C11B0B",
"p. c #C21E13",
"a. c #C1241B",
"s. c #C62B22",
"d. c #5D7C85",
"f. c #7DA5B3",
"g. c #7EAFBF",
"h. c #838584",
"j. c #888989",
"k. c #81AAB7",
"l. c #81AEBD",
"z. c #85B1C0",
"x. c #88B4C2",
"c. c #8AB9CA",
"v. c #91C7DA",
"b. c #99CCDD",
"n. c #A2CCDB",
"m. c #A4D0DF",
"M. c #9CD0E3",
"N. c #B7D9E5",
"B. c #CBE2E9",
"V. c #E9F6F6",
"C. c white",
/* pixels */
"( ( } } ] _ ( ( _ _ ] ] ] ] ` ( ] _ ] ] } } ] ] ` U _ U } ` U U ",
"` ` } | ..} _ ] } ` | | ] } ` ` _ ` | | } } ..] ] ` _ U | } ] ` ",
"` } } | } } } } | ] ` ` ] ] } ) )  .' ....} } ] } ] _ } } ] X.] ",
"_ ] } } ` ] } ` ` ` ` ( 5 f j g g j j O U } ] ] } ] ] .. .} } _ ",
"` } } ] ] ] } ` ` ` ` 5 p 1.<.1.1.<.2.$.  ~ | ` }  .} ] } X.U ] ",
"` } ` ] | ` _ ` ` | t k 5.y.y.p.a.a.a.s.9.@ U _ ` U  . .] U _ _ ",
"` | | ] } ] ` _ ] ] o %.y.2.5.-.-.-.-.&.-.x 8 | U ] U  .] _ ] ] ",
"| | ] ] ` ` ] ] | R h 2.2.5.c Y @.! #.j.h.@.7 y  .` _ ]  .} ] ] ",
"] | ] ] _ ] ` ` ` R v <.y.6.  k.M.n.V.C.B.b.f.9 `  .} } ] U } U ",
"] } } } ` ` | I , < l 2.i.;.t d.c.m.N.N.v.b.b.{ U  ...U ] } ..U ",
"` | ] | ` ] ^ . *.:.z 2.5.;.E o.@.l.z.g.l.x.z.W U ] } ........U ",
"} | } ] } ` + =.u.1.z 2.y.:.5 O.+.{ { O.O.O.E # ] } ] | U ] ..] ",
"` | } } | ` 3 F 8.1.z 3.2.5.x 6 o.+.Q Q W T # 0 U ] } ] ..] ] ] ",
"_ } } _ _ ) 4 Z D D a 3.2.2.5.x 4 P L P 0 c x E X.] ] | ] ] U ] ",
"( ( } _ ] ` 3 A G V ; w.4.2.2.3.<.>.,.>.1.i.$.I | ] | | U ` U } ",
"( ` ( ` ` _ 3 A G C s Z 6.2.2.2.5.5.5.5.u.8.d U ] U U | ] ] | U ",
"_ _ _ } } _ 3 A G C s G q.4.2.4.2.2.2.4.t.r.1 U _ ^ ] ] ] ] _ ( ",
"( ( } } } ' 3 A G C : G Z 7.t.t.2.2.2.4.t.r.; R ` _ } } } .._ ` ",
"_ ..} } ] ' 3 A G C : S F D e.e.4.2.2.2.7.q.s R | ` _ ] | ....] ",
"^ } } } } _ 3 B J J : S S S Z Z 0.q.q.q.S S s ~ | ` ] ` ] ] ` ] ",
"( } } } ] } # % B M s S S S S S G G G G V G s ~ } ] ] ] ` ] ] ] ",
"` | } _ _ ] i y u w > S S S S V m m N n b G s / ..] _ ] ] ] } ] ",
"} } _  .} } } | ..[ > S S S G : e q = N S H s / | ] } } ] _ ] ] ",
"] X.....} } ] } | } 2 A S S F s ^ / n H S G - / ] ] } } ] _ ( _ ",
"] }  .] ] ] _ ] | _ 2 F G S G b u i - G K b   ^ X.` ` | } _ ` } ",
"_ _ ] _ ] ] ] } } _ * V G G B & / ( X s b   y } | ` } ] ` ( } } ",
"' _ ] ] } } | ..} ] O * 2 > $ 9 }  .~ w r U } | | ] ] ( ] _ ] ] ",
"` } _ } } ] } ] } } ` ` ( [ _ _ ] ] ` _ _ } ' ` ` ` _ _ ` ] ` ' ",
"_ | ] } ] } ] _ ' _ ] ] ] ] ] _ _ | ] ] ( ` ' ` _ _ _ _ ] } } ( ",
"` _ _ } | .._ _ _ ] } ] ] ] ] ^ ' |  .| } } | } } } _ ^ } | } ^ ",
"_ ( } } } } } }  .} ] } X.| _ ` ] _ X. .} | ..} _ } } } | | ( ^ ",
"_ _ ' } ' ^ ( _ ] ] ] ] ] _ _ _ ^ _  .] _ } _ _ ^ _ _ ( } ] ] ( "
};
