/* XPM */
static char *result[] = {
/* columns rows colors chars-per-pixel */
"32 32 138 2 ",
"   c #33381D",
".  c #701F15",
"X  c #751E1D",
"o  c #56270B",
"O  c #4A3416",
"+  c #4A3618",
"@  c #523317",
"#  c #5B3214",
"$  c #523419",
"%  c #5B341B",
"&  c #54381E",
"*  c #652B0F",
"=  c #6E2214",
"-  c #612B12",
";  c #6C2C15",
":  c #642F1B",
">  c #73201F",
",  c #7A2B1D",
"<  c #76321E",
"1  c #761A26",
"2  c #7D1B23",
"3  c #4D3C24",
"4  c #493F28",
"5  c #503521",
"6  c #523820",
"7  c #593822",
"8  c #52392B",
"9  c #5B3D30",
"0  c #772124",
"q  c #623222",
"w  c #613922",
"e  c #6E312E",
"r  c #72312E",
"t  c #683A37",
"y  c #4D4236",
"u  c #44433F",
"i  c #4C4838",
"p  c #5B453C",
"a  c #53493E",
"s  c #5C493E",
"d  c #474643",
"f  c #4A4946",
"g  c #4E4D4A",
"h  c #544B44",
"j  c #594E45",
"k  c #504F4D",
"l  c #52514E",
"z  c #5B5049",
"x  c #4D5C59",
"c  c #555452",
"v  c #585754",
"b  c #5A5956",
"n  c #515D5B",
"m  c #5D5C59",
"M  c #784E4E",
"N  c #635C5B",
"B  c #7A5659",
"V  c #596869",
"C  c #636E71",
"Z  c #62777D",
"A  c #64797E",
"S  c #9F1D14",
"D  c #951B1A",
"F  c #AD0304",
"G  c #BB0F1C",
"H  c #AD1616",
"J  c #A11A15",
"K  c #AB1813",
"L  c #A41D1E",
"P  c #B31314",
"I  c #B3151B",
"U  c #BB101B",
"Y  c #842510",
"T  c #8F2317",
"R  c #812A1F",
"E  c #99241E",
"W  c #8D0F2F",
"Q  c #940F2D",
"!  c #801926",
"~  c #87132C",
"^  c #8A0F30",
"/  c #940E34",
"(  c #9C0E34",
")  c #9C023C",
"_  c #9A0839",
"`  c #941034",
"'  c #BD0E25",
"]  c #A91A24",
"[  c #B61C23",
"{  c #A3013D",
"}  c #AC0038",
"|  c #BC0032",
" . c #8A2B20",
".. c #812A2B",
"X. c #932624",
"o. c #9C2F32",
"O. c #B02430",
"+. c #B32934",
"@. c #CC0116",
"#. c #CD0119",
"$. c #C30C1C",
"%. c #CA0D1E",
"&. c #D30916",
"*. c #D3031D",
"=. c #DA001F",
"-. c #C6131E",
";. c #CD0525",
":. c #C90B20",
">. c #C4002E",
",. c #D50322",
"<. c #DB0124",
"1. c #D20A23",
"2. c #D20028",
"3. c #DE0629",
"4. c #D90829",
"5. c #C31726",
"6. c #CE1123",
"7. c #C40130",
"8. c #8D4144",
"9. c #AA4E51",
"0. c #805F63",
"q. c #637B81",
"w. c #6A848A",
"e. c #718D95",
"r. c #77949E",
"t. c #87858C",
"y. c #8CADB9",
"u. c #93B5C2",
"i. c #95B9C7",
"p. c #9BC0CF",
"a. c #9CC1D0",
"s. c #BAC5C8",
"d. c #CACFD0",
"f. c #CEE0E3",
"g. c #CCE5EF",
"h. c #D1E9F2",
"j. c #E5F4F5",
"k. c #E4F6FC",
/* pixels */
"f g c c c k g k k c v v c g k f k g l c z v v l l i f g c l i d ",
"l c v v m v c k b v v v v c c g g l b m b b m m c c g a v b x g ",
"c v v v m v c c b v c c v v v g c b m m b v v v c v l b m l b c ",
"k v v c c c c c l l l l c v m c c v v v v v c v m c k m m b l g ",
"k n c c c l c c k c c g l l b c c c c l c b l l v l v v v b l i ",
"k c c c c c c g c l c g y O + + O 3 z c l l l k a k m v j l g g ",
"l m c c c c c g c c h   R I I I I L 6 i v v v l l k g l b l g l ",
"c m c c k g c c h 6 , -.%.3.<.<.<.1.-.E & s b z k v k j b c x l ",
"c m l c g k c h 7 Y :.3.,.:.1.1.6.6.3.4.S # s v b b c c c c c g ",
"c m v m c c l a ; :.,.%.O.8.8.8.9.9.5.4.1.S 4 z b b c c c c c u ",
"l b c c c c l 7 T &.+.B t.u.u.u.f.d.0.9.&.[ - < i c c v m b c g ",
"c m b c b c c 5 $.O.t.a.p.p.a.a.h.k.j.s.o.4.J I T s c b c c c g ",
"k m b c c c j  .U 0.a.p.a.a.a.a.a.h.h.g.r.F [ H ;.* c x l k c l ",
"g v n l c c $ :.#.M y.a.a.a.a.a.a.a.p.i.q.F 4.S U - c c l l c k ",
"g k c c b c 5 ;.@.t w.y.a.a.a.a.p.p.i.r.x F ,.J G * c c l g g d ",
"k g k k c k 5 ;.@.t Z w.r.r.r.r.r.r.e.w.n F <.S U - c c g g l f ",
"g f z b l l O %.<.I N q.A q.A q.Z A q.V X.*.<.J U * c v c k g f ",
"f k l b b c @ %.<.=.[ 8 N A Z Z Z C p  .*.<.,.D Q - v v v v c k ",
"k v b b l b $ -.<.<.<.@.] e r r r ..$.*.<.,.=.D W - c c v m v l ",
"i v b b l c $ ' ,.<.<.<.*.#.#.*.#.*.<.<.<.<.1.! W - g c c v v k ",
"g c c b c v # ( 7.<.<.<.<.<.<.<.3.3.<.<.<.2.} 2 ^ - c c c c c l ",
"c v c v c c # ` { >.<.=.<.$.K H H P *.=.2.} _ 2 _ - x c c c c c ",
"v v c v c v % / ) { | | | / 1 o 1 ~ | | } ) ) 2 1 9 c c c k g c ",
"b m m m l c # / { ) ) ) ) ) ) . ) { ) ) ) ) _ X 8 g c c c g g g ",
"z v m c m v & > ) ) ) ) ) { ) = ) { ) ) ) ) ~ : j l c v v f k c ",
"c c c k c l a w ^ ) _ _ _ _ _ = / _ _ _ _ ) 0 9 c c k c c g v b ",
"g c l c c c l z q - - - - - - - - - - - - - p c c c c c c l v c ",
"c b c m m b b c c v v c v v v l l v c k l c c c l c l g l c c f ",
"c m v b c b v k g v c c c c c g c v b c k c c c v c c l c b m g ",
"g c c v b b b g c c c v b v k f c v m m v v m c c c l g c v l d ",
"g l m m m b v c c n m m m m c g l c m m v v m b c c v c b b c f ",
"l g v v v g g c l c c v c c l k g g b m c c c k k g l l c l c g "
};
