/* XPM */
static char *result[] = {
/* columns rows colors chars-per-pixel */
"32 32 229 2 ",
"   c #5E2B0B",
".  c #5E2C0C",
"X  c #5E2E0F",
"o  c #56320A",
"O  c #543714",
"+  c #553617",
"@  c #5F3010",
"#  c #583616",
"$  c #5B341E",
"%  c #632A10",
"&  c #672D19",
"*  c #662F1A",
"=  c #7B2A15",
"-  c #70221D",
";  c #613011",
":  c #65301C",
">  c #65311D",
",  c #66311D",
"<  c #66321D",
"1  c #66321E",
"2  c #66321F",
"3  c #683E1F",
"4  c #78301C",
"5  c #771724",
"6  c #7B1A27",
"7  c #7F1927",
"8  c #7C1A26",
"9  c #7D172D",
"0  c #7D162E",
"q  c #711F2D",
"w  c #771F2D",
"e  c #7C1A29",
"r  c #7F1A2F",
"t  c #791E2D",
"y  c #7F1D32",
"u  c #7E1934",
"i  c #5E3721",
"p  c #5D3923",
"a  c #5B3E27",
"s  c #5A3D2B",
"d  c #682F24",
"f  c #752120",
"g  c #7A2426",
"h  c #7A2926",
"j  c #7A2528",
"k  c #7E2429",
"l  c #76292E",
"z  c #61382F",
"x  c #603D2E",
"c  c #663330",
"v  c #52402A",
"b  c #55412A",
"n  c #58402F",
"m  c #5B412F",
"M  c #44433F",
"N  c #5B4033",
"B  c #5C4335",
"V  c #514739",
"C  c #5C443D",
"Z  c #61442D",
"A  c #7C4436",
"S  c #7F4637",
"D  c #7F573C",
"F  c #464541",
"G  c #474642",
"H  c #474644",
"J  c #494844",
"K  c #4A4945",
"L  c #494846",
"P  c #4A4947",
"I  c #4B4A46",
"U  c #4C4B47",
"Y  c #4F4D45",
"T  c #4B4A48",
"R  c #4C4B49",
"E  c #4D4C48",
"W  c #4E4D49",
"Q  c #4D4C4A",
"!  c #4E4C4A",
"~  c #4E4D4B",
"^  c #4F4E4A",
"/  c #4F4E4C",
"(  c #594B41",
")  c #504F4B",
"_  c #504F4D",
"`  c #5B5046",
"'  c #54514B",
"]  c #51504C",
"[  c #52514D",
"{  c #51504E",
"}  c #52514F",
"|  c #53524E",
" . c #56514D",
".. c #54534F",
"X. c #535250",
"o. c #545350",
"O. c #545351",
"+. c #555450",
"@. c #565551",
"#. c #575651",
"$. c #555452",
"%. c #565452",
"&. c #575552",
"*. c #565553",
"=. c #575652",
"-. c #575654",
";. c #585653",
":. c #585753",
">. c #585755",
",. c #595854",
"<. c #595955",
"1. c #5A5955",
"2. c #595856",
"3. c #5A5956",
"4. c #5A5957",
"5. c #5B5A56",
"6. c #5C5B57",
"7. c #5B5A58",
"8. c #5C5B59",
"9. c #5D5C58",
"0. c #5E5D59",
"q. c #5D5C5A",
"w. c #5E5D5B",
"e. c #5F5E5A",
"r. c #5F5E5C",
"t. c #605C57",
"y. c #605F5D",
"u. c #A51F1D",
"i. c #A41C1F",
"p. c #A71C1E",
"a. c #A71D1E",
"s. c #AB1B1A",
"d. c #AE1B1A",
"f. c #AE1C18",
"g. c #AF1A1C",
"h. c #AD191E",
"j. c #AE191E",
"k. c #A91E1C",
"l. c #A81D1E",
"z. c #A91D1E",
"x. c #A91C1F",
"c. c #A91D1F",
"v. c #A91E1F",
"b. c #802719",
"n. c #902511",
"m. c #841827",
"M. c #801729",
"N. c #811729",
"B. c #83142B",
"V. c #80172A",
"C. c #81172D",
"Z. c #89172C",
"A. c #801829",
"S. c #921E25",
"D. c #9F1A27",
"F. c #951B29",
"G. c #9A033D",
"H. c #9C023F",
"J. c #9D023F",
"K. c #99073E",
"L. c #950F39",
"P. c #90083C",
"I. c #821433",
"U. c #881431",
"Y. c #8D1433",
"T. c #8E1036",
"R. c #8D1534",
"E. c #8E1834",
"W. c #901135",
"Q. c #991730",
"!. c #BB0C29",
"~. c #BB0E2F",
"^. c #AC1424",
"/. c #A81F20",
"(. c #B21523",
"). c #BA1121",
"_. c #BA1522",
"`. c #A5013B",
"'. c #A7013E",
"]. c #A9003E",
"[. c #8A2025",
"{. c #86202F",
"}. c #87262E",
"|. c #C50F21",
" X c #CE0E26",
".X c #C8012F",
"XX c #D40527",
"oX c #D80127",
"OX c #D00E25",
"+X c #D00E26",
"@X c #D10E26",
"#X c #D10E27",
"$X c #D20E26",
"%X c #D70E27",
"&X c #D1002E",
"*X c #DB0129",
"=X c #DC0028",
"-X c #DD0129",
";X c #C11021",
":X c #C50032",
">X c #C60033",
",X c #C40035",
"<X c #CB0030",
"1X c #CE0032",
"2X c #834228",
"3X c #A17832",
"4X c #9E0140",
"5X c #9E0141",
"6X c #9F1040",
"7X c #A00341",
"8X c #A10243",
"9X c #A20442",
"0X c #A01541",
"qX c #8D5D47",
"wX c #915F49",
"eX c #94654D",
"rX c #9C8859",
"tX c #B08744",
"yX c #BDA96A",
"uX c #B5A974",
"iX c #CDA74F",
"pX c #C0B178",
"aX c #D8BC70",
"sX c #CBC085",
"dX c #D0C689",
"fX c #DAD39B",
"gX c #F4F1AA",
"hX c #F2F0B1",
"jX c #F8F7B1",
/* pixels */
"L / $.$.O.{ R / / X.>.-.$.~ { T ) ^ | =.+.=.:.+.[ K I W +.[ M G ",
"{ $.>.2.7.2.X.} 4.2.4.>.>.X.$.R E | 1.9.1.1.6.9.+.| E ^ :.5.@.W ",
"O.-.>.2.7.2.*.$.4.-.$.$.2.>.4./ ..5.e.9.5.:.=.,.@.=.| 1.1.+.5.:.",
"{ -.-.*.$.X.$.*.X.{ { { *.-.7.} @.,.=.@.,.,.@.@.9...] 6.0.:.@.W ",
"/ >.-.*.$.} O.O.} X.O._ { { 2.O...=...[ :.,...| =...,.:.=.1.[ G ",
"_ >.O.*.-.O.O.~ O.$.$./ ~ / >.O.) +.=.+.@.+.[ ) ^ ] 6.=.] ] E ] ",
"} 4.X.O.$.} O.~ X.X.} ~ { X.2.} I ] =.=.@.:.:.+.| ^ ^ | =...) [ ",
"$.r.-.O.} / -.$.} { _ / *.-.2.R ..+.,.,.@.,.1.| ) =.] [ :.=.=.[ ",
"O.4.$.*.~ X.$.{ { $.X.*.q.w.7.X.X.-.>.4.$.>.*.>.7.2.O.O.X.X.X.R ",
"*.8.>.4.O.O.O.$./ $.*.2.w.y.8.~ } $.*.4.*.>.-.4.r.7.*.-.>.-.X.H ",
"} 2.$.-.$.X.O.3.<.N * 1 , , < , : , , 2 > x ' ;.o.O.X.>.7.7.-.R ",
"X.8.>.*.>.$.>.t.C D.%X+X@X@X$X#X@XOXOX X~.E.z Y ! X.*.>.*.O.O.~ ",
"} w.4.$.-.$.&.` d F.g.h.h.h.h.j.!.:X>X,X].9XL.c V *.>.>.} _ O.{ ",
"R -.>.X.-.o.%.v = k.a.z.l.l.z.u.[.P.u q t w y h # *.$.$.} } $._ ",
"Q } $.O.>. .B j b./.v.c.c.x.p._.|.S.i.f.s.d.n.o i *.O.O._ / / H ",
"/ ~ _ _ O.p 7 5 C.e 6 9 0 r I.Z.(.;XXX-X*X1XQ.@ $ / { X._ / _ P ",
"E U [ 6...; qXD A wXeXS 2Xg 7XG.m.).=XoX.X`.K.k + / $.>.O._ Q P ",
"E ) | 1.=.3 gXfXuXhXjXyXiX4 0XH.N.^.&X<X'.4X8X{.O } *.2.2.>.$._ ",
"^ ,.,.,.+.Z sXpXrXdXaX3XtX}.6XJ.V.U.5XT.Y.R.W.l b X.O.*.2.8.4.} ",
"J =.,.=...#.n X .   . . % 8 A.M.- f B.& a m s ( *.X.{ } $.2.>._ ",
"U @.=.:.+.=.| :.,.+.@.6.5.=.+...X.2.-.*.>.*.*.2.>.$.X.X.X.*.*._ ",
"=.:.+.:.@.@.) [ =.[ [ 6.5.| | [ _ -.*.-.-.$.>.2.>.*.*.*.O.O.$.X.",
"=.=.+.,.+.:.@.+.:.=.=.9.5.@.:.| { $.*.>.*.O.4.-.-.O.$.-.O.{ { } ",
"5.6.0.e...@.=.=.=.5.,.,.:.:.1.) O.-.-.7.*.O.4.$.*.} O.>.X.~ ~ / ",
"X.2.r.O.7.>.} *.-.2.4.2.-.-.-.*...@.O.$.2.-.O.>.2.} X.2.2.R ] +.",
"X.-.*._ O.O.X.4.-.-.$.O.$.*.{ R @.=.X.} $.$.X.$.4.X.} O.O.~ =.1.",
"~ $.{ X.$.O.$.4.*.*.O.} X.$.{ L +.=.X./ X.*.*.*.-.$.O.} O.{ :.+.",
"X.8.*.7.4.4.>.*.$.2.2.$.$.>.-.} | =.$._ { *.-.$.} X.} / X.X.=.E ",
"$.w.*.2.*.2.-._ { $.*.O.O.*.O./ ..,.4.O.{ O.*.X.*.*.O._ *.4.9.^ ",
"~ $.*.2.>.4.-._ X.O.$.-.2.>.{ L ..1.y.8.*.>.7.-.X.X.} / $.*.+.F ",
"~ _ 7.w.w.7.>.*.>.>.4.q.r.7.O./ ] @.w.w.>.4.8.2.*.*.>.-.7.>.=.J ",
"{ R >.-.*.~ ~ O.} X.*.2.-.X.{ { U ) >.2.O.O.$.{ { _ { { O.} @.W "
};
