/* XPM */
static char *result[] = {
/* columns rows colors chars-per-pixel */
"32 32 119 2 ",
"   c #68160C",
".  c #701E0A",
"X  c #7A171E",
"o  c #79191E",
"O  c #5C2707",
"+  c #592F10",
"@  c #423517",
"#  c #443719",
"$  c #45381E",
"%  c #593011",
"&  c #593A1E",
"*  c #612508",
"=  c #622F0D",
"-  c #6F2117",
";  c #692718",
":  c #71221D",
">  c #683117",
",  c #64301B",
"<  c #7E1B25",
"1  c #5A3B23",
"2  c #4F3A39",
"3  c #543A34",
"4  c #543A39",
"5  c #6E2A23",
"6  c #762725",
"7  c #7A2A26",
"8  c #7A2B28",
"9  c #633A26",
"0  c #723324",
"q  c #633931",
"w  c #41432D",
"e  c #4C4432",
"r  c #44433F",
"t  c #554236",
"y  c #5B4537",
"u  c #53433C",
"i  c #594539",
"p  c #474643",
"a  c #4A4946",
"s  c #4E4D4A",
"d  c #544B44",
"f  c #5C4D44",
"g  c #504F4C",
"h  c #545046",
"j  c #52514E",
"k  c #555452",
"l  c #585754",
"z  c #5A5956",
"x  c #5D5C59",
"c  c #605F5D",
"v  c #695A5A",
"b  c #526364",
"n  c #536769",
"m  c #5B686B",
"M  c #5F7378",
"N  c #607479",
"B  c #63797E",
"V  c #9B0707",
"C  c #951711",
"Z  c #951912",
"A  c #9D1C1B",
"S  c #A00208",
"D  c #A90F1A",
"F  c #BD0C1B",
"G  c #A41215",
"H  c #A01917",
"J  c #AA1E16",
"K  c #A31D1A",
"L  c #B61119",
"P  c #BB111B",
"I  c #B01E1A",
"U  c #87210D",
"Y  c #8E2110",
"T  c #8B0D2D",
"R  c #9C0A2D",
"E  c #831426",
"W  c #85142B",
"Q  c #811C2B",
"!  c #91102F",
"~  c #8D0F31",
"^  c #960B37",
"/  c #9E013D",
"(  c #9A0A39",
")  c #8C1031",
"_  c #BF002E",
"`  c #A2003C",
"'  c #B60033",
"]  c #B20138",
"[  c #922227",
"{  c #922B28",
"}  c #9C3B3E",
"|  c #C7091E",
" . c #D2041B",
".. c #C5002E",
"X. c #D50122",
"o. c #DA0023",
"O. c #D20821",
"+. c #D40129",
"@. c #DB0629",
"#. c #667E85",
"$. c #7C7980",
"%. c #6D858B",
"&. c #6F8A92",
"*. c #7D9CA6",
"=. c #928C90",
"-. c #84A1AB",
";. c #8DA3AD",
":. c #93B7C4",
">. c #95B8C6",
",. c #97BCCA",
"<. c #99BFCE",
"1. c #BBBFC2",
"2. c #9CC2D1",
"3. c #A0C8D8",
"4. c #B3D2DE",
"5. c #B8D3DD",
"6. c #BFDCE7",
"7. c #D4EBF6",
"8. c #EAF6F8",
/* pixels */
"p r h k h a a j k l l h z j h g s j s k l l k j s s j k k k s a ",
"s k z l s s j j x z z l x z h h s j j l l z l l j j l x l l k g ",
"l x j z z k l k l k l x x x z l s z l z k k l l k k l x l l l k ",
"s j l c x h j x l k l l l l z h j x l k j j s k k k k k k l l g ",
"r j z k k l j l h j z l j j l j k z j g g k k g k k j k l l l s ",
"j s j h l x h h j h j l k h # @ # # $ g g j k k s k k l k k l g ",
"j h j l j s s j k z z f w 9 I J A K A w t j k k s j j k k k b g ",
"j k l l j h l g h z k y I P o.o.@.o.o.J = i s g k k s j j k c k ",
"s j j k k k l l i 9 & U @.o.o.o.o.o.o.o.H > u j j k g s k k x j ",
"p j l l l k x f R Y O I o.o.o.o.o.o.O.X.O.R 4 s k k k k x l x k ",
"a k x x l j k Z o.U P o. .o.o.@.@.Z . . .   ; f z k k k l k x g ",
"s k k k l k j Z H * | o.o.o.o.O.} ;.>.>.:.5.1.k z l k l k k x j ",
"j k g j b k k Z Z L o.o.o.o.@.S *.2.2.2.<.6.8.=.2 k k l k x b g ",
"j k j j k k k Z Z P o.o.o.o.@.S -.2.2.2.2.4.7.=.2 k k k k l k s ",
"p s g g j k k Z Z P  .o.o.o.o.S %.>.2.2.2.<.2.$.4 c k l k k g s ",
"a s g g j j s Z Z | o.o.o.o.o.S b *.,.2.2.2.3.$.2 k g k g g s s ",
"a s j k l k s C Z F o.o.o.o.o.V n #.&.&.*.,.3.$.3 g j j c j a h ",
"j k l l l l s X o P o.o.o.o.o.X.{ m N M B %.&.v 4 k l l l j h s ",
"j l z z l k j < o ! ..o.o.o.o.o. .[ 8 8 7 6 0 t d j l j z l l s ",
"j k l k k s j X o ! ` ..o.o.o.o.o.X.X.X. .@.J e k j l j k l k a ",
"j k k k k k k X o ) ` ` X.o.o.o.o.o.o.o.o.+.K e z h k k l l k h ",
"j k k k k l k X o ) ` ` ..X.o.o.F G G D _ ] Q & h h k l l j l k ",
"k s g k k k k o o ) ` / / ' ' ' R - E T / / ^ E 9 j z k z j k l ",
"s s s k l k j q W / / / / / / / / < ^ / / / / / : l h l x x x l ",
"k s s l l j j u < / / / / / / ( Q > 6 ( / / / / : j z z k c z k ",
"l k s j k k j d , ~ ( ( ( ( W ; 3 a d 5 ( ( ( ( 5 j k k g k k k ",
"k l j k j k k l k 1 + + % + + i a g k j % % % % f j k k k s k s ",
"s k j k g j j j j l l j j k l g g k l k k l l k l l z z z l z k ",
"s x z k g k l k j l j s k z l k g k k k k k k g g l l k z k x k ",
"p k k k s j j j l z l l x c l k a j l z k k k k g l x l z k k j ",
"a k l x l l l l z x z l x x k g s k z c b z l l l l x x x x j s ",
"s k j k g j g g j k k k z z g a j j j l l k k g k s g k k l a j "
};
