/* XPM */
static char *result[] = {
/* columns rows colors chars-per-pixel */
"32 32 117 2 ",
"   c #3A3517",
".  c #3D3719",
"X  c #5B0401",
"o  c #5B1600",
"O  c #601E00",
"+  c #701F17",
"@  c #7A1E14",
"#  c #731E19",
"$  c #7B1F18",
"%  c #492E0C",
"&  c #5F2805",
"*  c #4A310F",
"=  c #572F13",
"-  c #5E2F15",
";  c #423517",
":  c #4C321A",
">  c #5C3115",
",  c #513718",
"<  c #5A351D",
"1  c #523819",
"2  c #622C09",
"3  c #71220C",
"4  c #6C2A17",
"5  c #71261E",
"6  c #722E1F",
"7  c #613213",
"8  c #753219",
"9  c #7D1D25",
"0  c #46302D",
"q  c #4C3E2C",
"w  c #513D25",
"e  c #5B3D2B",
"r  c #5E3F33",
"t  c #7D2B20",
"y  c #683830",
"u  c #7A3033",
"i  c #5B402E",
"p  c #44433F",
"a  c #514535",
"s  c #5C4334",
"d  c #53463C",
"f  c #474643",
"g  c #4A4946",
"h  c #4E4D4A",
"j  c #534B44",
"k  c #504F4C",
"l  c #52514E",
"z  c #5A524B",
"x  c #555452",
"c  c #585754",
"v  c #5A5956",
"b  c #5D5C59",
"n  c #605F5D",
"m  c #5D615E",
"M  c #62605C",
"N  c #5E6B6E",
"B  c #60777C",
"V  c #61797F",
"C  c #7E7179",
"Z  c #891E0E",
"A  c #9D1415",
"S  c #941F13",
"D  c #A40F15",
"F  c #AB0E15",
"G  c #BB091F",
"H  c #AA1317",
"J  c #A41817",
"K  c #A71C1E",
"L  c #B6121A",
"P  c #BD141C",
"I  c #96231E",
"U  c #98092F",
"Y  c #85162B",
"T  c #8B122D",
"R  c #8F0F31",
"E  c #910C34",
"W  c #9E003D",
"Q  c #9A0A38",
"!  c #8E1431",
"~  c #901431",
"^  c #B01423",
"/  c #AD0A31",
"(  c #A1013D",
")  c #BC0032",
"_  c #8E2B2E",
"`  c #A62224",
"'  c #A4343C",
"]  c #CA0F1F",
"[  c #D4001F",
"{  c #C60626",
"}  c #C3002F",
"|  c #C8002D",
" . c #D30422",
".. c #DA0023",
"X. c #D20A20",
"o. c #D10028",
"O. c #DA0428",
"+. c #DB0B2C",
"@. c #A30140",
"#. c #826D74",
"$. c #647D83",
"%. c #957D81",
"&. c #76929B",
"*. c #899EA9",
"=. c #87A4AE",
"-. c #85A6B2",
";. c #A9AEB1",
":. c #8FB2C0",
">. c #93B4C1",
",. c #96BAC7",
"<. c #99BECD",
"1. c #9BC0CF",
"2. c #9CC3D2",
"3. c #A1C8D7",
"4. c #A3C9D9",
"5. c #D7ECF4",
"6. c #D8EDF6",
/* pixels */
"f p l z h g g l z c x x x l k k d l h x x v l k k h l x x x h g ",
"h x v c h h l l b b v v M v l h h x x x v v v v l l v v v v x k ",
"c v x c v l c x c c c v M m v l g m v v x x c v x x v v c c x x ",
"h z c m m h z m z x v c l l v z k m x x l k k x x x x x c x v k ",
"p l v x z z l c l z m c l l c l l m l k k l x k x x x x x c c h ",
"l d l l x m l h h l l l l l i * * * % q k x l x h l x c c x c k ",
"l l l c l h h l l v c z s : K ] P ] ] I > j l x h x l x x l v l ",
"l c x c l l z l l z z a I ]  ...[ ....] S 7 d l x x k l l c m x ",
"g l l x x x c v z 8 2 & H ..........O.....S 4 h k x l h x x v x ",
"p c l m c x b x t { & A .......... .G G G G 5 f x x x x b c b x ",
"h x m c c l x . P H 2  ......... .' C #.#.C %.0 v l l x x x c x ",
"h x l x v x x   P 3 L ........O.` *.4.2.3.2.6.;.r x x v x x v x ",
"l l k l c c x . P Z ..........+.u 1.1.1.2.2.5.5.X c x c x v m k ",
"l x l k x x x . P Z ..........+._ ,.1.2.<.2.4.<.X x x c x v x h ",
"f k k k x x x . P Z ............6 &.2.2.2.2.2.:.o m x c x x k k ",
"g k k k x k h   P Z ............6 B &.:.:.<.3.,.o x k x k k h k ",
"g h h x v x k ; ^ Z ............_ N V V $.-.>.=.O k l l b l h g ",
"k x c b v x l , ! @ | ..........[ _ m M n v v x < z v c v l h h ",
"k b b c x x x : ! + ( } ........ .[ D F F H J > k l x x v v v h ",
"k c c x l l x 1 ~ + W ( } ..................X.= x x x z z v v p ",
"k x x l x k x 1 ! + @.W ) o.......] [ ] ..../ > c z c x v x x g ",
"x x x x c x x : ~ + W W W ) o.o.{ @ 3 $ U ( Q - l l x l c z c c ",
"l l k x c x x w Y + W W W W W W W R # ( ( W E < l x c z c z c c ",
"h h h l c x k c i 4 @.W W W W W ( E 9 T T T y z x x x l m v m v ",
"x k h x v l l v x r ! @.@.@.@.@.@.@.R < s s x c x l c m l m v l ",
"v x h x x l x v x x q 9 9 9 9 9 9 9 9 e x x x c v x c l h c c l ",
"x c k x k x x x x c x x x l x x g x x x x x x x m l x l l h x h ",
"h c x k h l x l x x x k l x c x l x v x x x c x l c m c b x m l ",
"h b b x k x x x x x x k x v c x k x x x x x x k k c v c v x m z ",
"f x x x h x x x x b v x b m c l g k c c x x x x k c v v v x x h ",
"f x c b c c x x v b v v n b x l h x m b m c v x c x v b b v k h ",
"h x l x k k k k k x x x v x h g x h x x v x x k x k h c c c h l "
};
