/* XPM */
static char *result[] = {
/* columns rows colors chars-per-pixel */
"32 32 112 2 ",
"   c #701D1D",
".  c #781E1F",
"X  c #4F2902",
"o  c #542A02",
"O  c #592A01",
"+  c #58270A",
"@  c #542F11",
"#  c #4E3214",
"$  c #5A3314",
"%  c #573419",
"&  c #5F331B",
"*  c #50381F",
"=  c #64260A",
"-  c #6E2508",
";  c #67290F",
":  c #6B2414",
">  c #632A16",
",  c #622D1B",
"<  c #6C2A1C",
"1  c #722219",
"2  c #79241B",
"3  c #752A1C",
"4  c #731A23",
"5  c #781E20",
"6  c #443D24",
"7  c #5F3425",
"8  c #722120",
"9  c #7A2624",
"0  c #7E292C",
"q  c #6C3027",
"w  c #474334",
"e  c #4B4634",
"r  c #44433F",
"t  c #574636",
"y  c #474643",
"u  c #4A4946",
"i  c #4E4D4A",
"p  c #544B43",
"a  c #584B43",
"s  c #504F4C",
"d  c #52514E",
"f  c #59524B",
"g  c #555452",
"h  c #585754",
"j  c #5A5956",
"k  c #5D5C59",
"l  c #704545",
"z  c #7B4343",
"x  c #704B49",
"c  c #77504F",
"v  c #685451",
"b  c #625A55",
"n  c #605F5D",
"m  c #73615D",
"M  c #7F5D61",
"N  c #5E7378",
"B  c #7B6965",
"V  c #871F0F",
"C  c #8B1E16",
"Z  c #9C1615",
"A  c #961E11",
"S  c #BE0D1E",
"D  c #A61E15",
"F  c #AF1518",
"G  c #B41516",
"H  c #B41419",
"J  c #B1181B",
"K  c #84220E",
"L  c #88200D",
"P  c #88271F",
"I  c #84291E",
"U  c #8C2A1E",
"Y  c #8D0C33",
"T  c #920934",
"R  c #9F0830",
"E  c #9D003C",
"W  c #9A083A",
"Q  c #8D1432",
"!  c #BC0725",
"~  c #BE0E21",
"^  c #BC032F",
"/  c #A50337",
"(  c #AE0036",
")  c #A0013E",
"_  c #B00037",
"`  c #B00139",
"'  c #82282A",
"]  c #CA071F",
"[  c #C50A1E",
"{  c #C8081C",
"}  c #CD0422",
"|  c #CB0A22",
" . c #C1002F",
".. c #D40323",
"X. c #DA0023",
"o. c #DC0228",
"O. c #DB0C2C",
"+. c #647D83",
"@. c #698187",
"#. c #6F888F",
"$. c #6E8991",
"%. c #728E97",
"&. c #86A5B1",
"*. c #93B5C2",
"=. c #97BCCB",
"-. c #98BFCF",
";. c #9CC2D1",
":. c #A4C9D9",
">. c #BEDBE6",
",. c #CCE4ED",
"<. c #D2EAF2",
"1. c #E0F2F8",
/* pixels */
"u i g g g d i i s d h h d s s u s i d h f h h g d r s s g d r r ",
"d g h h k h d d j h k h h d g i i d j k j j j k g g e i h j g s ",
"g h h h k j g g j h g g j h k i g j k k j j g j h h d j h g j j ",
"s h h g g d g h d d d d g h k s g j h g j j f g k f s k k h g i ",
"i h h g g d g g d g g i s s h s g g f d h h d d h f j g h j s e ",
"i h g g g g g i g g g i e 6 6 w 6 e g d g g d d i s j j f s i d ",
"d k g g g g g i g d t t I D D D D U e a f h j g d s s s g g s d ",
"g n h g i i g g d p % L { X.X.X...| F P p j j d s h s d j g g d ",
"d j g g i d g s i # V } X.X.X.X.X.X.X.Z @ & * f j j g g d d d i ",
"g k h k d g g g i 4 | ......X.X.X.X.X.] K o J 7 j j g g h h d y ",
"d j g g g g g g & c z z z l ~ X.X.X.X.X...- [ S $ g d j k j h i ",
"g k j g h g h n c <.;.;.;.:.B | X.X.X.X.X.K = [ X g h j g g d s ",
"d k h g h g g M 1.<.-.;.;.-.*.' O.X.X.X.X.X.A [ X g h h d d g d ",
"i h h g g g g m ,.>.;.;.;.-.=.0 O.X.X.X.X.X.A [ X g g g d d g i ",
"i g g g h g h v =.-.;.;.;.;.&.9 O.X.X.X.o.X.L | X h g g s s i y ",
"i i i i g i h k -.;.;.;.;.&.+.2 o.X.X.X.o.o.A H X i s g s i d u ",
"i u d j g f g b ;.;.*.$.%.@.N < o.X.X.X.X.X.A { X i g h g i i u ",
"u s f j h j g t %.#.@.N N N x S X.X.X.X.o.o.C R o d h h h h g d ",
"s j h h d h s t & 3 < 3 9 < S X.X.X.X.X...` 5 T O g g h j k h d ",
"r h j h d h d f ; ..o.o.o.o.X.X.X.X.X...( E . T O d s s g h h d ",
"i g h h g g d f = | X.o.o.X.X.X.X.X.X. .E ) 5 T + g g g d g g d ",
"h g f h f h s p = /  .! G H G X.X.X...( E ) 5 T X g g g g g g d ",
"g h g j g h g f = W E Y 5 +   ^ ^  ._ E E ) . T + g g g g g d d ",
"k b k k f g g p = E E E ) : Y E E E E E E ) 1 1 t s g g g i i i ",
"d j n g j h d d = E E E E : Y E E E E E E ) 8 a h d d j k i i g ",
"g g g d g g d f > W W W W < Q W W W W W W W q s h g d g d i g j ",
"i g s d g d g j p , > , > a 7 > , , > > , > p g g g g d g d j g ",
"d k h j k j h h g h h g g h h s d g g d d g g g d g d i d d h u ",
"g n h h g j h s d g g g g h g i d j j g d g g g g h g d g j k i ",
"i g g h j j h s d g g h h h s u d j n k g h k h d d d i g h g y ",
"i s j n n j h g h h j k k k g i d g k n h j k k h h h g k h g u ",
"s i h h g i i g d g g h h g d d u s h h g g d i d i d s g d h u "
};
