/* XPM */
static char *result[] = {
/* columns rows colors chars-per-pixel */
"32 32 88 1 ",
"  c #711E15",
". c #7F161F",
"X c #761C1D",
"o c #562903",
"O c #5C2902",
"+ c #42310E",
"@ c #54320E",
"# c #5F2E11",
"$ c #433210",
"% c #543417",
"& c #6B2607",
"* c #632A05",
"= c #732507",
"- c #752408",
"; c #732909",
": c #6F2112",
"> c #6B2B14",
", c #672718",
"< c #65291A",
"1 c #732E17",
"2 c #7D231F",
"3 c #61351B",
"4 c #5B3F2B",
"5 c #7E2220",
"6 c #742C22",
"7 c #653523",
"8 c #63372E",
"9 c #793024",
"0 c #3B4533",
"q c #44433F",
"w c #4D473E",
"e c #514637",
"r c #5B4230",
"t c #5A463D",
"y c #474643",
"u c #4A4946",
"i c #4E4D4A",
"p c #554C46",
"a c #504F4C",
"s c #555147",
"d c #5A5047",
"f c #52514E",
"g c #555452",
"h c #585754",
"j c #5A5956",
"k c #5D5C59",
"l c #605F5D",
"z c #861E14",
"x c #8F1F17",
"c c #961712",
"v c #981512",
"b c #921E12",
"n c #981812",
"m c #BD0D1C",
"M c #A01915",
"N c #B5111A",
"B c #BC101C",
"V c #81200E",
"C c #89220E",
"Z c #882319",
"A c #A32017",
"S c #850F26",
"D c #840F2A",
"F c #930D2E",
"G c #831225",
"H c #811927",
"J c #851228",
"K c #8E0B31",
"L c #930C34",
"P c #960539",
"I c #9B043B",
"U c #9A0C3A",
"Y c #931032",
"T c #A70532",
"R c #A0013F",
"E c #AE003B",
"W c #B60037",
"Q c #BD0031",
"! c #822423",
"~ c #C50C1E",
"^ c #C90A1F",
"/ c #C0101D",
"( c #CF0521",
") c #C70C20",
"_ c #CB002E",
"` c #D50322",
"' c #DB0023",
"] c #E00024",
/* pixels */
"uigggfiiighhgifiiifgdjhgsuuiffqw",
"fghhkhffjhjhhffiifjkjjjkgfiihjgi",
"ghhhjjgghhggjhkigjkkjhhhhhsjjgjh",
"ahhggggggagaghkfghhgjhghjgskkhgi",
"ahgggfggfggaffjgfhffhjffhghhhjfq",
"ahggjggifggiiijgffhhhffsisjhssif",
"ghgggggifffw02xxZb90shhgfsifggsf",
"glggiiggfur9A(]']')A7rhsigfshggf",
"gjggifhfi4 ^''''''''B;4gkjggffgi",
"gkjjfggfyz^''''''''''m1skkggjgfy",
"fjgggfgj%V]'M&-=====-`~7fgfjjjhu",
"gkjghghl>^'NN^~~~~~^^b~3iggjhgga",
"fkhghggfZ`~c`''''''''`C1ughggaga",
"ihhggggo`]mv''''''''']x/$gggafga",
"iagghgho(]Bn''''''''''ZB$gggaaay",
"iiaagag%('mn''`'''''']CN$affaaau",
"iusjfffo('mc'''`'''`''b~+igjffiu",
"iffjhhfo('mc''''`'''']b/+ggjjhgi",
"shjjhhfOT'mc'`'''''`''bB$fgghkkf",
"ufjggdfOPWmc''''''''`'CY@fffgjhi",
"uhhhfhfOPRF.Q`''''''_E2K%gggggga",
"hhshhffOPRL IQ______ELHL%ggggggg",
"hhghghhOPIGXGDDDSSSDSXIU@fgggfaf",
"jkkkgggOLGKIKDD.*:JSJIRL@aghfiii",
"ghkgjhfOXLRIRIRI<8!25X56afghhiag",
"fhhaggfd<UIIIIIP#pewttwijffggihh",
"igsggfhjp<<<<<,#sggigggghhffffhf",
"fkhjjjhhgjhggjhgfhgfigggfffaffhi",
"glgjhhhafgggghfafjjgfgggggfahkja",
"iggjhjhafgghhhaugjljghkgggfagggy",
"iajkkjhhjgjjljfafglkgjkhgghhjhhy",
"aihhhiigfghhhgffusjjggggaaffgfgi"
};
