/* XPM */
static char *result[] = {
/* columns rows colors chars-per-pixel */
"32 32 118 2 ",
"   c #3F391B",
".  c #741B1B",
"X  c #4F310E",
"o  c #57300E",
"O  c #58310E",
"+  c #473212",
"@  c #52351A",
"#  c #5F3118",
"$  c #73240C",
"%  c #672713",
"&  c #602C12",
"*  c #6C271C",
"=  c #6B2E1E",
"-  c #712313",
";  c #7D271A",
":  c #7D291D",
">  c #72311E",
",  c #7C1C24",
"<  c #593D26",
"1  c #67352F",
"2  c #623F31",
"3  c #703D37",
"4  c #44433F",
"5  c #544334",
"6  c #5A4434",
"7  c #5C473D",
"8  c #5D4A3C",
"9  c #474643",
"0  c #4B4946",
"q  c #4E4D4A",
"w  c #524842",
"e  c #584F47",
"r  c #504F4C",
"t  c #52514E",
"y  c #5C554E",
"u  c #555452",
"i  c #585754",
"p  c #5A5956",
"a  c #5D5C59",
"s  c #605F5D",
"d  c #5E615C",
"f  c #5F7479",
"g  c #627276",
"h  c #63767B",
"j  c #62787C",
"k  c #891B0F",
"l  c #861B10",
"z  c #8D1A10",
"x  c #8B1B1C",
"c  c #961D12",
"v  c #9B1C14",
"b  c #981A19",
"n  c #A70F16",
"m  c #AC0E17",
"M  c #B70D1B",
"N  c #BC0E1C",
"B  c #AC1514",
"V  c #B5151A",
"C  c #B8121B",
"Z  c #8C220E",
"A  c #85261B",
"S  c #882218",
"D  c #9D2015",
"F  c #84132E",
"G  c #8B112E",
"H  c #8C0D31",
"J  c #960536",
"K  c #920B35",
"L  c #970538",
"P  c #9D033C",
"I  c #BE0729",
"U  c #B61C23",
"Y  c #A2023D",
"T  c #A80039",
"R  c #B30135",
"E  c #862325",
"W  c #952526",
"Q  c #8E2C30",
"!  c #853737",
"~  c #A6222B",
"^  c #CE0317",
"/  c #CE001A",
"(  c #C70D1F",
")  c #C9081F",
"_  c #D3011E",
"`  c #CC111F",
"'  c #CE0622",
"]  c #CD0B24",
"[  c #C2022D",
"{  c #D40422",
"}  c #DB0124",
"|  c #DF0329",
" . c #DC0828",
".. c #C11525",
"X. c #C91226",
"o. c #E3022B",
"O. c #96595E",
"+. c #A95859",
"@. c #8E5F65",
"#. c #866E75",
"$. c #867076",
"%. c #AB696D",
"&. c #647E84",
"*. c #668086",
"=. c #7BA0AA",
"-. c #A5898D",
";. c #88A6B3",
":. c #8EB0BD",
">. c #93B2BF",
",. c #9EB4BE",
"<. c #99BECD",
"1. c #9DC2D1",
"2. c #B8C9CD",
"3. c #A0C6D6",
"4. c #AACCD9",
"5. c #D6EDF4",
"6. c #DBEEF2",
"7. c #E0F6F9",
/* pixels */
"0 q u u u t q q q t p i i q q q q q t i t i i e t 0 0 q u t 4 4 ",
"t u i i p i u t p p p i i t u q q t p a p i p d u t 0 e i p i q ",
"u i i i a i u u p p u u i i i q t a a a d y u p u u t p i u p y ",
"q i i i u u u u u r t t i i a r u p u u p p u y d t t p d i i q ",
"q i i u u t u u t t u r r r p u t u t t i i t t i t i i y i t 4 ",
"q i u u u u u q u u u r q r p u t u u u u y t r q q d i r r 8 t ",
"t p u u u u t q t t t q t t p r 0 r u u u i i u t q q t i t r t ",
"u s i u q q i u t t t w 5 A l l z : 7 y u i i t r y r t i u i t ",
"u p u u q u u q u t 1 , C { } } } _ N > 6 p u p d i u u t t t q ",
"u a i a u u u u q 4 $ [ | ' ] ] X.]  .( $ 6 u p d d u i i i t 9 ",
"t p u u u u u i y + ) ^ m @.#.$.-.%.n _ V   5 u 8 u t i p d i q ",
"t a p u i u i s 8 v ] O.=.<.1.3.7.6.2.+.` Z v 4 0 t i i u u t q ",
"t s a u u u i i 2 ..W >.1.1.1.1.4.5.6.,.~ U C C   u i i t t u t ",
"q u i u u u u u k | E :.1.1.1.1.1.1.1.;.W o.c _ + i u u t t u q ",
"q t u t i u i u k | ; &.>.1.<.<.1.1.;.f x  .D ' + p u u r q q 9 ",
"q q q t u r i t k | S f &.&.&.&.*.*.j f b  .B ) X r r u r r r 0 ",
"t 4 q d u t t q k } _ ! a h j &.f g d Q _ } c I o q u i u r q 0 ",
"8 r t p i y u t k { } ' M 3 7 7 8 3 M { } } x P o t i i i i u r ",
"r p y p t i t q l } } } } _ / / / _ | } }  .x P o u u i i a p t ",
"9 i i i t i t i . R { } } } | } } B B B [ T , L O t r r u p i t ",
"0 u u i u u y i . P R { } ' c c c F F F F P , L @ u t u t i t r ",
"i i u i u u q r . P Y T Y Y H , H Y P Y G K . 1 r u u u t i i t ",
"u y u i u p u y - J P P P P P , J P P P Y P = i u t u u u r r t ",
"p p d d t u u u < G P P P P L * K P P P H % 6 u u t u i u q q r ",
"u i d t d d r u u 1 # # & & 1 r # & # # & 2 t i p u t p p q r t ",
"t i u r t t r d i i t t t u q q t i t t t i t u p u t t u q u a ",
"q t t r u t t d u u u q u u q 9 u u t q t u t i u u u t t t u u ",
"t d i d d p i t i i i u u i i u u u u t t u i i t u t r t u u q ",
"u d u p u p u r q u i u u u u r t u a t r u i t u u t t u a a t ",
"q u u p u p i r u u u i p p r 0 t a s a u i p i u t t q u u u 4 ",
"q t p d d p p u i i p a a a t r r u s a p p a p u u u p a u u 0 ",
"q q p u u q q u t t i p i t t t 0 r p p u u u t t t t t u t u q "
};
