/* XPM */
static char *result[] = {
/* columns rows colors chars-per-pixel */
"32 32 128 2 ",
"   c #731E1B",
".  c #582B07",
"X  c #552D0A",
"o  c #5B2D0B",
"O  c #552E10",
"+  c #5C2F11",
"@  c #553115",
"#  c #5F3415",
"$  c #5C3419",
"%  c #6C270B",
"&  c #6A280A",
"*  c #652217",
"=  c #602814",
"-  c #692912",
";  c #662E19",
":  c #6F2D19",
">  c #792C13",
",  c #7C1B25",
"<  c #543D26",
"1  c #5D3B24",
"2  c #5A3E28",
"3  c #792723",
"4  c #762929",
"5  c #6F3726",
"6  c #673D28",
"7  c #4E4234",
"8  c #44433F",
"9  c #5B4334",
"0  c #50453A",
"q  c #58493E",
"w  c #474643",
"e  c #4B4946",
"r  c #4E4D4A",
"t  c #544E46",
"y  c #594E45",
"u  c #504F4C",
"i  c #52514E",
"p  c #58534D",
"a  c #415550",
"s  c #555452",
"d  c #585754",
"f  c #5A5956",
"g  c #5D5C59",
"h  c #6F4A47",
"j  c #6A4D49",
"k  c #605F5D",
"l  c #5F777C",
"z  c #626464",
"x  c #637074",
"c  c #60767C",
"v  c #63797D",
"b  c #6D797D",
"n  c #9D1D14",
"m  c #9C181B",
"M  c #BD020F",
"N  c #BB0A0E",
"B  c #BB0C1A",
"V  c #AA1516",
"C  c #A21B13",
"Z  c #AA1618",
"A  c #A21C1A",
"S  c #B21112",
"D  c #B6101D",
"F  c #B1181A",
"G  c #81230E",
"H  c #85251A",
"J  c #8A221B",
"K  c #912016",
"L  c #8A1621",
"P  c #85152A",
"I  c #821D2A",
"U  c #9D1F24",
"Y  c #8F0A31",
"T  c #930B34",
"R  c #9D013C",
"E  c #861230",
"W  c #BF0D20",
"Q  c #BA082B",
"!  c #B81221",
"~  c #B61926",
"^  c #A20934",
"/  c #A1003F",
"(  c #B40035",
")  c #832423",
"_  c #932C2C",
"`  c #9B2828",
"'  c #873130",
"]  c #923333",
"[  c #9F3432",
"{  c #CD0316",
"}  c #C8091F",
"|  c #D5001D",
" . c #C9101E",
".. c #C40926",
"X. c #CC0C22",
"o. c #D40422",
"O. c #DA0124",
"+. c #D00A23",
"@. c #D90A25",
"#. c #DE062B",
"$. c #DE092A",
"%. c #DF102F",
"&. c #E10122",
"*. c #A20040",
"=. c #925052",
"-. c #A76D6D",
";. c #647C83",
":. c #77939C",
">. c #7E959E",
",. c #878C93",
"<. c #8098A1",
"1. c #81A1AC",
"2. c #98A8AE",
"3. c #8AA7B2",
"4. c #89AAB7",
"5. c #91AEB9",
"6. c #96BBC9",
"7. c #9ABECC",
"8. c #99C0CF",
"9. c #9DC3D2",
"0. c #B7C0C0",
"q. c #A2C6D4",
"w. c #BAD7E3",
"e. c #CED9DF",
"r. c #C0DCE7",
"t. c #D6E6EC",
"y. c #DDF2FB",
"u. c #E6F7FE",
/* pixels */
"e r s s s i r r r s d d s r u e r r i d s s d d p 8 8 i s i 8 8 ",
"i s d d f d s i d d f d d s s r r i f f f f f f s s r r f f d t ",
"s d d d g d s s d d s d d d g r s f k f f f p f s s p f f d f d ",
"r d d d s s s s s i u u s d g i s d d d f f p s g p i f g g a q ",
"u d s s s i s s i i s u u i f s s s i i d d s i f p f d f f i 8 ",
"u d s s s s s r s s s r r u d i u s d p d p u u q a f s t i q i ",
"s d s s s s s r i s i e e ; - - - - 9 t i d d p i i r p d p a i ",
"s k s s u r s s i t 7 5 J } +.| o.} Z H 9 y f i r s r i d p f i ",
"s d s s r i s u r < > ..O.$.#.#.&.%.$.o.A # q d f f s i i i i r ",
"s g d g s s s s 0   ..O.O.S V V F V  .@.@.n 1 f g g s d f d s 8 ",
"s d s s s i s d < J &.~ _ ,.<.>.2.0.-.[ +. .= 6 q s s d g g d r ",
"s g d s d s d k : W S -.5.8.9.8.w.u.t.e.=.{ C K H s s d s i s r ",
"s g g s s s s s 3 N b 8.9.8.9.8.8.r.y.y.5.] F C J s d d i a s i ",
"a s d i s s s @ X.M x 7.9.9.9.9.9.9.q.q.3.' #.V o s s s i i p i ",
"r u s s d s d @ X.M r :.6.9.9.q.9.9.9.4.b ) O.Z X s s s u u r w ",
"r r u u s u s @ X.M a ;.:.1.1.1.>.>.:.:.c 3 O.V X u i i u u u e ",
"r e i f i i u X X.| ` z l l l l :.l l l h ! O.Z X r s d s i r e ",
"e t s f p d s O } O.| U 5 x v v l l j ; W O.O.Z X s d d d d s r ",
"u d f d p g i O o.O.O.O.o.G & % % % Z O.O.O.&.V X s s s g f g r ",
"8 d f s s s s o ..O.o.B B B B o.O.o.O.O.O.O.O.A . i u u s d g r ",
"r s s f p d i + ^ Q m P P P L D O.O.O.O.O.o.( P + s s s i s s i ",
"d d p d s s r O T , T / *.*.R L C n } O.O.( R P O s s s s s s i ",
"d d p d d d s + T T / R R R R Y * P ^ ( ( R / P o i s s s u i s ",
"f g g g i p d $ T R R R R R R E , / R R R R R I 2 i s s s r r r ",
"p d k s f s i i $   R R R T T * , *.R R *.*.Y O 2 s s d d r r s ",
"a d s i s s s f u < $ $ $ $ < < 4 T Y Y Y T , 0 g s i s s r d d ",
"t d i s s i s f f s s u i s u e s s i u i s s s d s s i s i d s ",
"s f s f g g f p s d d s s d d i i d s i i s s s i i i r i i s r ",
"s g d d s g s a u s f s s s s r s d f s s s s s s s s u s d k r ",
"u s s d s g d i i s s s f s i e s d k f s s g s s i i u s s s w ",
"r i f k k f d p f f g g k g s r u s g g s d k d s s d d g d s e ",
"r r d d s r r s i i i g s i i u r i f f s s s i i i u u s u s r "
};
