/* XPM */
static char *result[] = {
/* columns rows colors chars-per-pixel */
"32 32 125 2 ",
"   c #68160C",
".  c #6F1E0A",
"X  c #701E0A",
"o  c #7A171E",
"O  c #79191E",
"+  c #5C2707",
"@  c #5A2F0F",
"#  c #592F10",
"$  c #423517",
"%  c #443719",
"&  c #45381E",
"*  c #593011",
"=  c #593A1E",
"-  c #612508",
";  c #622F0D",
":  c #692718",
">  c #71221D",
",  c #683117",
"<  c #64301B",
"1  c #7E1B25",
"2  c #443F2A",
"3  c #4F3A39",
"4  c #543A34",
"5  c #543A39",
"6  c #6E2A23",
"7  c #762725",
"8  c #772924",
"9  c #7A2A26",
"0  c #7A2B28",
"q  c #633A26",
"w  c #673028",
"e  c #723324",
"r  c #41432D",
"t  c #4C4432",
"y  c #44433F",
"u  c #554236",
"i  c #5B4537",
"p  c #53433C",
"a  c #594539",
"s  c #5A4A3E",
"d  c #604C3F",
"f  c #474643",
"g  c #4A4946",
"h  c #4E4D4A",
"j  c #544B44",
"k  c #5C4D44",
"l  c #504F4C",
"z  c #545046",
"x  c #52514E",
"c  c #555452",
"v  c #585754",
"b  c #5A5956",
"n  c #5D5C59",
"m  c #605F5D",
"M  c #695A5A",
"N  c #526364",
"B  c #536769",
"V  c #5B686B",
"C  c #607479",
"Z  c #63797E",
"A  c #7C787F",
"S  c #9F0B07",
"D  c #9D0508",
"F  c #951711",
"G  c #951912",
"H  c #9D1C1B",
"J  c #A00208",
"K  c #A90F1A",
"L  c #BD0C1B",
"P  c #A41215",
"I  c #A01917",
"U  c #AA1E16",
"Y  c #A31D1A",
"T  c #B61119",
"R  c #BB111B",
"E  c #B01E1A",
"W  c #87210D",
"Q  c #8E2110",
"!  c #8B0D2D",
"~  c #9C0A2D",
"^  c #831426",
"/  c #85142B",
"(  c #811C2B",
")  c #8D0F31",
"_  c #960B37",
"`  c #9E013D",
"'  c #9A0A39",
"]  c #8C1031",
"[  c #BF002E",
"{  c #A2003C",
"}  c #B60033",
"|  c #B20138",
" . c #922227",
".. c #922B28",
"X. c #9C3B3E",
"o. c #C7091E",
"O. c #D2041B",
"+. c #C5002E",
"@. c #D50122",
"#. c #DA0023",
"$. c #D20821",
"%. c #D40129",
"&. c #DB0629",
"*. c #667E85",
"=. c #7C7980",
"-. c #6D858B",
";. c #6F8A92",
":. c #78959F",
">. c #7D9CA6",
",. c #928C90",
"<. c #9A9497",
"1. c #839AA3",
"2. c #8DA3AD",
"3. c #93B7C4",
"4. c #95B8C6",
"5. c #97BCCA",
"6. c #99BFCE",
"7. c #BBBFC2",
"8. c #9CC2D1",
"9. c #A0C8D8",
"0. c #B3D2DE",
"q. c #B8D3DD",
"w. c #BFDCE7",
"e. c #D4EBF6",
"r. c #EAF6F8",
/* pixels */
"g h c c c x h h x x v v c h l g l h x v z b v c z g g z c x y f ",
"x c v v n v x x b b b v b x c h h x v n b b n n v z g z v b c h ",
"c v v v n b c c b c c c b v b h c b m n b v v v v b x v v c v v ",
"l v v c c x c v c x x l c v n x c b c c v v c c n z x n n v c z ",
"l v c c c x c c x c c h l l b c c c x x b b c x v c v v v b x y ",
"l v c c c c c h c c c h l & % % $ % z c c c x z h z b v l l z x ",
"c v c c c c c h x x c u 2 H U Y Y Y q r x v v c x z h x v x l x ",
"c N c c l h c c l l p ; U #.&.#.#.#.o.E i k v z h v z x v c v l ",
"c b c c h c c h h h 6 H #.#.#.#.@.#.#.#.W = w d b b c c x c x h ",
"c n b b c c c c h 3 H %.@.%.%.#.#.#.#.@.T + Q I s b c c v c x f ",
"x b c c c c c n k -   X . . G &.#.#.#.#.#.T W O.Q c c b n n v h ",
"c n b c v c v n c 7.q.3.4.4.2.X.O.#.#.#.%.$.- U Q c c b c c x h ",
"x n b c v c v 3 <.r.w.8.8.8.8.1.D &.#.#.#.#.R F F c N b x x x x ",
"h v v x v c v 3 ,.e.0.6.8.8.9.1.D &.#.#.#.&.R F F c x c x x c x ",
"h x c c v c v 3 A 8.6.8.8.8.5.-.D &.#.#.#.#.[ F F c c c l h h f ",
"h h l l c h v 3 A 9.8.8.6.5.:.N J #.#.#.O.#.T F F x l l l h x g ",
"h g z n x x l 4 =.8.8.>.;.-.*.B S #.#.#.#.#.R G G l c b x h h g ",
"g z c v v b x 5 M -.-.Z C C V ..@.#.#.#.#.#.L O ^ x c b b b c x ",
"z b v v c v x z a e 8 9 0 0  .O.#.#.#.#.#.+.] O o x x v b b b c ",
"g c v v c c x c t U #.@.@.@.@.@.#.#.#.#.+.{ ] O o x x x v v v h ",
"g c v v c v x v t Y %.@.@.#.#.#.#.#.#.#.{ { ] O 1 c c c c c c x ",
"v v z v x v z j = 1 | [ K P P L #.#.O.+.{ { ] O 1 c c c c c c x ",
"c c c v c v c w / ' ` ` ! ^ O ~ } } } ` ` { ] O o l c c x x x x ",
"b n m m x c v > ` ` ` ` ` _ 1 ` ` ` ` ` ` ` ` / 4 l c b x h h h ",
"z n N x n v x > ` ` ` ` ' 7 , ( ' ` ` ` ` ` { ^ a x x b b h l x ",
"x b c l x c c 6 _ ' _ _ 6 j j 5 : ^ _ _ ' ' ) < k x x c c h c b ",
"z c l c c c c k * * * * l c l g a * * * # @ 4 c c c c x x l b c ",
"x n c n n v v c c b b c c b c x x v c h l c c c l x x l x x c l ",
"c m c b c n v h x c c x c v c h x b b x l c c c c c c l c b m l ",
"l c c b v v v l x c c v v v x g c b m m c b n c c x x l c b x y ",
"h l n n n n v c v v b n n b x l z c m n v b n n c b b c b b c g ",
"l g v v c h h c x c v v v c l x h l v v c x c l l l x l c l c l "
};
