/* XPM */
static char *result[] = {
/* columns rows colors chars-per-pixel */
"32 32 218 2 ",
"   c #227F1D",
".  c #3F5E39",
"X  c #277F21",
"o  c #2B7E26",
"O  c #31782B",
"+  c #32782C",
"@  c #346530",
"#  c #3A6236",
"$  c #44433F",
"%  c #41673B",
"&  c #42673D",
"*  c #42683E",
"=  c #436B3E",
"-  c #464541",
";  c #474642",
":  c #474644",
">  c #494844",
",  c #4A4945",
"<  c #494846",
"1  c #4A4947",
"2  c #4B4A46",
"3  c #4C4B47",
"4  c #4B4A48",
"5  c #4C4B49",
"6  c #4D4C48",
"7  c #4E4D49",
"8  c #4D4C4A",
"9  c #4E4D4B",
"0  c #4F4E4A",
"q  c #4F4E4C",
"w  c #504F4B",
"e  c #504F4D",
"r  c #435A40",
"t  c #485A45",
"y  c #495C46",
"u  c #4A5F46",
"i  c #4D5549",
"p  c #4F5F4A",
"a  c #51504C",
"s  c #52514D",
"d  c #51504E",
"f  c #52514F",
"g  c #53524E",
"h  c #54534F",
"j  c #51584E",
"k  c #535250",
"l  c #545351",
"z  c #555450",
"x  c #565551",
"c  c #555452",
"v  c #565553",
"b  c #575652",
"n  c #575654",
"m  c #585753",
"M  c #585755",
"N  c #575854",
"B  c #595854",
"V  c #5A5955",
"C  c #595856",
"Z  c #5A5957",
"A  c #5B5A56",
"S  c #5C5B57",
"D  c #5F5F57",
"F  c #5B5A58",
"G  c #5C5B59",
"H  c #5D5C58",
"J  c #5E5D59",
"K  c #5D5C5A",
"L  c #5E5D5B",
"P  c #5F5E5A",
"I  c #5F5E5C",
"U  c #605F5D",
"Y  c #446441",
"T  c #446741",
"R  c #476542",
"E  c #456841",
"W  c #476841",
"Q  c #466941",
"!  c #466A43",
"~  c #476A43",
"^  c #4A6845",
"/  c #5F6451",
"(  c #667644",
")  c #0C9C06",
"_  c #0F9909",
"`  c #15920F",
"'  c #12970C",
"]  c #14940F",
"[  c #10980A",
"{  c #129F0C",
"}  c #1D8A18",
"|  c #1E8B18",
" . c #199113",
".. c #24811F",
"X. c #25811F",
"o. c #23841E",
"O. c #0CA206",
"+. c #0CA306",
"@. c #0CA406",
"#. c #0CA606",
"$. c #0CA706",
"%. c #0CA806",
"&. c #0CAE05",
"*. c #0CAF05",
"=. c #0CAC06",
"-. c #0CAD06",
";. c #0EA308",
":. c #18A607",
">. c #19A607",
",. c #18A907",
"<. c #1BA907",
"1. c #13AB0B",
"2. c #0CB005",
"3. c #0CB105",
"4. c #0CB205",
"5. c #0EB307",
"6. c #0CB505",
"7. c #0CB705",
"8. c #0CB805",
"9. c #0CB905",
"0. c #0CBB05",
"q. c #0CBC05",
"w. c #0CBD05",
"e. c #0CBF05",
"r. c #0FB009",
"t. c #0EB208",
"y. c #10B506",
"u. c #10B706",
"i. c #19BD0F",
"p. c #1CA713",
"a. c #1AA911",
"s. c #21A708",
"d. c #22A808",
"f. c #23A808",
"g. c #24A908",
"h. c #27AA09",
"j. c #20AD08",
"k. c #2BAD09",
"l. c #2FAF09",
"z. c #20B407",
"x. c #27B008",
"c. c #2AB409",
"v. c #31B009",
"b. c #35B20A",
"n. c #39B40A",
"m. c #3DB60B",
"M. c #30BF09",
"N. c #23AC18",
"B. c #32B21F",
"V. c #38B01A",
"C. c #3AB11B",
"Z. c #258120",
"A. c #278121",
"S. c #268321",
"D. c #278321",
"F. c #278322",
"G. c #258520",
"H. c #288423",
"J. c #2A8125",
"K. c #2A8325",
"L. c #41B90B",
"P. c #42B230",
"I. c #45B332",
"U. c #0CC005",
"Y. c #11C105",
"T. c #11C106",
"R. c #1EC307",
"E. c #22C107",
"W. c #2CC908",
"Q. c #2FCA09",
"!. c #38C60A",
"~. c #32CB09",
"^. c #36CC09",
"/. c #3BCD0E",
"(. c #42C70B",
"). c #44C80B",
"_. c #4CCF0C",
"`. c #4ECF0C",
"'. c #53C50D",
"]. c #5DCC0D",
"[. c #57D60D",
"{. c #54C51F",
"}. c #49D117",
"|. c #6FD10F",
" X c #6BD70F",
".X c #67DA0E",
"XX c #72DD0F",
"oX c #73DE0F",
"OX c #6ECC12",
"+X c #73D310",
"@X c #77D510",
"#X c #7DD811",
"$X c #4DC438",
"%X c #52C73C",
"&X c #66D920",
"*X c #77CA58",
"=X c #85DC11",
"-X c #85DD11",
";X c #87DE12",
":X c #8EE612",
">X c #90E212",
",X c #96E813",
"<X c #9CEA14",
"1X c #9EEA14",
"2X c #A0EB14",
"3X c #9EE839",
"4X c #888A73",
"5X c #97DB51",
"6X c #B0EC57",
"7X c #B5ED5A",
"8X c #A5DA7C",
"9X c #A7E779",
"0X c #C9EE7F",
"qX c #C6F170",
"wX c #ABDD81",
"eX c #B1E981",
"rX c #B8E88B",
"tX c #C6EC96",
/* pixels */
"< q c c l d 5 q q k M n c 9 d 4 w 0 g b z b m z s , 2 7 z s $ ; ",
"d c M C F C k f H.C Z M M k j # . g V H V V S H z g 6 0 m A x 7 ",
"l n M C F C v c Z n c c C M  .2.r.^ P H A m b B x b g V V z A m ",
"d n n v c k c v k d d d v G.+.oX3X,.b x B B x x H h a S J m x 7 ",
"q M n v c f l l f k l e t [ E.qXB. XA.X J.B h g b h B m b V s ; ",
"e M l v n l l 9 l c c q r ) R.c.0.'.| O + & s w 0 a S b a a 6 a ",
"f Z k l c f l 9 k k f 9 ` 2.9.6.U.#.OXR x p m z g 0 0 g b h w s ",
"c I n l f q n c f d e q ) M.+.U.^.U.) Q x B V g w b a s m b b s ",
"l Z c v 9 k c d d c k v ) |.+..X<XQ.) ! c M v M F C l l k k k 5 ",
"v G M Z l l l c q c v C ) |.p.&X4.`.$.! v M n Z I F v n M n k : ",
"f C c n c k l Z K k e o s.L.rX1.q.$.XX{ v n c M l l k M F F n 5 ",
"k G N * M c M U K q 8 S.g.m.tX-.U.3.].<.k c f f 9 k v M v l l 9 ",
"f L Z c n c n Z n k d Z.g.m.i.6.,X~.l.v.k n l e e v M M f e l d ",
"5 n M k n l v k Z n k Z.>.x.9.%X7X:XV.C.v G M c l v c c f f c e ",
"8 f c l M c C c c k f F.O.%.9.wXT.Y.P.I.v C v n v v l l e q q : ",
"q 9 e e l e v f q d 5   O.%.9.+X*.&.7.) f f 9 f 5 q d k e q e 1 ",
"6 3 s S h s w w b > 2 ..O.%.9.+X+.#.7.) q f f f 9 q c M l e 8 1 ",
"6 w g V b = z s x 7 w X.O.%.=X6.k.b.).) c n c v f f v C C M c e ",
"0 B B B z m s w g a g ..f.m.-X6.W.b.#X) M C v n c k l v C G Z f ",
"> b B b h b h b b x b D.f.m.2Xn.>Xz.(.) M M l n v k d f c C M e ",
"3 x b m z b g m B z x K.d.1Xh.n.8.u.@.;.M v v C M c k k k v v e ",
"b m z m x x w s b s s S ) |.:.j.8.5X) T n c M C M v v v l l c k ",
"b b z B z m x z m b b H ) 8X+.9Xa.eX) E v l Z n n l c n l d d f ",
"A S J P h x b b b A B B ) $X*X!.6X{.=.~ v l Z c v f l M k 9 9 q ",
"k C I l F M f v n C Z C ' 4.;Xy.e.$.5.Y C n l M C f k C C 5 a z ",
"k n v e l l k Z n n c l u ) [.@X=._.} f c c k c Z k f l l 9 b V ",
"9 c d k c l c Z v v l f y _ w.U./.0Xo.q k v v v n c l f l d m z ",
"k G v F Z Z M v c C / ( c G.+.U.}.N.c e d v n c f k f q k k b 6 ",
"c L v C v C n e D 4Xv l l v ] 3.t.W Z l d l v k v v l e v Z H 0 ",
"9 c v C M Z n e k l c n C M i @ % V U G v M F n k k f q c v z - ",
"9 e F L L F M v M M Z K I F l q a x L L M Z G C v v M n F M b > ",
"d 5 M n v 9 9 l f k v C n k d d 3 w M C l l c d d e d d l f x 7 "
};
