/* XPM */
static char *result[] = {
/* columns rows colors chars-per-pixel */
"32 32 232 2 ",
"   c #267B21",
".  c #267D21",
"X  c #287D22",
"o  c #327B2C",
"O  c #347A2F",
"+  c #366E31",
"@  c #376F33",
"#  c #3B6E37",
"$  c #3A7435",
"%  c #367C31",
"&  c #3C7830",
"*  c #44433F",
"=  c #43673F",
"-  c #436F3F",
";  c #40763B",
":  c #40713C",
">  c #464541",
",  c #474642",
"<  c #474644",
"1  c #494844",
"2  c #4A4945",
"3  c #494846",
"4  c #4A4947",
"5  c #4B4A46",
"6  c #4C4B47",
"7  c #4C4B49",
"8  c #4D4C48",
"9  c #4E4D49",
"0  c #4D4C4A",
"q  c #4E4D4B",
"w  c #4F4E4A",
"e  c #4E4F4B",
"r  c #4F4E4C",
"t  c #504F4B",
"y  c #504F4D",
"u  c #465942",
"i  c #465B43",
"p  c #485B43",
"a  c #485844",
"s  c #4B5148",
"d  c #4C5249",
"f  c #4D5549",
"g  c #4D594A",
"h  c #4E594B",
"j  c #4F5B4A",
"k  c #51504C",
"l  c #52514D",
"z  c #51504E",
"x  c #52514F",
"c  c #53524E",
"v  c #54534F",
"b  c #52554F",
"n  c #53584F",
"m  c #535250",
"M  c #545351",
"N  c #555450",
"B  c #565551",
"V  c #555452",
"C  c #565553",
"Z  c #575652",
"A  c #575654",
"S  c #585753",
"D  c #585755",
"F  c #555B50",
"G  c #555B52",
"H  c #585F53",
"J  c #595854",
"K  c #5A5955",
"L  c #595856",
"P  c #5A5957",
"I  c #5B5A56",
"U  c #5C5B57",
"Y  c #595F54",
"T  c #5B5A58",
"R  c #5C5B59",
"E  c #5D5C58",
"W  c #5E5D59",
"Q  c #5D5C5A",
"!  c #5E5D5B",
"~  c #5F5E5A",
"^  c #5F5E5C",
"/  c #605F5D",
"(  c #466443",
")  c #4A6745",
"_  c #4B6947",
"`  c #4D614A",
"'  c #546551",
"]  c #586555",
"[  c #0C9C06",
"{  c #0C9F06",
"}  c #0F9E06",
"|  c #0F9909",
" . c #0E9A08",
".. c #13960D",
"X. c #178F12",
"o. c #1A8B15",
"O. c #1A8D15",
"+. c #1B8C16",
"@. c #1C8D16",
"#. c #1C8D17",
"$. c #1E8B18",
"%. c #1E8A19",
"&. c #1F8B1A",
"*. c #0CA106",
"=. c #0FA106",
"-. c #0CA206",
";. c #0CA506",
":. c #0CAA06",
">. c #0CAE05",
",. c #0CAC06",
"<. c #0CAD06",
"1. c #0CAE06",
"2. c #1BA407",
"3. c #1BA507",
"4. c #1CA407",
"5. c #15AE06",
"6. c #1DAA08",
"7. c #0CB005",
"8. c #0CB405",
"9. c #0CB505",
"0. c #0CB705",
"q. c #0CBB05",
"w. c #0CBC05",
"e. c #0CBF05",
"r. c #14B106",
"t. c #1EB307",
"y. c #19B507",
"u. c #1CB407",
"i. c #12BA06",
"p. c #1BBF07",
"a. c #20A708",
"s. c #24A908",
"d. c #25AA08",
"f. c #27AB09",
"g. c #2FAF09",
"h. c #30AF09",
"j. c #28B208",
"k. c #2CB609",
"l. c #31B009",
"z. c #33B10A",
"x. c #36BA0A",
"c. c #2EA013",
"v. c #308821",
"b. c #2D9328",
"n. c #31AB22",
"m. c #43BA0B",
"M. c #46BF0B",
"N. c #47BB0C",
"B. c #47BC0C",
"V. c #47BE0C",
"C. c #4ABD0C",
"Z. c #4CBE0C",
"A. c #49A918",
"S. c #51BB10",
"D. c #0CC005",
"F. c #0DC006",
"G. c #14C206",
"H. c #18C106",
"J. c #19C210",
"K. c #20C607",
"L. c #24C707",
"P. c #2DC009",
"I. c #28C808",
"U. c #29C808",
"Y. c #2EC908",
"T. c #39C40A",
"R. c #39C70A",
"E. c #37CC09",
"W. c #3ACB0A",
"Q. c #35C825",
"!. c #39C628",
"~. c #44CB0B",
"^. c #47CF0B",
"/. c #48CC0B",
"(. c #4BCF0B",
"). c #50C00C",
"_. c #51C10D",
"`. c #54C20D",
"'. c #55C30D",
"]. c #56C30D",
"[. c #58C40D",
"{. c #59C50D",
"}. c #5BC60E",
"|. c #5FC80E",
" X c #44D00B",
".X c #50D40C",
"XX c #54D50C",
"oX c #5CD70D",
"OX c #59C316",
"+X c #5EC51B",
"@X c #62CC0E",
"#X c #68CF0F",
"$X c #6FD30F",
"%X c #60D80D",
"&X c #60D90E",
"*X c #63D90E",
"=X c #6BDA0F",
"-X c #73DE0F",
";X c #75D610",
":X c #7BD711",
">X c #79D515",
",X c #72D810",
"<X c #7FDA11",
"1X c #7CE010",
"2X c #70C840",
"3X c #75C948",
"4X c #71DA4E",
"5X c #7ECB5B",
"6X c #7BC95C",
"7X c #70D053",
"8X c #75D957",
"9X c #81DB11",
"0X c #83DC11",
"qX c #84DC11",
"wX c #88DE12",
"eX c #8ADF12",
"rX c #84E011",
"tX c #84E311",
"yX c #8EE112",
"uX c #8BE512",
"iX c #8CE512",
"pX c #91E313",
"aX c #90E612",
"sX c #98E713",
"dX c #9BEA14",
"fX c #A0EB14",
"gX c #83E220",
"hX c #ADED31",
"jX c #B7E28A",
"kX c #CEEE8E",
"lX c #D1EC9E",
"zX c #D8F3A3",
/* pixels */
"3 r V V M z 7 r r m D A V q f   X w c Z N Z S N l 2 5 9 N l * , ",
"z V D L T L m x P L P D D m | Z.sXO.K E ) $ U E N c 8 w S I B 9 ",
"M A D L T L C V P A V V L &.4.iX-XwX% E I S Z o B Z c K K N I S ",
"z A A C V m V C m z z z = ..#XI.<.^.A.j J J B B E v k U W S B 9 ",
"r D A C V x M M x m M y + [ aX7.qXs.`.p S J v c Z v J S Z K l , ",
"y D M C A M M q M V V e . z.=X[.yXB.'.& B N l t w k U Z k k 8 k ",
"x P m M V x M q m m x s [ P.w.).fXwX[.a.B S S N c w w c Z v t l ",
"V ^ A M x r A V x z y d [ jX4.fXfXwX>.*.B J K c t Z k l S Z Z l ",
"M P V C q m V z z V m n [ 7X4.tX*XwX>.*.V D C D T L M M m m m 7 ",
"C R D P M M M V r V C G [ 0.4.oXD.wXM.3.C D A P ^ T C A D A m < ",
"x L V A V m M P Q m y [ N.l.aXr.=.kXOXq.#.A V D M M m D T T A 7 ",
"m R D C D V D / Q r 0 [ N.l.pX).&Xn.6X/.+.V x x q m C D C M M q ",
"x ! P V A V A P A m z [ N.l.pX).fX>X+Xz.+.A M y y C D D x y M z ",
"7 A D m A M C m P A m [ N.l.pX).uX,X[.a.#.' _ V M C V V x x V y ",
"0 x V M D V L V V m x [ j.6.(.k.y.H.].{.#.b.D.A C C M M y r r < ",
"r q y y M y C x r z 7 [ :.;.w.V.d.L.`.p.+.g i x 7 r z m y r y 4 ",
"8 6 l U v l t t Z 1 5 [ :.;.w.). X-.1.!.o.x x ( q r V D M y 0 4 ",
"8 t c K Z J N l B 9 t [ :.;.J.2XC.@Xx.lX@.A V ; x x C L L D V y ",
"w J J J N S l t c k c [ m.g.F.8XQ.eX5XhX#.L C A V m M C L R P x ",
"1 Z J Z v Z v Z Z B Z [ N._.$XE.iXwX3XgX#.D M A C m z x V L D y ",
"6 B Z S N Z c S J N B [ N.fX2.fXfXR.[.K.#.C C L D V m m m C C y ",
"Z S N S B B t l Z l l H [ :Xw.).U.s.XX*.A V D L D C C C M M V m ",
"Z Z N J N S B N S Z Z Y [ '.W.<.8.,.1.[ C M P A A M V A M z z x ",
"I U W ~ v B Z Z Z I J F [ [ dX~.9.w.>.{ C M P V C x M D m q q r ",
"m L ^ M T D x C A L P G [ ;X2.%XG.0X}.a.L A M D L x m L L 7 k N ",
"m A C y M M m P A A V b $.T.5.<XfXs.9Xv.V V m V P m x M M q Z K ",
"q V z m V M V P C C M x @ f.e.u.h.i.t.u m C C C A V M x M z S N ",
"m R C T P P D C V L L V #  .rX4XzXY.S.a z C A V x m x r m m Z 8 ",
"V ! C L C L A y z V C M M %.2.1X.XwXO M z M C m C C M y C P E w ",
"q V C L D P A y m : - A L ` } |.fXc.] R C D T A m m x r V C N > ",
"q y T ! ! T D C D D P Q ^ T h X.X.B ! ! D P R L C C D A T D Z 1 ",
"z 7 D A C q q M x m C L A m z z 6 t D L M M V z z y z z M x B 9 "
};
