/* XPM */
static char *result[] = {
/* columns rows colors chars-per-pixel */
"32 32 243 2 ",
"   c #287D22",
".  c #2A7E25",
"X  c #2E782A",
"o  c #2F792B",
"O  c #32752D",
"+  c #307A2A",
"@  c #307A2B",
"#  c #307B2C",
"$  c #317B2C",
"%  c #3A6835",
"&  c #396A35",
"*  c #396D35",
"=  c #3F6B3A",
"-  c #367331",
";  c #387033",
":  c #44433F",
">  c #40623D",
",  c #41633E",
"<  c #44683F",
"1  c #464541",
"2  c #474642",
"3  c #474644",
"4  c #494844",
"5  c #4A4945",
"6  c #494846",
"7  c #4A4947",
"8  c #4B4A46",
"9  c #4C4B47",
"0  c #4C4B49",
"q  c #4D4C48",
"w  c #4E4D49",
"e  c #4D4C4A",
"r  c #4E4D4B",
"t  c #4F4E4A",
"y  c #4F4E4C",
"u  c #504F4B",
"i  c #504F4D",
"p  c #475642",
"a  c #51504C",
"s  c #50514D",
"d  c #52514D",
"f  c #51504E",
"g  c #52514F",
"h  c #53524E",
"j  c #54534F",
"k  c #51544C",
"l  c #56584E",
"z  c #535250",
"x  c #545351",
"c  c #555450",
"v  c #565551",
"b  c #555452",
"n  c #565553",
"m  c #575652",
"M  c #575654",
"N  c #585753",
"B  c #585755",
"V  c #595854",
"C  c #5A5955",
"Z  c #595856",
"A  c #595956",
"S  c #5A5957",
"D  c #5B5A56",
"F  c #5C5B57",
"G  c #5B5A58",
"H  c #5C5B59",
"J  c #5D5C58",
"K  c #5E5D59",
"L  c #5D5C5A",
"P  c #5E5D5B",
"I  c #5F5E5A",
"U  c #5F5E5C",
"Y  c #605F5D",
"T  c #436540",
"R  c #446540",
"E  c #446640",
"W  c #446641",
"Q  c #456741",
"!  c #466742",
"~  c #476044",
"^  c #486243",
"/  c #496045",
"(  c #4B6046",
")  c #476843",
"_  c #496A45",
"`  c #4A6D47",
"'  c #5C614E",
"]  c #546050",
"[  c #616A4D",
"{  c #62625A",
"}  c #7B7C6B",
"|  c #0C9C06",
" . c #0C9D06",
".. c #0C9E06",
"X. c #0C9F06",
"o. c #0E9909",
"O. c #0F9909",
"+. c #13930D",
"@. c #15910F",
"#. c #13940E",
"$. c #10980A",
"%. c #198D14",
"&. c #1A8D14",
"*. c #1B8E15",
"=. c #159310",
"-. c #189012",
";. c #179F11",
":. c #25851F",
">. c #218C1B",
",. c #0CA006",
"<. c #0CA106",
"1. c #0CA306",
"2. c #0CA406",
"3. c #0CA506",
"4. c #0EA406",
"5. c #0FA406",
"6. c #0CA706",
"7. c #0CA906",
"8. c #0CAB06",
"9. c #0CAE05",
"0. c #0CAF05",
"q. c #0CAD06",
"w. c #12A107",
"e. c #16A607",
"r. c #18A207",
"t. c #15AE06",
"y. c #1CA807",
"u. c #1EAE07",
"i. c #1EAA08",
"p. c #0CB005",
"a. c #0CB105",
"s. c #0CB305",
"d. c #0CB505",
"f. c #0CB605",
"g. c #0CB905",
"h. c #0CBA05",
"j. c #0CBB05",
"k. c #0CBD05",
"l. c #0CBE05",
"z. c #0FB108",
"x. c #10B006",
"c. c #14B106",
"v. c #13B406",
"b. c #14BA06",
"n. c #20A708",
"m. c #21AA08",
"M. c #22AB08",
"N. c #24A908",
"B. c #25A908",
"V. c #25AA08",
"C. c #20AF08",
"Z. c #29AC09",
"A. c #2CAD09",
"S. c #30AF09",
"D. c #26B608",
"F. c #2BB209",
"G. c #2FB709",
"H. c #33B70A",
"J. c #36B40A",
"K. c #35BB0A",
"L. c #37BF0A",
"P. c #2AAC1D",
"I. c #21B416",
"U. c #27B11A",
"Y. c #278621",
"T. c #39AE29",
"R. c #33B224",
"E. c #43B231",
"W. c #0CC005",
"Q. c #0FC105",
"!. c #11C106",
"~. c #12C006",
"^. c #12C206",
"/. c #14C206",
"(. c #15C206",
"). c #16C306",
"_. c #18C306",
"`. c #24C707",
"'. c #2FC309",
"]. c #29C808",
"[. c #2BC908",
"{. c #2FCA09",
"}. c #38C10A",
"|. c #3EC70A",
" X c #3ACD0A",
".X c #3BCE0A",
"XX c #35C325",
"oX c #4EC20C",
"OX c #40CF0A",
"+X c #41CF0A",
"@X c #52C20D",
"#X c #55C60D",
"$X c #59C50D",
"%X c #5CCF0D",
"&X c #55D00D",
"*X c #50D40C",
"=X c #52D40C",
"-X c #5ED30D",
";X c #65CC0E",
":X c #69CE0F",
">X c #61D60E",
",X c #61D70E",
"<X c #6CD00F",
"1X c #6ED20F",
"2X c #6DD50F",
"3X c #61D90E",
"4X c #6EDD0F",
"5X c #70D20F",
"6X c #61D81C",
"7X c #77D810",
"8X c #7CDE10",
"9X c #5EC328",
"0X c #6C8043",
"qX c #79C85A",
"wX c #7ED25D",
"eX c #83AE2F",
"rX c #81DB11",
"tX c #82DB11",
"yX c #83DB11",
"uX c #86DD12",
"iX c #89DC1F",
"pX c #8AE512",
"aX c #8CE512",
"sX c #81E11A",
"dX c #92E313",
"fX c #94E413",
"gX c #94E513",
"hX c #98E615",
"jX c #9CE914",
"kX c #9EEA14",
"lX c #A0EB14",
"zX c #A3EC1B",
"xX c #97DF3D",
"cX c #9CE73C",
"vX c #A7EC23",
"bX c #828470",
"nX c #919478",
"mX c #83DE62",
"MX c #ACE364",
"NX c #B1DF83",
"BX c #DBF58B",
"VX c #C2E692",
"CX c #C2E693",
/* pixels */
"6 y b b x f 0 y y z B M b r &  .8.:.k m c m N c d 5 8 w c d : 2 ",
"f b B Z G Z z g S Z S B B * $.f.W.g.>.J C C F J c h q t N D v w ",
"x M B Z G Z n b S M b b Z # | _.kXOXX.J D N m V v m h C C c D N ",
"f M M n b z b n z f f f E | g.5XH.dX_.*.V V v v J j a F K N v w ",
"y B M n b g x x g z x i > | g.X.s.L.!.&.N V j h m j V N m C d 2 ",
"i B x n M x x r x b b y @.8.6.h.l.8.8Xz.- c d u t a F m a a q a ",
"g S z x b g x r z z g r | c.5.W.W.8.uXiX+ N N c h t t h m j u d ",
"b U M x g y M b g f i y | $XZ.W.W.W.X.VX+ V C h u m a d N m m d ",
"x S b n r z b f f b z n | $XZ./.4X{.X.xXo B n B G Z x x z z z 0 ",
"n H B S x x x b y b n Z | x.4._.lX+XX.tX@ B M S U G n M B M z 3 ",
"g Z b M b z x S L z i O.S.@XXXNXm.#X(.1.0.Q b B x x l [ G G M 0 ",
"z H B n B b B Y L y e O.i.G.CXw..X7.k.1.0.R g g r z ' 0Xn x x r ",
"g P S b M b M S M z f o...9.R.g.W.7.k.1.0.Q x i i n B B g i x f ",
"0 M B z M x n z G J z o.| 0.1.).^.7.k.1.0._ B b x n b b g g b i ",
"e g b x B b Z b { nXg O.X.d.1.jX%Xu.k.e.D.) n M n n x x i y y 3 ",
"y r i i x i n g y f 0 o.M.}.a.fXC.C.>XZ.$X, r g 0 y f z i y i 7 ",
"q 9 d F j d u u m 4 8 O.S.@X7XN.,X7.gXZ.$X, g g r y b B x i e 7 ",
"q u h C m V c d ^ p u O.E.qX2X2.g.U.hXZ.$XQ b n g g n Z eXB b i ",
"t V V V c N d u |   h O.P.wXI.~.9XMXzXy.K.) n M b z x n Z H S g ",
"4 m V m j m j m < ( m O.3.mXT.Q.6XvX X1.0.! x M n z f g b Z B i ",
"9 v m N c m h N V ; = O.S.=X1.Q.W.W.X.W.0.W n S A b z z z n n i ",
"m N c N v v u d m d d Y.B.&Xt.1X].g.J.l.;./ B } bXn n n x x b z ",
"m m c V c N v c N m m J | A.-Xr.pXF.gXg.@ x S M M x b M x f f g ",
"D F K I j v m m m D V V | | tXyXn.;X].,.@ x S b n g x B z r r y ",
"z Z U x G B g n M Z S Z | oXV.aXlX+Xj.,.$ M x B Z g z Z Z 0 a c ",
"z M n i x x z S M M b x | 0.0.v.3X[.X.|.o b z b S z g x x r m C ",
"r b f z b x b S n n x g O <.j.X.W.p.<X'.X n n n M b x g x f N c ",
"z H n G S S B n b Z Z b T | rXdX .:XlX%.s n M b g z g y z z m q ",
"b P n Z n Z M i f b n x ~ =.a.sXBXcXb.. f x n z n n x i n S J t ",
"r b n Z B S M i z x b M Z # | ^.*X`.X.H n B G M z z g y b n c 1 ",
"r i G P P G B n B B S L U ] -.3.W.q.` P B S H Z n n B M G B m 4 ",
"f 0 B M n r r x g z n Z M z f #.+.% B Z x x b f f i f f x g v w "
};
