/* XPM */
static char *result[] = {
/* columns rows colors chars-per-pixel */
"32 32 207 2 ",
"   c #385F34",
".  c #267C21",
"X  c #297A25",
"o  c #2B7B26",
"O  c #2D7B27",
"+  c #2B7C26",
"@  c #2C7C27",
"#  c #2D7B29",
"$  c #2C7D28",
"%  c #2D7E29",
"&  c #31712C",
"*  c #33752D",
"=  c #33762F",
"-  c #317A2C",
";  c #337C2D",
":  c #347D2F",
">  c #396F34",
",  c #367530",
"<  c #3B7037",
"1  c #367932",
"2  c #347D30",
"3  c #44433F",
"4  c #40683A",
"5  c #464541",
"6  c #474642",
"7  c #474644",
"8  c #494844",
"9  c #4A4945",
"0  c #494846",
"q  c #4A4947",
"w  c #4B4A46",
"e  c #4C4B47",
"r  c #4A4C47",
"t  c #4B4A48",
"y  c #4C4B49",
"u  c #4D4C48",
"i  c #4E4D49",
"p  c #4D4C4A",
"a  c #4E4D4B",
"s  c #4F4E4A",
"d  c #4F4E4C",
"f  c #504F4B",
"g  c #504F4D",
"h  c #4C5149",
"j  c #4F514A",
"k  c #4E554B",
"l  c #4E5E4B",
"z  c #50514B",
"x  c #52544A",
"c  c #51504C",
"v  c #50514D",
"b  c #52514D",
"n  c #51504E",
"m  c #52514F",
"M  c #53524E",
"N  c #54534F",
"B  c #54544E",
"V  c #575C4B",
"C  c #51584C",
"Z  c #535A4E",
"A  c #535250",
"S  c #545351",
"D  c #555450",
"F  c #565551",
"G  c #555651",
"H  c #565650",
"J  c #565751",
"K  c #555452",
"L  c #555552",
"P  c #565553",
"I  c #555652",
"U  c #575652",
"Y  c #565752",
"T  c #575654",
"R  c #585753",
"E  c #585755",
"W  c #585B53",
"Q  c #595854",
"!  c #5A5955",
"~  c #595A54",
"^  c #5A5B55",
"/  c #595856",
"(  c #5A5957",
")  c #5B5A56",
"_  c #5C5B57",
"`  c #5A5C55",
"'  c #5B5A58",
"]  c #5C5B59",
"[  c #5D5C58",
"{  c #5E5D59",
"}  c #5D5C5A",
"|  c #5E5D5B",
" . c #5F5E5A",
".. c #5F5E5C",
"X. c #605F5D",
"o. c #466442",
"O. c #596244",
"+. c #6D6E60",
"@. c #0C9C06",
"#. c #0D9C06",
"$. c #0C9D06",
"%. c #0D9D06",
"&. c #0E9D06",
"*. c #0C9E06",
"=. c #0F9D08",
"-. c #119F06",
";. c #10970B",
":. c #109A0A",
">. c #12980C",
",. c #1D8E17",
"<. c #1E8B18",
"1. c #22871D",
"2. c #248D19",
"3. c #0CA106",
"4. c #0CA206",
"5. c #0CA306",
"6. c #0CA606",
"7. c #0EA606",
"8. c #0CA906",
"9. c #0EAB07",
"0. c #0CAF05",
"q. c #0CAC06",
"w. c #0CAD06",
"e. c #0CAE06",
"r. c #14A007",
"t. c #1BA407",
"y. c #0CB005",
"u. c #0CB105",
"i. c #0CB205",
"p. c #0CB805",
"a. c #0CBA05",
"s. c #0CBB05",
"d. c #0CBD05",
"f. c #0CBE05",
"g. c #0CBF05",
"h. c #1DB307",
"j. c #18B00F",
"k. c #2CAD09",
"l. c #27B708",
"z. c #2BB709",
"x. c #3EB70B",
"c. c #39BB0A",
"v. c #3BBB0A",
"b. c #3ABD0A",
"n. c #3DBE0A",
"m. c #2A8325",
"M. c #3EBA2D",
"N. c #45BB0B",
"B. c #43BF0B",
"V. c #49BC0C",
"C. c #49BF0C",
"Z. c #51B414",
"A. c #6E8A37",
"S. c #54BB3E",
"D. c #0CC005",
"F. c #0DC005",
"G. c #0FC005",
"H. c #10C105",
"J. c #11C105",
"K. c #14C206",
"L. c #1AC007",
"P. c #19C406",
"I. c #1CC507",
"U. c #10C108",
"Y. c #21C607",
"T. c #28C808",
"R. c #2BC908",
"E. c #38C10A",
"W. c #31CA0A",
"Q. c #38CD0B",
"!. c #46C00B",
"~. c #4EC30C",
"^. c #50C00C",
"/. c #55C30D",
"(. c #57C40D",
"). c #5AC60D",
"_. c #55D40C",
"`. c #58D60D",
"'. c #5BC515",
"]. c #5FC51E",
"[. c #6ACE0F",
"{. c #69DA0E",
"}. c #7AD710",
"|. c #7AE010",
" X c #66D12F",
".X c #68D92A",
"XX c #67C44C",
"oX c #6CD940",
"OX c #7CCA5D",
"+X c #6FD951",
"@X c #7ED55D",
"#X c #98E713",
"$X c #9BE813",
"%X c #9EEA14",
"&X c #9FEB14",
"*X c #A0EB14",
"=X c #A2EB18",
"-X c #A0EA1E",
";X c #AAED28",
":X c #9B9E7F",
">X c #82C961",
",X c #88CE66",
"<X c #94D662",
"1X c #BEEF68",
"2X c #B9BE93",
"3X c #BEEC8F",
"4X c #E3F4AC",
/* pixels */
"0 d K K S n y d d A E T K a n t f s M U D , R D b 9 w i D b 3 6 ",
"n K E / ' / A m ( / ( E E A K y u M ! [ ! W _ [ D M . s R ) F i ",
"S T E / ' / P K ( T K K / E ( & * ^  .[ ) R U Q F U M ! ! D ) R ",
"n T T P K A K P A n n n P T 1 @.f.:.U F Q Q F F [ N c _ { R F i ",
"d E T P K m S S m A S g n n @.g.R.+XO b R Q N M U N Q R U ! b 6 ",
"g E S P T S S a S K K d a ;.q.D.J.-X>XC F D b f s c _ U c c u c ",
"m ( A S K m S a A A m a n @.z.&Xc.y.b.Z F R R D M s s M U N f b ",
"K ..T S m d T K m n g d = @._.t.f.d.w.>.F Q ! M f U c b R U U b ",
"S ( K P a A K n n K A P : @.@X9. XG.M.$.K E P E ' / S S A A A y ",
"P ] E ( S S S K d K P / 2 @.'.g.j.3.,X@.P E T ( ..' P T E T A 7 ",
"m / K T K A S ( } L +.I 1.N.(.%Xw.$.n.8.o.T K E S S A E ' ' T y ",
"A ] E P E K E X.} g H G @.*X/.*XC.-.f.4.+ K m m a A P E P S S a ",
"m | ( K T K T ( T A n v @.*X/.[.E.%X^.r.+ T S g A.P E E m g S n ",
"y T E A T S P A ( T :Xv @.Y./.&.u.$X^.r.$ ] E K S P K K m m K g ",
"p m K S E K / K K A m Y @.D.v.%.l.{.q.*.$ / P T P P S S g d d 7 ",
"d a g g S g P m d n y r @.D.e.$.).g.q.*.o m a m y d n A g d g q ",
"u e b _ N b f f U 8 w j @.D.e.$..X8.a.S.X m m m O.x K E S g p q ",
"u f M ! U Q D b F i f z @.D.e.$.1XH.~.4X@ T K P V B P / / E K g ",
"s Q Q Q D R b f M c M j @.&Xe.$.oX=XB.#X% 2XP T K A S P / ] ( m ",
"8 U Q U N U N U U F U J @.&XXX=.P.T.y.#X% E S T P A n m K / E g ",
"e F U R D U M R Q D F ` @.&XOXU.w.D.^.K.% P P / E K A A A P P g ",
"U R D R F F f b U b b _ m.k.].3X0.5.L.7.l K E / E P P P S S K A ",
"U U D Q D R F D R U U [ ; #.(.g.`.F.!.@.P S ( T T S K T S n n m ",
") _ {  .N F U U U ) Q Q - @.h.g.I.F.y.@.P S ( K P m S E A a a d ",
"A / ..S ' E m P T / ( / < @.s.$.D.D.x.2./ T S E / m A / / y c D ",
"A T P g S S A ( T T K S K @.e.}.i.6.V.k K K A K ( A m S S a U ! ",
"a K n A K S K ( P P S m A <.8.|.<XW.Z.h A P P P T K S m S n R D ",
"A ] P ' ( ( E P K / / K K E @.g.;XQ.# g n P T K m A m d A A U u ",
"K | P / P / T g n K P S S P > @.p.,.( S n S P A P P S g P ( [ s ",
"a K P / E ( T g A S K T / E n   4 ~ X.] P E ' T A A m d K P D 5 ",
"a g ' | | ' E P E E ( } ..' S d c F | | E ( ] / P P E T ' E U 8 ",
"n y E T P a a S m A P / T A n n e f E / S S K n n g n n S m F i "
};
