/* XPM */
static char *result[] = {
/* columns rows colors chars-per-pixel */
"32 32 210 2 ",
"   c #44433F",
".  c #464541",
"X  c #474642",
"o  c #474644",
"O  c #494844",
"+  c #4A4945",
"@  c #494846",
"#  c #4A4947",
"$  c #4B4A46",
"%  c #4C4B47",
"&  c #4C4B49",
"*  c #4D4C48",
"=  c #4E4D49",
"-  c #4D4C4A",
";  c #4E4D4B",
":  c #4F4E4A",
">  c #4F4E4C",
",  c #504F4B",
"<  c #514E4D",
"1  c #504F4D",
"2  c #51504C",
"3  c #52514D",
"4  c #51504E",
"5  c #52514F",
"6  c #53524E",
"7  c #54534F",
"8  c #524A51",
"9  c #534B53",
"0  c #544B54",
"q  c #544E54",
"w  c #564E55",
"e  c #574F55",
"r  c #564D57",
"t  c #564E56",
"y  c #574E57",
"u  c #574F58",
"i  c #584F58",
"p  c #5A4D5D",
"a  c #5C4D5F",
"s  c #535150",
"d  c #535250",
"f  c #545351",
"g  c #555450",
"h  c #565551",
"j  c #555452",
"k  c #565553",
"l  c #575652",
"z  c #565054",
"x  c #575156",
"c  c #575654",
"v  c #585753",
"b  c #585057",
"n  c #595357",
"m  c #585554",
"M  c #585755",
"N  c #585656",
"B  c #595854",
"V  c #5A5955",
"C  c #595856",
"Z  c #5B5857",
"A  c #5A5957",
"S  c #5B5A56",
"D  c #5C5B57",
"F  c #585059",
"G  c #5B5259",
"H  c #5B535A",
"J  c #5D565A",
"K  c #5E535F",
"L  c #5B5A58",
"P  c #5C5B59",
"I  c #5D5C58",
"U  c #5E5D59",
"Y  c #5D5C5A",
"T  c #5E5D5B",
"R  c #5F5E5A",
"E  c #5F5A5E",
"W  c #5F5E5C",
"Q  c #605F5D",
"!  c #5C4B61",
"~  c #5D4B61",
"^  c #5D4E60",
"/  c #5E4C63",
"(  c #5F4E63",
")  c #604F64",
"_  c #634E67",
"`  c #634C6A",
"'  c #654A6D",
"]  c #654B6E",
"[  c #664A6F",
"{  c #664B6F",
"}  c #654C6D",
"|  c #605361",
" . c #615761",
".. c #605462",
"X. c #615562",
"o. c #615065",
"O. c #615066",
"+. c #635267",
"@. c #645466",
"#. c #645568",
"$. c #674970",
"%. c #664A70",
"&. c #674A70",
"*. c #674B70",
"=. c #694973",
"-. c #684A72",
";. c #694D71",
":. c #6A4D72",
">. c #694974",
",. c #6A4A75",
"<. c #6A4A76",
"1. c #6B4A76",
"2. c #6C4B77",
"3. c #6C4C77",
"4. c #6D4B78",
"5. c #6D4C78",
"6. c #6E4E78",
"7. c #6F4D7A",
"8. c #6F4D7B",
"9. c #6F4E7A",
"0. c #6F4F7B",
"q. c #704E7B",
"w. c #704E7C",
"e. c #714E7C",
"r. c #714F7C",
"t. c #714E7D",
"y. c #724F7D",
"u. c #724F7E",
"i. c #6E5F71",
"p. c #72517D",
"a. c #73507E",
"s. c #73507F",
"d. c #73527E",
"f. c #74507F",
"g. c #74517F",
"h. c #74537F",
"j. c #745E7B",
"k. c #745080",
"l. c #745180",
"z. c #755180",
"x. c #755181",
"c. c #755280",
"v. c #755380",
"b. c #775283",
"n. c #775383",
"m. c #765481",
"M. c #775582",
"N. c #775682",
"B. c #785384",
"V. c #785684",
"C. c #795784",
"Z. c #795685",
"A. c #795785",
"S. c #7A5586",
"D. c #7B5687",
"F. c #795884",
"G. c #7A5885",
"H. c #7A5A85",
"J. c #7C5788",
"K. c #7C5888",
"L. c #7C5988",
"P. c #7D5988",
"I. c #7D5B88",
"U. c #7E598A",
"Y. c #7E5A8A",
"T. c #7F5A8A",
"R. c #7D6484",
"E. c #7F6288",
"W. c #7F618A",
"Q. c #805D8B",
"!. c #805B8C",
"~. c #805C8C",
"^. c #815D8D",
"/. c #825F8D",
"(. c #825D8E",
"). c #825F8E",
"_. c #835E8F",
"`. c #835F8F",
"'. c #83608F",
"]. c #84628F",
"[. c #856091",
"{. c #856291",
"}. c #866391",
"|. c #866292",
" X c #866392",
".X c #876293",
"XX c #876393",
"oX c #876493",
"OX c #886493",
"+X c #886494",
"@X c #896595",
"#X c #896695",
"$X c #8A6696",
"%X c #8A6796",
"&X c #8B6997",
"*X c #8C6898",
"=X c #8D6A9A",
"-X c #8E6A9A",
";X c #8F7599",
":X c #907699",
">X c #977E9F",
",X c #9C7DA6",
"<X c #9D7EA7",
"1X c #A48BAC",
"2X c #A48AAD",
"3X c #A98FB1",
"4X c #AA92B2",
"5X c #AE99B5",
"6X c #B5A1BC",
"7X c #B7A2BE",
/* pixels */
"@ > j j f 4 & > > d M c j ; a ,.,.< 6 l g m v g 3 + $ = g 3   X ",
"4 j M C L C d 5 A C A M M ^ 1.x.B.:.J I Z | D X.g 6 * : v S h = ",
"f c M C L C k j A c j j C >.7.(..Xk.@.I S v l K h l 6 V V g S v ",
"4 c c k j d j k d 4 4 4 } <.!.-X3.XX9.n B B h h I 7 2 D U v h = ",
"> M c k j 5 f f 5 d f 1 ' 1.T.d.n.5.q.z v B 7 6 l 7 B v l V 3 X ",
"1 M f k c f f ; f j j r $.a.K.e.B.e.w._ h g 3 , : 2 D l 2 2 * 2 ",
"5 A d f j 5 f ; d d 5 ! >.$XQ.s.B.k.t.2.h v v g 6 : : 6 l 7 , 3 ",
"j W c f 5 > c j 5 4 1 ~ >.6X7.B.B.k.I.0.h B V 6 , l 2 3 v l l 3 ",
"f A j k ; d j 4 4 j d ) >.2X7.U.~.k.I.0.j M k M L C f f d d d & ",
"k P M A f f f j > j k O.>.%X7.XX-Xk.c.5.k M c A W L k c M c d o ",
"5 C j c j d f A Y d t =.z.2.!.m.,.4Xq. X{ c j M f f d M L L c & ",
"d P M k M j M Q Y > 0 >.x.1.u.s.+XE.:X'.%.j 5 5 ; d k M k f f ; ",
"5 T A j c j c A c d y >.x.1.u.s.B.F.W.w.%.c f 1 1 k M M 5 1 f 4 ",
"& c M d c f k d A c F >.x.1.u.s.B.k.t.2.&.P M j f k j j 5 5 j 1 ",
"- 5 j f M j C j j d i >.n.1.g.z.#X{.e.4.&.i.-XN k k f f 1 > > o ",
"> ; 1 1 f 1 k 5 > 4 9 >.oX5.Q.L.,.+Xq.P.%. .j.s & > 4 d 1 > 1 # ",
"* % 3 D 7 3 , , l O 8 >.oX5.Q.s.).A.M.OX[ 5 5 5 ; > j M f 1 - # ",
"* , 6 V l B g 3 h = w >.oX5.Q.s.B.p.G.5X&.c j &X5 5 k C C M j 1 ",
": B B B g v 3 , 6 2 b >.).5.,X;Xd.b.H.1X*.C k c j d f k C P A 5 ",
"O l B l 7 l 7 l l h H >.x.2..X<X`.k.>X].*.M f c k d 4 5 j C M 1 ",
"% h l v g l 6 v B g G >.x.l.y.J.B.k.N.@X*.k k C M j d d d k k 1 ",
"l v g v h h , 3 l 3 e -.f.b.r.n.D./.s.XX} j M C M k k k f f j d ",
"l l g B g v h g v l l +.>.S.Q.Z.=X9.~.5.k f A c c f j c f 4 4 5 ",
"S D U R 7 h l l l S B o.>.8.~.C.h.}.G.>.k f A j k 5 f M d ; ; > ",
"d C W f L M 5 k c C A O.>.1.B..X-X{.I.0.C c f M C 5 d C C & 2 g ",
"d c k 1 f f d A c c j ( >.K.7._.+Xu.s.2.j j d j A d 5 f f ; l V ",
"; j 4 d j f j A k k f u &.^.V.x.B.4.s./ d k k k c j f 5 f 4 v g ",
"d P k L A A M k j C C j ] 9.*Xv.1.@XC.q 4 k c j 5 d 5 > d d l * ",
"j T k C k C c 1 4 j k f ` ,.Y.3X7X|.6.x 4 f k d k k f 1 k A I : ",
"; j k C M A c 1 d f j c C >.7.~.[.k.#.P k M L c d d 5 > j k g . ",
"; 1 L T T L M k M R.A Y W ..1.l.B.;.E T M A P C k k M c L M l O ",
"4 & M c k ; ; f 5 d k C c d p >.>., M C f f j 4 4 1 4 4 f 5 h = "
};
