/* XPM */
static char *result[] = {
/* columns rows colors chars-per-pixel */
"32 32 227 2 ",
"   c #44433F",
".  c #464541",
"X  c #474642",
"o  c #474644",
"O  c #494844",
"+  c #4A4945",
"@  c #494846",
"#  c #4A4947",
"$  c #4B4A46",
"%  c #4C4B47",
"&  c #4B4A48",
"*  c #4C4B49",
"=  c #4D4C48",
"-  c #4E4D49",
";  c #4D4C4A",
":  c #4E4D4B",
">  c #4F4E4A",
",  c #4F4E4C",
"<  c #504F4B",
"1  c #504F4D",
"2  c #514F4D",
"3  c #514F4E",
"4  c #534F4F",
"5  c #51504C",
"6  c #52514D",
"7  c #51504E",
"8  c #52514F",
"9  c #53524E",
"0  c #54534F",
"q  c #514A50",
"w  c #524B52",
"e  c #534B53",
"r  c #544E52",
"t  c #554E53",
"y  c #574F55",
"u  c #564F56",
"i  c #574F57",
"p  c #584F58",
"a  c #584D5A",
"s  c #5A4B5E",
"d  c #5B4E5D",
"f  c #535250",
"g  c #535251",
"h  c #545251",
"j  c #545351",
"k  c #565153",
"l  c #545252",
"z  c #555450",
"x  c #565551",
"c  c #555452",
"v  c #565553",
"b  c #575652",
"n  c #575554",
"m  c #575654",
"M  c #585753",
"N  c #585056",
"B  c #585057",
"V  c #585455",
"C  c #585755",
"Z  c #585456",
"A  c #585656",
"S  c #585756",
"D  c #595854",
"F  c #5A5955",
"G  c #595856",
"H  c #595857",
"J  c #5A5957",
"K  c #5B5A56",
"L  c #5C5B57",
"P  c #5A5358",
"I  c #5B5359",
"U  c #5B535A",
"Y  c #5C505C",
"T  c #5B5859",
"R  c #5B5A58",
"E  c #5C5B59",
"W  c #5D5B5B",
"Q  c #5D5C58",
"!  c #5E5D59",
"~  c #5D5C5A",
"^  c #5E5D5B",
"/  c #5F5E5A",
"(  c #5E5B5D",
")  c #5F5B5D",
"_  c #5F5A5E",
"`  c #5F5E5C",
"'  c #605B5D",
"]  c #605F5D",
"[  c #5D4B61",
"{  c #5E4B63",
"}  c #5E4C63",
"|  c #5F4C64",
" . c #5F4E64",
".. c #604D64",
"X. c #604E65",
"o. c #604F65",
"O. c #614D67",
"+. c #614E66",
"@. c #614F66",
"#. c #614E67",
"$. c #624F67",
"%. c #634C69",
"&. c #634E69",
"*. c #654A6E",
"=. c #664A6F",
"-. c #664B6F",
";. c #654C6C",
":. c #674E6E",
">. c #615065",
",. c #615066",
"<. c #625166",
"1. c #635267",
"2. c #615961",
"3. c #625A62",
"4. c #675B68",
"5. c #675D69",
"6. c #664A70",
"7. c #674A70",
"8. c #674B70",
"9. c #674B71",
"0. c #684972",
"q. c #684973",
"w. c #684A73",
"e. c #694B73",
"r. c #694C73",
"t. c #6B4F73",
"y. c #694974",
"u. c #6A4A75",
"i. c #6C4B77",
"p. c #6C4B78",
"a. c #6D4C78",
"s. c #6D4D79",
"d. c #6E4D79",
"f. c #6E4D7A",
"g. c #6F4D7B",
"h. c #704E7B",
"j. c #704F7B",
"k. c #704E7C",
"l. c #714E7C",
"z. c #714F7C",
"x. c #714E7D",
"c. c #714F7D",
"v. c #724F7D",
"b. c #734F7E",
"n. c #71507C",
"m. c #71517D",
"M. c #72507D",
"N. c #71527C",
"B. c #74517F",
"V. c #6E696E",
"C. c #736D73",
"Z. c #745080",
"A. c #755180",
"S. c #755181",
"D. c #755381",
"F. c #765182",
"G. c #765282",
"H. c #775283",
"J. c #775383",
"K. c #755580",
"L. c #765581",
"P. c #775483",
"I. c #775682",
"U. c #785383",
"Y. c #785683",
"T. c #785384",
"R. c #795584",
"E. c #795585",
"W. c #795784",
"Q. c #7A5686",
"!. c #7B5786",
"~. c #7B5687",
"^. c #785A82",
"/. c #7A5885",
"(. c #7A5886",
"). c #7B5987",
"_. c #7C5A87",
"`. c #7C5788",
"'. c #7D5988",
"]. c #7D5889",
"[. c #7D5989",
"{. c #7E5989",
"}. c #7D5B89",
"|. c #7F5B8B",
" X c #7F5D8B",
".X c #7F5F8A",
"XX c #805D8B",
"oX c #805D8C",
"OX c #815D8D",
"+X c #815E8D",
"@X c #825F8D",
"#X c #825E8E",
"$X c #835F8F",
"%X c #845F90",
"&X c #82608E",
"*X c #83608F",
"=X c #83618F",
"-X c #837A83",
";X c #846090",
":X c #856191",
">X c #866192",
",X c #866292",
"<X c #866392",
"1X c #876293",
"2X c #876393",
"3X c #876493",
"4X c #886494",
"5X c #886594",
"6X c #896594",
"7X c #896495",
"8X c #896595",
"9X c #8A6696",
"0X c #8B6797",
"qX c #8D6A9A",
"wX c #8D6C98",
"eX c #93729E",
"rX c #947A9C",
"tX c #997BA3",
"yX c #987DA0",
"uX c #9A7FA2",
"iX c #9B7EA5",
"pX c #AC96B3",
"aX c #AF9AB6",
"sX c #B29BB9",
"dX c #B19CB8",
"fX c #B39DBA",
"gX c #B59FBD",
/* pixels */
"@ , c c j 7 * , , f C m c : 7 & < > 9 b z b M z 6 + $ - z 6   X ",
"7 c C G R G f 8 J G J C C l O.i.e.k F Q F F L Q z 9 = > M K x - ",
"j m C G R G v c J m c c G &.a.H.H.t.' Q K M b D x b 9 F F z K M ",
"7 m m v c f c v f 7 7 7 v y.k.4X7Xx.I x D D x x Q 0 5 L ! M x - ",
", C m v c 8 j j 8 f j 1 *.i.|.z.3X%Xi.6 M D 0 9 b 0 D M b F 6 X ",
"1 C j v m j j : j c c , *.i.l.S.a.{.i.z x z 6 < > 5 L b 5 5 = 5 ",
"8 J f j c 8 j : f f 8 s q.Z.k.U.Z./.Q.;.x M M z 9 > > 9 b 0 < 6 ",
"c ` m j 8 T S c 8 7 1 [ y.R.k.T.G.W.eX8.x D F 9 < b 5 6 M b b 6 ",
"j J c v : C.H 7 7 c f o.y.3Xk.T.T.x.pX9.c C v C R G j j f f f * ",
"v E C J j j j c , c v ,.y.3Xk.1X2Xx.wX9.v C m J ` R v m C m f o ",
"8 G c m c f j J ~ f 3 #.s.Z.L.3X2XB.&Xr.Z m c C j j f C R R m * ",
"f E C v C c C ] ~ , e y.5XN.yX.Xv.!.i.G...c 8 8 : h 4.C v j j : ",
"8 ^ J c m c m J m f u y.Q.^.rXE.G.h.i.G...m j 1 1 n _ C 8 1 j 7 ",
"* m C f m j v f J m B y.y.S.k.T.G.h.i.G.+.E C c j v c c 8 8 c 1 ",
"; 8 c j C c G c V.A i y.y.S.D.OXG.h.i.G.+.G v m v v j j 1 , , o ",
", : 1 1 j 1 v 8 ( j w y.b.S.).I.;Xh.i.:X| 8 : 8 * , 7 f 1 , 1 # ",
"= % 6 L 0 6 < < b O q y.5Xi.#Xm.G.(.n.9X{ 8 8 8 : , c C j 1 ; # ",
"= < 9 F b D z 6 x - t y.tXj._.oXG.(.n.9XX.m c v 8 8 v 5.G C c 1 ",
"> D D D z M 6 r %.4 N y.dXa.E.f.K.iXn.9X$.G v m c f j 2.G E J 8 ",
"O b D b 0 b 0 U w.V I y.F.aXk.8XgXqXn.G.$.C j m v f 7 8 c G C 1 ",
"% x b M z b 9 M D Y P y.'.uXk.T.,X[.g.G.$.v v G C c f f f v v 1 ",
"b M z M x x < 6 b p y y.6XS.Y.~.T.x.A.G.@.c W -XC v v v j j c f ",
"b b z D z M x z M b b 1.y.9Xl.3XG.(.].9.v j J m m j c m j 7 7 8 ",
"K L ! / 0 x b b b K D >.y.j.@XXXoX}.P.9.v j J c v 8 j C f : : , ",
"f G ` j R C 8 v m G J ,.y. X@X=X+X`.i.7.G m j C G 8 f G G * 5 z ",
"f m v 1 j j f J m m c  .y.G.l.9X0Xx.A.6.c c f c J f 8 j j : b F ",
": c 7 f c j c J v v j d 0.Z.k.S.J.B.*X6.f v v v m c j 8 j 7 M z ",
"f E v R J J C v c G G c -.d.$XM.c.<XD.a 7 v m c 8 f 8 , f f b = ",
"c ^ v G v G m 1 7 c v j =.i.%XsXfX;Xp.j 7 j v f v v j 1 v J Q > ",
": c v G C J m 1 f j c m G y.k.:X>Xx.3.E v C R m f f 8 , c v z . ",
": 1 R ^ ^ R C v C C J ~ ` <.i.G.H.:.) ^ C J E G v v C m R C b O ",
"7 * C m v : : j 8 f v G m g } u.=.2 C G j j c 7 7 1 7 7 j 8 x - "
};
