/* XPM */
static char *result[] = {
/* columns rows colors chars-per-pixel */
"32 32 231 2 ",
"   c #44433F",
".  c #464541",
"X  c #474642",
"o  c #474644",
"O  c #494844",
"+  c #4A4945",
"@  c #494846",
"#  c #4A4947",
"$  c #4B4A46",
"%  c #4C4B47",
"&  c #4C4B49",
"*  c #4D4A4A",
"=  c #4D4C48",
"-  c #4E4D49",
";  c #4D4C4A",
":  c #4E4D4B",
">  c #4F4E4A",
",  c #4E4B4D",
"<  c #4F4C4D",
"1  c #4F4E4C",
"2  c #504F4B",
"3  c #504F4D",
"4  c #524F4E",
"5  c #51504C",
"6  c #52514D",
"7  c #51504E",
"8  c #52514F",
"9  c #53524E",
"0  c #54534F",
"q  c #524D51",
"w  c #524F50",
"e  c #534F51",
"r  c #564A57",
"t  c #564F55",
"y  c #584C5A",
"u  c #584C5B",
"i  c #594E5B",
"p  c #594C5C",
"a  c #5A4D5C",
"s  c #5B4E5D",
"d  c #5C4F5E",
"f  c #535051",
"g  c #535250",
"h  c #545050",
"j  c #555151",
"k  c #545351",
"l  c #545052",
"z  c #555153",
"x  c #555450",
"c  c #565551",
"v  c #555452",
"b  c #575552",
"n  c #565553",
"m  c #575652",
"M  c #565254",
"N  c #575255",
"B  c #575355",
"V  c #575256",
"C  c #575356",
"Z  c #575554",
"A  c #575654",
"S  c #585753",
"D  c #585454",
"F  c #585455",
"G  c #585555",
"H  c #585755",
"J  c #585457",
"K  c #585656",
"L  c #595854",
"P  c #5A5955",
"I  c #595856",
"U  c #5A5957",
"Y  c #5B5A56",
"T  c #5C5B57",
"R  c #585058",
"E  c #5B565A",
"W  c #5C565A",
"Q  c #5C515C",
"!  c #5D515F",
"~  c #5B5A58",
"^  c #5C5B59",
"/  c #5D5C58",
"(  c #5E5D59",
")  c #5D5C5A",
"_  c #5E5D5B",
"`  c #5F5E5A",
"'  c #5D585C",
"]  c #5F5C5D",
"[  c #5F5E5C",
"{  c #605F5D",
"}  c #5F5360",
"|  c #5F5361",
" . c #604F64",
".. c #604C66",
"X. c #614C67",
"o. c #614E66",
"O. c #614F66",
"+. c #634A6B",
"@. c #624D68",
"#. c #634F68",
"$. c #634C6A",
"%. c #644E6A",
"&. c #664B6F",
"*. c #615562",
"=. c #605860",
"-. c #66516B",
";. c #66506C",
":. c #684972",
">. c #694973",
",. c #684A72",
"<. c #694974",
"1. c #6A4975",
"2. c #6A4A75",
"3. c #6B4A76",
"4. c #6B4B76",
"5. c #6C4B77",
"6. c #6C4C76",
"7. c #6C4C77",
"8. c #6C4D77",
"9. c #6D4B78",
"0. c #6D4C78",
"q. c #6D4D78",
"w. c #6D4C79",
"e. c #6E4C79",
"r. c #6D4E78",
"t. c #6E4C7A",
"y. c #6F4D7A",
"u. c #6F4D7B",
"i. c #6F4E7A",
"p. c #704D7B",
"a. c #704E7B",
"s. c #704E7C",
"d. c #714E7C",
"f. c #714F7C",
"g. c #714E7D",
"h. c #724F7E",
"j. c #734F7E",
"k. c #6A5271",
"l. c #70507C",
"z. c #71507C",
"x. c #71517C",
"c. c #72517D",
"v. c #72517E",
"b. c #73507F",
"n. c #73517F",
"m. c #74527F",
"M. c #74537F",
"N. c #73547D",
"B. c #696667",
"V. c #696668",
"C. c #6B656A",
"Z. c #6F696E",
"A. c #787178",
"S. c #745080",
"D. c #745180",
"F. c #755180",
"G. c #755181",
"H. c #765181",
"J. c #745280",
"K. c #745380",
"L. c #765282",
"P. c #775283",
"I. c #775383",
"U. c #755480",
"Y. c #775682",
"T. c #785683",
"R. c #785384",
"E. c #795484",
"W. c #795485",
"Q. c #795585",
"!. c #7A5586",
"~. c #7B5686",
"^. c #7B5687",
"/. c #785B83",
"(. c #795984",
"). c #7A5885",
"_. c #7B5886",
"`. c #7B5986",
"'. c #7C5987",
"]. c #7C5888",
"[. c #7C5988",
"{. c #7D5989",
"}. c #7C5A88",
"|. c #7E5B89",
" X c #7E598A",
".X c #7E5A8A",
"XX c #7F5D8B",
"oX c #7B6283",
"OX c #7E6188",
"+X c #805C8C",
"@X c #815C8D",
"#X c #815D8D",
"$X c #815E8C",
"%X c #815E8D",
"&X c #825F8D",
"*X c #825D8E",
"=X c #825F8E",
"-X c #835E8F",
";X c #83658D",
":X c #85658F",
">X c #85678F",
",X c #846090",
"<X c #856190",
"1X c #866392",
"2X c #876393",
"3X c #876493",
"4X c #896595",
"5X c #896795",
"6X c #8B6797",
"7X c #8B6897",
"8X c #8C6898",
"9X c #8C6998",
"0X c #8E6A9A",
"qX c #92739C",
"wX c #95749F",
"eX c #92789B",
"rX c #967F9D",
"tX c #977AA0",
"yX c #9878A3",
"uX c #997CA2",
"iX c #9A7EA3",
"pX c #8F8591",
"aX c #9C82A4",
"sX c #9C84A4",
"dX c #9E86A6",
"fX c #9F84A8",
"gX c #A890B0",
"hX c #AD96B5",
"jX c #AE98B6",
"kX c #B099B7",
"lX c #B29DB9",
/* pixels */
"@ 1 v v k 7 & 1 1 g H A v : t :.:.> 9 m x m S x 6 + $ - x 6   X ",
"7 v H I ~ I g 8 U I U H H R 1.h.R.6.W / P P T / x 9 = > S Y c - ",
"k A H I ~ I n v U A v v I ,.5.R.@XiX;./ Y S m L c m 9 P P x Y S ",
"7 A A n v g v n g 7 7 7  .>.H.R.^.yXrXQ L L c c / 0 5 T ( S c - ",
"1 H A n v 8 k k 8 g k 3 ..<. X9Xc.R.$Xs S L 0 9 m 0 L S m P 6 X ",
"3 H k n A k k : k v v q +.e.7XT.H.y.g.#.b x 6 2 > 5 T m 5 5 = 5 ",
"8 U g k v 8 k : g g 8 y <.P.fXs.-XI.e.y.F S S x 9 > > 9 m 0 2 6 ",
"v [ A k 8 1 A v 8 7 3 u <.lXx.tXOX~.dX<.F L P 9 2 m 5 6 S m m 6 ",
"k U v n : g v 7 7 v g ! <.6X0.n.D.8.aX<.C H n H ~ I k k g g g & ",
"n ^ H U k k k v C.] Z %.K.9Xl.}.D.2._.w.O.H A U [ ~ n A H A g o ",
"8 I v A v g k U B.K w <.$XM.3X}.%X1.P.p.<.A v H k k g H ~ ~ A & ",
"g ^ H n H v H { ) 1 < <.$X7.0X'.<X9XU.T.<.v 8 8 : oXn H n k k : ",
"8 _ U v A v A U A Z.e <.[.4.1Xs.S.9XU.T.<.A k 3 3 n H H 8 3 k 7 ",
"& A H g A k n g U A.z <.j.2.1Xs.9.9Xf.v.<.^ H v k n v v 8 8 v 3 ",
"; 8 v k H v I v v g l <.j.2.I.).z.!.e.y.<.I n A n n k k 3 1 1 o ",
"1 : 3 3 k 3 n 8 1 7 , <.j.2.G.`.m.G.p.y.<.8 : 8 & 1 7 g 3 1 3 # ",
"= % 6 T 0 6 2 2 m O * <.j.2.G.>X&Xa.L.;Xr.8 8 8 : V =.H k 3 ; # ",
"= 2 9 P m L x 6 c - 4 <.j.2.G.eXwXW.|.sXN.A v n 8 B ' I I H v 3 ",
"> L L L x S 6 2 9 5 j <.$X7.G.s.hX0X=XXXq.V.pXA v g k n I ^ U 8 ",
"O m L m 0 m 0 m m c G <.$X7.:Xs.,X2Xb.XXq.H k A n g 7 8 v I H 3 ",
"% c m S x m 9 S L x D <.$X7.jXs.L.R.J.+X5.n n I H v g g g n n 3 ",
"m S x S c c 2 6 m 6 h <.$X7.kXd.D.I.U.@X3.v H I H n n n k k v g ",
"m m x L x S c x S m m *.<.6X/.uXy.5.Q.t.J k U A A k v A k 7 7 8 ",
"Y T ( ` 0 c m m m Y L } <.6X5..X*XE.[.<.J k U v n 8 k H g : : 1 ",
"g I [ k ~ H 8 n A I U | <.{.5.R.{.R.b.<.E A k H I 8 g I I & 5 x ",
"g A n 3 k k g U A A v d <.P.F.d.R.I.U.Y.C v g v U g 8 k k : m P ",
": v 7 g v k v U n n k 8 X.<.I.n.P.D.i.p g n n n A v k 8 k 7 S x ",
"g ^ n ~ U U H n v I I v @.<.].qX(.h.=Xa 7 n A v 8 g 8 1 g g m = ",
"v _ n I n I A 3 7 v n k N ,.u.5XgX4Xk.M 7 k n g n n k 3 n U / > ",
": v n I H U A 3 g k v A I &.5.#X8XL.-.^ n H ~ A g g 8 1 v n x . ",
": 3 ~ _ _ ~ H n H H U ) [ ~ $.e.h.o._ _ H U ^ I n n H A ~ H m O ",
"7 & H A n : : k 8 g n I A g f i r 2 H I k k v 7 7 3 7 7 k 8 c - "
};
