/* XPM */
static char *result[] = {
/* columns rows colors chars-per-pixel */
"32 32 201 2 ",
"   c #44433F",
".  c #464541",
"X  c #474642",
"o  c #474644",
"O  c #494844",
"+  c #4A4945",
"@  c #494846",
"#  c #4A4947",
"$  c #4B4A46",
"%  c #4C4B47",
"&  c #4B4A48",
"*  c #4C4B49",
"=  c #4D4C48",
"-  c #4E4D49",
";  c #4D4C4A",
":  c #4E4D4B",
">  c #4F4E4A",
",  c #4F4E4C",
"<  c #504F4B",
"1  c #504F4D",
"2  c #504D4F",
"3  c #51504C",
"4  c #52514D",
"5  c #51504E",
"6  c #52514E",
"7  c #52514F",
"8  c #53524E",
"9  c #54534F",
"0  c #534F51",
"q  c #5A4C5D",
"w  c #535250",
"e  c #545351",
"r  c #555153",
"t  c #565153",
"y  c #555450",
"u  c #565451",
"i  c #565551",
"p  c #555452",
"a  c #565553",
"s  c #575652",
"d  c #575355",
"f  c #575555",
"g  c #575654",
"h  c #585753",
"j  c #585357",
"k  c #595357",
"l  c #585755",
"z  c #595657",
"x  c #5A5757",
"c  c #595854",
"v  c #5A5955",
"b  c #595856",
"n  c #5A5957",
"m  c #5B5A56",
"M  c #5C5B57",
"N  c #5B5659",
"B  c #5C575B",
"V  c #5C525D",
"C  c #5D535E",
"Z  c #5C565C",
"A  c #5B5A58",
"S  c #5C5B59",
"D  c #5D5C58",
"F  c #5E5D59",
"G  c #5D5C5A",
"H  c #5E5D5B",
"J  c #5F5E5A",
"K  c #5F5E5C",
"L  c #605F5D",
"P  c #605E5E",
"I  c #5E4B63",
"U  c #5F4965",
"Y  c #5F4C64",
"T  c #5F4D64",
"R  c #5E5160",
"E  c #614B66",
"W  c #614B67",
"Q  c #604C64",
"!  c #604F64",
"~  c #604E65",
"^  c #614E66",
"/  c #624E67",
"(  c #624F67",
")  c #624A69",
"_  c #624B69",
"`  c #634D69",
"'  c #634E68",
"]  c #624F68",
"[  c #654F6A",
"{  c #644B6D",
"}  c #664B6E",
"|  c #605363",
" . c #605560",
".. c #615960",
"X. c #674972",
"o. c #694973",
"O. c #694A73",
"+. c #684D71",
"@. c #694974",
"#. c #6A4975",
"$. c #6A4A75",
"%. c #6B4A76",
"&. c #6B4B76",
"*. c #6C4B77",
"=. c #6C4C77",
"-. c #6D4C79",
";. c #6E4C79",
":. c #6E4D79",
">. c #6F4F79",
",. c #6F4D7A",
"<. c #6F4D7B",
"1. c #6F4E7B",
"2. c #704D7B",
"3. c #704E7B",
"4. c #704E7C",
"5. c #714E7C",
"6. c #714F7D",
"7. c #724F7E",
"8. c #6F507A",
"9. c #72507D",
"0. c #72517D",
"q. c #72507E",
"w. c #73517E",
"e. c #73507F",
"r. c #73517F",
"t. c #74507F",
"y. c #74527F",
"u. c #636062",
"i. c #797279",
"p. c #745180",
"a. c #755180",
"s. c #755181",
"d. c #765181",
"f. c #745380",
"g. c #755281",
"h. c #765281",
"j. c #765282",
"k. c #775282",
"l. c #775283",
"z. c #775383",
"x. c #765481",
"c. c #775483",
"v. c #775583",
"b. c #785483",
"n. c #785683",
"m. c #785384",
"M. c #785584",
"N. c #7A5785",
"B. c #7A5586",
"V. c #785A82",
"C. c #795884",
"Z. c #7A5885",
"A. c #7A5A84",
"S. c #7B5987",
"D. c #7C5A87",
"F. c #7D5889",
"G. c #7D5B88",
"H. c #7F5A8B",
"J. c #7F5B8B",
"K. c #7E5C8A",
"L. c #7F5D8B",
"P. c #805B8B",
"I. c #815D8D",
"U. c #815F8D",
"Y. c #835E8F",
"T. c #84608F",
"R. c #84638F",
"E. c #84678E",
"W. c #866B8F",
"Q. c #846090",
"!. c #846190",
"~. c #856191",
"^. c #856290",
"/. c #876493",
"(. c #876792",
"). c #886494",
"_. c #886594",
"`. c #896595",
"'. c #8B6797",
"]. c #8A6F93",
"[. c #8A6995",
"{. c #8B6897",
"}. c #8C6898",
"|. c #8D6999",
" X c #906F9A",
".X c #8A7093",
"XX c #907599",
"oX c #92719D",
"OX c #93739D",
"+X c #93749D",
"@X c #947B9D",
"#X c #96789F",
"$X c #957A9E",
"%X c #9574A0",
"&X c #9776A2",
"*X c #A891AF",
"=X c #AA91B2",
"-X c #B19BB7",
";X c #B29AB9",
":X c #B7A3BE",
">X c #BDA9C3",
/* pixels */
"@ , p p e 5 * , q w l g p : 5 & < > 8 s y s h y 4 + $ - y 4   X ",
"5 p l b A b w 7 n b n l l w j #.%.t v D v v M D y 8 = > h m i - ",
"e g l b A b a p n g p p b C O.b.Q.>...D m h s c i s 8 v v y m h ",
"5 g g a p w p a w 5 5 5 a ! @.P.;X/.R i c c i i D 9 3 M F h i - ",
", l g a p 7 e e 7 w e 1 0 @.l.OXA.c.n.6 @.N 9 8 s 9 c h s v 4 X ",
"1 l e a g e e : e p p , 2 @.l.9.z.p.*.y k u Q < > 3 M s 3 3 = 3 ",
"7 n w e p 7 e : w w 7 : @.5.a.4.m.j.S.o.i h h y 8 > > 8 s 9 < 4 ",
"p K g e 7 , g p 7 5 1 , @.n.&.m.Y.m.,.o.i c v 8 < s 3 4 h s s 4 ",
"e n p a : w p 5 5 p w a @.D.=.P.|.`.3.@.p l a l A b e e w w w * ",
"a S l n e e e p , p a b @.D.=.+Xg.p.M.@.a l g n K A a g l g w o ",
"7 b p g p w e n G w 1 / =.S.-Xv.t.p.K.j.! g p l e e w l A A g * ",
"w S ] a l p l L G , ; ` =.S.:X6.d.j.Z.H.T p 7 7 : w a l a e e : ",
"7 H n p g p g n g w 5 W =.S.(.;.Q.~.,.|.T g e 1 1 a l l 7 1 e 5 ",
"* g l w g e a w n g w W =.N.l.0.=X'.n.%X^ S l p e a p p 7 7 p 1 ",
"; 7 p e l p b p p w 7 ` $.4.l.W. XB.w.>X^ b a g a a e e 1 , , o ",
", : 1 1 e 1 a 7 , 5 * U $.4.l.x.F.*.m.@.Y 7 : 7 * , 5 w 1 , 1 # ",
"= % 4 M 9 4 < < s O $ E $.4.l.x.0.s.7.@.I 7 7 7 : , p l e 1 ; # ",
"= < 8 v s c y 4 i - < W $.4.).1.-.!.7.@.~ g p a 7 7 a b b l p 1 ",
"> c c c y ' 4 < 8 3 8 E %.r.{.;.2./.L.@.( b a g p w e a b S n 7 ",
"O s c s 9 s 9 s s i s ` =.S.{.S.I./.L.@.( l e g a w 5 7 p b l 1 ",
"% i s h y s 8 h c y i [ =.G._.U.T.*.l.$.( a a b l p w w w a a 1 ",
"s h y h i i < 4 s 4 4  .%.^.*.U.p.:.y.3.V p l b l a a a e e p w ",
"s s y c y h i y h s s D @.D.*.p.p.V.].@.a e n g g e p g e 5 5 7 ",
"m M F J 9 i s s s m c c @.@X8.[.XX#XE.@.a e n p a 7 e l w : : , ",
"w b K e A l 7 a g b n b @.C.*Xq.oXR.r.o.b g e l b 7 w b b * 3 y ",
"w g a 1 e e w n g g p e } <.}.9.z.e.6.{ p p w p n w 7 e e : s v ",
": p 5 w p e p n a a e 7 r @.J.`.w.h.f., w a a a g p e 7 e 5 h y ",
"w S a A n n l a p b b p d @.k.m.m.&X.X1 5 a g p 7 w 7 , w w s = ",
"p H a b a b g 1 5 p B Z e ! @.m.I.$X| e 5 e a w a a e 1 a n D > ",
": p a b l n g 1 i.u.f x b z X.2.m.+.P S a l A g w w 7 , p a y . ",
": 1 A H H A l a l l n G K A e ) _ i H H l n S b a a l g A l s O ",
"5 * l g a : : e 7 w a b g w 5 5 % < l b e e p 5 5 1 5 5 e 7 i - "
};
