/* XPM */
static char *result[] = {
/* columns rows colors chars-per-pixel */
"16 26 248 2 ",
"   c black",
".  c #1B0000",
"X  c #001B1E",
"o  c #200000",
"O  c #260000",
"+  c #200304",
"@  c #280000",
"#  c #2E0102",
"$  c #2C0303",
"%  c #2E0A0A",
"&  c #350202",
"*  c #310403",
"=  c #360504",
"-  c #390102",
";  c #380404",
":  c #390404",
">  c #3C0404",
",  c #3E0404",
"<  c #381819",
"1  c #25201F",
"2  c #00002F",
"3  c #001D28",
"4  c #261E20",
"5  c #122C28",
"6  c #2E2C2E",
"7  c #273D3F",
"8  c #400000",
"9  c #460304",
"0  c #440405",
"q  c #460405",
"w  c #450506",
"e  c #460606",
"r  c #480000",
"t  c #4A0203",
"y  c #4E0000",
"u  c #480304",
"i  c #4B0305",
"p  c #4A0405",
"a  c #4A0905",
"s  c #4A0708",
"d  c #420809",
"f  c #450B0A",
"g  c #430C0D",
"h  c #4A0B0B",
"j  c #4C0B0C",
"k  c #540000",
"l  c #5A0000",
"z  c #510B06",
"x  c #5A0905",
"c  c #5C0C0E",
"v  c #530E10",
"b  c #4E1314",
"n  c #411E1F",
"m  c #451C1D",
"M  c #581A1B",
"N  c #630506",
"B  c #6F0306",
"V  c #6E0405",
"C  c #710607",
"Z  c #760606",
"A  c #780000",
"S  c #7F0000",
"D  c #7C0404",
"F  c #760907",
"G  c #660F12",
"H  c #611518",
"J  c #6B1319",
"K  c #721414",
"L  c #7C1E1F",
"P  c #4C2108",
"I  c #68201D",
"U  c #4A2729",
"Y  c #413A38",
"T  c #642124",
"R  c #673B3E",
"E  c #723B3B",
"W  c #783A38",
"Q  c #001A42",
"!  c #013A58",
"~  c #1D506F",
"^  c #204961",
"/  c #2E5065",
"(  c #3D5162",
")  c #2B737D",
"_  c #584445",
"`  c #5E5758",
"'  c #525661",
"]  c #4D616E",
"[  c #4B6772",
"{  c #5A717B",
"}  c #64676D",
"|  c #6A6668",
" . c #69696E",
".. c #6D6F6F",
"X. c #6F777C",
"o. c #7B7375",
"O. c #840000",
"+. c #860102",
"@. c #8A0000",
"#. c #890303",
"$. c #8E0000",
"%. c #8B0707",
"&. c #8E0607",
"*. c #810709",
"=. c #810B0A",
"-. c #8A0A0F",
";. c #900000",
":. c #920000",
">. c #910006",
",. c #930605",
"<. c #920905",
"1. c #920209",
"2. c #8E110F",
"3. c #811113",
"4. c #851A16",
"5. c #921517",
"6. c #911818",
"7. c #97181A",
"8. c #A20000",
"9. c #A50607",
"0. c #AE0000",
"q. c #B70000",
"w. c #A61011",
"e. c #AD1414",
"r. c #A01318",
"t. c #A11A18",
"y. c #AC181C",
"u. c #B01618",
"i. c #B41C1C",
"p. c #BC1818",
"a. c #8C3807",
"s. c #911F20",
"d. c #8A2020",
"f. c #9C2E2F",
"g. c #8F2D31",
"h. c #8E2F31",
"j. c #8F3F3F",
"k. c #A02322",
"l. c #AC363A",
"z. c #B23235",
"x. c #B83638",
"c. c #C50000",
"v. c #D20000",
"b. c #D30000",
"n. c #D90000",
"m. c #D10B10",
"M. c #C71616",
"N. c #CA1516",
"B. c #D2191A",
"V. c #CB393E",
"C. c #B63E43",
"Z. c #BF3D42",
"A. c #C73C41",
"S. c #804242",
"D. c #854547",
"F. c #98494B",
"G. c #975554",
"H. c #A34343",
"J. c #BC4141",
"K. c #BA4448",
"L. c #B14D4F",
"P. c #A15152",
"I. c #A5595A",
"U. c #A46045",
"Y. c #BC645F",
"T. c #A77158",
"R. c #806F6C",
"E. c #936060",
"W. c #90776B",
"Q. c #8E7778",
"!. c #8B7B7C",
"~. c #BD6366",
"^. c #AE7677",
"/. c #A57A7D",
"(. c #D74448",
"). c #D45258",
"_. c #637C88",
"`. c #D07F82",
"'. c #368492",
"]. c #6A8997",
"[. c #6B8B9D",
"{. c #7391A0",
"}. c #6BACB8",
"|. c #78BBCB",
" X c #808482",
".X c #8C8987",
"XX c #888F90",
"oX c #848F98",
"OX c #809696",
"+X c #80959E",
"@X c #969093",
"#X c #9B9699",
"$X c #98969B",
"%X c #A18488",
"&X c #A09799",
"*X c #B79EA0",
"=X c #91A5AD",
"-X c #9EACAD",
";X c #93A5B2",
":X c #A8A0A0",
">X c #A8ACAB",
",X c #A8AFAF",
"<X c #BAA8AB",
"1X c #B2AFB1",
"2X c #ABB1B4",
"3X c #B1B6B5",
"4X c #B9B1B1",
"5X c #B8B3B9",
"6X c #BEB9BD",
"7X c #DA8B8D",
"8X c #C28F91",
"9X c #C39698",
"0X c #D1989C",
"qX c #F68B8D",
"wX c #E09193",
"eX c #E19496",
"rX c #D2BBBC",
"tX c #E6AAAC",
"yX c #E7ADAF",
"uX c #F2ADB0",
"iX c #F4AFB2",
"pX c #B7BFC2",
"aX c #BEBDC0",
"sX c #BECFD2",
"dX c #CBC2C4",
"fX c #C6C4C8",
"gX c #CEC7CA",
"hX c #D8C8CB",
"jX c #C9D1D6",
"kX c #C9D2D6",
"lX c #C8D4D7",
"zX c #CBD6D9",
"xX c #D7D4D8",
"cX c #DBD8DB",
"vX c #D8DCDF",
"bX c #EAC2C5",
"nX c #E6DCDF",
"mX c #F2D4D8",
"MX c #D4DCE0",
"NX c #D6E9F0",
"BX c #F0E9ED",
"VX c #FBECF0",
"CX c #E3F8FE",
"ZX c #E6FBFF",
"AX c #F2F1F4",
"SX c #F9F1F5",
"DX c white",
"FX c None",
/* pixels */
"FXFXFXFXFX@.FXFXFXFXFXFXFXFXFXFX",
"FXFXFX&X5X%X~.Z.g.FXFXFXFXFXFXFX",
"FXFX$X;X_.].X.L.A.FXFXFXFXFXFXFX",
"FX .NX[.2 |.'.k K.l.FXFXFXFXFXFX",
"FX+XZX/ } }.) W (.).J.j.R FXFXFX",
"FX=XCX] ( Q 3 f.V.C.z.4.Y I FXFX",
"FX{ {.^ ! [ S.y.5.<.t.2.  z FXFX",
"FX2 ~ oXXXG.k.=.#.7.F.s.. a FXFX",
"FXFX' OXI.0.d.6.$.Q.!.:.f x F FX",
"FXFX5 J m.i.+.9.>.D.1.S % h e FX",
"FXFXr.B.e.w.V *.-.O.B d & w : FX",
"FXFXp.M.D %.C + i g ; u > = $ FX",
"FXFXu.N.,.Z N 0 q 9 p p , * FXFX",
"FXFXFX3.G c - p t j b s # FXFXFX",
"FXFXFXv H U M 8 m n O @ FXFXFXFX",
"FXFXFXFXr   o <     y T FXFXFXFX",
"FXFXFXFXFX1X`   o.gXhX&.L h.FXFX",
"FXFXFXFXFXdXE.  6XDXaX;.b.c.FXFX",
"FXFXFXFX    l   | @X7 K P.2X/.FX",
"FXFXFXpX_ E :X,X..6 X H.VXDXtXFX",
"FX8.yXmXY.a.-X3X1   A 9XAXDXrXR.",
"FX*XuX7X8XP 4   #X<Xx.U.W.4X>X X",
"FXFXsXlXFXFXFXzXDXSX0Xq.T.cX.XFX",
"FXFXFXFXFXFXFXiXwXv.n.`.BXxXFXFX",
"FXFXFXFXFXFX^.qXeXbXnXvXfXFXFXFX",
"FXFXFXFXFXFXFXkXMXjXFXFXFXFXFXFX"
};
