/* XPM */
static char *result[] = {
/* columns rows colors chars-per-pixel */
"16 12 86 1 ",
"  c #00001D",
". c #121336",
"X c #151A3B",
"o c #1D203D",
"O c #1E223D",
"+ c #1E233E",
"@ c #181F4B",
"# c #212642",
"$ c #272C45",
"% c #262C47",
"& c #282D46",
"* c #282E46",
"= c #272F4D",
"- c #292E4A",
"; c #2A304B",
": c #2B304C",
"> c #2A314E",
", c #2C324D",
"< c #2C334E",
"1 c #2E344F",
"2 c #2E354F",
"3 c #2D3451",
"4 c #2D3553",
"5 c #2E3553",
"6 c #2F3653",
"7 c #303756",
"8 c #333B53",
"9 c #303955",
"0 c #333B54",
"q c #313957",
"w c #323957",
"e c #323A57",
"r c #343E58",
"t c #353E5B",
"y c #363F5A",
"u c #313A5C",
"i c #333C5C",
"p c #363E5C",
"a c #303960",
"s c #38415C",
"d c #374166",
"f c #384161",
"g c #384262",
"h c #3B4562",
"j c #3B4467",
"k c #3B4567",
"l c #3C4567",
"z c #37416A",
"x c #3A456A",
"c c #3C4669",
"v c #3D486B",
"b c #3D486C",
"n c #404968",
"m c #404B6C",
"M c #414C6C",
"N c #434F72",
"B c #4A5673",
"V c #4E5B79",
"C c #4F5B79",
"Z c #4D5A7A",
"A c #4B597D",
"S c #4C5A7E",
"D c #555F75",
"F c #505D7B",
"G c #515D7D",
"H c #525E7C",
"J c #515F7E",
"K c #52607D",
"L c #53617E",
"P c #536080",
"I c #546280",
"U c #556281",
"Y c #5C6884",
"T c #596888",
"R c #5D6A89",
"E c #5E6D8C",
"W c #5D6C8E",
"Q c #606C82",
"! c #63708B",
"~ c #687592",
"^ c #6F7D96",
"/ c #6E7C97",
"( c #76859F",
") c #7786A1",
"_ c #8797B2",
"` c None",
/* pixels */
"````````````````",
"````````````````",
"``L`0fsptyF8`I``",
"``.g%5q>375#B+``",
"`RX-2``Pm``1: (`",
"`SD````Jl````Q~`",
"`W!```AMkz```_@`",
"`ENv)Y=/Ur^HGn*`",
"``TcabC4eVxduO``",
"```ZjihK6o,<$```",
"``````9w;&``````",
"````````````````"
};
