/* XPM */
static char *result[] = {
/* columns rows colors chars-per-pixel */
"32 32 154 2 ",
"   c #191526",
".  c #1C1A2D",
"X  c #1D1C2F",
"o  c #1D1D31",
"O  c #1E1E32",
"+  c #211E2C",
"@  c #222031",
"#  c #252333",
"$  c #202036",
"%  c #292632",
"&  c #2F2C36",
"*  c #21233A",
"=  c #23253A",
"-  c #22253C",
";  c #23263D",
":  c #24273E",
">  c #24283F",
",  c #2E2D3B",
"<  c #28293E",
"1  c #292A3F",
"2  c #44433F",
"3  c #252840",
"4  c #242841",
"5  c #262A42",
"6  c #262B44",
"7  c #2B2F45",
"8  c #2C3045",
"9  c #2D3046",
"0  c #2D3146",
"q  c #2D3247",
"w  c #2E3247",
"e  c #2A304A",
"r  c #2A314C",
"t  c #32374E",
"y  c #2F3551",
"u  c #2F3652",
"i  c #323A54",
"p  c #313856",
"a  c #353E5E",
"s  c #363F60",
"d  c #374061",
"f  c #384162",
"g  c #394365",
"h  c #3A4466",
"j  c #3E4867",
"k  c #464541",
"l  c #474642",
"z  c #474644",
"x  c #494844",
"c  c #4A4945",
"v  c #494846",
"b  c #4A4947",
"n  c #4B4A46",
"m  c #4C4B47",
"M  c #49474A",
"N  c #46484F",
"B  c #4B4A48",
"V  c #4C4B49",
"C  c #4D4C48",
"Z  c #4E4D49",
"A  c #4D4C4A",
"S  c #4E4D4B",
"D  c #4F4E4A",
"F  c #48494C",
"G  c #4F4E4C",
"H  c #504F4B",
"J  c #504F4D",
"K  c #51504C",
"L  c #52514D",
"P  c #51504E",
"I  c #52514F",
"U  c #53524E",
"Y  c #54534F",
"T  c #4D4D51",
"R  c #4E4E52",
"E  c #4A4D58",
"W  c #4F5053",
"Q  c #505050",
"!  c #535250",
"~  c #545351",
"^  c #555450",
"/  c #565551",
"(  c #555452",
")  c #565552",
"_  c #565553",
"`  c #575652",
"'  c #525354",
"]  c #535556",
"[  c #535457",
"{  c #545455",
"}  c #565555",
"|  c #575654",
" . c #545556",
".. c #555657",
"X. c #585753",
"o. c #585755",
"O. c #595854",
"+. c #585855",
"@. c #5A5955",
"#. c #595856",
"$. c #5A5957",
"%. c #5B5A56",
"&. c #5C5B57",
"*. c #55575A",
"=. c #575858",
"-. c #5B5A58",
";. c #5C5B59",
":. c #5D5C58",
">. c #5E5D59",
",. c #5D5C5A",
"<. c #5E5D5B",
"1. c #5F5E5A",
"2. c #5F5E5C",
"3. c #605F5D",
"4. c #424A63",
"5. c #444D67",
"6. c #404B6B",
"7. c #454E6A",
"8. c #424D6D",
"9. c #414C6E",
"0. c #49536E",
"q. c #545760",
"w. c #515A6E",
"e. c #485471",
"r. c #4C5976",
"t. c #4E5B7B",
"y. c #585E72",
"u. c #566177",
"i. c #596274",
"p. c #53607D",
"a. c #57607D",
"s. c #586278",
"d. c #59657C",
"f. c #626160",
"g. c #636260",
"h. c #636261",
"j. c #686765",
"k. c #797977",
"l. c #7B7A79",
"z. c #556383",
"x. c #566584",
"c. c #576684",
"v. c #5A6988",
"b. c #7E8083",
"n. c #828180",
"m. c #8F8F8D",
"M. c #C0C0BE",
"N. c #C1C0BF",
"B. c #BFC0C3",
"V. c #C1C1C0",
"C. c #C6C6C5",
"Z. c #D9D8D8",
"A. c #E6E9ED",
"S. c #F8F8F8",
/* pixels */
"v G ( ( ~ P V G G ! o.| ( S P B H D U ` ^ ` X.^ L c n Z ^ L 2 l ",
"P ( o.#.-.#.! I $.#.$.o.o.! ( V C U @.:.@.@.&.:.^ U C D X.%./ Z ",
"~ | o.#.-.#._ ( $.| ( ( #.o.$.G Y %.1.:.%.X.` O./ ` U @.@.^ %.X.",
"P | | _ ( ! ( _ ! P P P _ | -.I / O.` / O.O./ / :.Y K &.>.X./ Z ",
"G o.| _ ( I ~ ~ I ! ~ J P P #.~ Y ` Y L X.O.Y U ` Y O.X.` @.L l ",
"J o.~ _ | ~ ~ S ~ ( ( G S G o.~ H ^ ` ^ / ^ L H D K &.` K K C K ",
"I $.! ~ ( I ~ S ! ! I S ' w.% , u.s.i.` / X.X.^ U D D U ` Y H L ",
"( 2.| ~ I G | ( I P h.B.d.c.0.5.1 9 8.y.M.O.@.U H ` K L X.` ` L ",
"~ $.( _ S ! ( P P j.Z.A.v.p.1 < - 5 h a.S.V._ o.-.#.~ ~ ! ! ! V ",
"_ ;.o.$.~ ~ ~ ( f.C.n.b.x.j - * . $ h 7.n.m.N.$.2.-._ | o.| ! z ",
"I #.( | ( ! ~ $.g.k.J [ 9.a . X - 5 f t _ <.l.o.~ ~ ! o.-.-.| V ",
"! ;.o._ o.( o.3.,.G A *.t.s - * . $ d q ! ( I I S ! _ o._ ~ ~ S ",
"I <.$.( | ( | $.| ! P W 9.a . X - 5 d 0 ! | ~ J J _ o.o.I J ~ P ",
"V | o.! | ~ _ ! $.| ! R h s - * . O r w _ ;.o.( ~ _ ( ( I I ( J ",
"A I ( ~ o.( #.( ( ! I } E g p X 3 u 7 T _ #._ | _ _ ~ ~ J G G z ",
"G S J J ~ J _ I G P V B F h s * $ d 8 ~ I I S I V G P ! J G J b ",
"C m L &.Y L H H ` x n H  .t.a X : r 0 ~ G I I I S G ( o.~ J A b ",
"C H U @.` O.^ L / Z H K ..z.s * o 6 0 _ ( | ( _ I I _ #.#.o.( J ",
"D O.O.O.^ X.L H U K U H ] z.a X ; 4 # _ o.#._ | ( ! ~ _ #.;.$.I ",
"x ` O.` Y ` Y ` ` / ` ` +.q.e * o 7 M ( o.o.~ | _ ! P I ( #.o.J ",
"m / ` X.^ ` U X.O.^ / &.%.Q 6 >   # | _ o._ _ #.o.( ! ! ! _ _ J ",
"` X.^ X./ / H L ` L L &.=.4.r.e.y = & | | ( o.#.o._ _ _ ~ ~ ( ! ",
"` ` ^ O.^ X./ ^ X.` ` :.{ u 6.i r > + o._ ~ $.| | ~ ( | ~ P P I ",
"%.&.>.1.Y / ` ` ` %.O.O.) N r 4 . @ M -._ ~ $.( _ I ~ o.! S S G ",
"! #.2.~ -.o.I _ | #.$.#.| | | _ Y / ~ ( #.| ~ o.#.I ! #.#.V K ^ ",
"! | _ J ~ ~ ! $.| | ( ~ ( _ P V / ` ! I ( ( ! ( $.! I ~ ~ S ` @.",
"S ( P ! ( ~ ( $._ _ ~ I ! ( P v ^ ` ! G ! _ _ _ | ( ~ I ~ P X.^ ",
"! ;._ -.$.$.o._ ( #.#.( ( o.| I U ` ( J P _ | ( I ! I G ! ! ` C ",
"( <._ #._ #.| J P ( _ ~ ~ _ ~ G Y O.$.~ P ~ _ ! _ _ ~ J _ $.:.D ",
"S ( _ #.o.$.| J ! ~ ( | #.o.P v Y @.3.;._ o.-.| ! ! I G ( _ ^ k ",
"S J -.<.<.-.o._ o.o.$.,.2.-.~ G K / <.<.o.$.;.#._ _ o.| -.o.` x ",
"P V o.| _ S S ~ I ! _ #.| ! P P m H o.#.~ ~ ( P P J P P ~ I / Z "
};
