/* XPM */
static char *result[] = {
/* columns rows colors chars-per-pixel */
"32 32 176 2 ",
"   c #181425",
".  c #1A1729",
"X  c #1A182A",
"o  c #1B192B",
"O  c #1C192C",
"+  c #1C1B2E",
"@  c #1D1C2F",
"#  c #1F1E33",
"$  c #201F31",
"%  c #272430",
"&  c #272432",
"*  c #212136",
"=  c #212237",
"-  c #2D2A34",
";  c #2D2A35",
":  c #22243B",
">  c #23253B",
",  c #23263D",
"<  c #24273E",
"1  c #44433F",
"2  c #242840",
"3  c #252941",
"4  c #262A43",
"5  c #262B44",
"6  c #272C45",
"7  c #272D46",
"8  c #2C2E43",
"9  c #292D45",
"0  c #292E48",
"q  c #292F49",
"w  c #2F3345",
"e  c #2C334C",
"r  c #2F344C",
"t  c #303345",
"y  c #313345",
"u  c #313447",
"i  c #313547",
"p  c #323548",
"a  c #323648",
"s  c #323649",
"d  c #373A4A",
"f  c #303754",
"g  c #323957",
"h  c #333C5B",
"j  c #353D5D",
"k  c #353E5E",
"l  c #363F5F",
"z  c #3C4563",
"x  c #394365",
"c  c #3A4466",
"v  c #3D4769",
"b  c #3F496A",
"n  c #464541",
"m  c #474642",
"M  c #474644",
"N  c #494844",
"B  c #4A4945",
"V  c #494846",
"C  c #4A4947",
"Z  c #4B4A46",
"A  c #4C4B47",
"S  c #4B4A48",
"D  c #4C4B49",
"F  c #4D4C48",
"G  c #4E4D49",
"H  c #4D4C4A",
"J  c #4E4D4B",
"K  c #4F4E4A",
"L  c #4F4E4C",
"P  c #4E4E4D",
"I  c #4C4D4F",
"U  c #4E4E4E",
"Y  c #504F4B",
"T  c #504F4D",
"R  c #504F4F",
"E  c #51504C",
"W  c #52514D",
"Q  c #51504E",
"!  c #52514F",
"~  c #53524E",
"^  c #54534F",
"/  c #484A50",
"(  c #4A4C53",
")  c #4E4F51",
"_  c #4C4E53",
"`  c #4E4F52",
"'  c #4C4D54",
"]  c #4D4F55",
"[  c #40475F",
"{  c #515050",
"}  c #535250",
"|  c #505052",
" . c #515253",
".. c #545351",
"X. c #555450",
"o. c #565551",
"O. c #555452",
"+. c #565553",
"@. c #575652",
"#. c gray33",
"$. c #575654",
"%. c #565757",
"&. c #585753",
"*. c #585755",
"=. c #575857",
"-. c #595854",
";. c #5A5955",
":. c #595856",
">. c #5A5957",
",. c #5B5A56",
"<. c #5C5B57",
"1. c #505259",
"2. c #535459",
"3. c #52545A",
"4. c #545659",
"5. c #55585D",
"6. c #56595F",
"7. c #5B5A58",
"8. c #5C5B59",
"9. c #5D5C58",
"0. c #5E5D59",
"q. c #5D5C5A",
"w. c #5E5D5B",
"e. c #5F5E5A",
"r. c #5F5E5C",
"t. c #605F5D",
"y. c #414962",
"u. c #424962",
"i. c #444D68",
"p. c #48526E",
"a. c #545861",
"s. c #575A60",
"d. c #585B61",
"f. c #4C5773",
"g. c #4D5A78",
"h. c #4F5D7D",
"j. c #525E7A",
"k. c #525E7C",
"l. c #556078",
"z. c #53607E",
"x. c #656462",
"c. c #666563",
"v. c #676664",
"b. c #6A6967",
"n. c #6D6C6A",
"m. c #747472",
"M. c #787876",
"N. c #797877",
"B. c #7A7978",
"V. c #7B7A78",
"C. c #7D7C7A",
"Z. c #7E7D7B",
"A. c #7F7E7D",
"S. c #526080",
"D. c #556483",
"F. c #586685",
"G. c #596887",
"H. c #5A6988",
"J. c #8D8C8B",
"K. c #8E8D8C",
"L. c #C6C5C5",
"P. c #C7C6C6",
"I. c #C8C8C7",
"U. c #C9C9C8",
"Y. c #D5D5D5",
"T. c gray84",
"R. c #D7D6D6",
"E. c #D7D7D6",
"W. c #D7D7D7",
"Q. c #DBDBDA",
"!. c #DCDCDB",
"~. c #EEEEEE",
"^. c #EFEFEE",
"/. c #EFEFEF",
"(. c gray98",
"). c white",
/* pixels */
"V L O.O...Q D L L } *.$.O.J Q S Y K ~ @.X.@.&.X.W B Z G X.W 1 m ",
"Q O.*.:.7.:.} ! >.:.>.*.*.} O.D F ~ ;.9.;.;.<.9.X.~ F K &.,.o.G ",
"..$.*.:.7.:.+.O.>.$.O.O.:.*.>.L ^ ,.e.9.,.&.@.-.o.@.~ ;.;.X.,.&.",
"Q $.$.+.O.} O.+.} Q Q Q +.$.7.! o.-.@.o.-.-.o.o.9.^ E <.0.&.o.G ",
"L *.$.+.O.! ....! } ..T Q Q :...^ @.^ W &.-.^ ~ @.^ -.&.@.;.W m ",
"T *...+.$.....J ..O.O.L P ) R U  .%.=.X.o.X.W Y K E <.@.E E F E ",
"! >.} ..O.! ..J } } ! P a.f.$ 8 k.z.l.#.o.&.&.X.~ K K ~ @.^ Y W ",
"O.r.$...! L $.O.! Q T 3.H.F.k.i.. = c y.o.-.;.~ Y @.E W &.@.@.W ",
"..>.O.+.J } O.+.v.x.} s.G.p.. + 2 q c u.>.n.c.*.7.:.....} } } D ",
"+.8.*.>.....:.K.).T.+.d.h.j 2 : . = x [ N./.!.b.r.7.+.$.*.$.} M ",
"! :.O.$.O.*.J.).(.L.T 1.v g . + 2 q k s +.A.).E.....} *.7.7.$.D ",
"} 8.*.+.*.Z.).(.U.L H 6.h.j 2 : . = k a } M.~.Q.r.} +.*.+.....J ",
"! w.>.O.$.Z.(.I.$.} Q ' c g . + 2 0 h p } $.C.).Y.+.*.*.! T ..Q ",
"D $.*.} $.C.R.} >.$.} _ z l 7 : X # 6 d +.8.V.^.T.+.O.O.! ! O.T ",
"H ! O...*.Z.W.O.O.} ! $.] c g + q k u *.+.:.+.B.P.+.....T L L M ",
"L J T T ..m.P.! L Q D S / v j : * h w ..! ! J ! D L Q } T L T C ",
"F A W <.^ W Y Y @.N Z Y 5.S.g + 3 5 i ..L ! ! ! J L O.*...T H C ",
"F Y ~ ;.@.-.X.W o.G Y E 5.S.j : @ 4 t +.O.$.O.+.! ! +.:.:.*.O.T ",
"K -.-.-.X.&.W Y ~ E ~ Y 4.j.f + 3 < ; +.*.:.+.$.O.} ..+.:.8.>.! ",
"N @.-.@.^ @.^ @.@.o.@.@.&.` 5 , o y $.O.*.*...$.+.} Q ! O.:.*.T ",
"A o.@.&.X.@.~ &.-.X.o.<.>.( e 9 O & { +.*.+.+.:.*.O.} } } +.+.T ",
"@.&.X.&.o.o.Y W @.W W <.2.b D.g.h , % $.$.O.*.:.*.+.+.+.....O.} ",
"@.@.X.-.X.&.o.X.&.@.@.9.| r h 4 2 > - *.+...>.$.$...O.$...Q Q ! ",
",.<.0.e.^ o.@.@.@.,.-.-.&.I 5 ,   % $.7.+...>.O.+.! ..*.} J J L ",
"} :.r...7.*.! +.$.:.>.:.$.$.$.+.^ o...O.:.$...*.:.! } :.:.D E X.",
"} $.+.T ....} >.$.$.O...O.+.Q D o.@.} ! O.O.} O.>.} ! ....J @.;.",
"J O.Q } O...O.>.+.+...! } O.Q V X.@.} L } +.+.+.$.O...! ..Q &.X.",
"} 8.+.7.>.>.*.+.O.:.:.O.O.*.$.! ~ @.O.T Q +.$.O.! } ! L } } @.F ",
"O.w.+.:.+.:.$.T Q O.+.....+...L ^ -.>...Q ..+.} +.+...T +.>.9.K ",
"J O.+.:.*.>.$.T } ..O.$.:.*.Q V ^ ;.t.8.+.*.7.$.} } ! L O.+.X.n ",
"J T 7.w.w.7.*.+.*.*.>.q.r.7...L E o.w.w.*.>.8.:.+.+.*.$.7.*.@.N ",
"Q D *.$.+.J J ..! } +.:.$.} Q Q A Y *.:.....O.Q Q T Q Q ..! o.G "
};
