/* XPM */
static char *result[] = {
/* columns rows colors chars-per-pixel */
"32 32 191 2 ",
"   c #44433F",
".  c #262B44",
"X  c #2B2F45",
"o  c #282D47",
"O  c #282E48",
"+  c #2C3046",
"@  c #2E3246",
"#  c #2F3347",
"$  c #2C3149",
"%  c #2C334D",
"&  c #2D334F",
"*  c #3D3E48",
"=  c #3D3F4B",
"-  c #3D3F4C",
";  c #2E3552",
":  c #2F3754",
">  c #333A53",
",  c #313855",
"<  c #323954",
"1  c #333A54",
"2  c #333A57",
"3  c #323A58",
"4  c #363F5F",
"5  c #3F414A",
"6  c #3D4256",
"7  c #37405B",
"8  c #3F4458",
"9  c #39425D",
"0  c #3A425F",
"q  c #3C435D",
"w  c #3B4361",
"e  c #384162",
"r  c #3D4560",
"t  c #3E4660",
"y  c #3E4661",
"u  c #3A4466",
"i  c #3C4564",
"p  c #3E4764",
"a  c #3D4769",
"s  c #464541",
"d  c #474642",
"f  c #474644",
"g  c #494844",
"h  c #4A4945",
"j  c #494846",
"k  c #4A4947",
"l  c #4B4A46",
"z  c #4C4B47",
"x  c #40414A",
"c  c #40424A",
"v  c #40424B",
"b  c #43444B",
"n  c #40424E",
"m  c #42444D",
"M  c #43454D",
"N  c #43454E",
"B  c #44454C",
"V  c #45464D",
"C  c #44454F",
"Z  c #46474E",
"A  c #47484F",
"S  c #4B4A48",
"D  c #48484B",
"F  c #4C4B49",
"G  c #4D4C48",
"H  c #4E4D49",
"J  c #4D4C4A",
"K  c #4E4D4B",
"L  c #4F4E4A",
"P  c #4F4E4C",
"I  c #504F4B",
"U  c #504F4D",
"Y  c #51504C",
"T  c #52514D",
"R  c #51504E",
"E  c #52514F",
"W  c #53524E",
"Q  c #54534F",
"!  c #454856",
"~  c #4A4C50",
"^  c #42485B",
"/  c #464A58",
"(  c #474B5A",
")  c #40485D",
"_  c #42485D",
"`  c #41485E",
"'  c #43495E",
"]  c #44495C",
"[  c #484B58",
"{  c #4A4E5A",
"}  c #4E515D",
"|  c #525250",
" . c #535250",
".. c #535352",
"X. c #545351",
"o. c #555450",
"O. c #565551",
"+. c #555452",
"@. c #565553",
"#. c #575652",
"$. c #515255",
"%. c #535455",
"&. c #555455",
"*. c #575654",
"=. c #575655",
"-. c #545556",
";. c #555657",
":. c #585753",
">. c #585755",
",. c #575856",
"<. c #595854",
"1. c #5A5955",
"2. c #595856",
"3. c #5A5957",
"4. c #5B5A56",
"5. c #5C5B57",
"6. c #555558",
"7. c #545559",
"8. c #565658",
"9. c #565759",
"0. c #54565B",
"q. c #57585A",
"w. c #595958",
"e. c #5B5A58",
"r. c #58595A",
"t. c #5C5B59",
"y. c #5D5C58",
"u. c #5E5D59",
"i. c #5D5C5A",
"p. c #5E5D5B",
"a. c #5F5E5A",
"s. c #5A5B5C",
"d. c #595A5E",
"f. c #5F5E5C",
"g. c #605F5D",
"h. c #414B68",
"j. c #414C6B",
"k. c #414C6C",
"l. c #444F6C",
"z. c #4D5160",
"x. c #555A64",
"c. c #5E5E60",
"v. c #50586B",
"b. c #545B68",
"n. c #555C69",
"m. c #555D6B",
"M. c #51586D",
"N. c #515A6E",
"B. c #535B6E",
"V. c #535C6D",
"C. c #565D6C",
"Z. c #575E6C",
"A. c #585E6C",
"S. c #585F6D",
"D. c #455070",
"F. c #455071",
"G. c #475372",
"H. c #475374",
"J. c #495471",
"K. c #495572",
"L. c #495576",
"P. c #4B5778",
"I. c #4C5879",
"U. c #545D70",
"Y. c #505C7C",
"T. c #535E7C",
"R. c #5A616E",
"E. c #5B616F",
"W. c #586175",
"Q. c #5B657B",
"!. c #5E687A",
"~. c #69707B",
"^. c #6D747F",
"/. c #556180",
"(. c #546281",
"). c #576685",
"_. c #586483",
"`. c #5A6682",
"'. c #5B6783",
"]. c #5C6886",
"[. c #5A6988",
"{. c #606C86",
"}. c #64718F",
"|. c #707782",
" X c #70798A",
".X c #747D8B",
"XX c #677491",
"oX c #778191",
"OX c #7B8AA5",
"+X c #818FA7",
"@X c #8B9BB4",
/* pixels */
"j P +.+.X.R F P P  .>.*.+.K R S I L W #.o.#.:.o.T h l H o.T   d ",
"R +.>.2.e.2. .E 3.2.3.>.>. .+.F G W 1.y.1.1.5.y.o.W G L :.4.O.H ",
"X.*.>.2.e.2.@.+.3.*.+.+.2.>.3.P Q 4.a.y.4.:.#.<.O.#.W 1.1.o.4.:.",
"R *.*.@.+. .+.@. .R R R @.*.e.E O.<.#.O.<.<.O.O.y.Q Y 5.u.:.O.H ",
"P >.*.@.+.E X.X.E  .X.U R R 2.X.Q #.Q T :.<.Q W #.Q <.:.#.1.T d ",
"U >.X.@.*.X.X.K X.+.+.P K P >.X.I o.#.o.O.o.T I L Y 5.#.Y Y G Y ",
"E 3. .X.+.E X.K  . .E K R  .2.E l Y #.#.O.:.:.o.W L L W #.Q I T ",
"+.f.*.X.E P *.+.E R U P @.*.2.F Q o.<.<.O.<.1.W I #.Y T :.#.#.T ",
"X.3.+.@.K  .+.R R +.-.A.i.c.E. .-.S.>.s.Z.>.@.>.e.2.X.X. . . .F ",
"@.t.>.3.X.X.X.8.b.+.$.t z.d.t ^ _ ) 9.U.` >.q.R.f.e.@.*.>.*. .f ",
"E 2.+.*.+. .X.7.t ( D o 1 8 o ; & $ ' 7 # q.B.` X.X. .>.e.e.*.F ",
" .t.>.@.>.+.|.6.o < 6 . o & O 3 : o & . $ ' 7 @ ;..X@.>.@.X.X.K ",
"E p.3.+.*.+.'.v.. o & X * 5 ! L.w C N - o & . $ M.@X>.>.E U X.R ",
"F *.>. .*.X.I.j.. + v b F J 0.(.y >.>.&.m n . > XX].+.+.E E +.U ",
"J E +.X.>.+.(.k.Q.B E *.-.V.N.F.i ] ( >.@.&.[ {.T.; X.X.U P P f ",
"P K U U X.U ).Y.`.n.%.~.~ H.F.u u u r s.^.r.oXOX4 . R  .U P U k ",
"G z T 5.Q T [.(.a K.!.+Xv.; 0 }.G.; q  X`.W.].T.& . +.>.X.U J k ",
"G I W 1.#.<.S.).L.a P._.G.l.J._.G.l.J./.a F.e & X x @.2.2.>.+.U ",
"L <.<.<.o.:...m.(.u u u a D.9 ; , p F.u u e & + V  .X.@.2.t.3.E ",
"g #.<.#.Q #.Q ,.C.L.u u e 2 l.h.: o ; ; ; & X A @. .R E +.2.>.U ",
"z O.#.:.o.#.W :.w.x.{ } / % D.9 & . + m N m Z 2.>.+. . . .@.@.U ",
"#.:.o.:.O.O.I T #.T T 5.=.= & . . + Z *.*.+.>.2.>.@.@.@.X.X.+. .",
"#.#.o.<.o.:.O.o.:.#.#.y.4.| M c 5 V @.>.@.X.3.*.*.X.+.*.X.R R E ",
"4.5.u.a.Q O.#.#.#.4.<.<.:.:.1.I X.*.*.e.@.X.3.+.@.E X.>. .K K P ",
" .2.f.X.e.>.E @.*.2.3.2.*.*.*.@.Q O.X.+.2.*.X.>.2.E  .2.2.F Y o.",
" .*.@.U X.X. .3.*.*.+.X.+.@.R F O.#. .E +.+. .+.3. .E X.X.K #.1.",
"K +.R  .+.X.+.3.@.@.X.E  .+.R j o.#. .P  .@.@.@.*.+.X.E X.R :.o.",
" .t.@.e.3.3.>.@.+.2.2.+.+.>.*.E W #.+.U R @.*.+.E  .E P  . .#.G ",
"+.p.@.2.@.2.*.U R +.@.X.X.@.X.P Q <.3.X.R X.@. .@.@.X.U @.3.y.L ",
"K +.@.2.>.3.*.U  .X.+.*.2.>.R j Q 1.g.t.@.>.e.*. . .E P +.@.o.s ",
"K U e.p.p.e.>.@.>.>.3.i.f.e.X.P Y O.p.p.>.3.t.2.@.@.>.*.e.>.#.g ",
"R F >.*.@.K K X.E  .@.2.*. .R R z I >.2.X.X.+.R R U R R X.E O.H "
};
