/* XPM */
static char *result[] = {
/* columns rows colors chars-per-pixel */
"32 32 149 2 ",
"   c #1B192C",
".  c #1F1F34",
"X  c #1F2035",
"o  c #22253C",
"O  c #23253C",
"+  c #24263E",
"@  c #25273E",
"#  c #2B2A38",
"$  c #2B2A39",
"%  c #36343B",
"&  c #37353D",
"*  c #44433F",
"=  c #262B44",
"-  c #272B44",
";  c #282C45",
":  c #2C2F45",
">  c #2F3141",
",  c #2B314C",
"<  c #2C314C",
"1  c #2C324D",
"2  c #2D324E",
"3  c #313547",
"4  c #3B3A44",
"5  c #3B3B45",
"6  c #393B46",
"7  c #3C3F4A",
"8  c #303855",
"9  c #353B56",
"0  c #363C57",
"q  c #383D50",
"w  c #383D55",
"e  c #393F57",
"r  c #353E5D",
"t  c #353E5E",
"y  c #3F414B",
"u  c #3E404C",
"i  c #3E414C",
"p  c #3F414D",
"a  c #37405D",
"s  c #3A4058",
"d  c #3A4466",
"f  c #3C4665",
"g  c #464541",
"h  c #474642",
"j  c #474644",
"k  c #464447",
"l  c #494844",
"z  c #4A4945",
"x  c #494846",
"c  c #4A4947",
"v  c #4B4A46",
"b  c #4C4B47",
"n  c #484648",
"m  c #4B4A48",
"M  c #4C4B49",
"N  c #4D4C48",
"B  c #4E4D49",
"V  c #4D4C4A",
"C  c #4E4D4B",
"Z  c #4F4E4A",
"A  c #4F4E4C",
"S  c #4C4D4F",
"D  c #504F4B",
"F  c #504F4D",
"G  c #51504C",
"H  c #52514D",
"J  c #51504E",
"K  c #52514F",
"L  c #53524E",
"P  c #54534F",
"I  c #454752",
"U  c #434757",
"Y  c #464854",
"T  c #464955",
"R  c #444856",
"E  c #4C4C51",
"W  c #464A5A",
"Q  c #535250",
"!  c #545351",
"~  c #555450",
"^  c #565551",
"/  c #555452",
"(  c #565553",
")  c #575652",
"_  c #575654",
"`  c #585753",
"'  c #585755",
"]  c #595854",
"[  c #5A5955",
"{  c #595856",
"}  c #5A5957",
"|  c #5B5A56",
" . c #5C5B57",
".. c #505258",
"X. c #53545A",
"o. c #53565D",
"O. c #5B5A58",
"+. c #5C5B59",
"@. c #5D5C58",
"#. c #5E5D59",
"$. c #5D5C5A",
"%. c #5E5D5B",
"&. c #5F5E5A",
"*. c #585B5F",
"=. c #5F5E5C",
"-. c #605F5D",
";. c #414860",
":. c #444B61",
">. c #464D61",
",. c #404965",
"<. c #414B67",
"1. c #424D6E",
"2. c #424E6F",
"3. c #444F6E",
"4. c #4D5362",
"5. c #4F5563",
"6. c #49526A",
"7. c #49536F",
"8. c #505564",
"9. c #505665",
"0. c #585B60",
"q. c #535A68",
"w. c #565D6A",
"e. c #565D6B",
"r. c #575E6B",
"t. c #4B5571",
"y. c #4A5777",
"u. c #52607F",
"i. c #59647B",
"p. c #7C7C7A",
"a. c #7D7D7B",
"s. c #7E7E7C",
"d. c #7F7E7D",
"f. c #807F7E",
"g. c #83827F",
"h. c #5A6988",
"j. c #707586",
"k. c #7B7D84",
"l. c #848381",
"z. c #848482",
"x. c #81848B",
"c. c #828998",
"v. c #9A9FB1",
"b. c #A7A7A6",
"n. c #AAAAA9",
"m. c #ABABAA",
"M. c #AEB6C5",
"N. c #D5D4D4",
"B. c #D7D7D6",
/* pixels */
"x A / / ! J M A A Q ' _ / C J m D Z L ) ~ ) ` ~ H z v B ~ H * h ",
"J / ' { O.{ Q K } { } ' ' Q / M N L [ @.[ [  .@.~ L N Z ` | ^ B ",
"! _ ' { O.{ ( / } _ / / { ' } A P | &.@.| ` ) ] ^ ) L [ [ ~ | ` ",
"J _ _ ( / Q / ( Q J J J ( _ O.K ^ ] ) ^ ] ] ^ ^ @.P G  .#.` ^ B ",
"A ' _ ( / K ! ! K Q ! F J J { ! P ) P H ` ] P L ) P ] ` ) [ H h ",
"F ' ! ( _ ! ! C ! / / A C A ' ! D ~ ) ~ ^ ~ H D Z G  .) G G N G ",
"K } Q ! / K ! C Q Q K C o.Y & I q.e.0.) ^ ` ` ~ L Z Z L ) P D H ",
"/ =._ ! K A _ / K J p.x.i.t.s e w ,.6.k.g.] [ L D ) G H ` ) ) H ",
"! } / ( C Q / J J f.N.M.h.7.w : X 1 d v.B.z.( ' O.{ ! ! Q Q Q M ",
"( +.' } ! ! ! / A n.b.c.u.9 X X . < d j.b.m.l.} =.O.( _ ' _ Q j ",
"K { / _ / Q ! } $.a.F 8.1.2 . . X 1 r R ( s.d.' ! ! Q ' O.O._ M ",
"Q +.' ( ' / ' -.$.A V 9.2.2 X X . < 8 i Q / K K C Q ( ' ( ! ! C ",
"K %.} / _ / _ } _ Q J 4.1.2 . . X 1 8 u Q _ ! F F ( ' ' K F ! J ",
"M _ ' Q _ ! ( Q } _ Q W d 2 X X . - , p ( +.' / ! ( / / K K / F ",
"V K / ! ' / { / / Q K ..;.t ; . + ; 3 E ( { ( _ ( ( ! ! F A A j ",
"A C F F ! F ( K A J M m U d 2 X < 8 6 ! K K C K M A J Q F A F c ",
"N b H  .P H D D ) l v D 5.2.2 . - , 7 ! A K K K C A / ' ! F V c ",
"N D L [ ) ] ~ H ^ B D G r.y.2 X o = u ( / _ / ( K K ( { { ' / F ",
"Z ] ] ] ~ ` H D L G L D w.y.2 . O o 4 ( ' { ( _ / Q ! ( { +.} K ",
"l ) ] ) P ) P ) ) ^ ) ) *.>.; X o > n / ' ' ! _ ( Q J K / { ' F ",
"b ^ ) ` ~ ) L ` ] ~ ^  .| y = X   5 _ ( ' ( ( { ' / Q Q Q ( ( F ",
") ` ~ ` ^ ^ D H ) H H  .X.:.<.0 @ # k _ _ / ' { ' ( ( ( ! ! / Q ",
") ) ~ ] ~ ` ^ ~ ` ) ) @.T f 3.a , X % ' ( ! } _ _ ! / _ ! J J K ",
"|  .#.&.P ^ ) ) ) | ] ] S q , o . $ n O.( ! } / ( K ! ' Q C C A ",
"Q { =.! O.' K ( _ { } { _ _ _ ( P ^ ! / { _ ! ' { K Q { { M G ~ ",
"Q _ ( F ! ! Q } _ _ / ! / ( J M ^ ) Q K / / Q / } Q K ! ! C ) [ ",
"C / J Q / ! / } ( ( ! K Q / J x ~ ) Q A Q ( ( ( _ / ! K ! J ` ~ ",
"Q +.( O.} } ' ( / { { / / ' _ K L ) / F J ( _ / K Q K A Q Q ) N ",
"/ %.( { ( { _ F J / ( ! ! ( ! A P ] } ! J ! ( Q ( ( ! F ( } @.Z ",
"C / ( { ' } _ F Q ! / _ { ' J x P [ -.+.( ' O._ Q Q K A / ( ~ g ",
"C F O.%.%.O.' ( ' ' } $.=.O.! A G ^ %.%.' } +.{ ( ( ' _ O.' ) l ",
"J M ' _ ( C C ! K Q ( { _ Q J J b D ' { ! ! / J J F J J ! K ^ B "
};
