/* XPM */
static char *result[] = {
/* columns rows colors chars-per-pixel */
"32 32 154 2 ",
"   c #33381D",
".  c #701F15",
"X  c #751E1D",
"o  c #5A2A0D",
"O  c #4F3216",
"+  c #523317",
"@  c #5B3214",
"#  c #523419",
"$  c #5B341B",
"%  c #54381E",
"&  c #652B0F",
"*  c #6E2214",
"=  c #612B12",
"-  c #682E18",
";  c #73201F",
":  c #7A2B1D",
">  c #76321E",
",  c #761A26",
"<  c #7D1B23",
"1  c #4E3C26",
"2  c #513825",
"3  c #593822",
"4  c #5B3D30",
"5  c #772124",
"6  c #663426",
"7  c #72312E",
"8  c #792635",
"9  c #683A37",
"0  c #55402A",
"q  c #43433A",
"w  c #4C4838",
"e  c #564538",
"r  c #5C493E",
"t  c #04476B",
"y  c #174D68",
"u  c #335B6C",
"i  c #32647B",
"p  c #474643",
"a  c #4A4946",
"s  c #4E4D4A",
"d  c #544B44",
"f  c #594E45",
"g  c #504F4D",
"h  c #52514E",
"j  c #5B5049",
"k  c #434F52",
"l  c #4C5658",
"z  c #4C5A5B",
"x  c #555452",
"c  c #585754",
"v  c #5A5956",
"b  c #505658",
"n  c #515D5B",
"m  c #5D5C59",
"M  c #784E4E",
"N  c #635C5B",
"B  c #7A5659",
"V  c #4D5F66",
"C  c #4A626B",
"Z  c #596869",
"A  c #636E71",
"S  c #62777D",
"D  c #64797E",
"F  c #8E191E",
"G  c #9F1D14",
"H  c #951B1A",
"J  c #AD0304",
"K  c #A11A15",
"L  c #AB1813",
"P  c #A81A1B",
"I  c #B31314",
"U  c #B1131A",
"Y  c #BB101B",
"T  c #8A2414",
"R  c #992318",
"E  c #8D0F2F",
"W  c #970E2D",
"Q  c #801926",
"!  c #87132C",
"~  c #8A0F30",
"^  c #940E34",
"/  c #9C0E34",
"(  c #9C023C",
")  c #9A0839",
"_  c #941034",
"`  c #BD0E25",
"'  c #A91A24",
"]  c #B61C23",
"[  c #AB0535",
"{  c #A3013D",
"}  c #AC0038",
"|  c #BC0032",
" . c #862B26",
".. c #932624",
"X. c #972D36",
"o. c #B3252E",
"O. c #B02430",
"+. c #B32934",
"@. c #CC0116",
"#. c #CD0119",
"$. c #C30C1C",
"%. c #CA0E1E",
"&. c #D30916",
"*. c #D3031D",
"=. c #DA001F",
"-. c #C6131E",
";. c #CC0B22",
":. c #C9032A",
">. c #D50322",
",. c #DB0124",
"<. c #D40A25",
"1. c #D20028",
"2. c #DC0629",
"3. c #D90829",
"4. c #C31726",
"5. c #CD1124",
"6. c #C40130",
"7. c #B11B43",
"8. c #A4234D",
"9. c #8D4144",
"0. c #AA4E51",
"q. c #805F63",
"w. c #035885",
"e. c #1A79A8",
"r. c #0477B2",
"t. c #0479B3",
"y. c #2277A0",
"u. c #237EAB",
"i. c #3478AD",
"p. c #637B81",
"a. c #1381B3",
"s. c #6A848A",
"d. c #718D95",
"f. c #77949E",
"g. c #0787C8",
"h. c #0788C9",
"j. c #138AC4",
"k. c #1E89C8",
"l. c #1992CD",
"z. c #078ED2",
"x. c #069EEA",
"c. c #07A7F5",
"v. c #06A8F8",
"b. c #87858C",
"n. c #8CADB9",
"m. c #93B5C2",
"M. c #95B9C7",
"N. c #9BC0CF",
"B. c #9CC1D0",
"V. c #BAC5C8",
"C. c #CACFD0",
"Z. c #CDE3E9",
"A. c #D1E9F2",
"S. c #E5F5F9",
/* pixels */
"a s x x x g s g s x c c x s h k i k h x j c c x h w s s x h q w ",
"h x c c m c x g v c v c c b b y.h.y C m v v m m x h w s v v n s ",
"x c c c m v x x v c x b c b u.g.w.t.l.V v c c v c c h v m h v c ",
"g c c x x h x b h h h h b e.z.w.t.v.j.z c c x x m h h m v c c a ",
"s c c x x h x x h h x s e.x.t r.v.j.l h c c h h x x c c c c h w ",
"s c x x x x x s x x x s u t t.c.a.q h x h h h g g f v c h h a g ",
"x v x x x x x s h h f   5 8 k.i.X.' 1 w x v v h h g s h v h g h ",
"b N b x s s x x f 1 : -.%.2.8.7.,.<.-.R % r c j g x h h x x c h ",
"x c x x s h x d 3 T $.2.>.;.;.<.5.5.2.3.G @ r c v v h h h h h s ",
"x m c m x x x w - ;.>.%.O.9.9.9.0.0.4.3.>.T 0 j v v x c m c l w ",
"h v x x x h h 6 T &.+.B b.m.m.m.Z.C.q.0.&.] & > w h x v m m c a ",
"x m v x v x h % %.o.b.B.N.B.B.B.A.S.S.V.X.3.K U R r x v x x h g ",
"h m v x c x f  .Y q.B.N.B.B.B.B.B.A.A.Z.f.J ] U >.= c c h h h h ",
"s b x x x x + 5.#.M n.B.B.B.B.B.B.B.N.M.p.J 3.G Y = x x h h x h ",
"s x x x c x # ;.@.9 s.n.B.B.N.N.N.N.M.f.z J >.G Y = x x g s s p ",
"s s s s x g # :.@.9 S s.f.f.f.f.f.f.d.s.n J ,.G Y = h l g g g a ",
"d a h v h h O %.,.U N p.S p.p.p.D D D Z ..>.>.P Y & x c x s s a ",
"a h h v c v O %.,.,.] 2 N S S S S A r ..*.,.*.H W = c c c c x h ",
"g c v v h v + %.,.,.,.@.' 7 7 7 7  .$.*.,.>.>.H E = x b c m v h ",
"w c v x h c + ` ,.,.,.,.*.#.*.*.#.*.,.,.,.,.;.F E = s h x v c g ",
"a h v c v c @ / 6.,.>.,.,.,.,.,.,.,.,.>.,.1.[ Q ~ = x h x x x s ",
"v v h c h x @ _ { 6.=.,.,.$.L L L I >.,.1.} ) Q ~ * x x x x x x ",
"x c h m h v $ ^ ( { | 6.| W , o , < | | } ( ( X , 4 x c b g g g ",
"v m m m h x $ ^ ( ( ( ( ( ( ( . ( 7.( ( ( ( ) , 4 h x b x s s g ",
"h m m h m c $ ; ) ( { ( 7.( ( * ( ( ( ( ( ( ! - f h x c c a h x ",
"h c x g h n f $ ^ ) ) ) ( ( ) * ^ ) ( ) ) ( 5 4 c h h x x s x v ",
"g h h h x h c f $ = = = o @ = o = = = = = = e x h v h h x h v h ",
"h m c m v v v x x v v x h c c x h c x s x c x x h h h h h h x s ",
"x N b v c v c g h x x h x c h g h v v x g x x x c x x h x m m s ",
"s x c v c v c g x x x b c b h a x v N m c c m b x h h s x x h p ",
"s h v m m v c c c c m m N v h g g x m N c c v v x x v x v v v p ",
"h a c v x s s x h h x v b x h h a h c v x x c s x s h h h h c s "
};
