/* XPM */
static char *result[] = {
/* columns rows colors chars-per-pixel */
"32 32 148 2 ",
"   c #33381D",
".  c #3F2D3E",
"X  c #701F15",
"o  c #751E1D",
"O  c #5A2A0D",
"+  c #4C3316",
"@  c #493619",
"#  c #5B3214",
"$  c #523419",
"%  c #5B341B",
"&  c #54381F",
"*  c #6E2214",
"=  c #612B12",
"-  c #682E18",
";  c #73201F",
":  c #7A2B1D",
">  c #76321E",
",  c #761A26",
"<  c #7D1B23",
"1  c #413B26",
"2  c #4B3B24",
"3  c #493F28",
"4  c #503521",
"5  c #593822",
"6  c #52392B",
"7  c #5B3D30",
"8  c #772124",
"9  c #72312E",
"0  c #683A37",
"q  c #4B4235",
"w  c #44433F",
"e  c #4C4838",
"r  c #564538",
"t  c #5C493E",
"y  c #2E5156",
"u  c #034F77",
"i  c #04537E",
"p  c #474643",
"a  c #4A4946",
"s  c #4E4D4A",
"d  c #544B44",
"f  c #594E45",
"g  c #504F4D",
"h  c #52514E",
"j  c #5B5049",
"k  c #4D5C59",
"l  c #555452",
"z  c #585754",
"x  c #5A5956",
"c  c #515D5B",
"v  c #5D5C59",
"b  c #784E4E",
"n  c #635C5B",
"m  c #7A5659",
"M  c #596869",
"N  c #62777D",
"B  c #64797E",
"V  c #8E191E",
"C  c #9E1E15",
"Z  c #951B1A",
"A  c #AD0304",
"S  c #BB0F1C",
"D  c #AD1616",
"F  c #A11A15",
"G  c #AB1813",
"H  c #B31314",
"J  c #B2141B",
"K  c #BB101B",
"L  c #842510",
"P  c #8F2317",
"I  c #982112",
"U  c #8D0F2F",
"Y  c #970E2D",
"T  c #87132C",
"R  c #8A0F30",
"E  c #940E34",
"W  c #9C0E34",
"Q  c #9C023C",
"!  c #9A0839",
"~  c #941034",
"^  c #BD0E25",
"/  c #A91A24",
"(  c #B61C23",
")  c #A3013D",
"_  c #AC0038",
"`  c #BC0032",
"'  c #BC1437",
"]  c #862B28",
"[  c #932624",
"{  c #9C2A31",
"}  c #B3252E",
"|  c #AA2337",
" . c #B22934",
".. c #CC0116",
"X. c #CD0119",
"o. c #C40C1C",
"O. c #CB0D1F",
"+. c #D30917",
"@. c #D3011D",
"#. c #DA001F",
"$. c #C6141F",
"%. c #CD0525",
"&. c #C90D21",
"*. c #C4002E",
"=. c #D40322",
"-. c #DB0124",
";. c #D30428",
":. c #DE072A",
">. c #D90829",
",. c #C40130",
"<. c #A74F53",
"1. c #805F63",
"2. c #045481",
"3. c #077CB9",
"4. c #087CB9",
"5. c #3172A8",
"6. c #4F659D",
"7. c #406B9D",
"8. c #637B81",
"9. c #446CA7",
"0. c #9F7E80",
"q. c #0680BF",
"w. c #2681B9",
"e. c #6A848A",
"r. c #718D95",
"t. c #6F929B",
"y. c #77949E",
"u. c #5195B4",
"i. c #0C81C1",
"p. c #088BCE",
"a. c #30A1D7",
"s. c #31A3D9",
"d. c #12A5EA",
"f. c #07ABFB",
"g. c #08A9F9",
"h. c #68ACCB",
"j. c #81838A",
"k. c #8CADB9",
"l. c #94B7C5",
"z. c #99BFCD",
"x. c #9BC0CF",
"c. c #9BC1D0",
"v. c #BAC5C8",
"b. c #C4C9CA",
"n. c #C1DEEA",
"m. c #CAE3EF",
"M. c #D2E9F2",
"N. c #E3F4F8",
/* pixels */
"a s l l l g s g s l x l l g g a g g g l h z x h f e e g k h e w ",
"h l z z v z l g x z x z z h l s s h x v x x x v l k s s x x l s ",
"l z z z v z l l x z l l x z v s l x v v x z z x z z h x x h x z ",
"g z z l l l l l l g g g l z v h l z z z x z l z v h f x v z l s ",
"g c l l l h l l h l l g g g z l h l h h z z h h x x x l x x g w ",
"g l l l l l l s l h l g 6 + @ 1 y 2 h l z h h d g e v l h f s g ",
"h x l l l h l s h l d   9 ( { 7.p.. q e j x z l h g g h z h s h ",
"l n l l l s l l d 2 : $.%.' 6.i.i 3.6.] & t x h h l g h z z z h ",
"l c l l s h l d 5 L &.:.^ 9.4.2.q.f.9.' C # t z x x h h h h h s ",
"l v z x l l l e - &.=.o.5.q.u i.g.w.| O.;.I 3 j x x k z x z h p ",
"h z l z l l j 5 P +. .m u.u p.f.a.b.0.<.+.J = > e h h x v v z s ",
"h n z l z l l & &.} j.z.z.u.d.s.n.N.N.v.{ :.C J I t z x l l h s ",
"h n x z z h d ] K 1.c.x.c.x.h.h.x.m.M.m.y.A ( H %.= z z h h l g ",
"a c z h z l $ &.X.b k.c.c.c.c.c.x.x.x.l.B A >.C S = l l h h l g ",
"s h l l z l 4 %.X.0 e.k.c.c.c.c.x.x.l.y.k A -.F S = l h h s s p ",
"s s h g h g 4 %.X.0 N e.t.y.y.y.y.y.r.e.k A >.F S = h l g s s s ",
"s a j x h h + O.-.J x 8.B 8.8.8.N 8.8.M [ =.=.F K = l z l s s s ",
"s g h x z z $ O.-.#.( 6 n N N N N M t [ @.-.=.Z Y = z z z z l s ",
"s x z x h x $ O.-.-.-.../ 9 9 9 9 ] o.@.-.-.=.Z U = l l z v z l ",
"e z x z h z $ ^ -.-.-.-.=...X.@.X.@.-.-.=.-.%.V U = s l l z z g ",
"s h z z h z # W ,.-.-.-.-.-.-.-.-.-.-.-.-.;._ < R = l l l l l h ",
"l z h z z h # ~ ) *.#.-.-.o.G D D J =.#.;._ ! < E = l l l h l h ",
"z z z z l z % E Q ) ,.` ` Y , O , T ` ` _ Q Q < , 7 l l l l h h ",
"x v v v h l % E Q Q Q Q Q Q Q X Q ) Q Q Q Q ! o 6 g l l l s s s ",
"h x v k x x % ; Q Q ) Q ) Q Q * Q Q Q Q Q Q R - f h g z z s g l ",
"h z z g h l f - R Q ! ! ! Q ! * E ! Q ! ! Q 8 r z l l l l g z z ",
"s z h h l h h j % = = = = = = # = = = = = = 7 l l l l g l s z l ",
"h x z x x v z z l v z l z z z h l z l g h z z l g l g g l l l s ",
"l v z z z z z g g l l l l l l g l z x l g l l h l l l s l z v s ",
"s l l v z x z g g l l x x z h p h z v v z z c z l l l s l l l p ",
"s g v v v c z z z x c v v v l s g z v v z z v x l l z z v z l a ",
"g s z z z s s h g l z x l l h h a g z v l l l g h s h s l h l s "
};
